<?xml version="1.0" encoding="utf-8"?>
<!-- Generator: Adobe Illustrator 19.1.0, SVG Export Plug-In . SVG Version: 6.00 Build 0)  -->
<svg version="1.1" id="Layer_1" xmlns="http://www.w3.org/2000/svg" xmlns:xlink="http://www.w3.org/1999/xlink" x="0px" y="0px"
	 width="600px" height="44.6010208px" viewBox="0 0 600 44.6010208" style="enable-background:new 0 0 600 44.6010208;"
	 xml:space="preserve">
<style type="text/css">
	.st0{fill:#C2B8AF;}
</style>
<path class="st0" d="M283.5075073,15.4024v0.2845001l0.5747986,0.8532c-2.946106,0-5.2456055,0.5685005-6.8983154,1.7057991
	c-1.4371948,1.9904003-3.2578125,2.9857006-5.4612122,2.9857006c-3.0662842,0-4.598999-0.6159-4.598999-1.8479996
	c0.09552-0.2369003,1.2452087-0.7112007,3.4492188-1.4221001l-4.8862915-1.7059994v0.1424999l-0.1437073,0.1420994v1.7057991
	l-0.1437988,1.7061005c0.9100037,1.3269997,3.0657959,1.9902,6.4672852,1.9902c2.8260193,0,4.7903137-0.5207005,5.892395-1.5639992
	c1.3411255-1.9904003,3.640625-2.9854012,6.8983154-2.9854012c0.4311829,0,1.0061035,0.8530998,1.7246094,2.5592003v0.1422997
	l-0.8623047-0.7106991l-0.5749207,0.5683994c-0.934082,0.9008007-2.6109924,1.5639-5.0299988,1.9902v0.284399
	c1.8200073,0,3.6884155,0.8052006,5.6049194,2.4173012h0.287384c0.047821-0.3796005,0.1914978-0.5688,0.4312134-0.5688
	l-1.2935181,2.7008991c-3.2817993,0-5.4852905-0.8055992-6.6109009-2.4167004
	c-1.0059814-1.4216995-3.1616821-2.1327-6.4671936-2.1327c-3.6412048,0-5.7969055,0.7110004-6.4672852,2.1327l0.1437988,1.5636005
	v1.8486996c0.4310913,0,2.1073914-0.4743996,5.0299988-1.4216995v-0.1424999
	c-2.20401-0.7582989-3.3536987-1.2320995-3.4492188-1.4218006c0-1.2318993,1.4849243-1.8479996,4.4553223-1.8479996
	c1.5567017,0,2.8023987,0.331501,3.7366028,0.9950008c1.6763,2.4643993,4.598877,3.6966991,8.7666016,3.6966991v0.1422997
	l-0.5747986,0.7108002c0.8381958,0.5445004,5.0536804,2.3929005,12.6470947,5.5447998h0.1436768V33.8848l-0.2874756-0.4263
	c-3.4013977-4.1942997-5.7008972-7.7966003-6.898407-10.8052998c0.7663879-0.2845001,1.4848938-0.4266014,2.1557922-0.4266014
	v-0.284399l-2.2994995-0.5683994c0.742218-2.2749996,3.1853943-6.0185003,7.3295898-11.2315006V10L283.5075073,15.4024z
	 M298.0228882,10.1422997c4.1436157,5.2130003,6.586792,8.956501,7.3294983,11.2315006l-2.2994995,0.5683994v0.284399
	c0.6703186,0,1.388916,0.1421013,2.1557922,0.4266014l-0.2874756,0.4263c-0.9105225,2.5823994-3.210022,6.1847-6.8983154,10.8052998
	v0.1423988c7.7842102-3.1757984,12.0480042-5.0240993,12.7907104-5.5447998L310.2388,27.7715988v-0.1422997
	c3.0180054,0,5.3652039-0.6163998,7.0420837-1.8480988c1.3652039-1.8963013,3.1376038-2.8436012,5.3174133-2.8436012
	c3.0657959,0,4.598999,0.6161003,4.598999,1.8479996c-0.0960083,0.1897011-1.2458191,0.6635017-3.4492188,1.4218006
	c0,0.213501,1.6286011,0.7343006,4.8864136,1.5641994h0.1437073v-1.8486996l0.1437073-1.7056999
	c-0.8865051-1.3272991-3.0422058-1.9906006-6.4673157-1.9906006c-2.6109924,0-4.5752869,0.4739017-5.8923035,1.4218006
	c-1.2215881,2.0848999-3.569397,3.1275997-7.0420837,3.1275997c-0.2156067-0.0471001-0.6950073-0.9004002-1.4372253-2.5587997
	v-0.1420994c0.2874146,0,0.4312134,0.1891994,0.4312134,0.5688h0.2874146
	c1.9159851-1.6121006,3.7842712-2.4173012,5.6048889-2.4173012v-0.284399h-0.1437073l-0.1437073-0.1420994
	c-1.7728882,0-3.5451965-0.8052006-5.3174744-2.4165001l-0.8623047,0.7106991
	c0.287384-0.9475994,0.7662964-1.8484001,1.4371948-2.7014999c2.6103821,0,4.5270081,0.4745007,5.7485962,1.4216995
	c1.3169861,2.0852013,3.6647949,3.1277008,7.0421143,3.1277008c3.8561707,0,6.1079712-0.7105999,6.7546997-2.1324997
	l-0.1437073-1.5638008v-1.8478985l-0.1437073-0.1424999l-4.8864136,1.5637989v0.1422005
	c2.2033997,0.7108994,3.3532104,1.1851997,3.4492188,1.4221001c0,1.2320995-1.4855042,1.8479996-4.4552002,1.8479996
	c-1.7488098,0-2.9945068-0.3787994-3.7366028-1.1373005c-1.7728882-2.3690987-4.6950073-3.5541992-8.7666931-3.5541992
	l0.5747986-0.8532V15.4024L298.1665955,10h-0.1437073V10.1422997z M289.9747009,16.1133995l-1.8683167,4.4073009h-0.287384
	l-1.4371948-3.4120998l1.5808716-2.5594006L289.9747009,16.1133995z M307.9393005,17.1086006l-1.4371948,3.4120998h-0.2874146
	l-1.8682861-4.2651997l1.8682861-1.7063007C306.3819885,14.5731001,306.9568787,15.4261999,307.9393005,17.1086006
	L307.9393005,17.1086006z M249.3029938,18.2458992v0.2848015l5.6049957,0.7103996v0.1424999
	c-4.5513,0.5683994-8.8150024,0.8526993-12.790802,0.8526993c-2.1557922-1.3267994-4.6949005-1.9904003-7.6169891-1.9904003
	c-6.5632019,0-10.3957977,0.9483013-11.4972992,2.843401L20.5513992,21.2315998l-0.2873993-0.2845993v-0.1417007
	c0-0.1896,0.5265007-0.4270992,1.580801-0.7110004v-0.1422997c0-0.1655998-0.7668018-0.4027996-2.2994003-0.7108994
	l-0.2875004,1.7059002l0.2875004,0.4267998l-8.6230001-1.1375008l-0.2875004,0.2844009v1.2793999l-0.4310999-0.1421013
	C8.6705999,21.4927006,7.1856999,20.7341003,5.7486,19.3836002C4.7902999,20.5685997,2.8743,21.4214993,0,21.9421997v0.284399
	L1.1497,22.3687c2.8743,0.8293991,4.3115001,1.5874004,4.3115001,2.2751999H5.7486
	C7.5686002,23.1269989,9.1494999,22.3687,10.4912004,22.3687h0.1436996v1.421999l0.1437998,0.141901l8.6229992-1.1375008h0.1437016
	l-0.2875004,0.5692005l0.2875004,1.5636997c1.5325985-0.2611008,2.2994003-0.4977989,2.2994003-0.7108002v-0.1420994
	c-1.0543003-0.261301-1.580801-0.4974003-1.580801-0.7108002v-0.2847996l0.1436996-0.141901l202.4514923,0.141901
	c1.293396,1.8957996,5.1255035,2.843399,11.4972992,2.843399c3.2095032,0,5.748703-0.6632004,7.6170044-1.9902992
	c6.3235016,0.1896,10.6349945,0.473999,12.934494,0.8529987v0.1424007l-5.6049957,0.7108994v0.2840004l8.7667084,1.8486996
	l0.287384-0.2845993v-2.1327l5.4613037,0.7110004l0.2874146-0.2840996v-3.2701015L263.9620972,22.3687l-7.0421143,0.8533001
	c-2.9461975-0.6639004-6.0601959-0.9954014-9.3415833-0.9954014h-1.4372101c-2.7789001,0-4.8385925,0.2845001-6.1797943,0.8529015
	l-17.9645081-0.8529015v-0.1418991c0-0.2133007,5.9878082-0.544899,17.9645081-0.9953995
	c1.3412018,0.5686989,3.4008942,0.8528996,6.1797943,0.8528996h1.2935028c3.5211029,0,6.5868073-0.3314991,9.1978149-0.9951992
	l7.1858826,0.8530998l0.2874146-0.2842007v-3.2700005l-0.1437073-0.1422997l-5.605011,0.7108994v-2.2743988l-0.1437073-0.1420994
	L249.3029938,18.2458992z M335.9639893,16.6819992v2.1324997l-5.605011-0.7108994v0.1422997l-0.1436768,0.141901v3.2701988
	l0.1436768,0.1421013l7.0421143-0.8530998c3.041687,0.6637001,6.2034912,0.9951992,9.4852905,0.9951992h1.2935181
	c2.7782898,0,4.8381042-0.2842007,6.1797791-0.8528996l1.4371033,0.1422997
	c11.0179138,0.2611008,16.5274048,0.5926991,16.5274048,0.9949989l-17.9645081,0.8529015
	c-1.3416748-0.5684013-3.4014893-0.8529015-6.1797791-0.8529015h-1.4372253c-3.4255981,0-6.491272,0.331501-9.1977844,0.9954014
	L330.5027771,22.3687l-0.2874756,0.2845001v3.2696991l0.1436768,0.1424007l5.605011-0.7110004v2.2749996l0.1437073,0.1422997
	l8.9104004-1.8486996v-0.2840004l-5.6049194-0.7108994v-0.1424007c2.299408-0.3789997,6.6109009-0.6633987,12.9345093-0.8529987
	c1.8919067,1.3270988,4.3833008,1.9902992,7.4732056,1.9902992c5.7963867,0,9.4370117-0.7106991,10.9224854-2.1322002
	c0-0.5686989,205.3760071-0.8530998,208.5378113-0.8530998c0.2874146,0,0.4310913,0.0942001,0.4310913,0.2844009v0.1422997
	c0,0.2133999-0.5270996,0.4494991-1.5808716,0.7108002v0.1420994c0,0.1893997,0.7185669,0.4267006,2.1557007,0.7108002
	c0.1914673,0,0.3352051-0.5687008,0.4311523-1.7059994l-0.2873535-0.4269009l8.7666626,1.1375008v-0.141901l0.1437378-0.1422997
	V22.3687h0.1436768c1.3411865,0,2.9221191,0.7582989,4.7426758,2.2751999h0.2874146l0.1437378-0.4267006
	c1.9636841-1.3272991,3.7365723-1.9906006,5.3174438-1.9906006v-0.284399
	c-2.8742676-0.5207005-4.7908936-1.3736-5.7485962-2.5585995c-1.8683472,1.6112995-3.4974976,2.4165001-4.8863525,2.4165001
	v-1.4218998l-0.1437378-0.141901l-8.6229858,1.1375008h-0.1436768l0.2873535-0.5685005l-0.2873535-1.5641994
	c-1.5331421,0.3080997-2.2994995,0.5452995-2.2994995,0.7108994v0.1422997
	c1.053772,0.2839012,1.5808716,0.5214005,1.5808716,0.7110004v0.1417007l-0.2874756,0.2845993l-207.9629211-0.1422997h-0.1437073
	c-1.1496887-1.8950996-4.9346008-2.843401-11.3535767-2.843401c-3.1859131,0-5.7250061,0.6636009-7.6169128,1.9904003
	c-4.0960083,0-8.4075012-0.2842999-12.9345093-0.8526993v-0.1424999l5.4612122-0.7103996h0.1437073v-0.2848015l-8.6230164-1.8478985
	C336.1076965,16.3980007,335.9639893,16.4927998,335.9639893,16.6819992L335.9639893,16.6819992z M225.1585999,20.6627998
	c0.8381958-1.1375008,3.4250946-1.7059994,7.7606964-1.7059994h1.0059967c2.1316071,0,3.6647949,0.474699,4.598999,1.4214001
	l-13.5093994,0.5688h-0.143692L225.1585999,20.6627998z M360.3957825,18.9568005h1.5808105
	c4.047699,0,6.5391846,0.6634998,7.4732971,1.9902l-13.6531067-0.5688
	C356.7309875,19.4314995,358.2635803,18.9568005,360.3957825,18.9568005L360.3957825,18.9568005z M253.758194,20.5207005h0.143692
	v0.1420994c-1.7728882,0.3792-4.1199951,0.6161995-7.042099,0.7110004l-3.1616974-0.2845001v-0.1422997L253.758194,20.5207005z
	 M340.706604,20.5207005l9.9164734,0.4263v0.1422997l-3.1617737,0.2845001
	c-2.9226074-0.0948009-5.2698059-0.3318005-7.0421143-0.7110004v-0.1420994H340.706604z M246.859787,22.7950993
	c2.9698029,0.0948009,5.3176117,0.3318996,7.042099,0.7110996v0.1422005h-0.143692l-10.0601044-0.4263992v-0.1424999
	L246.859787,22.7950993z M347.4613037,22.7950993l3.1617737,0.2844009v0.1424999l-10.0601807,0.4263992h-0.1437073v-0.1422005
	C342.1437988,23.1269989,344.4909973,22.8899002,347.4613037,22.7950993L347.4613037,22.7950993z M238.524292,23.790699
	c-0.9342041,0.9476013-2.467392,1.4215012-4.598999,1.4215012h-1.5807953c-4.0959015,0-6.5874023-0.6637001-7.4732971-1.9902
	L238.524292,23.790699z M369.3061829,23.2220001h0.1437073v0.1422997l-0.1437073,0.1418991
	c-1.0778809,1.137701-3.6647949,1.7060013-7.7606812,1.7060013h-1.1497192c-2.1322021,0-3.6647949-0.4738998-4.598999-1.4215012
	L369.3061829,23.2220001z M288.1063843,23.3642998l2.0121155,4.407299l-2.0121155,1.8481007l-1.8682861-2.7012005
	C287.315979,24.5485001,287.9385986,23.3642998,288.1063843,23.3642998L288.1063843,23.3642998z M308.0829773,26.918499
	l-1.7245789,2.7012005l-2.0119934-1.7061996h-0.1437073l2.0119934-4.5492001
	C306.3819885,23.3642998,307.0050964,24.5485001,308.0829773,26.918499L308.0829773,26.918499z"/>
</svg>
