<?xml version="1.0" encoding="utf-8"?>
<!-- Generator: Adobe Illustrator 19.1.0, SVG Export Plug-In . SVG Version: 6.00 Build 0)  -->
<svg version="1.1" id="Layer_1" xmlns="http://www.w3.org/2000/svg" xmlns:xlink="http://www.w3.org/1999/xlink" x="0px" y="0px"
	 width="170px" height="90px" viewBox="0 0 170 90" style="enable-background:new 0 0 170 90;" xml:space="preserve">
<style type="text/css">
	.st0{fill:#A08E89;}
</style>
<path class="st0" d="M81.0057373,19.6114159c0,0.105402-0.0308762,0.3013-0.0915604,0.5887585
	c-0.0617523,0.2885246-0.0915604,0.5025215-0.0915604,0.6419926c0,0.0351353,0.0170288,0.3832798,0.0521622,1.046566
	c0.0170364,0.2608433-0.0170288,0.6451874-0.104332,1.1509018c0,0.0702686,0.0255508,0.218256,0.0777206,0.4450302
	c0.0532303,0.2267742,0.0787811,0.4013786,0.0787811,0.5227509c0,0.5067806-0.1224365,0.7591057-0.3662415,0.7591057
	c-0.3140793,0-0.4801636-0.2789421-0.4972-0.8368263l-0.0787811-0.4716473
	c0.0351334-0.2267723-0.008522-0.6185703-0.1298904-1.1775188c-0.1575699-0.2086735-0.3502731-0.3832798-0.5759888-0.5227509
	c-0.0702667-0.0702667-0.1405334-0.2001553-0.2097321-0.3928604c0.0170288-0.1746044-0.0479126-0.4056377-0.1959-0.6930962
	c-0.1490555-0.2885246-0.3013-0.4322548-0.4578094-0.4322548c-0.1054001,0-0.1831207,0.0617504-0.236351,0.1831226
	c-0.0692062-0.0692024-0.252327-0.1565056-0.5493698-0.2608433c-0.0873032-0.0532322-0.2086716-0.1139183-0.3662415-0.1831226
	c-0.0873032-0.0180988-0.1927109-0.0266151-0.3140793-0.0266151c-0.1927032-0.3311119-0.3406906-0.4971981-0.4450302-0.4971981
	c-0.0702667,0-0.2267761,0.0958195-0.4705811,0.2874584c-0.0702667-0.1565056-0.3140793-0.2352905-0.7324905-0.2352905
	c-0.2097397,0-0.3577271,0.0180988-0.4450302,0.0521679c-0.0873032-0.1043358-0.1746063-0.1565056-0.2619095-0.1565056
	c-0.0351334,0-0.0830383,0.0085182-0.1437225,0.0255527c-0.0617523,0.0180988-0.1096649,0.0266171-0.1447983,0.0266171
	c-0.0873032,0-0.2267761-0.0181007-0.4184113-0.0553627c-0.1916428-0.0361996-0.3311157-0.0553627-0.4184113-0.0553627
	c-0.1224365,0-0.3268585,0.0457802-0.6143112,0.1352119c-0.2874603,0.0894318-0.4918823,0.1341476-0.6143188,0.1341476
	c-0.0170288,0-0.1054001-0.0180988-0.26297-0.0542984c-0.1224365,0.1746063-0.2895889,0.2970428-0.5003891,0.3662453h-0.7622986
	c-0.1756744,0.0532322-0.347084,0.2714901-0.5131683,0.654768c-0.1671524,0.3832798-0.373703,0.5749187-0.618576,0.5749187
	c-0.1405334,0.0883675-0.2725525,0.2097397-0.394989,0.3673096c-0.0351334,0.0692043-0.0968857,0.1735401-0.1841888,0.3130112
	c-0.2278366,0.1927052-0.5003891,0.4972-0.816597,0.9166775c-0.0170288,0.0521679-0.0436478,0.1394711-0.0787811,0.2608414
	c-0.298111,0.3321762-0.4471588,0.9422283-0.4471588,1.8322887v1.0721169c0,0.0521698,0,0.1746063,0,0.3662453
	c0,0.1224365,0,0.2533894,0,0.3928604c0,0.1565056,0.0085144,0.2970428,0.0266113,0.4184132
	c0.0521698,0.4013786,0.0777206,0.6196346,0.0777206,0.6547699c0,0.0692024-0.0170288,0.169281-0.0521622,0.3002357
	c-0.035141,0.1309528-0.0521698,0.2320957-0.0521698,0.3013c0,0.1394711,0.0532303,0.3396263,0.160759,0.6015339
	c0.1075363,0.2619076,0.2140045,0.4279957,0.3215332,0.4972c0.0532303,0.1575699,0.1245651,0.2970409,0.2150574,0.4184132
	c0.0170364,0.0702667,0.0617523,0.1746044,0.1330872,0.3140755c0.1788635,0.2619076,0.2768097,0.4098949,0.2949142,0.4450302
	v1.1509018c0,0.1746044,0.112854,0.3800869,0.3396225,0.6153774c0.2267761,0.2352905,0.4280014,0.3885994,0.6026001,0.4578056
	c0.1043396,0.436512,0.2438126,0.745266,0.4184189,0.9283867c0.1735382,0.1831207,0.4790955,0.3715668,0.9156113,0.5632057
	c0.2438049,0.3832817,0.462059,0.5749207,0.6537018,0.5749207c0.0351334,0,0.1266937-0.0255508,0.2757492-0.0777206
	c0.1479874-0.0521698,0.2395477-0.0787849,0.2746811-0.0787849c0.0692062,0,0.169281,0.0436516,0.3002396,0.1309547
	c0.1309509,0.0872993,0.2310257,0.1394691,0.3013,0.1565056c0.2619019,0.0702667,0.4971924,0.1054001,0.7058716,0.1054001
	l0.7324905-0.0787849c0.488678-0.0521698,0.846405-0.0873032,1.0731812-0.1043358
	c0.1746063-0.0873032,0.3055573-0.2182579,0.3928604-0.3928642c0.3662415,0.0170364,0.6707382-0.0872993,0.9156113-0.3140755
	c0.139473,0.0873032,0.2704239,0.1309547,0.3928604,0.1309547c0.225708,0,0.4439621-0.1831207,0.6537018-0.549366
	l0.1309586-0.2885246c0.2438049-0.1565056,0.5142288-0.4354477,0.8112717-0.8368263
	c0.139473-0.1916389,0.3917999-0.4972,0.7580414-0.9156113c0.0873032-0.8197918,0.4279938-1.2296886,1.0210114-1.2296886
	c0.2789459,0,0.4184113,0.1394711,0.4184113,0.4184132c0,0.1565056-0.0702667,0.3705044-0.2097321,0.6409283
	c-0.139473,0.2704258-0.2086792,0.4673901-0.2086792,0.5887585c-0.0180969,0.0351372-0.0521698,0.0873032-0.104332,0.1575737
	c-0.2970428,0.2608414-0.5759888,0.8804741-0.8378983,1.8567734l-0.3396225,0.6803207
	c-0.1405411,0.3843422-0.4365158,0.7069359-0.8900604,0.9688454c-0.1565094,0.052166-0.4450302,0.1394691-0.8634415,0.2619057
	c-0.8197937,0.2086754-1.4223938,0.3130112-1.8056717,0.3130112c-0.1224365,0-0.4705811-0.0255508-1.0465698-0.0777206
	l-1.0465622-0.0787849c-0.3832779,0-0.9326477,0.0521698-1.6481018,0.1565056c-0.0873032,0-0.2842636-0.0596199-0.5887604-0.1820564
	c-0.3055573-0.1213722-0.5014572-0.1916389-0.5887604-0.2086754c-0.2619019-0.0170326-0.6451874-0.0958176-1.1509018-0.2352905
	c-0.2800064-0.2608414-0.5759811-0.478035-0.8900604-0.6515732c-0.0521698-0.0170364-0.2970428-0.112854-0.7324905-0.2874603
	l-0.6281509-0.6260223c-0.2267685-0.1565056-0.4450302-0.4088326-0.6537018-0.7569771
	c-0.1054001-0.1043358-0.2533875-0.2608414-0.4450302-0.4695168c-0.0702667-0.1213722-0.1224365-0.3566628-0.1575699-0.703743
	c-0.0351334-0.1043358-0.0873032-0.2438087-0.1565094-0.4184132c-0.0170288-0.1032734-0.0521622-0.2693615-0.104332-0.4950695
	c-0.1746063-0.1394711-0.384346-0.6867085-0.6281509-1.6438427c0.0351334-0.1394711,0.0170288-0.5035858-0.0521698-1.0955391
	c-0.0873032-0.73036-0.1309586-1.2520466-0.1309586-1.5650578c0-1.0966034,0.0436554-1.9398193,0.1309586-2.5307064
	c0.0340652-0.2267742,0.1650238-0.6004715,0.3917923-1.1221581c0.139473-0.1043358,0.3225937-0.2789421,0.5493698-0.5216846
	c0.139473-0.4003143,0.4801636-0.8868656,1.0210114-1.4607201c0.1043396-0.0702686,0.2789459-0.2097397,0.5227509-0.4184132
	l1.2041397-1.0433712c0.0521698-0.0351334,0.2001572-0.1298885,0.4450302-0.2863941
	c0.2959747-0.2438087,0.4876099-0.3662453,0.574913-0.3662453c0.1575699-0.1213722,0.3492126-0.2427444,0.5759888-0.365181
	c0.349205-0.1043358,0.6888351-0.1905746,1.0210114-0.2608414c0.1916428-0.0692043,0.3917999-0.1554413,0.601532-0.2608433
	c0.610054-0.1213722,0.8889999-0.1820583,0.8368301-0.1820583c0.0702667,0,0.1703491,0.0085182,0.3013,0.0255527
	c0.1309509,0.0180988,0.2310333,0.0266171,0.3002319,0.0266171c0.1054077,0,0.2704315-0.0308762,0.4972-0.0915623
	c0.2267761-0.0606861,0.3928604-0.0915604,0.4972-0.0915604c0.2619095,0,0.6451874,0.0393925,1.1519699,0.1171131
	c0.5057144,0.0787849,0.8889923,0.1181774,1.1509018,0.1181774h0.3140717
	c0.1746063-0.0170345,0.2789459-0.0266171,0.3140793-0.0266171c0.2438049,0,0.5493622,0.0787849,0.9156113,0.2363567h1.3084717
	l0.7324905,0.2086735c0.1043396,0.0521679,0.2352905,0.1224365,0.3928604,0.2097397
	C80.9099197,19.1759682,81.0057373,19.3676071,81.0057373,19.6114159z M87.7301559,36.0956154
	c0,0.1746063-0.139473,0.3662453-0.4184113,0.575985c-0.0702667,0.0170364-0.1746063,0.026619-0.3140793,0.026619
	c-0.1745987,0-0.3971176-0.0617523-0.6675415-0.1831245c-0.2704239-0.1224365-0.4748383-0.1831207-0.6143112-0.1831207
	c-0.1927032,0-0.4716492,0.0383263-0.8378906,0.1171112c-0.3662491,0.0787849-0.6451874,0.1181793-0.8368301,0.1181793
	c-0.5759811,0-0.8634415-0.139473-0.8634415-0.4184151c0-0.1575699,0.0521698-0.2533875,0.1565094-0.2885246
	c0.4535446-0.1213684,0.7857208-0.3747597,0.9943924-0.7591057c0.0351334-0.0692024,0.0606918-0.16502,0.0787888-0.2874565
	l0.3928604-3.2440338c0-0.2619076-0.0968857-0.6547699-0.2885284-1.1775208c-0.0170288-0.0351334-0.0170288-0.33111,0-0.8900585
	c0-0.2789421-0.0085144-1.0114307-0.0255508-2.1974678L84.43396,25.9962082c0-0.3662434,0.0255508-0.7324886,0.077713-1.0987339
	c0.0170364-0.3662434,0.0170364-0.7324886,0-1.0987339c-0.0170288-0.0702667-0.0255508-0.1139183-0.0255508-0.1309528
	c-0.0180969-0.0170345-0.0095825-0.0958195,0.0255508-0.2352905c0-0.1575718,0-0.3577271,0-0.6026001
	c0-0.3832798-0.142662-0.7143898-0.4279938-0.9943981c-0.1841812-0.1735401-0.3023605-0.2693596-0.3524017-0.2874584
	c-0.0330048,0-0.0883636,0.0095825-0.1639557,0.0266171s-0.1298904,0.0255508-0.1628952,0.0255508
	c-0.0670776,0-0.1266937-0.0425854-0.1767349-0.1309528c-0.0511017-0.0862389-0.0681381-0.1650238-0.0500412-0.2352905
	c0.1043396-0.0692043,0.2789459-0.1831226,0.5227509-0.3396282c0.0702667-0.0521698,0.2619095-0.1831226,0.5759811-0.3928623
	c0.1746063-0.1213722,0.3492126-0.1831226,0.523819-0.1831226c0.1043396-0.0873013,0.2693558-0.2097378,0.4972-0.3662434
	c0.086235-0.0351353,0.225708-0.0958195,0.4184113-0.1831226l0.7058716-0.4705811
	c0.1224365,0,0.2267761,0.0958195,0.3140793,0.2874584c0.0170288,0.0351334,0.0266113,0.1479893,0.0266113,0.3396282
	c0,0.2278385-0.1054001,0.654768-0.3151398,1.2829208c-0.2438049,0.7495232-0.3396225,1.4298439-0.2863922,2.0409622
	c0.1213684,0.5749187,0.1650238,0.9241295,0.1298904,1.0465641c0,0.0521698-0.0351334,0.1746063-0.1043396,0.3662453
	c-0.0702667,0.1916409-0.1043396,0.3396282-0.1043396,0.4439659c0,0.1746044,0.0606918,0.3492088,0.1831284,0.5238152
	c0.1213684,0.1746044,0.1831207,0.3577271,0.1831207,0.549366c0,0.2097397-0.0617523,0.4322548-0.1831207,0.6675453
	c-0.1224365,0.2352905-0.1831284,0.4141541-0.1831284,0.5365906c0,0.1213722,0.0340729,0.3396282,0.1043396,0.6537037
	c0.0692062,0.3140774,0.1043396,0.5674667,0.1043396,0.7591057v1.4905319c0,0.1575699,0.0532303,0.4194775,0.1575699,0.7857208
	c0.104332,0.3662453,0.1565018,0.6281528,0.1565018,0.7846584c0,0.1394711-0.0255508,0.357729-0.0777206,0.6537037
	c-0.0532303,0.2970428-0.0787811,0.5152969-0.0787811,0.6547699c0,0.1746063,0.0266113,0.7846565,0.0798492,1.8312225
	c0.1064682,0.3140755,0.2576447,0.5067787,0.4546127,0.575985c0.1416016,0.0351334,0.3374939,0.0958176,0.5876923,0.1831207
	C87.6769257,35.8081589,87.7301559,35.9220772,87.7301559,36.0956154z M94.0627823,36.6449852
	c0,0.086235-0.0617523,0.1777992-0.1841888,0.2746811c-0.1213684,0.0958214-0.2267685,0.1447945-0.3130112,0.1447945
	c-0.1054001,0-0.2714844-0.0266151-0.4971924-0.0787849c-0.280014-0.0702667-0.4546127-0.1043358-0.523819-0.1043358
	c-0.3832779-0.0532341-0.7324905-0.0787849-1.0465622-0.0787849c-0.1565094,0-0.3790207,0.0436516-0.6675491,0.1309547
	c-0.2874603,0.0872993-0.4929352,0.1309509-0.6143112,0.1309509c-0.384346,0-0.5759811-0.1937675-0.5759811-0.5802422
	c0,0.0521698,0.0085144-0.0255508,0.026619-0.2374191c0.0872955-0.0702667,0.2001572-0.184185,0.3396225-0.3417587
	c0.0351334-0.0883675,0.1054001-0.2108002,0.2097397-0.3694382c0.0692062-0.3162041,0.1565094-0.7899818,0.2619095-1.42239
	c0-0.2459373,0-0.6153755,0-1.1072502c0-0.1054039,0.0127716-0.267231,0.0383301-0.4865532
	c0.0266113-0.2193222,0.0393906-0.3736992,0.0393906-0.4609985c0-0.0702686-0.0127792-0.1852531-0.0393906-0.342823
	c-0.0255585-0.1575718-0.0383301-0.2725544-0.0383301-0.342823v-1.8184471v-0.2363548c0-0.1586361,0-0.2725544,0-0.342823
	c-0.0170364-0.0702667-0.0340729-0.1586342-0.0500412-0.2640362c-0.1171112-0.3854084-0.3502731-0.5791779-0.6994858-0.5791779
	c-0.2161255-0.0521679-0.3236542-0.1756687-0.3236542-0.3694382c0-0.0351334,0.0212936-0.0873032,0.0649414-0.1575699
	c0.0436554-0.0702686,0.0660095-0.1235008,0.0660095-0.1586361c0.139473-0.5440426,0.4354477-0.8421497,0.8889999-0.8953819
	c0.2970352-0.0702686,0.733551-0.2022858,1.3084717-0.3949909c0.0170288,0,0.1181717-0.0574913,0.3013-0.1714115
	c0.1831207-0.1139183,0.3534698-0.1714115,0.5099716-0.1714115c0.3311081,0,0.4972,0.1660881,0.4972,0.4982643
	c0,0.2278385-0.1181793,0.4897461-0.3534698,0.786787c-0.0777206,0.1575699-0.1171112,0.4375763-0.1171112,0.8389549
	c0,0.1405354,0.0255508,0.3545341,0.0777206,0.6430588c0.0532303,0.2885227,0.0787811,0.5025215,0.0787811,0.6419926
	c0,0.1224365-0.0351334,0.3321743-0.104332,0.6302814c-0.0702744,0.2970409-0.0873032,0.6026001-0.0521698,0.9177399
	c0.0170288,0.3662453,0.0170288,0.6111183,0,0.7335548c-0.0702667,0.647316-0.1054001,0.9624557-0.1054001,0.9443588
	c0,0.1575699,0.0319366,0.3417549,0.0958176,0.5514946c0.0947571,0.2789421,0.150116,0.4546127,0.1660843,0.5238152
	c0,0.0521698,0,0.4290581,0,1.1274796c0,0.3854103,0.177803,0.7005501,0.534462,0.9443588
	c0.1235046,0.0702667,0.2842636,0.2097359,0.4801636,0.4194756C93.9552536,36.312809,94.0627823,36.5214844,94.0627823,36.6449852z
	 M93.9573822,21.809948c0,0.1224365-0.2619095,0.4450302-0.7846603,0.9677792
	c-0.2267685,0.2789421-0.375824,0.6015358-0.4450302,0.9677811c-0.0702667,0.0180988-0.1660843,0.0266171-0.2874603,0.0266171
	c-0.7846527,0-1.1775131-0.1650238-1.1775131-0.4972l0.8889923-1.9621754
	c0.0180969-0.0692043,0.0958176-0.2789421,0.2363586-0.6281528c0.104332-0.1565056,0.2693558-0.2352905,0.4971924-0.2352905
	c0.4876175,0,0.7931747,0.2874584,0.9156113,0.8634434C93.9052124,21.7833309,93.9573822,21.949419,93.9573822,21.809948z
	 M103.0890121,27.173727c0,0.0521698-0.0787888,0.2704258-0.2352905,0.6537056
	c-0.0181046,0.0521679-0.0351334,0.1575699-0.0521698,0.3140755c-0.0532379,0.244873-0.2012253,0.3662453-0.4450302,0.3662453
	c-0.1224365,0-0.2533951-0.0521698-0.3928604-0.1565056c-0.1916428-0.1575718-0.3140793-0.2438087-0.3662491-0.2619076
	c-0.1394653-0.1213722-0.3396225-0.3311119-0.601532-0.6281528c-0.2789459-0.1213722-0.5152969-0.1916389-0.7069397-0.2086735
	c-0.1916351-0.1394711-0.3311081-0.2097397-0.4184113-0.2097397c-0.0702667,0-0.139473,0.0436516-0.2097397,0.1309528
	l0.0787888,0.1309547c-0.1565094,0.0873032-0.2789459,0.1309528-0.3662491,0.1309528
	c-0.6451874-0.0351334-1.1945496,0.3055592-1.6481018,1.019949c-0.3140717,0.3140774-0.4716415,0.7846584-0.4716415,1.4128113
	v0.3662434c0.1224365,0.2619076,0.1660843,0.5067806,0.1309509,0.7324905
	c-0.0521698,0.3843422-0.0777206,0.5589485-0.0777206,0.5238132c0.0340729,0.0521698,0.1479874,0.3311119,0.3396301,0.8368282
	c0.0873032,0.2278366,0.1309509,0.4450302,0.1309509,0.6547661c0.0692062,0.1746063,0.3311081,0.4886818,0.7846603,0.9422302
	l0.0266113,0.0255508c0.2959824,0.4705811,0.6015396,0.7591057,0.9156113,0.8634453
	c0.0521698,0.0180969,0.121376,0.0436516,0.2097397,0.0787849c0.2086792,0.0170326,0.5493698,0.0606842,1.0199509,0.1309509
	c0.0873032,0,0.2225189,0.0351372,0.4056396,0.1043396c0.1831207,0.0702667,0.3013,0.1043358,0.3534698,0.1043358
	c0.0521622,0,0.1256256-0.0170326,0.2225113-0.0521698c0.0958176-0.0340691,0.169281-0.052166,0.2225189-0.052166
	c0.3130112,0,0.4705811,0.1927032,0.4705811,0.5759811c0,0.1224365-0.0521698,0.2704277-0.1575699,0.4450302
	c-0.4013824,0.2086754-1.0284729,0.3566628-1.8833923,0.4439659c-0.1916428,0.0873032-0.3662491,0.1309547-0.5227509,0.1309547
	c-0.0883713,0-0.2225189-0.0255508-0.4056396-0.0787849c-0.1831207-0.0521698-0.319397-0.0777206-0.4056396-0.0777206
	c-0.0351334,0-0.1054001,0-0.2097397,0h-0.2097321c-0.3492126,0-0.6015396-0.1043396-0.7580414-0.3130112
	c-0.1575699-0.0351334-0.392868-0.0958214-0.7069397-0.1831245c-0.0873032-0.086235-0.2267761-0.2086716-0.4184113-0.3651772
	c-0.1224365-0.139473-0.2789459-0.4439659-0.4705811-0.9134827c-0.1224365-0.1224365-0.3055649-0.4524841-0.5504379-0.9922676
	v-0.3130112c-0.1916351-0.365181-0.2874527-0.7399445-0.2874527-1.1221581c0-0.0521698,0.0266113-0.252327,0.0787811-0.6004696
	c0-0.0521698-0.0180969-0.2352924-0.0521698-0.5483036c0-0.2959766,0.0873032-0.5397854,0.2608414-0.73036
	c0.0351334-0.2267723,0.1054077-0.5568199,0.2097397-0.9922676c0.2097397-0.3130112,0.3662491-0.5919533,0.4705811-0.8346958
	c0.3321762-0.2608433,0.5674667-0.5483036,0.7069397-0.8613148c0.0692062-0.1575699,0.252327-0.3225937,0.5493698-0.4961338
	c0.1394653-0.1394711,0.3311081-0.3130112,0.5759811-0.5227489l0.2352905-0.1565056
	c0.121376-0.034071,0.4184113-0.1650238,0.8900604-0.391798c0.3662415-0.1735401,0.6622238-0.2608414,0.8889923-0.2608414
	c0.1224365,0,0.3225937,0.0393925,0.6015396,0.1181774c0.2789383,0.0787849,0.4801636,0.1181774,0.6026001,0.1181774
	c0.086235,0,0.2129288-0.0266171,0.3790207-0.0787849c0.1660843-0.0521698,0.2917175-0.0787849,0.3790207-0.0787849
	c0.139473,0,0.2970428,0.0617504,0.4716415,0.1831226c0.0521698,0.0351334,0.1043396,0.1490517,0.1565094,0.3406925
	C103.001709,26.6946297,103.0890121,26.8947849,103.0890121,27.173727z M115.1761475,26.1271629
	c0,0.1916389-0.1479874,0.3747616-0.4439621,0.549366c-0.2278442,0.1043377-0.4546127,0.218256-0.6803207,0.3396282
	c-0.2278442,0-0.4280014,0.0266171-0.6026001,0.0787849c-0.1224365,0.105402-0.2959824,0.244873-0.5227509,0.4184132
	c-0.2097397,0.0702686-0.5067825,0.2278385-0.8900604,0.4716473c-0.1043396,0.1394711-0.2619095,0.33111-0.4705811,0.5749187
	c-0.2097397,0.105402-0.5153046,0.2970409-0.9156113,0.575983c-0.0521698,0.0702686-0.1927109,0.2970409-0.4194794,0.6803207
	c-0.0692062,0.1043377-0.2959824,0.2874603-0.6803207,0.5493679c-0.2438126,0.1575699-0.3662491,0.4535465-0.3662491,0.8900585
	c0,0.2619076,0.3311157,0.8027592,0.9944,1.6225491c0.0873032,0.0351334,0.1916428,0.0777206,0.3140717,0.1298904
	c0.0692062,0.0180969,0.1746063,0.0532303,0.3140793,0.1054001c0.0521698,0.0521698,0.1224365,0.139473,0.2097397,0.2608452
	c0.0170364,0.0883636,0.0521698,0.2097359,0.1043396,0.3673058c0.0873032,0.0692062,0.2097397,0.1650238,0.3662415,0.2874603
	c0.488678,0.5227509,1.0029144,0.8197937,1.5437622,0.8889961l0.6281509,0.3928604
	c0.2438126,0.1746063,0.4972,0.3406944,0.7591095,0.4972c0.3140793,0.2267723,0.4705811,0.4450302,0.4705811,0.6537018
	c0,0.3140755-0.1139221,0.5323334-0.3406906,0.6547699h-0.1298904c-0.0180969,0-0.0745239-0.0223579-0.1703491-0.0660095
	c-0.0958176-0.0436516-0.1533127-0.0649452-0.1703415-0.0649452c-0.1043396,0-0.2661667,0.0351334-0.4844284,0.1043396
	c-0.2182541,0.0702667-0.3790207,0.1054001-0.4833527,0.1054001c-0.0702667,0-0.1873856-0.0138397-0.3534698-0.0393906
	c-0.1660919-0.026619-0.2832031-0.0393944-0.3534698-0.0393944c-0.0692062,0-0.1660843,0.0127754-0.2874603,0.0393944
	c-0.1224365,0.0255508-0.2182541,0.0393906-0.2874603,0.0393906c-0.1575699,0-0.4365082-0.1660881-0.8378906-0.4971962
	c-0.0702667-0.1054039-0.104332-0.1831245-0.104332-0.2363586v-0.2352905
	c0.1735382-0.1394691,0.2619019-0.2959747,0.2619019-0.4705811s-0.0617447-0.3140755-0.1831207-0.4184113
	c0-0.0351372-0.0095825-0.0702705-0.026619-0.1054039c-0.1394653-0.1213722-0.3662415-0.3396263-0.6803207-0.6537056
	c-0.1224365-0.1916389-0.244873-0.3832779-0.3662415-0.5759811c-0.0351334-0.0521698-0.1565018-0.139473-0.3662415-0.2608452
	c-0.0702744-0.1224327-0.1575699-0.2182541-0.2619095-0.2885208c-0.0170364-0.0692062-0.0521698-0.1650238-0.1043396-0.2874603
	c-0.0873032-0.0170364-0.3321762-0.060688-0.7324905-0.1309547c-0.0702667-0.0873032-0.2012177-0.2097397-0.3928604-0.3662453
	c-0.2789383-0.1746025-0.5930176-0.2619057-0.9422226-0.2619057h-0.1309586
	c-0.0351334,0.1224365-0.0521698,0.2789421-0.0521698,0.4716454c0,0.1043358,0,0.2565842,0,0.4578056
	c0,0.2001572,0,0.3524055,0,0.4578056c0,0.1746063-0.0234222,0.3225937-0.0702667,0.4439659
	c-0.0308762,0.0351334-0.0777206,0.0532341-0.139473,0.0532341c-0.0628128-0.1224365-0.1181717-0.2012215-0.1639557-0.2363548
	c-0.0479126,0.052166-0.0702667,0.1213684-0.0702667,0.2086716c0,0.1203079,0.0947571,0.2938499,0.2874603,0.5184937
	c0.0340652,0.1032715,0.104332,0.2512589,0.2086716,0.4407692c0.2789459,0.2768135,0.6451874,0.5972786,1.0998001,0.9603271
	c0.1213684,0.1203079,0.1831207,0.2501984,0.1831207,0.3886032c0,0.3630524-0.3215256,0.5451088-0.9624557,0.5451088
	c-0.2427444,0-0.5291367-0.0521698-0.8581161-0.1575699c-0.3300476-0.1043358-0.5632095-0.1565056-0.7026825-0.1565056
	c-0.1554413,0-0.3683701,0.0521698-0.6366653,0.1565056c-0.2693634,0.1054001-0.4727173,0.1575699-0.6111221,0.1575699
	c-0.3470764,0-0.5206223-0.1405373-0.5206223-0.4184113c0-0.2267761,0.1607666-0.4886818,0.4812317-0.7857246
	c0.5333939-0.4876175,0.8006287-0.8283081,0.8006287-1.0199471c0-0.0351334-0.0436554-0.1522484-0.1298904-0.3534698
	c-0.0883713-0.2001572-0.1309509-0.3183365-0.1309509-0.3534698c0-0.0692024,0.0212936-0.1831207,0.0649414-0.3396263
	c0.0436478-0.1575699,0.0660095-0.2704239,0.0660095-0.3406944c0-0.086235-0.0223618-0.2086716-0.0660095-0.3662453
	c-0.0436478-0.1565056-0.0649414-0.2789421-0.0649414-0.3662415c0-0.0170364,0.0425797-0.173542,0.1309509-0.4705849
	c0-0.052166,0-0.1394691,0-0.2619057c0-0.1565056,0-0.2874603,0-0.3928604c0.0340652,0,0.0521698-0.1479893,0.0521698-0.4439659
	v-1.3606415c0-0.0351334,0.0127716-0.1000786,0.0393906-0.1969624c0.0255508-0.0947552,0.0383301-0.1692829,0.0383301-0.2225151
	c0-0.1735401-0.0255508-0.4610004-0.0777206-0.8634434v-0.4961338c0-0.0873032,0.0127716-0.2310314,0.0393906-0.4322529
	c0.0255508-0.2001572,0.0383301-0.3438873,0.0383301-0.4311905c0-0.105402-0.0255508-0.4098949-0.0777206-0.9166756
	c-0.0181046-0.1043377-0.0660095-0.3044949-0.1437302-0.6015358c-0.0787888-0.2959766-0.1181793-0.4790993-0.1181793-0.549366
	v-1.125351c0,0.0873013-0.0180969,0.0095806-0.0521698-0.2352905c-0.1575699-1.1338692-0.2352905-1.6651363-0.2352905-1.5959339
	c0-0.0873013,0.0692062-0.5142326,0.2086792-1.2818546c-0.1043396-0.105402-0.2438126-0.2619076-0.4184189-0.4716473
	c-0.0873032-0.0170345-0.2182541-0.0606861-0.3928604-0.1309528c-0.0351334-0.0692043-0.0521698-0.1565056-0.0521698-0.2608433
	c0-0.2970409,0.2491302-0.4535465,0.7463303-0.4716473c0.8219223-0.5919533,1.3276367-0.8889942,1.5160828-0.8889942
	c0.0692062,0,0.2661667,0.112854,0.5919571,0.3396282c0.0681381,0.0873013,0.1022034,0.5323315,0.1022034,1.3350887
	c0,0.8197918-0.0521698,1.49053-0.1565018,2.0143452c0-0.0692024,0,0.1043377,0,0.5227509v1.0476303
	c0,0.0521679,0,0.1394711,0,0.2608433c0,0.1224365,0,0.2097378,0,0.2619076c0,0.0351334,0.0170364,0.3492088,0.0521698,0.9422264
	l0.104332,0.9677811c0,0.1746044-0.0393906,0.4407711-0.1171112,0.7984982
	c-0.0787811,0.3577271-0.1181793,0.632412-0.1181793,0.8240509c0.0202332,0.0873032,0.0585556,0.3140755,0.1181793,0.6803207
	l0.1171112,0.6803207c0,0.1224365-0.0255508,0.2438087-0.0777206,0.3662434
	c-0.0532303,0.1224365-0.0787811,0.2182579-0.0787811,0.2874603c0,0.1575699,0.0734634,0.3705025,0.2193222,0.6409283
	c0.1469193,0.2704239,0.2885208,0.4322529,0.4258652,0.4844227h0.3364334c0.2757492,0,0.4641953-0.0606861,0.5685272-0.1831226
	c0.1543808-0.2097397,0.4897461-0.6015358,1.0071716-1.1775188c0.1032791-0.1565056,0.2661667-0.3747616,0.4908142-0.6537037
	c0.2054825-0.0702686,0.403511-0.2533913,0.5940857-0.5504322c0.2576447-0.4003143,0.3875351-0.7665577,0.3875351-1.0987339
	c0-0.2959766-0.244873-0.4918747-0.733551-0.5887604c-0.4876175-0.0958195-0.7324905-0.2395496-0.7324905-0.4311886
	c0-0.3140755,0.1916351-0.4716454,0.5759811-0.4716454c0.0873032,0,0.2267761,0.0266151,0.4184113,0.0787849
	c0.1916428,0.0521679,0.3311157,0.0787849,0.4184189,0.0787849c0.1575699,0,0.5759811-0.0787849,1.2563019-0.2352905
	c0.0873032-0.0351353,0.4013748-0.1224365,0.9422302-0.2619076c0.8538589-0.2097397,1.351059-0.3140774,1.4915924-0.3140774
	c0.1043396,0,0.2438049,0.0181007,0.4184113,0.0521698c0.1043396,0.0521679,0.1831207,0.1309528,0.2352905,0.2352905
	C115.1410141,25.9003887,115.1761475,26.0749931,115.1761475,26.1271629z M133.9110565,19.7689857
	c0,0.5408497-0.1224365,0.8112736-0.3662567,0.8112736c-0.0521698-0.0351334-0.2704163-0.1309528-0.6547699-0.2885227
	c-0.1394653-0.034071-0.3662415-0.0862389-0.679245-0.1565056c-0.1405334-0.1394711-0.4546204-0.2959785-0.9422302-0.470583
	c-0.6984253-0.105402-1.2211761-0.1575699-1.5703888-0.1575699c-0.5578766,0-0.9156036,0.0521679-1.072113,0.1575699
	c-0.6281509,0.5749187-0.9422226,1.1242867-0.9422226,1.6481018c0,0.1224365,0.021286,0.3098164,0.0649414,0.5621414
	c0.0436478,0.2533913,0.0660095,0.4407711,0.0660095,0.5632076c0,0.1394711-0.0873032,0.3747635-0.2619095,0.7058735
	c-0.1746063,0.3321762-0.2619095,0.5408497-0.2619095,0.6281528c0.0170364,0.0180988,0.0692062,0.1660862,0.1575699,0.4450283
	c0.0170364,0.2438087,0.008522,0.4450302-0.0266113,0.6015358c-0.0351334,0.0702686-0.0255508,0.3577271,0.0266113,0.8634434
	c0.0170364,0.1575699,0.0255585,0.3619862,0.0255585,0.6153755c0,0.252327,0.1575699,0.3971214,0.4716415,0.4311905
	c0.1565018,0.0180988,0.2438126,0.0266151,0.2608414,0.0266151c0.2097473,0,0.4450378-0.0745258,0.7069397-0.2225132
	c0.2619019-0.1479893,0.4450378-0.2225151,0.5493622-0.2225151c0.0692139,0,0.1873932,0.0308743,0.3534698,0.0915604
	c0.1650238,0.0617504,0.2832031,0.0915604,0.3534698,0.0915604h0.1298981
	c0.1053925-0.0170345,0.244873-0.0266151,0.4194794-0.0266151c0.0691986,0.1405354,0.1043243,0.2533894,0.1043243,0.3406925
	c0,0.1746044-0.0521698,0.2789421-0.1564941,0.3140755c0.1043243,0.1394711,0.1564941,0.2267742,0.1564941,0.2619076
	c0,0.1043377-0.0617523,0.2086735-0.1831207,0.3130112c-0.1224365,0.105402-0.2352905,0.1575699-0.340683,0.1575699
	c-0.2086792,0-0.4184113-0.0351334-0.6270905-0.1043358c-0.2970428,0.1565056-0.4631348,0.2352905-0.4972076,0.2352905
	c-0.4365082,0-0.7942352-0.0958195-1.0731812-0.2885246c-0.104332,0-0.2533875-0.0127754-0.4450226-0.0383282
	c-0.1916428-0.0266151-0.3311157-0.0393925-0.4184113-0.0393925c-0.035141,0-0.0873032,0.0351353-0.1565094,0.1043377v0.1043377
	c0,0.0521679,0.0692062,0.218256,0.2086716,0.4982624c0.0351334,0.0170345,0.0873032,0.0606861,0.1575699,0.1309528
	c0.0170364,0.1213722,0.0521698,0.3225937,0.1043396,0.6015358c0.1916428,0.7324905,0.2874603,1.046566,0.2874603,0.9422283
	c0-0.1394711-0.0319366,0.3225937-0.0968857,1.3872585c-0.0393906,0.1565056-0.0777206,0.3651791-0.1160507,0.6260242
	c0.0170364,0.3140755,0.0010681,0.8027573-0.047905,1.4649773c0,0.0532341-0.0223618,0.1405373-0.0660095,0.2619057
	c-0.0436554,0.1224365-0.064949,0.1927071-0.064949,0.2097397c0.3140793,0.5578842,0.4791031,0.9070969,0.4972,1.046566
	c0.1565018,0.4013786,0.5749283,0.7154541,1.2552414,0.9422264c0.0521698,0.0351372,0.0958252,0.0958214,0.1309509,0.1831245
	l0.0266266,0.2874603c0,0.0180969,0,0.052166,0,0.1054001v0.0777206c-0.1586456,0-0.2991791,0.0085182-0.4216156,0.0266151
	c-0.1235046,0.0692062-0.2118683,0.1043396-0.2640381,0.1043396s-0.132019,0-0.2374115,0c-0.1054077,0-0.1841888,0-0.2363586,0
	c-0.2289047,0-0.3960571,0-0.5014572,0c-0.3332443-0.1565056-0.5525665-0.2352905-0.6579666-0.2352905
	c-0.1937714,0-0.4397049,0.0393906-0.7378082,0.1181755c-0.2991714,0.0777206-0.5099792,0.117115-0.6324158,0.117115
	c-0.7154541,0-1.0731812-0.1746063-1.0731812-0.5227509c0-0.1554413,0.2001572-0.3023643,0.6015396-0.4418373
	c0.1394653-0.086235,0.2704239-0.1980247,0.3928604-0.3364334c0.1916351-0.7953033,0.2874603-1.2190399,0.2874603-1.2712097
	c0-0.0170326-0.0308762-0.112854-0.091568-0.2853279c-0.0617447-0.1724777-0.1000748-0.2853317-0.1171112-0.3375015
	c-0.0702667-0.7431335-0.1054001-1.5554733-0.1054001-2.4380798c0-0.0862389,0.0223618-0.237421,0.0660095-0.4546127
	c0.0425873-0.2150612,0.0649414-0.3662434,0.0649414-0.4535465c0-0.2086754-0.0617447-0.6707382-0.1831207-1.3861942
	c-0.1565018-0.436512-0.3928604-0.7505875-0.7069397-0.9422283c-0.2608414-0.0351334-0.3917923-0.1394711-0.3917923-0.3140755
	c0-0.0692024,0.0521698-0.1479874,0.1565018-0.2352905c0.2097397-0.0521679,0.384346-0.1394711,0.523819-0.2619076
	c0.0873032-0.0692024,0.2352905-0.3534679,0.4450302-0.850668c0.2086716-0.4971981,0.3140717-0.8059502,0.3140717-0.9283867
	v-1.0987339c0-0.33111-0.0095749-0.4620647-0.0266113-0.3928604c0.0873032-0.2959766,0.2182541-0.9241295,0.3928604-1.8833923
	c0.0691986-0.436512,0.3044968-1.0561466,0.7058716-1.8578396c0.2619095-0.3311119,0.5408478-0.6196346,0.8378906-0.8634434
	c0.1213684-0.0521679,0.2874527-0.1394711,0.4972-0.2619076c0.3662415-0.2959766,0.7229004-0.4450302,1.072113-0.4450302
	c0.035141,0,0.1043396,0.0127773,0.2097473,0.0393925c0.1043243,0.0266171,0.1735382,0.0393925,0.2086639,0.0393925
	c0.1054077,0,0.2491302-0.0521679,0.4322662-0.1575699c0.1831207-0.1043377,0.2917175-0.1650219,0.3268433-0.1831226
	c0.2619019-0.1043358,0.5759888-0.1565056,0.9422302-0.1565056c0.1394653,0,0.3225861,0.0702686,0.5493622,0.2097397
	c0.3311157,0.2086735,0.5227509,0.3225937,0.5759888,0.3396282c0.1213684,0.0521679,0.3311157,0.1096592,0.6270905,0.1703453
	c0.2970428,0.0606861,0.4971924,0.1703472,0.6026001,0.3268528
	C133.8759155,19.2984047,133.9110565,19.525177,133.9110565,19.7689857z M130.1953735,27.1215591
	c-0.0702667-0.0170345-0.1831207-0.0521679-0.3396301-0.105402c0,0.0180988-0.0095825,0.0361996-0.0266113,0.0532341
	l-0.0255585,0.0521679c0,0.0351334,0.0170288,0.0787849,0.0521698,0.1309547h0.1565094
	C130.0644226,27.2525139,130.1251068,27.2088623,130.1953735,27.1215591z M142.597641,30.4443779
	c0,0.7324886-0.0787811,1.3521233-0.2352905,1.8578377v0.3662453c-0.0351257,0.3492126-0.1575623,0.6281548-0.3662415,0.8368263
	c-0.1405334,0.4194794-0.3928528,0.8549271-0.7591095,1.3084755c-0.0351257,0.1224365-0.2012177,0.2704239-0.4971924,0.4450264
	c-0.2267761,0.1916428-0.5323334,0.5057182-0.9156036,0.9422302c-0.3843536,0.2267723-0.7505951,0.3396263-1.0987396,0.3396263
	c-0.0702667,0-0.1703491-0.0127754-0.3013-0.0393906c-0.1309509-0.0255508-0.2310333-0.0393944-0.3013-0.0393944
	c-0.1043396,0-0.2789459,0.0351334-0.5227509,0.1054039c-0.244873,0.0692024-0.4184113,0.1043358-0.523819,0.1043358
	c-0.0691986,0-0.2001495-0.0351334-0.3917999-0.1043358c-0.1927032-0.0702705-0.3577271-0.1054039-0.4971924-0.1054039
	c-0.0351257,0-0.0872955,0.026619-0.1575623,0.0787849h-0.1309662c-0.2086639,0-0.5227509-0.184185-0.9411621-0.5525589
	c-0.244873-0.0873032-0.4365082-0.139473-0.5759735-0.1565056c-0.2267761-0.1586342-0.5323334-0.3949928-0.9156189-0.7101326
	c-0.7324829-0.7367477-1.125351-1.5256653-1.1775208-2.3667488l-0.1575623-0.4471588
	c-0.1213837-0.2970428-0.1831207-0.5514965-0.1831207-0.7623005c0-0.244873,0.0351257-0.5951481,0.1053925-1.0518875
	c0.1043396-0.5600147,0.2086792-0.8666382,0.3140717-0.9198704c0.0170441-0.0351353,0.0425873-0.0702686,0.0777283-0.105402
	l-0.0521698-0.7889175c0.0702667-0.1746044,0.1746063-0.4205418,0.3140717-0.7356834
	c0.1916504-0.1405354,0.5142365-0.4120235,0.9677887-0.8155327c0.1224365-0.1043358,0.3577271-0.3417568,0.7069397-0.7101307
	c0.0872955-0.0521679,0.2097321-0.112854,0.3662415-0.1831226c0.1746063-0.0180988,0.4184113-0.105402,0.7324829-0.2629719
	c0.1916504-0.1756706,0.4972076-0.2629719,0.9156189-0.2629719h0.2097321c0.1213684,0,0.2001648,0,0.2352905,0
	c0.1394806,0,0.3311157-0.0266171,0.5759888-0.0787849c0.2438049-0.0521698,0.4184113-0.0787849,0.5227509-0.0787849
	c0.0170288,0,0.1309509,0.0393925,0.340683,0.1181774c0.2086792,0.0787849,0.3481598,0.1171131,0.4184265,0.1171131
	c0.5759735,0.0532322,1.2041321,0.2363548,1.8844452,0.5504303c0.0862427,0.1916409,0.2523346,0.4961338,0.4961395,0.9156132
	c0.0180969,0.0170345,0.1054077,0.0777187,0.2619019,0.1831207c0.035141,0.0170345,0.0958252,0.1043377,0.1831207,0.2608433
	c0.0873108,0.0702686,0.2789459,0.3758278,0.5759888,0.9166775c0.0873108,0.0521679,0.2097473,0.33111,0.3662415,0.8368263
	c0.035141,0.0702667,0.0787964,0.1927032,0.1309509,0.3662434V30.4443779z M140.7131958,32.3277702
	c0-0.0862389-0.0383301-0.2001572-0.1171112-0.3396282c-0.0787964-0.1394711-0.1266937-0.2352924-0.1437378-0.2874603
	c-0.0532379-0.33111-0.2182465-0.7591057-0.4971924-1.2829208c-0.035141-0.1394711-0.0873108-0.3225937-0.1575775-0.549366
	c-0.0691986-0.1213722-0.1660767-0.3044949-0.2874603-0.5493679c-0.0521698-0.4013786-0.2139893-0.7537823-0.4844208-1.0593414
	c-0.2704163-0.3055592-0.4311829-0.5014572-0.4833527-0.5887585c-0.1575775-0.2267742-0.2533875-0.4354477-0.2885284-0.6281528
	c-0.1043396-0.2267742-0.2438049-0.3396282-0.4184113-0.3396282c-0.035141,0-0.0830383,0.0085182-0.1437225,0.0255527
	c-0.0617523,0.0180988-0.1011505,0.0266151-0.1181793,0.0266151c-0.5749207-0.1746044-1.0114441-0.2619076-1.3084717-0.2619076
	c-0.1735535,0-0.4439697,0.0617523-0.8102112,0.1831226c-0.5759888,0.5238152-0.9518127,0.8900604-1.125351,1.0987339
	c-0.244873,0.3492107-0.4620667,0.8549271-0.6547699,1.5182114c-0.1213684,0.4184132-0.1831207,0.7239723-0.1831207,0.9156132
	c0,0.6100521,0.0958099,1.1157684,0.2885132,1.5171471c0.0170441,0.2097378,0.0777283,0.4886818,0.1831207,0.8378906
	c0.0873108,0.1394691,0.2267761,0.2874603,0.4184265,0.4439659c0.2097321,0.0702667,0.6451874,0.4194756,1.3084717,1.046566
	c0.1043396,0.1746025,0.2874603,0.3843422,0.5493622,0.6281509c0.2959747,0.1746063,0.636673,0.3055573,1.0199432,0.3928604
	c0.1224365,0,0.3055573,0.0085182,0.5493774,0.0255508c0.0532227,0.2278404,0.2363434,0.3406944,0.5504303,0.3406944
	c0.0521698,0,0.1916351-0.0085182,0.4184113-0.0266151c0.1735382-0.0170364,0.4003143-0.0425873,0.6803131-0.0777206
	c0.0340729-0.0521698,0.0958252-0.1054039,0.1831207-0.1575737c0.6451874-0.2438049,0.9763031-1.0114288,0.9944-2.3018036
	c0-0.0702667,0.0170441-0.184185,0.0521698-0.3406906L140.7131958,32.3277702z M152.7758484,27.3568497
	c0,0.1746063-0.1139221,0.3928623-0.3406982,0.6537037c-0.1043396,0.0351353-0.2182617,0.0787868-0.3396301,0.1309547
	c-0.3321686,0.1746044-0.6026001,0.3140755-0.8112793,0.4184132c0.1043396,0,0.0170441-0.0340691-0.2619019-0.1043377
	c-0.3662415-0.1043358-0.5845032-0.1831226-0.6537018-0.2352905c-0.2097473-0.1394711-0.392868-0.2097397-0.5493622-0.2097397
	c-0.1405487,0-0.4024506,0.0702686-0.7857361,0.2097397c-0.1043243,0.0351334-0.2608337,0.0958195-0.4705811,0.1831226
	c-0.1575623,0.1916389-0.3928528,0.4886818-0.7069244,0.8900585c-0.0873108,0.2789421-0.1309662,0.5142345-0.1309662,0.7058735
	c0.0181122,0.1394711,0.0873108,0.4620647,0.2097473,0.9677811c0.0170288,0.0702667,0.0085144,0.2012215-0.0266266,0.3928604
	c-0.0351257,0.1927052-0.0521545,0.3140755-0.0521545,0.3662453c0,1.046566,0.0085144,2.0931282,0.0266113,3.1396942
	c0,0.1224365,0.0521698,0.3577271,0.1565094,0.7069397c0.0702667,0.1224365,0.1831207,0.2001572,0.340683,0.2352905
	l0.4184113,0.0787849c0.1224365,0.0351334,0.2704315,0.0777206,0.4450378,0.1309547
	c0.2619019,0.1746025,0.3928528,0.3225899,0.3928528,0.4439621c0,0.1575699-0.1096497,0.2885246-0.3279114,0.3928642
	c-0.2182617,0.1043358-0.4141541,0.1575699-0.5887604,0.1575699c-0.0170288,0-0.2789459-0.1011429-0.7846527-0.3013
	c-0.505722-0.2012215-0.9773712-0.3013-1.4128113-0.3013c-0.0702667,0-0.3577271,0.0979462-0.8634491,0.2949104
	c-0.6281433,0.0649452-0.9677734,0.09795-1.0210114,0.09795c0.0532379,0-0.1043396-0.0436516-0.4705811-0.1309547
	c-0.1394653-0.0692024-0.2086792-0.1831207-0.2086792-0.338562c0-0.3662453,0.3130188-0.5568199,0.9411774-0.5749207
	c0.3491974-0.2778778,0.5578766-0.7995605,0.6281433-1.5661201c0.035141-0.39925,0.0521698-0.8442802,0.0521698-1.3308296
	c0-0.1224365-0.0223541-0.3215294-0.0649414-0.6004715c-0.0436554-0.2778778-0.0660095-0.4790993-0.0660095-0.6004715
	c0-0.1394711,0.0138397-0.3438873,0.0393982-0.6132469c0.0266113-0.2693596,0.0521545-0.4876175,0.0787811-0.6526394
	c0.0266113-0.1650238,0.0393829-0.1777992,0.0393829-0.0393925c0,0.0873013-0.0351257-0.1565056-0.1043243-0.73036
	c0.0521545-0.0702686,0.077713-0.1479893,0.077713-0.2352905c0-0.1043377-0.0351257-0.252327-0.1043396-0.4439659
	c-0.0702667-0.1916389-0.1043396-0.3300457-0.1043396-0.4173489c-0.1224365-0.3651791-0.4109497-0.5483017-0.8634338-0.5483017
	c-0.3843536,0-0.5759888-0.1479893-0.5759888-0.4439659c0-0.1916389,0.1831207-0.3736973,0.5493622-0.5472374
	c0.4184265-0.0532322,0.749527-0.1831226,0.9944-0.3917961c0.1916504-0.0521679,0.4876251-0.2086735,0.8900604-0.4695168
	c0.1735382-0.1575699,0.3396301-0.2352905,0.4961395-0.2352905c0.1394653,0,0.2363586,0.0521679,0.2885284,0.1565056
	c0.0521545,0.3140755,0.2001495,0.7761402,0.4450226,1.3872566c0.1043396,0.2608433,0.2693634,0.391798,0.4971924,0.391798
	c0.225708,0,0.5227509-0.1916409,0.8890076-0.5749187c0.4354401-0.244873,0.8378906-0.4013786,1.2041321-0.4716473
	c0.1565094-0.1735401,0.4439545-0.3396282,0.8634338-0.4971981l0.7580414-0.2874603
	c0.5408478,0,0.8283081,0.2619076,0.8634491,0.7846584C152.7407074,27.0257397,152.7758484,27.2173786,152.7758484,27.3568497z
	 M96.704216,51.1670113c0,0.5408478-0.1224365,0.8112717-0.3662415,0.8112717
	c-0.0521698-0.0351334-0.2704315-0.1309509-0.6547699-0.2885246c-0.139473-0.0340691-0.3662491-0.086235-0.6792603-0.1565056
	c-0.1405334-0.1394691-0.4546127-0.2959747-0.9422226-0.4705811c-0.6984253-0.1054001-1.2211761-0.1575699-1.5703812-0.1575699
	c-0.5578842,0-0.9156113,0.0521698-1.0721207,0.1575699c-0.6281509,0.5749207-0.9422302,1.1242867-0.9422302,1.6481018
	c0,0.1224365,0.0212936,0.3098183,0.064949,0.5621414c0.0436478,0.2533913,0.0660095,0.440773,0.0660095,0.5632095
	c0,0.1394691-0.0873032,0.3747597-0.2619095,0.7058716c-0.1746063,0.3321762-0.2619095,0.5408516-0.2619095,0.6281509
	c0.0170364,0.0181007,0.0692062,0.1660881,0.1575699,0.4450302c0.0170364,0.2438087,0.008522,0.4450302-0.0266113,0.6015358
	c-0.0351334,0.0702705-0.0255585,0.3577271,0.0266113,0.8634453c0.0170364,0.1575699,0.0255508,0.3619843,0.0255508,0.6153755
	c0,0.2523232,0.1575775,0.3971176,0.4716492,0.4311867c0.1565094,0.0181007,0.2438126,0.026619,0.2608414,0.026619
	c0.2097397,0,0.4450302-0.0745277,0.7069397-0.2225151s0.4450302-0.2225151,0.5493698-0.2225151
	c0.0691986,0,0.1873779,0.0308762,0.3534622,0.0915604c0.1650238,0.0617523,0.2832031,0.0915604,0.3534698,0.0915604h0.1298904
	c0.1054001-0.0170326,0.244873-0.0266151,0.4194794-0.0266151c0.0692062,0.1405373,0.1043396,0.2533913,0.1043396,0.3406906
	c0,0.1746063-0.0521698,0.2789421-0.1565094,0.3140793c0.1043396,0.1394691,0.1565094,0.2267723,0.1565094,0.2619057
	c0,0.1043358-0.0617523,0.2086754-0.1831284,0.3130112c-0.1224365,0.1054039-0.2352905,0.1575699-0.3406906,0.1575699
	c-0.2086716,0-0.4184113-0.0351334-0.6270828-0.1043358c-0.2970428,0.1565056-0.4631348,0.2352905-0.4972,0.2352905
	c-0.4365158,0-0.7942429-0.0958214-1.0731812-0.2885246c-0.1043396,0-0.2533951-0.0127754-0.4450302-0.0383263
	c-0.1916428-0.026619-0.3311157-0.0393944-0.4184189-0.0393944c-0.0351334,0-0.0872955,0.0351334-0.1565018,0.1043396v0.1043358
	c0,0.0521698,0.0692062,0.2182541,0.2086716,0.4982643c0.0351334,0.0170326,0.0873032,0.0606842,0.1575699,0.1309509
	c0.0170364,0.1213722,0.0521698,0.3225937,0.1043396,0.6015358c0.1916428,0.7324905,0.2874603,1.046566,0.2874603,0.9422302
	c0-0.139473-0.0319443,0.3225937-0.0968857,1.3872566c-0.0393906,0.1565056-0.0777206,0.365181-0.1160507,0.6260223
	c0.0170364,0.3140755,0.0010681,0.8027611-0.047905,1.4649773c0,0.0532379-0.0223618,0.1405411-0.0660095,0.2619095
	c-0.0436554,0.1224365-0.064949,0.1927032-0.064949,0.2097397c0.3140793,0.5578842,0.4791031,0.9070969,0.4972,1.0465622
	c0.1565094,0.4013824,0.5749207,0.7154541,1.2552414,0.9422302c0.0521698,0.0351334,0.0958176,0.0958176,0.1309509,0.1831207
	l0.026619,0.2874603c0,0.0180969,0,0.0521698,0,0.1054001v0.0777206c-0.158638,0-0.2991714,0.008522-0.421608,0.026619
	c-0.1235046,0.0692062-0.2118683,0.1043396-0.2640381,0.1043396s-0.132019,0-0.2374191,0s-0.1841888,0-0.2363586,0
	c-0.2288971,0-0.3960495,0-0.5014572,0c-0.3332367-0.1565094-0.5525589-0.2352905-0.657959-0.2352905
	c-0.1937714,0-0.4397049,0.0393906-0.7378159,0.1181717c-0.2991638,0.0777206-0.5099716,0.1171188-0.6324081,0.1171188
	c-0.7154541,0-1.0731812-0.1746063-1.0731812-0.5227509c0-0.1554413,0.2001572-0.3023682,0.601532-0.4418411
	c0.139473-0.086235,0.2704315-0.1980209,0.392868-0.3364334c0.1916351-0.7953033,0.2874527-1.2190399,0.2874527-1.2712097
	c0-0.0170288-0.0308685-0.112854-0.0915604-0.2853241c-0.0617447-0.1724777-0.1000748-0.2853317-0.1171112-0.3375015
	c-0.0702667-0.7431335-0.1054001-1.5554733-0.1054001-2.4380836c0-0.086235,0.0223541-0.2374191,0.0660095-0.4546089
	c0.0425873-0.215065,0.0649414-0.3662453,0.0649414-0.4535484c0-0.2086754-0.0617523-0.6707382-0.1831207-1.3861923
	c-0.1565094-0.436512-0.3928604-0.7505913-0.7069397-0.9422302c-0.2608414-0.0351334-0.3917923-0.1394691-0.3917923-0.3140755
	c0-0.0692024,0.0521698-0.1479874,0.1565018-0.2352905c0.2097397-0.0521698,0.384346-0.1394691,0.523819-0.2619057
	c0.0873032-0.0692062,0.2352905-0.3534698,0.4450302-0.8506699c0.2086716-0.4971962,0.3140717-0.8059502,0.3140717-0.9283867
	v-1.098732c0-0.3311119-0.0095825-0.4620667-0.0266113-0.3928642c0.0873032-0.2959747,0.2182541-0.9241257,0.3928604-1.8833885
	c0.0691986-0.4365158,0.3044891-1.0561485,0.7058716-1.8578415c0.2619095-0.3311119,0.5408478-0.6196365,0.8378906-0.8634415
	c0.1213684-0.0521698,0.2874603-0.139473,0.4972-0.2619095c0.3662415-0.2959747,0.722908-0.4450302,1.072113-0.4450302
	c0.0351334,0,0.1043396,0.0127754,0.2097397,0.0393944c0.1043396,0.0266151,0.1735382,0.0393906,0.2086716,0.0393906
	c0.1054077,0,0.2491379-0.052166,0.4322586-0.1575699c0.1831207-0.1043358,0.2917175-0.1650238,0.3268509-0.1831207
	c0.2619095-0.1043396,0.5759811-0.1565056,0.9422302-0.1565056c0.1394653,0,0.3225937,0.0702667,0.5493622,0.2097397
	c0.3311157,0.2086716,0.5227509,0.3225899,0.5759888,0.3396263c0.1213684,0.0521698,0.3311081,0.1096611,0.6270828,0.1703453
	c0.2970428,0.060688,0.4972,0.1703491,0.6026001,0.3268547C96.6690826,50.6964264,96.704216,50.9232025,96.704216,51.1670113z
	 M92.988533,58.5195847c-0.0702667-0.0170364-0.1831207-0.0521698-0.3396225-0.1054039
	c0,0.0181007-0.0095825,0.0361977-0.026619,0.0532341l-0.0255508,0.0521698c0,0.0351334,0.0170364,0.0787849,0.0521698,0.1309509
	h0.1565018C92.8575821,58.6505356,92.9182663,58.606884,92.988533,58.5195847z M105.4429855,67.1540146
	c0,0.1916351-0.139473,0.2874603-0.4184189,0.2874603c-0.0351334,0-0.0873032-0.008522-0.1575699-0.0255508h-0.1565018
	c0.0691986,0-0.0351334,0.0085144-0.3140793,0.0255508c-0.0873032,0.0521698-0.2267685,0.1224365-0.4184113,0.2097397
	c-0.1054001,0.0351334-0.2704239,0.0873032-0.4972,0.1565018c-0.0702667,0.0702667-0.2619095,0.2267761-0.5759811,0.4716492
	c-0.1746063,0.139473-0.3311081,0.2086716-0.4705811,0.2086716c-0.1746063,0-0.3406906-0.1831207-0.4972-0.5493698
	c0.0170364-0.2086716-0.0180969-0.5227432-0.1043396-0.9422226c-0.1745987-0.225708-0.3140717-0.3396301-0.4194717-0.3396301
	c-0.0521698,0-0.252327,0.1245651-0.6015396,0.3726349c-0.3492126,0.2491302-0.5674667,0.4173431-0.6537018,0.5057144
	c-0.244873,0.123497-0.5152969,0.2927856-0.8112793,0.5057144c-0.1745987,0.0170364-0.4535446,0.0351334-0.8378906,0.0532303
	c-0.2789383,0.0713348-0.5057144,0.1064682-0.6803207,0.1064682c-0.0873032,0-0.2129288-0.0180969-0.3790207-0.0521698
	c-0.1660843-0.0351334-0.292778-0.0521622-0.3790207-0.0521622h-0.2352905
	c-0.1224365,0.0691986-0.1927032,0.104332-0.2097397,0.104332c-0.244873,0-0.4365082-0.0702667-0.5759811-0.2108002
	c-0.0170364-0.0181046-0.1916351-0.2374191-0.5227509-0.6600952c-0.0873032-0.4386368-0.1309509-0.7292938-0.1309509-0.8698273
	c-0.0180969-0.1054077-0.0180969-0.2544556,0-0.4482269c0-0.2459335,0-0.421608,0-0.5270081
	c0-0.0702667-0.0127792-0.1852493-0.0393906-0.3428192c-0.026619-0.158638-0.0393982-0.2640381-0.0393982-0.3162079
	c0-0.1054001,0.0127792-0.2640381,0.0393982-0.4748383c0.0266113-0.2108078,0.0393906-0.369442,0.0393906-0.4748421
	c0,0.0702667-0.019165-0.1139183-0.056427-0.553627c-0.0670776-0.7207756-0.0926285-1.1338654-0.0745316-1.2392693
	c0.0521698-0.3524055,0.0521698-0.6153755,0-0.7910461c-0.0351334-0.0702667-0.0872955-0.4130898-0.1575699-1.0284653
	c0.0351334-0.2289047,0.0095825-0.553627-0.0777206-0.9762993c-0.1405334-0.1405334-0.3236542-0.2895889-0.5493622-0.4482231
	c-0.3140793,0-0.5152969-0.1054001-0.6026001-0.3162041v-0.1054039c0.2970428-0.2278366,0.5930176-0.3428192,0.8900604-0.3428192
	c0.0170288,0,0.0521698,0.0085182,0.104332,0.0266151h0.0787888c0.139473,0,0.3406906-0.0436516,0.601532-0.1309547
	c0.2619095-0.0872993,0.4801636-0.1309509,0.6547699-0.1309509c0.4184113,0,0.8112793,0.0255508,1.1775208,0.0787849
	c0.139473,0.0873032,0.2086716,0.2523232,0.2086716,0.4961319c0,0.0532341-0.0170288,0.1309547-0.0521698,0.2363548
	c-0.0351334,0.1043396-0.0521622,0.1831245-0.0521622,0.2352905v1.0199509c0,0.4716454,0,0.6377335,0,0.4971962
	c0,0.1405373-0.0436554,0.3971214-0.1309586,0.7718849c-0.0873032,0.375824-0.1309509,0.6675453-0.1309509,0.8772812
	l0.0787811,0.6015358c0.035141,0.4184151,0.0606918,0.7239723,0.0787888,0.9156113
	c0,0.1224365-0.0095825,0.3055611-0.026619,0.549366l-0.0521698,0.3928604c0,0.4354477,0.0787888,0.8112793,0.2352905,1.1242905
	c0.1043396,0.0702667,0.3140793,0.2278366,0.6281586,0.4716415c0.104332,0.1043396,0.2959747,0.2438126,0.5759811,0.4184189
	c0.4705811,0.0521698,0.9581985,0.0787811,1.4649811,0.0787811c0.3662415,0,0.6707382-0.1224365,0.9156113-0.3662415
	c0.2097397,0.0351334,0.4098969-0.1916428,0.601532-0.6803207c0.139473-0.4184113,0.2097397-0.7591095,0.2097397-1.0210114
	c0-0.3481522,0-0.636673,0-0.8634453c0-0.0873032,0.0170364-0.2086754,0.0521698-0.3662453
	c0.0351334-0.1565056,0.0521698-0.2704239,0.0521698-0.3396301l-0.0351334-0.5238152
	c-0.0117111-0.1735382-0.0351334-0.6185684-0.0692062-1.3340225c0.0170364-0.0521698,0.0170364-0.1831245,0-0.3928604
	c-0.0180969-0.2789421-0.0447159-0.670742-0.0809174-1.1775208c-0.0542984-0.1394691-0.1809921-0.304493-0.3779526-0.4972
	c-0.0180969-0.0170326-0.2619095-0.0692024-0.7292938-0.1565056c-0.3247223-0.0692024-0.486557-0.1831207-0.486557-0.3406906
	c0.0873032-0.139473,0.4354477-0.225708,1.0465698-0.2608414c0.2619095-0.1054039,0.6451874-0.3406944,1.1509018-0.7069397
	c0.0532303-0.0351334,0.1309509-0.0521698,0.2363586-0.0521698h0.1831207c0.086235,0,0.1394653,0,0.1565018,0
	c0.121376,0,0.3044968-0.052166,0.5493698-0.1575699c0.0521698,0,0.1916351,0.0532341,0.4184113,0.1575699
	c0.1054001,0.0702705,0.1575699,0.2970428,0.1575699,0.6803207c0.1565094,0.1565094,0.2352905,0.4972,0.2352905,1.0199509
	c0,0.244873-0.0596161,0.5674667-0.1777954,0.9688454c-0.158638,0.4535446-0.2470016,0.7761383-0.2672348,0.9677811
	c-0.0170288,0.0872993-0.0170288,0.2097359,0,0.3662415c0.0692062,0.2619095,0.1043396,0.4013786,0.1043396,0.4184151
	c0,0.1054001-0.0170364,0.2533913-0.0521698,0.4450302c-0.0351334,0.1927032-0.0521698,0.3311081-0.0521698,0.4184113v1.8578415
	c0,0.0873032-0.0127716,0.2225113-0.0393906,0.4056396c-0.0255508,0.1831207-0.0393906,0.3183289-0.0393906,0.405632
	c0,0.5408554,0.139473,0.8900604,0.4194794,1.0465698c0.1735382,0.0180969,0.4184113,0.0521698,0.7324829,0.104332
	C105.3035126,66.8228989,105.4429855,66.9964447,105.4429855,67.1540146z M111.1474533,67.4936447
	c0,0.1745987-0.1394653,0.3662415-0.4184113,0.5759811c-0.0702667,0.0170364-0.1746063,0.026619-0.3140717,0.026619
	c-0.1746063,0-0.3971252-0.0617523-0.6675491-0.1831284c-0.2704239-0.1224365-0.4748383-0.1831207-0.6143112-0.1831207
	c-0.1927032,0-0.4716492,0.0383301-0.8378906,0.1171112c-0.3662415,0.0787888-0.6451874,0.1181793-0.8368301,0.1181793
	c-0.5759811,0-0.8634415-0.139473-0.8634415-0.4184113c0-0.1575699,0.0521698-0.2533875,0.1565094-0.2885208
	c0.4535446-0.121376,0.7857208-0.3747635,0.9943924-0.7591095c0.0351334-0.0692062,0.0606918-0.1650238,0.0787888-0.2874603
	l0.3928604-3.2440338c0-0.2619057-0.0968857-0.6547661-0.2885208-1.1775169c-0.0170364-0.0351334-0.0170364-0.3311119,0-0.8900604
	c0-0.2789421-0.008522-1.0114326-0.0255585-2.1974678l-0.0521622-1.3084717c0-0.3662453,0.0255508-0.7324905,0.0777206-1.0987358
	c0.0170288-0.3662453,0.0170288-0.7324867,0-1.098732c-0.0170364-0.0702705-0.0255585-0.1139183-0.0255585-0.1309547
	c-0.0180969-0.0170326-0.0095749-0.0958214,0.0255585-0.2352905c0-0.1575699,0-0.3577271,0-0.6026001
	c0-0.3832779-0.1426697-0.7143898-0.4280014-0.9943962c-0.1841812-0.173542-0.3023605-0.2693596-0.3524017-0.2874603
	c-0.0330048,0-0.0883636,0.0095825-0.1639557,0.0266151c-0.075592,0.0170364-0.1298904,0.0255547-0.1628952,0.0255547
	c-0.0670776,0-0.1266937-0.0425873-0.1767349-0.1309547c-0.0511017-0.0862389-0.0681381-0.1650238-0.0500412-0.2352905
	c0.1043396-0.0692024,0.2789459-0.1831245,0.5227509-0.3396301c0.0702667-0.052166,0.2619095-0.1831207,0.5759888-0.3928604
	c0.1745987-0.1213722,0.349205-0.1831207,0.5238113-0.1831207c0.1043396-0.0873032,0.2693634-0.2097397,0.4972-0.3662453
	c0.086235-0.0351334,0.225708-0.0958214,0.4184113-0.1831207l0.7058716-0.4705849
	c0.1224365,0,0.2267761,0.0958214,0.3140793,0.2874603c0.0170364,0.0351334,0.0266113,0.1479874,0.0266113,0.3396301
	c0,0.2278366-0.1054001,0.6547661-0.3151398,1.2829208c-0.2438049,0.7495232-0.3396225,1.4298439-0.2863922,2.0409622
	c0.1213684,0.5749168,0.1650238,0.9241257,0.1298904,1.0465622c0,0.0521698-0.0351334,0.1746063-0.1043396,0.3662453
	c-0.0702667,0.1916389-0.1043396,0.3396301-0.1043396,0.4439659c0,0.1746063,0.0606918,0.3492088,0.1831284,0.5238152
	c0.1213684,0.1746063,0.1831207,0.3577271,0.1831207,0.549366c0,0.2097397-0.0617523,0.4322548-0.1831207,0.6675453
	c-0.1224365,0.2352905-0.1831284,0.4141541-0.1831284,0.5365906c0,0.1213722,0.0340729,0.3396301,0.1043396,0.6537056
	c0.0692062,0.3140755,0.1043396,0.5674667,0.1043396,0.7591057v1.4905281c0,0.1575737,0.0532303,0.4194794,0.1575699,0.7857246
	s0.1565018,0.6281509,0.1565018,0.7846565c0,0.139473-0.0255508,0.3577271-0.0777206,0.6537056
	c-0.0532303,0.297039-0.0787811,0.5152931-0.0787811,0.6547661c0,0.1746063,0.026619,0.7846603,0.0798492,1.8312225
	c0.1064682,0.3140793,0.2576523,0.5067825,0.4546127,0.5759888c0.1416016,0.0351334,0.3374939,0.0958176,0.5876923,0.1831207
	C111.094223,67.2061844,111.1474533,67.3200989,111.1474533,67.4936447z M117.6887589,67.4936447
	c0,0.1745987-0.139473,0.3662415-0.4184189,0.5759811c-0.0702667,0.0170364-0.1746063,0.026619-0.3140717,0.026619
	c-0.1746063,0-0.3971252-0.0617523-0.6675491-0.1831284c-0.2704239-0.1224365-0.4748383-0.1831207-0.6143112-0.1831207
	c-0.1927032,0-0.4716415,0.0383301-0.8378906,0.1171112c-0.3662415,0.0787888-0.6451874,0.1181793-0.8368225,0.1181793
	c-0.5759888,0-0.8634491-0.139473-0.8634491-0.4184113c0-0.1575699,0.0521698-0.2533875,0.1565094-0.2885208
	c0.4535446-0.121376,0.7857208-0.3747635,0.9944-0.7591095c0.0351334-0.0692062,0.0606842-0.1650238,0.0787811-0.2874603
	l0.3928604-3.2440338c0-0.2619057-0.0968857-0.6547661-0.2885208-1.1775169c-0.0170364-0.0351334-0.0170364-0.3311119,0-0.8900604
	c0-0.2789421-0.008522-1.0114326-0.0255508-2.1974678l-0.0521698-1.3084717c0-0.3662453,0.0255508-0.7324905,0.0777206-1.0987358
	c0.0170364-0.3662453,0.0170364-0.7324867,0-1.098732c-0.0170364-0.0702705-0.0255508-0.1139183-0.0255508-0.1309547
	c-0.0181046-0.0170326-0.0095825-0.0958214,0.0255508-0.2352905c0-0.1575699,0-0.3577271,0-0.6026001
	c0-0.3832779-0.1426697-0.7143898-0.4279938-0.9943962c-0.1841888-0.173542-0.3023682-0.2693596-0.3524094-0.2874603
	c-0.0330048,0-0.0883636,0.0095825-0.1639557,0.0266151c-0.075592,0.0170364-0.1298904,0.0255547-0.1628952,0.0255547
	c-0.06707,0-0.1266937-0.0425873-0.1767349-0.1309547c-0.0511017-0.0862389-0.0681381-0.1650238-0.0500412-0.2352905
	c0.1043396-0.0692024,0.2789459-0.1831245,0.5227509-0.3396301c0.0702744-0.052166,0.2619095-0.1831207,0.5759888-0.3928604
	c0.1746063-0.1213722,0.349205-0.1831207,0.5238113-0.1831207c0.1043396-0.0873032,0.2693634-0.2097397,0.4972-0.3662453
	c0.086235-0.0351334,0.225708-0.0958214,0.4184113-0.1831207l0.7058716-0.4705849
	c0.1224365,0,0.2267761,0.0958214,0.3140793,0.2874603c0.0170364,0.0351334,0.026619,0.1479874,0.026619,0.3396301
	c0,0.2278366-0.1054077,0.6547661-0.3151398,1.2829208c-0.2438126,0.7495232-0.3396301,1.4298439-0.2863998,2.0409622
	c0.121376,0.5749168,0.1650238,0.9241257,0.1298904,1.0465622c0,0.0521698-0.0351334,0.1746063-0.1043396,0.3662453
	c-0.0702667,0.1916389-0.104332,0.3396301-0.104332,0.4439659c0,0.1746063,0.0606842,0.3492088,0.1831207,0.5238152
	c0.1213684,0.1746063,0.1831207,0.3577271,0.1831207,0.549366c0,0.2097397-0.0617523,0.4322548-0.1831207,0.6675453
	c-0.1224365,0.2352905-0.1831207,0.4141541-0.1831207,0.5365906c0,0.1213722,0.0340652,0.3396301,0.104332,0.6537056
	c0.0692062,0.3140755,0.1043396,0.5674667,0.1043396,0.7591057v1.4905281c0,0.1575737,0.0532303,0.4194794,0.1575699,0.7857246
	s0.1565094,0.6281509,0.1565094,0.7846565c0,0.139473-0.0255585,0.3577271-0.0777206,0.6537056
	c-0.0532379,0.297039-0.0787888,0.5152931-0.0787888,0.6547661c0,0.1746063,0.026619,0.7846603,0.0798492,1.8312225
	c0.1064682,0.3140793,0.2576523,0.5067825,0.4546127,0.5759888c0.1416016,0.0351334,0.3375015,0.0958176,0.5876923,0.1831207
	C117.6355209,67.2061844,117.6887589,67.3200989,117.6887589,67.4936447z M119.4901657,62.0649147
	c0-0.5089073,0.290657-0.7633629,0.8719635-0.7633629h3.4016037c0.5813065,0,0.8719559,0.2470016,0.8719559,0.7410049
	c0,0.5238152-0.2906494,0.7857246-0.8719559,0.7857246h-3.4016037
	C119.7808228,62.8282814,119.4901657,62.5738258,119.4901657,62.0649147z M136.4886017,58.1011696l-0.1054077,0.1565056
	c-0.1745911,0.0351334-0.3917847,0.1139183-0.6537018,0.2352905l-0.2619019-0.0255508
	c-0.2438049,0.2800064-0.488678,0.7175827-0.7324829,1.3116684c-0.0170441,0.2267723-0.0958252,0.5600128-0.2352905,0.9965248
	c-0.2267761,0.244873-0.484436,0.6739311-0.7718964,1.2861137c-0.2874451,0.6121826-0.4492798,1.0848923-0.4844208,1.4160042
	c-0.0521698,0.1756706-0.1394653,0.4120255-0.2619019,0.7090645c-0.0872955,0.1224365-0.2086792,0.2970428-0.3662415,0.523819
	c-0.0521698,0.2278366-0.1394806,0.4556732-0.260849,0.6824493c-0.6111145,1.1200256-0.9166718,1.923851-0.9166718,2.4135971
	l-0.2086792,0.236351c-0.1224365,0.1043396-0.2352905,0.1575699-0.340683,0.1575699
	c-0.0692139,0-0.3140869-0.1405334-0.7324982-0.4194794c-0.1916351-0.244873-0.4098969-0.6036606-0.6537018-1.0763702
	c-0.0180969-0.6121826-0.1746063-1.0582809-0.4716492-1.3372192c-0.0691986-0.1054001-0.1043396-0.2533951-0.1043396-0.4460983
	c-0.0170288-0.26297-0.0351257-0.4290543-0.0521698-0.4993286c-0.4184113-0.349205-0.7505798-1.0220757-0.9943924-2.0196648
	c-0.0170288-0.0692024-0.0255508-0.1660881-0.0255508-0.2885246c-0.1927032-0.2619095-0.4109573-0.6387978-0.6547699-1.1285439
	c-0.5759811-0.7516556-0.8985748-1.4160042-0.9677811-1.9930534c-0.0521622-0.1224365-0.1575699-0.244873-0.3140717-0.3673096
	c-0.0521698-0.0521698-0.1660919-0.1394691-0.3406906-0.26297c-0.0692062,0.0351334-0.1298904,0.052166-0.1831284,0.052166
	c-0.1916351,0-0.2874603-0.0777206-0.2874603-0.2352905c0-0.0692024,0.0436554-0.1565056,0.1309586-0.2608414
	c0.3492126-0.0702705,0.5759811-0.1054039,0.6803207-0.1054039s0.252327,0.0138435,0.4450302,0.0393944
	c0.1916351,0.0266151,0.3396301,0.0393906,0.4450302,0.0393906c0.0691986,0,0.2778778-0.0170326,0.6270828-0.052166
	l0.6026001-0.0521698c0.0691986,0,0.1735382,0.0085182,0.3140717,0.0255508
	c0.1384125,0.0181007,0.2438202,0.026619,0.3130188,0.026619c0.0180969,0,0.0532379-0.0127754,0.1054077-0.0393944
	c0.0521698-0.0266151,0.0958099-0.0393906,0.1309509-0.0393906c0.0691986,0,0.1958923,0.0660095,0.3790131,0.1958961
	c0.1831207,0.1309547,0.2746887,0.2320976,0.2746887,0.3013c0,0.0873032-0.0702667,0.2352905-0.2097473,0.4450302
	c-0.3832703,0.0521698-0.5749054,0.2533913-0.5749054,0.6015358c0,0.3662453,0.1394653,0.7591057,0.4184113,1.1775208
	c0.1564941,0.436512,0.3577271,1.0902138,0.601532,1.9621735v0.2097397c0.0872955,0.1224365,0.2097321,0.3055611,0.3662415,0.549366
	c0.1054077,0.3662453,0.2352905,0.8368301,0.392868,1.4128113c0.3311005,0.488678,0.5759735,0.7324905,0.7324829,0.7324905
	c0.0691986,0,0.2438049-0.2874603,0.523819-0.8634415c0.4184113-0.8719635,0.6270905-1.5608025,0.6270905-2.0665169
	c0.1224365-0.1916389,0.2704163-0.4716454,0.4450226-0.8378906c0.0691986-0.1916389,0.2182617-0.5057144,0.4450378-0.9422264
	c0.1043243-0.1565056,0.1564941-0.3396301,0.1564941-0.5493698c0-0.2086716-0.1916351-0.5749168-0.5749207-1.098732
	c-0.0872955-0.1043396-0.3055573-0.2704239-0.6547546-0.4972c-0.035141-0.0340691-0.0521698-0.112854-0.0521698-0.2352905
	c0-0.4184113,0.3577271-0.6281509,1.0731812-0.6281509c0.1213684,0,0.3140717,0.0308762,0.5749207,0.0915604
	c0.2619019,0.0617523,0.453537,0.0915604,0.5759735,0.0915604c0.6100616,0,1.0465698-0.0255508,1.3084717-0.0777206h0.0266266
	c0.0340576,0,0.0606842,0.0085182,0.077713,0.0255547c0.0170441,0.0180969,0.035141,0.0266151,0.0521698,0.0266151
	c0.0180969,0,0.0436554-0.0085182,0.0787811-0.0266151c0.035141-0.0170364,0.0692139-0.0255547,0.1043396-0.0255547
	c0.0702667,0,0.1575775,0.0479126,0.2619171,0.1437302C136.4353638,57.9744759,136.4886017,58.0479355,136.4886017,58.1011696z
	 M129.397934,64.1186523c0-0.0351334-0.0266113-0.0787811-0.0787811-0.1309509h-0.1043396
	c-0.0702667,0.1224365-0.1054077,0.1746063-0.1054077,0.1575699v0.2086716h0.1575775
	C129.3532257,64.2666397,129.397934,64.1889191,129.397934,64.1186523z M141.5382996,68.0430069
	c0,0.0862427-0.0617371,0.177803-0.1841736,0.2746811c-0.1213837,0.0958252-0.2267761,0.1447983-0.3130188,0.1447983
	c-0.1054077,0-0.2714844-0.026619-0.4971924-0.0787888c-0.280014-0.0702667-0.4546204-0.104332-0.523819-0.104332
	c-0.3832855-0.0532379-0.7324829-0.0787888-1.0465698-0.0787888c-0.1564941,0-0.3790131,0.0436554-0.6675415,0.1309586
	c-0.2874603,0.0873032-0.4929352,0.1309509-0.6143036,0.1309509c-0.3843536,0-0.5759888-0.1937714-0.5759888-0.580246
	c0,0.0521698,0.0085144-0.0255508,0.0266113-0.2374191c0.0873108-0.0702667,0.2001648-0.1841812,0.3396301-0.3417511
	c0.035141-0.0883713,0.1054077-0.2108078,0.2097473-0.3694458c0.0691986-0.3162003,0.1564941-0.789978,0.2619019-1.4223862
	c0-0.2459412,0-0.6153793,0-1.107254c0-0.1054001,0.0127716-0.2672272,0.0383301-0.4865494
	c0.0266113-0.2193222,0.0393829-0.3736992,0.0393829-0.4610023c0-0.0702667-0.0127716-0.1852493-0.0393829-0.342823
	c-0.0255585-0.1575699-0.0383301-0.2725525-0.0383301-0.3428192V60.952343v-0.2363548c0-0.158638,0-0.2725563,0-0.342823
	c-0.0170288-0.0702705-0.0340729-0.1586342-0.0500336-0.2640381c-0.1171265-0.3854065-0.3502808-0.5791779-0.6994934-0.5791779
	c-0.2161255-0.052166-0.3236542-0.1756706-0.3236542-0.3694382c0-0.0351334,0.021286-0.0873032,0.0649414-0.1575699
	s0.0660095-0.1235008,0.0660095-0.1586342c0.1394653-0.5440445,0.4354553-0.8421516,0.8889923-0.8953857
	c0.2970428-0.0702667,0.733551-0.2022858,1.3084717-0.394989c0.0170441,0,0.1181793-0.0574913,0.3013-0.1714096
	c0.1831207-0.1139221,0.3534698-0.1714134,0.5099792-0.1714134c0.3311157,0,0.4971924,0.1660881,0.4971924,0.4982643
	c0,0.2278366-0.1181793,0.4897461-0.3534698,0.7867889c-0.077713,0.1575699-0.1171112,0.4375763-0.1171112,0.8389549
	c0,0.1405334,0.0255585,0.3545341,0.0777283,0.643055c0.0532379,0.2885246,0.0787811,0.5025215,0.0787811,0.6419945
	c0,0.1224365-0.0351257,0.3321762-0.1043396,0.6302795c-0.0702667,0.2970428-0.0872955,0.6026001-0.0521698,0.9177437
	c0.0170441,0.3662453,0.0170441,0.6111145,0,0.733551c-0.0702667,0.647316-0.1053925,0.9624596-0.1053925,0.9443588
	c0,0.1575699,0.0319366,0.3417587,0.0958099,0.5514984c0.0947571,0.2789383,0.150116,0.4546127,0.1660919,0.5238113
	c0,0.0521698,0,0.4290619,0,1.1274796c0,0.3854141,0.1777954,0.7005539,0.5344696,0.9443588
	c0.1234894,0.0702667,0.284256,0.2097397,0.4801636,0.4194794
	C141.4307709,67.7108307,141.5382996,67.9195099,141.5382996,68.0430069z M141.4329071,53.2079697
	c0,0.1224365-0.2619019,0.4450302-0.7846527,0.9677811c-0.2267761,0.2789421-0.3758392,0.6015358-0.4450378,0.9677811
	c-0.0702667,0.0181007-0.1660919,0.0266151-0.2874603,0.0266151c-0.7846527,0-1.1775208-0.16502-1.1775208-0.4971962
	l0.8889923-1.9621773c0.0181122-0.0692024,0.0958252-0.2789421,0.2363586-0.6281509
	c0.1043396-0.1565056,0.2693634-0.2352905,0.4972076-0.2352905c0.4876099,0,0.7931671,0.2874565,0.9156036,0.8634415
	C141.3807373,53.1813545,141.4329071,53.3474426,141.4329071,53.2079697z M150.0407257,58.9379959l-0.0255585,0.3140755
	c-0.0180969,0.2267761-0.0266113,0.4184151-0.0266113,0.575985c-0.0692139,0.1213722-0.1831207,0.2438087-0.3396301,0.3662453
	c-0.1405334,0.0351334-0.5153046,0.2086716-1.125351,0.5227509l-0.4184113,0.4184113
	c-0.0702667,0.0181007-0.1927032,0.0351334-0.3662567,0.0532341c-0.0872955,0.0351334-0.2182465,0.0958176-0.3928528,0.1831207
	c-0.1043396,0.1043396-0.244873,0.2352905-0.4184113,0.3917961c-0.1746063,0.0521698-0.4279938,0.1309547-0.7591095,0.2352943
	c-0.035141,0.0180969-0.2970428,0.1405334-0.7846527,0.3662415c-0.55896,0.2619095-0.8378906,0.5855675-0.8378906,0.9688454
	c0,0.0170364,0.0223541,0.0787849,0.0660095,0.1831245c0.0436401,0.1043358,0.0649414,0.1831207,0.0649414,0.2352905
	c0.0351257,0.3140717,0.0351257,0.5238113,0,0.6281509v0.2874603c0.1032715,0,0.2118683,0.0873032,0.3236542,0.2619095
	c0.1117859,0.1745987,0.2374268,0.3055573,0.375824,0.3928604c0.0340729,0.1565018,0.1118011,0.3225937,0.2331696,0.4961319
	c0.0681305,0.0362015,0.1628876,0.0617523,0.284256,0.0787888c0.0170441,0,0.0425873,0.0095749,0.0777283,0.0266113
	c0.2587128,0.4535522,0.4748383,0.6803207,0.6473083,0.6803207h0.1032715
	c0.0692139-0.0170364,0.1213837-0.0266113,0.1554413-0.0266113c0.0692139,0,0.1724854,0.0223541,0.3108826,0.0660019
	c0.1384125,0.0436554,0.241684,0.064949,0.3108826,0.064949c0.0862427,0,0.3449554-0.0255508,0.7761383-0.0787888
	l0.7505951-0.0777206c0.3630524,0,0.5440369,0.1565094,0.5440369,0.4705811l-0.0521545,0.2874603
	c-0.1043396,0.1575699-0.3055725,0.3140793-0.6015472,0.4716492c-0.2970428,0.1565018-0.5408478,0.2352905-0.7324829,0.2352905
	c-0.1405334,0-0.3406982-0.0308762-0.6026001-0.0915604c-0.260849-0.0606842-0.4620667-0.0915604-0.601532-0.0915604
	c-0.0873108,0-0.2140045,0.0170364-0.3790283,0.0521698c-0.1660919,0.0351334-0.2927856,0.0521622-0.3800812,0.0521622
	c-0.2959747,0-0.636673-0.112854-1.0199432-0.3396225c-0.1394806-0.0351334-0.4098969-0.1746063-0.8112793-0.4194794
	c-0.1746063-0.0521698-0.4184113-0.1565094-0.7324982-0.3130112c-0.1043243-0.1927032-0.2704163-0.4620667-0.4971924-0.8112717
	c-0.1043396-0.0170364-0.2789459-0.2267761-0.523819-0.6281586c-0.1394653-0.8378906-0.2086639-1.508625-0.2086639-2.0143433
	c0-0.4194756,0.0085144-0.6632843,0.0255432-0.733551c0.0170441-0.3311119,0.0617523-0.8197937,0.1309509-1.4649811
	c0.1575775-0.3662453,0.3311157-0.9241295,0.523819-1.6747169c0.0340729-0.0873032,0.0958252-0.2001572,0.1831207-0.3396263
	c0.0521698-0.0521698,0.1565094-0.1224365,0.3140869-0.2097397l0.5227509-0.6015358
	c0.1575623-0.0521698,0.3662415-0.1479874,0.6281433-0.2874603c0.1213684-0.0873032,0.2959747-0.2097397,0.523819-0.3662453
	c0.0862427-0.0180969,0.3130035-0.0702667,0.6803131-0.1575699c0.5397949-0.1213722,0.8890076-0.1831207,1.0465698-0.1831207
	c0.3140717,0,0.8368225,0.0787849,1.5693207,0.2352905c0.0691986,0.0351334,0.1916351,0.0958176,0.3662415,0.1831207
	c0.0691986,0.0351334,0.2267761,0.1224365,0.4716492,0.2619095
	C149.8490753,58.3364601,150.0588226,58.6239204,150.0407257,58.9379959z M148.2095032,59.7492714
	c0,0.0351334-0.0255585-0.0521698-0.0787964-0.2619095c-0.1043396-0.0170326-0.2438049-0.0436516-0.4184113-0.0787849
	c-0.1746063-0.1565056-0.3492126-0.3481445-0.5227509-0.5749168c-0.3492126-0.3140755-0.6803131-0.4716454-0.9944-0.4716454
	c-0.1575623,0-0.3885956,0.0702667-0.6941528,0.2097359c-0.3045044,0.139473-0.4748383,0.2789421-0.5099792,0.4184151
	c-0.1224365,0.297039-0.2874603,0.7239723-0.4971924,1.2818565c-0.0521698,0.3140755-0.0777283,0.5674667-0.0777283,0.7591057
	c0,0.4705811,0.260849,0.7069359,0.784668,0.7069359c0.4354401,0,0.7409973-0.0958176,0.9156036-0.2885246
	c0.2619019-0.1394691,0.5759888-0.3311081,0.9422302-0.5749168c0.225708-0.0702705,0.4098969-0.1054039,0.5493622-0.1054039
	c0.0692139-0.0170326,0.1873779-0.16502,0.3534698-0.4439621C148.1264496,60.0463104,148.2095032,59.8536072,148.2095032,59.7492714
	z M165.7391968,57.9957695l-0.1043396,0.1831207c-0.1746063,0.0351334-0.3843384,0.1139183-0.6281433,0.2352905
	l-0.2352905-0.0255508c-0.244873,0.2970428-0.4886932,0.7591057-0.7324982,1.3861923
	c-0.0180969,0.2278404-0.0958099,0.575985-0.2352905,1.046566c-0.227829,0.2800064-0.4013824,0.575985-0.523819,0.8900604
	c-0.2097321,0.5238152-0.3268433,0.8112717-0.3534546,0.8634415c-0.0255585,0.0521698-0.0479126,0.139473-0.0649567,0.2619095
	c-0.0702667,0.1394691-0.1575623,0.3492088-0.2619019,0.6281509c-0.035141,0.2267723-0.1309509,0.5493698-0.2874603,0.9677811
	c-0.0872955,0.1043396-0.2012177,0.2704239-0.3406982,0.4972c-0.0521698,0.1565018-0.1394653,0.3928604-0.2608337,0.7058716
	c-0.5940857,1.1349335-0.8900604,1.980278-0.8900604,2.5381622c-0.0521698,0.0170288-0.1309509,0.0915604-0.2352905,0.2225113
	c-0.1054077,0.1309509-0.2012177,0.1969604-0.2885284,0.1969604c-0.1213684,0-0.3662415-0.1490479-0.7324829-0.4450302
	c-0.1746063-0.2619019-0.3832855-0.6366653-0.6281586-1.125351c-0.0170288-0.6451797-0.1735382-1.1157684-0.4705811-1.4128036
	c-0.0702667-0.1043396-0.1043396-0.2746887-0.1043396-0.5099792c0-0.236351-0.0180969-0.3971176-0.0521698-0.4844208
	l-0.2885132-0.2874603c-0.1043396,0.1554413-0.2438202,0.3705063-0.4184265,0.6462555
	c-0.0521545,0.1554413-0.1394653,0.3875351-0.2619019,0.6973495c-0.6100464,1.1200333-0.9070892,1.9557953-0.8889923,2.5072861
	c-0.0180969,0.0170364-0.091568,0.0904999-0.2225189,0.2203903c-0.1309509,0.1288223-0.2406158,0.1937637-0.3268433,0.1937637
	c-0.1405487,0-0.3843536-0.1479874-0.7324982-0.4429016c-0.1746063-0.2427368-0.375824-0.6164398-0.6026001-1.1200256
	c-0.0170288-0.6238937-0.1746063-1.0838242-0.4705811-1.3787384c-0.0872955-0.1213684-0.1266937-0.2991714-0.1181793-0.5333939
	c0.0085144-0.23423-0.0042572-0.3864746-0.0393829-0.4567413c-0.3832855-0.2768173-0.618576-0.6856461-0.7058716-1.2233009
	c-0.2097473-0.5898247-0.3055725-0.9890747-0.2874603-1.1977501c-0.1927032-0.2597771-0.410965-0.6505089-0.6547699-1.1711311
	c-0.5578918-0.7803993-0.8719635-1.4745598-0.9422302-2.0824814c-0.0521698-0.1032753-0.147995-0.2342262-0.2874603-0.3907318
	c-0.1043396-0.0511055-0.2182617-0.1384087-0.3396301-0.2597809c-0.0702667,0.0351334-0.1309509,0.0521698-0.1831207,0.0521698
	c-0.1927032,0-0.2885284-0.0787849-0.2885284-0.2352905c0-0.0873032,0.0436554-0.1831245,0.1309509-0.2885246
	c0.3492126-0.0692024,0.5759888-0.1043358,0.6803284-0.1043358c0.0521698,0,0.1916351,0.0095787,0.4184113,0.0266151
	l0.4194794,0.0521698c0.1384125,0,0.3438873-0.0170364,0.6143036-0.0521698
	c0.2704315-0.0351334,0.4748535-0.0521698,0.615387-0.0521698c0.0521698,0,0.1522369,0.0127754,0.3002319,0.0383301
	c0.147995,0.0266151,0.2491302,0.0393906,0.3013,0.0393906c0.0170288,0,0.0521698-0.0170326,0.1043396-0.052166
	c0.0521698-0.0351372,0.0872955-0.0521698,0.1043396-0.0521698l0.4971924,0.2619057
	c0.0532379,0.1224365,0.0787811,0.1746063,0.0787811,0.1565056V58.23106
	c-0.0351257,0.0532341-0.0872955,0.1139183-0.1564941,0.1831207c-0.3662567,0.244873-0.5493774,0.5504341-0.5493774,0.9166756
	c0,0.3832817,0.147995,0.7931747,0.4439697,1.2296906c0.1394653,0.4535446,0.3311157,1.1423836,0.5759888,2.0665131v0.2352905
	c0,0.0351334,0.0170288,0.0883675,0.0521698,0.1575699c0.2267609,0.1916389,0.4013672,0.6537056,0.5238037,1.3861923
	c0.0340729,0.1054001,0.0958252,0.271492,0.1831207,0.4972c0.2789459,0.5067825,0.505722,0.7591019,0.6803284,0.7591019
	c0.225708,0,0.601532-0.8900528,1.1242828-2.6691093c0,0.0180969,0.0095825,0.0436516,0.0266113,0.0787849l0.0521698-0.0521698
	c-0.0691986-0.1575699-0.1224365-0.4354477-0.1564941-0.8378906c-0.1405487-0.225708-0.2619171-0.4003143-0.3662567-0.5227509
	c-0.1405334-0.2267723-0.284256-0.6451874-0.432251-1.2563057c-0.1479797-0.6100502-0.2917175-1.0465622-0.4311829-1.3084717
	c-0.1054077-0.1043358-0.244873-0.2693596-0.4194794-0.4961319c-0.3662415-0.1224365-0.5493622-0.3055611-0.5493622-0.5504341
	c0-0.086235,0.0436401-0.2001572,0.1309509-0.3396263l1.0465546,0.0521698c0.1054077,0,0.4194794-0.0212936,0.9422302-0.0649452
	l0.9156189-0.0660095c0.1394653,0,0.3225861,0.0393906,0.5493622,0.1181755
	c0.2267761,0.0787888,0.392868,0.117115,0.4972076,0.117115c-0.0692139,0,0.0266113-0.0330048,0.2885132-0.1000786
	c0.3662415-0.0904961,0.7580414-0.1352119,1.1764526-0.1352119c0.0180969,0,0.035141,0.0180969,0.0532379,0.0521698
	c0.0170288,0.0351334,0.0425873,0.0532303,0.0777283,0.0532303c0.0170288,0,0.0393829-0.0180969,0.0660095-0.0532303
	c0.0255432-0.0340729,0.056427-0.0521698,0.0915527-0.0521698c-0.0521698,0,0.0606842,0.0745277,0.3396301,0.2225151v0.3353691
	c-0.1565094,0.037262-0.3832855,0.1394691-0.6803284,0.3055573l-0.2352905-0.052166
	c-0.1564941,0.2097359-0.3917847,0.6718025-0.7058716,1.3872566c-0.0351257,0.1916389-0.0883636,0.4705811-0.1575623,0.8368263
	c-0.0873108,0.1224365-0.2267761,0.3492088-0.4184113,0.6803207c-0.0521698,0-0.0958252,0.0181007-0.1309662,0.0521698v0.1043358
	c0.1586456,0.873024,0.2384949,1.3180542,0.2384949,1.3350906c0,0.0170326,0.0170288,0.052166,0.0521698,0.1043358
	c0.246994,0.244873,0.4237366,0.7154541,0.529129,1.4128075c0.0170441,0.0521698,0.0787964,0.2182617,0.185257,0.4972
	c0.3353729,0.5067825,0.5727844,0.7591095,0.714386,0.7591095c0.1235046,0,0.3087616-0.3194046,0.5557556-0.9592667
	l0.3513489-1.0252724c0.1383972-0.4194756,0.2076111-0.7772026,0.2076111-1.0742455
	c0.155426-0.2959747,0.2938385-0.5930176,0.4152069-0.8900604c0.1213837-0.297039,0.2682953-0.6281509,0.4407806-0.9943962
	c0.1043396-0.1575699,0.1564941-0.3492088,0.1564941-0.5759811c0-0.2267761-0.1831207-0.6111183-0.5493622-1.1519699
	c-0.0702667-0.1054001-0.2885284-0.2789421-0.6547699-0.5238152c-0.0351257-0.0351334-0.0521698-0.112854-0.0521698-0.2352905
	c0-0.4546127,0.3492126-0.681385,1.0465698-0.681385c0.1224365,0,0.3098145,0.0351334,0.562149,0.1054039
	c0.2533875,0.0692024,0.4407654,0.1043358,0.5632019,0.1043358c0.6100464,0,1.0369873-0.0266151,1.2818604-0.0787849h0.0266113
	c0.0170288,0,0.0393982,0,0.0649414,0c0.0266266,0,0.0479126,0,0.0660095,0c0.0170441,0,0.0425873,0,0.0777283,0
	c0.0351257,0,0.0617523,0,0.0787811,0c0.0691986,0,0.1565094,0.0489731,0.2619019,0.1437302
	C165.687027,57.8701363,165.7391968,57.9435997,165.7391968,57.9957695z M158.9892273,58.8070412
	c-0.0180969,0-0.0532379-0.0170326-0.1054077-0.052166h-0.1831207c0.0170288,0.0702667-0.0351257,0.1309509-0.1565094,0.1831207
	l-0.1831207,0.1043358c-0.0351257,0.1575737-0.0521698,0.4279976-0.0521698,0.8112755
	c0,0.1043396,0.0255585,0.2352905,0.0777283,0.3928604c-0.035141,0.0692062-0.0521698,0.1479912-0.0521698,0.2352943
	c0,0.0872993,0.0223541,0.1916389,0.0660095,0.3140755c0.0425873,0.1224365,0.169281,0.1746025,0.3790131,0.1565056
	c0.1213837-0.0862389,0.1660919-0.2257118,0.1309662-0.4184151l-0.0521698-0.4184113v-0.4705811
	c0-0.0873032,0.0255432-0.2267761,0.077713-0.4194794C158.9892273,59.0338173,159.0062561,58.8943443,158.9892273,58.8070412z
	 M158.8061066,64.328392c0-0.0521698-0.0180969-0.0958176-0.0532379-0.1309509h-0.1043396
	c-0.0702667,0.1224365-0.1043396,0.1746063-0.1043396,0.1565018v0.2097397h0.1309662
	C158.7624512,64.4763794,158.8061066,64.3975983,158.8061066,64.328392z"/>
<path class="st0" d="M35.0191612,46.8761406c-10.734375-0.0302505-19.2955475-8.7942429-19.1370888-19.8331184
	c0.1492395-10.3964844,8.5179243-17.9266319,18.060955-18.0079536c10.604332-0.0903645,19.7493935,8.9083834,19.3805847,20.0817146
	C52.9943085,39.0932388,44.9257927,47.0164604,35.0191612,46.8761406z M34.291935,12.3861599
	c-8.3531857,0.0634546-14.7497635,6.4699516-15.1074619,14.5726528
	c-0.3873997,8.7754784,6.4891243,16.5804253,15.5957928,16.7436638c8.5268974,0.1528473,15.3135109-6.6459541,15.3700714-15.2146492
	C50.2077446,19.7916965,42.9816208,12.4547291,34.291935,12.3861599z M17.2559643,30.3382664
	c-0.105545,0.0276527-0.2110882,0.0553036-0.3166332,0.0829582c0,0.4382782-0.0721722,0.8907928,0.0110569,1.3126507
	c0.9304848,4.7162056,3.3846378,8.4112892,7.4696178,10.9807777c0.2415504,0.1519356,0.6058044,0.1087914,0.9129581,0.1564293
	c-0.1346989-0.2842484-0.1990662-0.646347-0.414629-0.8410797c-3.3103848-2.9905586-5.5839195-6.6580772-7.1461411-10.8029346
	C17.6530132,30.9108639,17.4304638,30.6336193,17.2559643,30.3382664z M72.6068878,77.6412888
	c-0.1230774,0.9242935-0.5273514,1.5277023-1.2023468,1.9744263c-1.0189285,0.6743393-2.0398102,1.3459167-3.0678101,2.0062866
	c-1.5620804,1.0034637-2.730835,0.7597351-3.7706909-0.8120422c-1.9733543-2.9827957-3.9302673-5.9764709-5.8936081-8.965889
	c-4.6621666-7.0986862-9.3352051-14.1903076-13.9651604-21.3099442c-0.3727989-0.5732727-0.6404839-1.350605-0.6025543-2.0128059
	c0.0309372-0.5401115,0.4860649-1.1826897,0.9402924-1.5454369c0.9499397-0.7586174,2.0199738-1.3678818,3.0468674-2.0288849
	c1.6838875-1.0838966,2.8255424-0.8250275,3.9435654,0.8806877c1.8974457,2.8948364,3.7928619,5.7910118,5.6949921,8.6827774
	c4.6511421,7.0710258,9.311367,14.1360893,13.9482841,21.2164192C72.064064,76.3152847,72.3010025,77.0008621,72.6068878,77.6412888
	z M65.2396088,77.4834366c-0.2114487-0.4092026-0.4868927-1.0807495-0.8773804-1.6769257
	c-5.0393524-7.6938858-10.0927353-15.3785858-15.151226-23.0599136c-0.398674-0.6053886-0.8068352-1.2237396-1.3166924-1.7289925
	c-0.275631-0.2731438-0.7759933-0.3195076-1.1749725-0.4681778c-0.007164,0.4308472-0.0926933,0.879776,0.001339,1.2872696
	c0.0878143,0.3805542,0.3424034,0.7328072,0.5643349,1.0707474c5.2709503,8.0263252,10.5432014,16.051815,15.8334427,24.0654182
	c0.3140068,0.4756546,0.7335625,0.9128647,1.1884384,1.2560349C64.8237381,78.6188278,65.2153702,78.3880615,65.2396088,77.4834366z
	 M45.1989822,45.7361221c0.1385765,0.1467094,0.491169,0.289608,0.6193848,0.2148361
	c0.7083321-0.413044,1.3772812-0.8936272,2.1007881-1.378582c-0.3753891-0.5355225-0.6674004-0.9521065-0.9961777-1.4211311
	c-0.8312263,0.5471764-1.5938339,1.0491829-2.3970108,1.5778923C44.7852516,45.1302986,44.9502296,45.4727745,45.1989822,45.7361221
	z M19.8404179,27.5991096c0.0196457-8.2153721,6.3730164-14.5470085,14.5684834-14.5186472
	c8.2617798,0.0285912,15.0927505,7.0181646,15.0564461,15.4060183c-0.0345764,7.9877281-6.4626083,14.5236549-14.2952766,14.5352249
	C26.7092323,43.0342064,19.8200798,36.1032829,19.8404179,27.5991096z M48.9556847,28.4136505
	c0.0294914-8.1373425-6.5865593-14.8523865-14.6714096-14.8909435c-7.6839523-0.0366449-14.0058899,6.2332344-14.0142593,13.987608
	c-0.0092545,8.5744171,7.0060272,15.0849571,14.8364754,15.0172958
	C42.786438,42.4612503,48.9271317,36.2933044,48.9556847,28.4136505z M43.0931931,21.4610577
	c0.2885666,0.1471996,0.7294083-0.0041046,1.0997238-0.0171642c-0.0251045-0.3745899-0.0373535-0.7507858-0.0837936-1.1227131
	c-0.0125732-0.1006584-0.1237106-0.1924763-0.1978645-0.2814713c-2.3971405-2.8768082-5.466156-4.4983311-9.202549-4.6554089
	c-5.1372299-0.2159691-9.7755985,2.7883129-11.8276806,7.5296879c-0.1467724,0.3391209-0.2764225,0.7308578-0.2498474,1.0858364
	c0.022213,0.2967472,0.2214031,0.6879272,0.4626274,0.8242836c0.1725368,0.0975304,0.6186218-0.0789604,0.8160019-0.266489
	c3.441925-3.2701702,7.6726665-4.4247208,12.2319164-4.6384563C38.5766983,20.0106888,40.9134674,20.3491707,43.0931931,21.4610577z
	 M30.7244301,40.0714188c2.0427933,0.7946243,4.1526566,0.8657455,6.2738876,0.4828262
	c2.3990517-0.4330673,4.5839119-1.3509674,6.1955681-3.2728577c0.4512711-0.5381432,0.7393532-1.2131271,1.1022911-1.8253365
	c-0.0799446-0.0887947-0.159893-0.1775932-0.2398415-0.2663879c-4.9292755,3.5335388-10.3329163,4.0190849-16.239254,2.4164467
	C28.5349445,38.8836403,29.3822975,39.5493393,30.7244301,40.0714188z"/>
</svg>
