<?xml version="1.0" encoding="utf-8"?>
<!-- Generator: Adobe Illustrator 19.1.0, SVG Export Plug-In . SVG Version: 6.00 Build 0)  -->
<svg version="1.1" id="Layer_1" xmlns="http://www.w3.org/2000/svg" xmlns:xlink="http://www.w3.org/1999/xlink" x="0px" y="0px"
	 width="600px" height="70px" viewBox="44 222 600 70" style="enable-background:new 44 222 600 70;" xml:space="preserve">
<style type="text/css">
	.st0{fill:#C2B8AF;}
</style>
<g>
	<path class="st0" d="M118.2350845,232.4745331c3.5378189-1.4205322,5.9049301-2.5055389,7.1019974-3.2550201
		c0.1443634,0.1450195,0.3941956,0.2926636,0.7494888,0.4436188c0.3553009,0.1516113,0.7363052,0.286087,1.1443405,0.4047394
		c1.4989777,0.3941956,2.6433105,1.0454559,3.4323425,1.9524841c0.7890472,0.9076996,1.1832275,1.9992981,1.1832275,3.2748108
		c0,0.9861298-0.1839142,1.8279114-0.5523834,2.5253143c-0.3678284,0.6967621-0.9762573,1.3743896-1.8246155,2.031601
		c-0.8483582,0.6578522-2.1930923,1.4534912-4.0341797,2.3868866c1.1047821,0.4080353,1.9663315,0.9241638,2.5846405,1.5484161
		c0.6176605,0.6248932,1.0553436,1.4073486,1.3117676,2.3479919c0.256424,0.9399872,0.3843079,2.1864929,0.3843079,3.7375488
		c0,0.7237854,0.0560303,1.331543,0.1680908,1.8252716c0.1114044,0.4930573,0.2590485,0.8615417,0.4436188,1.104126
		c0.1839142,0.2438965,0.3876038,0.4212189,0.6117249,0.5332794c0.223465,0.1113892,0.4996643,0.1674194,0.8285828,0.1674194
		c0.2366486,0,0.5154877-0.0791016,0.8378296-0.2366333c0.3223267-0.1582031,0.6018219-0.3553009,0.8384705-0.5919495
		l0.9076843,1.5385284c-0.6710358,0.4607697-1.8608551,1.2036591-3.5707703,2.2293549
		c-1.7230988,1.0520325-2.7883301,1.7224121-3.1957016,2.0118103c-0.8945084-0.5260315-1.5615997-0.9828491-2.0019302-1.3710938
		c-0.4409943-0.3876038-0.8160629-0.857605-1.1245575-1.4099884c-0.3091583-0.5523987-0.5458069-1.3216553-0.709938-2.3084564
		c-0.1647949-0.9861298-0.2465363-2.307785-0.2465363-3.9649658c0-1.6044312-0.1977539-2.8403931-0.5919418-3.7085419
		c-0.3948517-0.8681335-0.9736099-1.3018799-1.7362823-1.3018799c-0.2366409,0-0.5392075,0.0560303-0.9070282,0.1674347
		c-0.3684845,0.1120605-0.7237778,0.2801514-1.0652313,0.5036163c0,1.6169586-0.032959,2.8239288-0.098877,3.6195526
		s-0.1647949,1.4304199-0.2959747,1.903717c-0.1318359,0.4732819-0.3058624,0.8912048-0.522728,1.2524414
		c-0.2168732,0.3618774-0.5655746,0.7956238-1.0454636,1.3018799c-0.4798813,0.5062408-1.0124969,0.9768982-1.597847,1.4106445
		c-0.58535,0.4337311-1.226738,0.8681335-1.9234848,1.3018799l-1.9136047,1.2227783
		c-0.6703796,0.4469299-1.3414307,0.9406433-2.0118103,1.4798584l-3.2550354-3.1363831l-1.6571732,1.2227783l-1.0256882-1.4396515
		l5.5239258-4.1824951l3.1166077,3.334137c0.5780945-0.2761993,0.8681335-0.9399872,0.8681335-1.9927063v-15.5836639
		c0-1.1970673-0.0665741-2.1601257-0.1977539-2.8905029c-0.1311722-0.7297058-0.3941879-1.3144073-0.789032-1.7554016
		c-0.3941956-0.4403229-0.966362-0.6604919-1.7158508-0.6604919c-0.7494812,0-1.394165,0.2465363-1.9333725,0.7395935
		c-0.5392075,0.4930725-0.808815,1.1146851-0.808815,1.8641663c0,0.5392151,0.157547,1.0817108,0.4732971,1.6275177
		c0.3157425,0.5457916,0.7824402,1.1805878,1.4007568,1.9037018c0.3025589,0.3678284,0.5919418,0.7626801,0.8681335,1.1832275
		c0.2761993,0.4212189,0.509552,0.8780365,0.7000504,1.3710938c0.190506,0.4930725,0.286087,1.0289917,0.286087,1.6077423
		c0,1.394165-0.5029526,2.6004639-1.5088654,3.6195526c-1.0065689,1.0197601-2.4692841,1.8318634-4.389473,2.4363403
		l-0.6315002-1.4007568c0.8022232-0.3678284,1.3546143-0.7363129,1.6571808-1.104126
		c0.3025665-0.3684845,0.4541779-0.795639,0.4541779-1.2827759c0-0.4600983-0.1450195-0.9300995-0.4344025-1.4099731
		c-0.2893829-0.4798889-0.7494888-1.0949097-1.3809814-1.8443909c-0.3150864-0.3684845-0.6084213-0.7725525-0.8773651-1.2135468
		c-0.2696075-0.4403381-0.4930725-0.91362-0.671051-1.4205322c-0.1773148-0.5056-0.266304-1.0744629-0.266304-1.7059631
		c0-1.2886963,0.3519974-2.47258,1.0553436-3.5509949c0.7033463-1.0777588,1.6967316-1.9333801,2.9788361-2.564209
		c1.2821045-0.6315002,2.7448196-0.9472504,4.389473-0.9472504
		C115.0196075,229.3770447,117.0914078,230.4099884,118.2350845,232.4745331z M119.2021027,242.4953918
		c2.2880096-0.4469299,3.9774857-1.1074219,5.0697479-1.9821625c1.0909424-0.8747253,1.6374054-2.0091705,1.6374054-3.4033356
		c0-0.6967621-0.1647949-1.3374786-0.4937286-1.9228363c-0.3289337-0.5853424-0.7626724-1.04216-1.3018799-1.3710938
		s-1.1113739-0.4930573-1.7158432-0.4930573c-0.4475861,0-0.9999771,0.1047974-1.6571808,0.3150787
		c-0.6578598,0.2109375-1.2755127,0.4739532-1.8542709,0.7890472c0.091629,0.40802,0.1674347,0.9736023,0.2267609,1.6967163
		c0.0593262,0.7237854,0.0889893,1.4403076,0.0889893,2.1502533V242.4953918z"/>
	<path class="st0" d="M155.5189514,251.0172577c0,0.8154144,0.1278687,1.4699707,0.3842926,1.9630432
		c0.256424,0.4930573,0.6282043,0.7395935,1.1146698,0.7395935c0.223465,0,0.5392151-0.0889893,0.9465942-0.2663116
		c0.40802-0.1773071,0.7956238-0.3849487,1.1641083-0.6215973l0.631485,1.3809814
		c-3.1172485,1.6571808-5.418457,2.9392853-6.9042358,3.8469696c-0.8160706-0.3948364-1.4370117-0.9439392-1.8641663-1.6472778
		c-0.4278107-0.7033539-0.6743469-1.6795959-0.7402649-2.9294128c-3.4718933,1.5780792-6.2529755,3.1040955-8.3438873,4.5766907
		c-0.5919495-0.671051-1.3157196-1.298584-2.1700287-1.8839417c-0.85495-0.5853424-1.6176147-0.9828339-2.2886658-1.1937714
		l-0.0395508-1.0256805c0.5392151-0.0263672,0.9571228-0.1212921,1.2530975-0.286087
		c0.2959747-0.1641388,0.509552-0.4007721,0.6407318-0.7099304c0.1318359-0.3091583,0.1977539-0.8253021,0.1977539-1.5484161
		v-6.6873779c0-1.1707001-0.1054688-2.0421448-0.3157501-2.6136475c-0.2109375-0.5721741-0.5919495-0.8582458-1.1443329-0.8582458
		c-0.3157501,0-0.6282043,0.0593262-0.9367065,0.1773071c-0.3091431,0.1186523-0.5952301,0.2498322-0.8582458,0.3948517
		l-0.5128479-1.4007568c0.7890472-0.3553009,1.8377991-0.8681335,3.1462708-1.5385284
		c1.3084717-0.6710358,2.4561005-1.2821045,3.4422302-1.8344879c0.8154144,0.3546295,1.4370117,0.946579,1.8641663,1.7751617
		c0.4271545,0.828598,0.6413879,1.9861145,0.6413879,3.4719086v9.1335907c0,0.3678284,0.1641235,0.7165222,0.4930573,1.0454559
		c0.3282776,0.3289337,0.6506195,0.4930725,0.9663544,0.4930725c0.4073792,0,1.709259-0.5589905,3.906311-1.6769562v-7.7526093
		c0-0.8015594-0.1483154-1.3710938-0.4442902-1.7059631c-0.2959747-0.3355255-0.765976-0.5095367-1.4106445-0.5227203v-1.1245728
		c0.7501373-0.3678131,1.4007568-0.7626648,1.9531403-1.1838837c0.5523987-0.4205475,1.0125122-0.91362,1.3809814-1.4792023
		h3.8469849V251.0172577z"/>
	<path class="st0" d="M168.7157288,252.0429382c0,0.5266876,0.1047974,0.9406586,0.3157349,1.2432251
		c0.2102814,0.3025513,0.538559,0.4535065,0.986145,0.4535065c0.3025513,0,0.6506042-0.091629,1.0454559-0.2761993
		l0.6117096,1.4205322c-1.0131531,0.5912933-2.0421295,1.2392578-3.0875854,1.9425964
		c-1.0454712,0.7033691-1.7784729,1.2333374-2.1990356,1.5879822c-1.526001-1.4989929-3.1567993-2.4389648-4.8924255-2.8206329
		v-1.3216553c0.6967468-0.091629,1.1865234-0.3908997,1.4693146-0.8978119
		c0.2827911-0.5055847,0.4245148-1.3242798,0.4245148-2.4554443v-12.7439117c0-1.5648956-0.1845703-2.754715-0.5523987-3.5701141
		c-0.3684845-0.8154144-1.0329285-1.427124-1.9927063-1.8345032l0.5721741-1.2234344
		c0.7626648,0.3289337,1.5253448,0.4930573,2.2886658,0.4930573c1.4989777,0,2.9715881-0.3018951,4.4184875-0.9070282
		c0.7626648-0.3025665,1.3875732-0.5260162,1.874054-0.6710358c0.4864655-0.1443634,0.9729462-0.2168732,1.460083-0.2168732
		h0.4337311v1.4205322c-0.8022156,0.0395508-1.4337158,0.2432404-1.8938141,0.6110535
		c-0.4607697,0.3684845-0.7890472,0.9241791-0.986145,1.6670685c-0.1977539,0.7435608-0.2959595,1.7659454-0.2959595,3.0678253
		V252.0429382z"/>
	<path class="st0" d="M180.2948761,249.4787292c0.1582031,0.8681488,0.4607697,1.6242218,0.9076843,2.2682495
		c0.4469299,0.6446686,0.9432831,1.1219177,1.48909,1.4304199c0.5458069,0.3091431,1.0883026,0.4633942,1.6275177,0.4633942
		c0.7626648,0,1.522049-0.1773224,2.2787781-0.532608c0.7560883-0.3546448,1.5945587-0.8740845,2.5147705-1.5583038
		l0.7501526,1.5385284l-2.0915833,1.3809814c-2.6960449,1.7362671-4.4975739,3.0506897-5.4046173,3.9451904
		c-0.631485-0.2762146-1.2629852-0.5392151-1.8938141-0.789032c-1.3546143-0.5385742-2.4264374-1.1700439-3.2154846-1.8931732
		c-0.789032-0.7231293-1.3875732-1.7132111-1.7949371-2.9689484c-0.4080353-1.2557373-0.6117249-2.8437042-0.6117249-4.7638855
		c0-1.3282471,0.1147003-2.446228,0.3454132-3.3539124c0.2293854-0.9076843,0.5550232-1.6538849,0.9762421-2.2392273
		c0.4205627-0.5847015,0.9235077-1.0876465,1.5088654-1.5088654c0.5853424-0.4205627,1.4238281-0.8938446,2.5154266-1.4205322
		l4.3789368-2.0513763l5.0110779,7.8910522L180.2948761,249.4787292z M181.3014374,240.7597656
		c-0.3157501,0.2102814-0.5497589,0.5062561-0.7006989,0.8872528c-0.1509552,0.3816681-0.2630157,0.9670258-0.3348694,1.7560577
		c-0.0725098,0.789032-0.1087646,2.150238-0.1087646,4.082962l4.0836182-1.7949524L181.3014374,240.7597656z"/>
	<path class="st0" d="M218.406662,237.011673c0.1970978-0.5523987,0.352005-1.0718231,0.4634094-1.5583038
		c0.1120605-0.4864807,0.1680908-0.9993134,0.1680908-1.5391846c0-0.6440125-0.1680908-1.137085-0.5029602-1.4792023
		c-0.3355255-0.3421173-0.8516541-0.5391998-1.5490723-0.5919342v-1.3018799h8.5027618v1.3018799
		c-0.5003204,0.0791016-0.9241638,0.2399292-1.2728729,0.4831696c-0.3487091,0.2438965-0.6638031,0.5919495-0.946579,1.0454559
		c-0.2827911,0.4541779-0.6150208,1.1937866-0.9960327,2.2194672l-8.2654419,22.0146332h-4.5569153l-6.5100555-22.0937347
		c-0.2893829-0.9861298-0.5326233-1.6861877-0.7297211-2.1008148c-0.1970825-0.4139557-0.4535065-0.7494812-0.7692566-1.0059052
		s-0.7567444-0.4436188-1.3216553-0.5622711v-1.3018799h10.9087677v1.3018799
		c-0.6842346,0.0791016-1.1904755,0.2695923-1.5194092,0.5721588c-0.3282776,0.3025665-0.4930725,0.7297211-0.4930725,1.2821045
		c0,0.4344025,0.0395508,0.8582611,0.1186523,1.2722168c0.0791016,0.4146271,0.2432404,1.075119,0.4930725,1.9828186
		l3.9056396,14.1637878L218.406662,237.011673z"/>
	<path class="st0" d="M232.9257507,239.6549835v4.6162262h-3.9458466v-4.6162262H232.9257507z M232.9257507,252.8913116v4.5766754
		h-3.9458466v-4.5766754H232.9257507z"/>
	<path class="st0" d="M245.9254456,255.416626c1.2359619-2.9722443,3.1891022-4.5503235,5.8587799-4.7348938
		c0.4996643-0.5912781,0.8879242-1.1799316,1.1641083-1.765274c0.2761993-0.5847015,0.4139709-1.1074219,0.4139709-1.5681915
		c0-0.3948517-0.05867-0.7725525-0.1773224-1.1344452c-0.1186523-0.3612366-0.3421173-0.7923431-0.6710358-1.2919922
		c-0.3282776-0.4996643-0.8022308-1.0981903-1.4198761-1.7949524c-0.3948517-0.4344025-0.7593842-0.8977966-1.0948944-1.3908691
		c-0.3355255-0.4930573-0.6183167-1.0256805-0.8483734-1.5978546c-0.2300568-0.5721588-0.3454132-1.2128906-0.3454132-1.9234772
		c0-1.5385284,0.3684845-2.9617004,1.1047974-4.2708282c0.7362976-1.3084717,1.9333649-2.6268311,3.5905457-3.9550781
		c0.3282776,0.3684845,0.6506042,0.6315002,0.9663544,0.789032c0.3157501,0.1582031,0.6967621,0.2366486,1.1443329,0.2366486
		c0.4601135,0,0.9432983-0.0454865,1.4495544-0.1377716c0.5062256-0.0922852,1.0553284-0.1977539,1.6472778-0.3157349
		c1.3018799-0.3025665,2.479187-0.4535217,3.5312195-0.4535217c2.6696777,0,5.0203247,0.5326233,7.0525818,1.5978546
		c2.0315857,1.0652313,3.6096497,2.6268311,4.7342224,4.6847839c1.1245422,2.0586243,1.6861877,4.500885,1.6861877,7.3287659
		c0,2.1040955-0.3421326,4.0308838-1.0256958,5.7796783c-0.6835632,1.7488098-1.6835327,3.2846985-2.9979553,4.6063538
		c-1.3157043,1.3216553-2.8476562,2.3440552-4.5964661,3.0671692c-1.7494507,0.723114-3.4916687,1.0849915-5.2279358,1.0849915
		c-0.8153992,0-1.5682068-0.0725098-2.2583618-0.2168579c-0.6908264-0.1450195-1.3348389-0.3421021-1.9333801-0.5919495
		c-0.5985107-0.2498169-1.1871643-0.5589905-1.765274-0.9267883c-0.5787506-0.3684998-1.3018799-0.8813324-2.1700134-1.5391998
		c-0.6446838-0.499649-1.2267303-0.8773651-1.74617-1.1337891s-1.0223846-0.384964-1.5088654-0.384964
		c-1.3282471,0-2.4462128,0.9340668-3.353241,2.8015137L245.9254456,255.416626z M253.4018555,232.2181091
		c-0.6703796,0.5787659-1.1476288,1.1436768-1.4297638,1.6960754c-0.2834473,0.5523987-0.4245148,1.1311493-0.4245148,1.7362823
		c0,0.6308289,0.1212921,1.2062988,0.3651886,1.7257233c0.2432404,0.5200958,0.5352631,1.0032806,0.8773651,1.4501953
		c0.3421173,0.4469299,0.6974182,0.8681488,1.0652466,1.2623291c0.3684692,0.4212189,0.727066,0.8714447,1.075119,1.3513184
		c0.3487091,0.480545,0.6380768,0.9999847,0.8681335,1.5583038c0.2300568,0.5589905,0.3454132,1.173996,0.3454132,1.8443909
		c0,2.0124664-0.821991,3.9985809-2.4659882,5.9576569c0.6051178,0.1186523,1.1937714,0.3256378,1.765274,0.6216125
		c0.5721741,0.2959747,1.2267456,0.7132263,1.9630432,1.2524414c0.8153992,0.5919495,1.4758911,1.0487518,1.9828186,1.3710938
		c0.5055847,0.3223419,1.0223694,0.5886536,1.5484009,0.7989197c0.5260315,0.2102814,1.1047974,0.3816681,1.7356262,0.5128479
		c0.6315002,0.1318359,1.3150635,0.1970978,2.0520325,0.1970978c1.709259,0,3.2154846-0.4732971,4.5173645-1.4198761
		c1.3018799-0.9472351,2.3044739-2.2688904,3.0078125-3.9656219c0.7033691-1.6960754,1.0553589-3.4976044,1.0553589-5.4046173
		c0-2.1436462-0.3974915-4.0308838-1.1931152-5.6616974s-1.9564514-2.9030304-3.481781-3.8173065
		c-1.526001-0.91362-3.3275452-1.3710938-5.4052734-1.3710938c-0.8022156,0-1.4989929,0.0428467-2.0909119,0.12854
		c-0.5919495,0.0856934-1.1311646,0.1806183-1.6176453,0.286087c-0.9070129,0.1970978-1.4923706,0.3157501-1.7554016,0.3546295
		c-0.2636719,0.0395508-0.5523682,0.0593262-0.8681335,0.0593262c-0.5787659,0-1.0619354-0.0718384-1.4501953-0.2168579
		c-0.3875885-0.1443634-0.7330017-0.3711243-1.0355682-0.6802826S253.7696838,232.9939728,253.4018555,232.2181091z"/>
	<path class="st0" d="M278.316864,238.9641571h0.197113c0.9597473,0,1.7454834-0.1773224,2.3572083-0.532608
		c0.6117249-0.3546448,1.1047974-0.8872681,1.4798584-1.5978546c0.3744202-0.7099457,0.657196-1.61763,0.8477173-2.721756
		c0.1904907-1.1047821,0.2992554-2.4330292,0.3256226-3.9847412h1.5780945v8.5218811h4.4000244v2.0315857h-4.4000244v13.1183319
		c0.4073486,0.3421173,0.8088074,0.6249084,1.2043152,0.8483734c0.3941956,0.2234497,0.6499329,0.3348541,0.7685852,0.3348541
		c0.2241211,0,0.5853577-0.1048126,1.085022-0.3150787c0.4996643-0.2102814,1.0454712-0.4996643,1.6373901-0.8681488v1.7949524
		c-0.6314697,0.3025665-1.4066772,0.7429047-2.3282166,1.32164c-0.9201965,0.5787659-1.6703491,1.0982056-2.2484436,1.5583191
		c-1.6051025-1.6176453-3.2484436-2.5708008-4.9320068-2.8601837v-0.927475
		c0.5919495-0.1443481,1.0289917-0.3809967,1.3117676-0.7099304c0.2828064-0.3282776,0.42453-0.7626648,0.42453-1.3018799
		v-11.9937744h-3.7085571V238.9641571z"/>
	<path class="st0" d="M293.841217,238.7077332c0-0.7620087-0.0224304-1.4033813-0.068573-1.922821
		s-0.1212769-0.9604187-0.2267456-1.3216553c-0.1054688-0.3618927-0.2307129-0.6611633-0.3744202-0.8977966
		c-0.1450195-0.2366486-0.3164062-0.4337463-0.5128479-0.5919495c-0.1977539-0.157547-0.4086914-0.3025665-0.6314697-0.4337463
		l-0.8490295-0.4732819v-1.302536c0.3691406,0.1713867,0.8582458,0.3256226,1.4699707,0.4640503
		c0.6117249,0.1377716,1.1074219,0.2069855,1.4897461,0.2069855c0.671051,0,1.3051758-0.0889893,1.903717-0.2663116
		c0.5985107-0.1773071,1.1733398-0.3777008,1.725708-0.6018219c1.0388794-0.4205627,1.7257385-0.6769867,2.0619202-0.7692719
		c0.3348694-0.0916138,0.6802673-0.1509399,1.0349121-0.1773071v1.4000854
		c-1.4066772,0.2504883-2.4165344,0.7270813-3.0282593,1.4304199c-0.6104126,0.70401-0.9162598,1.8509827-0.9162598,3.4422455
		v4.2411652c1.1430054-0.4073792,2.3572083-0.9136353,3.6386719-1.5187531
		c1.2827454-0.6044769,2.2715149-1.1443329,2.9689331-1.61763c0.9465942,0.7099304,1.6413574,1.2919922,2.0816956,1.7455139
		c0.4403381,0.4541626,0.8147583,0.9373474,1.1245728,1.4501953c0.3084717,0.5128326,0.5747986,1.1179657,0.7989197,1.8147125
		c0.2228088,0.6974182,0.4007874,1.5681915,0.5326233,2.6136475c0.1304932,1.0461273,0.1964111,2.3447113,0.1964111,3.8964081
		c0,3.3796234-0.7198181,6.374939-2.1594543,8.9852905c-1.4396667,2.6103516-3.6268005,4.9543762-6.5588379,7.0327759
		l-1.3223267-1.26297c1.2761841-0.8806763,2.3414001-1.775177,3.1957092-2.6822205
		c0.8556213-0.9076843,1.5385132-1.8641663,2.0513611-2.8707275c0.5128479-1.0058899,0.8885803-2.1231995,1.1245728-3.353241
		c0.2373047-1.2293701,0.355957-2.7388916,0.355957-4.5272522c0-3.1693268-0.3322449-5.4942627-0.9966736-6.9734497
		c-0.6644592-1.4792023-1.7191467-2.2194672-3.1667175-2.2194672c-0.4073792,0-0.9439392,0.1021729-1.6070862,0.3058624
		c-0.6644287,0.2043457-1.4172363,0.5161438-2.2583313,0.9373474v11.1454163
		c0.1700745,0.1839142,0.3572693,0.3585968,0.561615,0.5227356c0.2043457,0.1647949,0.6604919,0.5029449,1.3710938,1.0157928
		l1.4989624-0.6506195l0.671051,0.9465942c-0.2636719,0.1713867-0.5589905,0.3552856-0.8872375,0.5523987
		c-0.7897034,0.4468994-1.4106445,0.8252869-1.8641663,1.1344299c-0.454834,0.3085022-0.8266296,0.6077576-1.1153259,0.8971558
		c-1.3144226-1.5780945-2.9254456-2.5114746-4.8331299-2.8008575v-1.0059052
		c0.5392151-0.1054688,0.9281311-0.3421173,1.1641235-0.7106018c0.2373047-0.3678284,0.3546448-0.9202118,0.3546448-1.6571808
		V238.7077332z"/>
	<path class="st0" d="M325.3842773,255.1997528c-2.8529358,1.3407745-4.846283,2.4192047-5.9761353,3.2346039l-2.3084412-1.2623291
		c-0.5260315-0.3157654-1.0256653-0.6637878-1.4989624-1.0454712c-0.4732971-0.3809967-0.8780212-0.7956238-1.2128906-1.2425537
		c-0.3361816-0.4469147-0.6288757-0.9696503-0.8780212-1.5681763c-0.2504883-0.5985413-0.4482422-1.3282471-0.5919495-2.1898041
		c-0.1450195-0.8615417-0.2175293-1.9037018-0.2175293-3.1264801c0-1.7362823,0.1582031-3.1007843,0.4732971-4.0935059
		c0.3164062-0.9927368,0.7764893-1.8114319,1.3816223-2.4561157c0.6038208-0.6440125,1.3710938-1.2194824,2.2979126-1.7257233
		c0.9267883-0.5062561,2.2715149-1.108078,4.0341797-1.8054962l5.0690918,7.4961853l-10.0406189,4.2016144
		c0.1318359,1.6703644,0.6407166,2.986084,1.5292969,3.9458466c0.8872375,0.9597778,1.9946594,1.4396515,3.3235779,1.4396515
		c0.5128479,0,1.1733398-0.1278839,1.9828186-0.3842926c0.808136-0.256424,1.6861572-0.6347961,2.6327515-1.1344604V255.1997528z
		 M319.151062,240.5422363c-0.81604,0.2241211-1.4594116,0.5695343-1.9327087,1.0362244
		c-0.4732971,0.4667053-0.8292542,1.166748-1.0652161,2.1008148c-0.2373047,0.9340515-0.355957,2.373703-0.355957,4.3202667
		l6.2938232-2.8410645L319.151062,240.5422363z"/>
	<path class="st0" d="M334.1830139,253.2466125c0,0.1311646,0.0593262,0.2728882,0.1766663,0.4238434
		c0.1186523,0.1516113,0.3322144,0.319046,0.6420288,0.5029602c0.3085022,0.1845703,0.6143494,0.3289337,0.9162598,0.4344025
		c0.3032227,0.1054688,0.5062561,0.1575317,0.6117249,0.1575317c0.1582031,0,0.4904175-0.1278687,0.9966736-0.3842926
		s1.0415039-0.5820618,1.6070862-0.9769135l0.671051,1.5385284c-0.3019104,0.1977539-0.671051,0.4278107-1.1047974,0.6908264
		c-1.9458923,1.1575165-3.23526,2.0777435-3.8654175,2.7619476c-1.3948364-0.9736023-2.5879517-1.6802368-3.5806885-2.1212158
		c-0.9940186-0.4403381-1.8773193-0.7264252-2.6538391-0.857605v-0.8879089
		c0.6446838-0.1048126,1.1443176-0.2663116,1.4989624-0.4831848c0.355957-0.2168732,0.6051331-0.5062561,0.7501526-0.8681335
		c0.1450195-0.3612366,0.2175293-0.8648529,0.2175293-1.5088654v-6.2140961c0-1.1568604-0.1911621-2.120575-0.5721741-2.8898315
		c-0.3823242-0.7692719-0.8885803-1.1542358-1.52005-1.1542358c-0.1568909,0-0.3744202,0.0626221-0.6499634,0.1878662
		c-0.2768555,0.124588-0.6512756,0.3183899-1.1245728,0.5814056v-1.4396515
		c0.7883911-0.5128479,1.400116-0.9472351,1.8338623-1.3018799c0.4350586-0.3553009,0.9927063-0.8483582,1.6769409-1.4798584
		c0.7237854,0.5003204,1.2498169,0.9076843,1.578064,1.2234344c0.3295898,0.315094,0.6091003,0.6802826,0.838501,1.0942383
		c0.2307129,0.4146271,0.4838257,1.121933,0.7593689,2.1212463c0.2768555-0.5787659,0.5958862-1.0883026,0.9571228-1.5292969
		c0.3612366-0.4403381,0.7752075-0.8509979,1.2432251-1.232666c0.4666748-0.3816681,1.2722168-0.9663544,2.4165344-1.7560577
		l3.0770569,3.4527893l-2.564209,2.564209l-2.1304626-2.6828613c-1.8022156,1.4337158-2.7026367,3.767868-2.7026367,7.0031128
		V253.2466125z"/>
	<path class="st0" d="M364.2455444,255.5148468c-0.9861145,0.4080353-1.974884,0.8747406-2.9689331,1.4007416
		c-0.9927368,0.5260315-1.8246155,1.019104-2.4943237,1.4798584c-1.6044617-0.7237549-2.8318481-1.4633789-3.6795654-2.2194519
		c-0.8476868-0.756073-1.4699707-1.7131958-1.8641357-2.8700562c-0.3941956-1.1575317-0.5919495-2.8535919-0.5919495-5.0895386
		c0-1.2491455,0.0896301-2.2886658,0.2662964-3.1172485c0.1779785-0.8279419,0.4311218-1.5088654,0.7593689-2.0414886
		c0.3282776-0.532608,0.7198486-1.0059052,1.1746826-1.4205322c0.4534912-0.4139557,1.1601562-0.9366913,2.1199036-1.5681915
		c0.9202271-0.6044617,1.8351746-1.3282471,2.7421875-2.1700134c0.7356567,0.8813171,1.3144226,1.4831543,1.7362976,1.8054962
		c0.4205322,0.3223419,0.8213196,0.4831696,1.2023315,0.4831696c0.2636719,0,0.4930725-0.0560303,0.6908264-0.1680908
		c0.1977539-0.1113892,0.4271545-0.2985992,0.6908264-0.561615l0.808136,0.847702
		c-0.5655823,0.802887-1.1271973,1.3743896-1.6861877,1.716507c-0.55896,0.3421173-1.1601562,0.5128479-1.8048096,0.5128479
		c-0.4996643,0-1.0098877-0.1344757-1.5292969-0.4040833c-0.5194397-0.2696075-0.9887695-0.6282043-1.4106445-1.075119
		c-0.5523987,0.4205475-0.9624023,0.7923279-1.232666,1.1140137c-0.2689514,0.3223419-0.4930725,0.6941071-0.671051,1.1146698
		c-0.1766663,0.4212189-0.3190613,0.9768982-0.4231873,1.6670685c-0.1054688,0.690155-0.1582031,1.6736603-0.1582031,2.949173
		c0,2.3011932,0.3981323,4.0440674,1.1931152,5.2272949c0.7962646,1.1838837,1.9893799,1.7758179,3.580658,1.7758179
		c0.4864807,0,1.0454407-0.1087646,1.6769409-0.3256226c0.6315002-0.2168732,1.2550964-0.5293274,1.8733826-0.9373627V255.5148468z"
		/>
	<path class="st0" d="M368.5473633,240.5422363c1.761322-0.1839142,3.3064575-0.5029602,4.6353455-0.9564667
		c1.3276062-0.4535217,2.6103516-1.0619354,3.8469849-1.8246155c1.0124817,0.5787659,1.7652893,1.0718231,2.2583313,1.4792023
		c0.4930725,0.4080353,0.9334106,0.8780212,1.3210144,1.4106445c0.388916,0.5326233,0.7211304,1.1608124,0.9966736,1.8839417
		c0.2768555,0.723114,0.4970093,1.6242065,0.6604919,2.7026367c0.1647949,1.0784149,0.2465515,2.3473358,0.2465515,3.8074188
		c0,1.1436768-0.1502991,2.1436462-0.4535217,2.9979401c-0.3019104,0.8549652-0.7290649,1.5780792-1.2814636,2.1700287
		c-0.5523682,0.5919342-1.2695618,1.1641083-2.150238,1.716507c-1.0652161,0.6703796-1.7929688,1.1673889-2.1805725,1.4890747
		c-0.3875732,0.3223572-0.6934509,0.6479797-0.9162598,0.9768982c-1.2497864-0.7633057-2.6973572-1.4436035-4.3400269-2.0421143
		c-1.6439819-0.5978851-3.0915527-0.9696655-4.3400269-1.1146851v-1.0454559
		c0.5787354-0.091629,1.0058899-0.2663116,1.2814331-0.5227356c0.2768555-0.256424,0.4152832-0.6341248,0.4152832-1.1344452
		V240.5422363z M371.6244202,253.2663879c0.381012,0.3157349,0.884613,0.6380768,1.5095215,0.9663544
		c0.6235657,0.3289337,1.646637,0.7626648,3.0664978,1.3018799c0.9083557-0.5523987,1.5556641-1.0817108,1.9432678-1.5879669
		s0.6776428-1.0915985,0.8674622-1.7554016c0.1911621-0.6637878,0.2861023-1.4699707,0.2861023-2.4165497
		c0-3.1429596-0.348053-5.418457-1.0454712-6.8258057c-0.6960754-1.4066925-1.82724-2.1106873-3.3921204-2.1106873
		c-0.4337463,0-0.9940491,0.1120605-1.6769714,0.3355255c-0.6842346,0.2241211-1.2036438,0.4607544-1.5582886,0.7099304V253.2663879
		z"/>
	<path class="st0" d="M388.7670288,244.290329c0-0.9202118-0.1094055-1.6004791-0.3256226-2.0414734
		c-0.2175293-0.4403381-0.5497437-0.6605072-0.9966736-0.6605072c-0.2755432,0-0.6183167,0.0718536-1.0256958,0.2168732
		s-0.8279114,0.3816681-1.26297,0.7099457l-0.5721741-1.1443481c0.421875-0.2761841,0.8424377-0.5385437,1.26297-0.789032
		c1.0125122-0.6176453,1.7692566-1.1008301,2.2689209-1.4495392c0.4996338-0.3487091,0.9333801-0.6868591,1.3012085-1.0157928
		c0.4864807,0.2630157,0.8885803,0.5655823,1.2036743,0.9070282c0.3164062,0.3421173,0.5682068,0.7468567,0.7593689,1.2135468
		c0.1911621,0.4667053,0.3388062,1.1469727,0.4442749,2.0414886c3.5371704-1.551712,6.1738892-2.9524689,7.9101562-4.2016144
		c0.6446838,0.7626648,1.3381348,1.4073486,2.0816956,1.9327087c0.7422485,0.5266876,1.4686584,0.9076996,2.1792603,1.1443481
		l0.0395508,1.0256805c-0.5392151,0.0270233-0.9571533,0.1186523-1.2524414,0.2761993
		c-0.2966309,0.1582031-0.5102234,0.3948364-0.6407471,0.7105865c-0.1318359,0.315094-0.1977539,0.8351898-0.1977539,1.5583038
		v7.1804504c0,1.2359619,0.1120605,2.1238708,0.3348694,2.6630859c0.2241211,0.5391998,0.5985413,0.8088074,1.1245728,0.8088074
		c0.3164062,0,0.627533-0.0593262,0.9373474-0.1773224c0.3085022-0.1186523,0.594574-0.2498322,0.8582458-0.3948517
		l0.5128479,1.2030029c-1.1047974,0.4871521-2.5773926,1.2827759-4.4191284,2.3875427
		c-0.8160706-0.3552856-1.4370117-0.9472351-1.8641663-1.7758179s-0.6407166-1.9854431-0.6407166-3.4718933v-9.3504639
		c0-0.2887268-0.098877-0.5879974-0.2966309-0.8971558c-0.1964417-0.3091431-0.4298096-0.5523834-0.7000732-0.7303619
		c-0.2689209-0.1773224-0.528656-0.2663116-0.7791443-0.2663116c-0.315094,0-0.9201965,0.1779785-1.8140564,0.5326233
		c-0.8951721,0.3552856-1.999939,0.85495-3.3143616,1.4996338v13.5322876h-3.1166077V244.290329z"/>
	<path class="st0" d="M421.0787048,239.3590088c-1.5385132,2.0645447-3.268219,3.0968323-5.1890564,3.0968323
		c-0.7883911,0-1.4660034-0.1114044-2.0315857-0.3348694s-1.1377563-0.6117249-1.7165222-1.1641083
		c-0.5523682,0.3025665-0.9927063,0.7395935-1.3209839,1.3117676c-0.3295898,0.5721588-0.4930725,1.1871796-0.4930725,1.8443756
		c0,0.6578674,0.1305237,1.265625,0.3941956,1.8246155c0.2623596,0.5589905,0.627533,0.9999695,1.0955505,1.3216553
		c0.4653931,0.3223419,0.9821777,0.4831848,1.54776,0.4831848c0.1713867,0,0.3322144-0.0257111,0.4838257-0.0784454
		c0.1502991-0.0527344,0.3282776-0.1542511,0.5326233-0.3058624c0.2030334-0.1509552,0.4007874-0.3355255,0.5919495-0.5523987
		c0.1898499-0.2168579,0.3770447-0.4568024,0.561615-0.7198181l0.6117249-0.9076843
		c1.7626343,0.0791016,3.158783,0.6183014,4.1923828,1.6176147c1.0322876,0.9993286,1.54776,2.2623138,1.54776,3.7876587
		c0,0.8153992-0.1608582,1.578064-0.4825134,2.2880096c-0.322998,0.7105865-0.7870789,1.394165-1.3908691,2.0520172
		c-0.6051331,0.6572113-1.657196,1.5451355-3.1561584,2.6630859c-0.4614258,0.3546448-0.8951721,0.7099304-1.3025513,1.0652466
		c-0.5919495-0.6974182-1.3025208-1.2755127-2.1304626-1.7362976c-0.8279419-0.460083-1.5648804-0.690155-2.2095642-0.690155
		c-0.5919495,0-1.1271973,0.1311951-1.6070862,0.3941956c-0.4812012,0.2636719-0.9900818,0.7106018-1.5292969,1.3414307
		l-0.9268188-1.0059204c0.9729614-1.0520325,1.9393311-1.8410797,2.8990784-2.3670959
		c0.9597778-0.5260315,1.8945007-0.7890472,2.8015137-0.7890472c1.433075,0,2.7092285,0.5655823,3.8272095,1.6960754
		c0.7488098-0.4337463,1.3473511-0.9399872,1.7955933-1.5187531c0.4469299-0.5787659,0.6697388-1.2359619,0.6697388-1.9729309
		c0-1.0256805-0.3124695-1.8470154-0.9360352-2.465332c-0.6249084-0.6183014-1.4238281-0.9274597-2.3967896-0.9274597
		c-0.4482422,0-0.8582458,0.1878662-1.2339783,0.5622864c-0.3744202,0.375061-0.8912048,1.0487518-1.54776,2.0223541
		c-1.0652161-0.0791016-2.002594-0.3816681-2.8120422-0.9076843c-0.8081665-0.5260315-1.4225159-1.2135468-1.8443909-2.061264
		c-0.4205627-0.8483582-0.630188-1.7197876-0.630188-2.6143036c0-0.7494812,0.1107483-1.4297638,0.3348694-2.0414734
		c0.2241211-0.6117249,0.5655823-1.2062988,1.0256958-1.7850647c0.460083-0.5787506,1.3473511-1.427124,2.6630859-2.5450897
		c0.4864502-0.4073792,0.9992981-0.8542938,1.5385132-1.3414307c0.4469299,0.671051,0.9795532,1.2003632,1.5978394,1.5879669
		c0.6183167,0.3882599,1.2893677,0.5820465,2.0118408,0.5820465c1.1706848,0,2.2029724-0.5523834,3.0981445-1.6571655
		L421.0787048,239.3590088z"/>
	<path class="st0" d="M426.8781738,244.3694305v-0.0982208c0-0.6842194-0.1278687-1.2168427-0.3849487-1.5985107
		c-0.2557678-0.3809967-0.6011963-0.5715027-1.0349121-0.5715027c-0.355957,0-0.8358459,0.1509552-1.440979,0.4535217v-1.3216553
		c2.0645447-1.3018799,3.5187073-2.3803101,4.3598022-3.23526c0.7237854,0.9076843,1.3869324,1.5912628,1.9920654,2.0513611
		c0.6051025,0.4607697,1.2168274,0.7890472,1.835144,0.9868011v0.946579
		c-0.8160706,0.1054688-1.3882446,0.384964-1.7164917,0.8384705c-0.3282776,0.4535217-0.4996643,1.1542358-0.5128479,2.1008148
		l-0.0593262,6.9833527v0.1575317c0,0.9340668,0.1212769,1.6149902,0.3651733,2.0421448s0.6209412,0.6407166,1.1337891,0.6407166
		c0.6315002,0,1.2827759-0.1904907,1.9538269-0.5721588l-0.0395508,1.4403076l-1.6769714,0.946579
		c-0.5392151,0.3157349-0.9927063,0.5853577-1.3605347,0.8088074c-0.3691406,0.2234802-0.6684265,0.4172668-0.8977966,0.5820618
		c-0.2307129,0.1641235-0.42453,0.312439-0.5827332,0.4442749c-0.709259-0.6182861-1.2484741-1.331543-1.6176147-2.1403503
		c-0.3678284-0.8088074-0.5523987-1.640686-0.5523987-2.4956512v-0.1773224L426.8781738,244.3694305z M428.4562378,235.5318146
		c-0.7105713-0.7890472-1.2590332-1.5319366-1.6466064-2.2286835c-0.388916-0.6974182-0.5827332-1.2359619-0.5827332-1.61763
		c0-0.4601135,0.2043457-0.8846283,0.6117249-1.2728729c0.4073792-0.3876038,0.9070435-0.5814056,1.4989624-0.5814056
		c0.7106018,0,1.2919922,0.157547,1.7455139,0.4732971c0.454834,0.3157501,0.6816101,0.723114,0.6816101,1.2227783
		c0,0.3684845-0.1318359,0.7923279-0.3955078,1.2728729c-0.2623596,0.4798889-0.6183167,1.009201-1.0652466,1.5879669
		L428.4562378,235.5318146z"/>
	<path class="st0" d="M437.451416,241.193512c1.6967163-0.3553009,3.5635376-0.953186,5.6030273-1.7949524
		c-0.3955078-0.223465-0.8622131-0.4403381-1.4014282-0.6512756c-1.2616577-0.5128326-2.2649231-0.9630585-3.0084839-1.3513184
		c-0.7422485-0.3875885-1.3381348-0.7791443-1.7850647-1.1733398c-0.4469299-0.3948364-0.7791443-0.7989197-0.9953613-1.2135468
		c-0.2175293-0.4139557-0.3256226-0.8641815-0.3256226-1.3513184c0-0.7099304,0.2294006-1.3539581,0.6894836-1.9327087
		c0.4614258-0.5787659,1.1773071-1.1377411,2.1502686-1.6769562l0.7698975,0.8285828
		c-0.3150635,0.2102814-0.561615,0.4568176-0.7395935,0.7396088s-0.2662964,0.5359039-0.2662964,0.7593689
		c0,0.2366486,0.0619507,0.480545,0.1871948,0.7297211c0.1252441,0.2504883,0.3783875,0.5424957,0.7593689,0.8780212
		c0.381012,0.3355255,0.9637451,0.6974182,1.7455139,1.0850067c0.7831116,0.3882599,1.8641663,0.8846283,3.2458191,1.48909
		c1.7481384,0.7501526,3.0374756,1.4403076,3.8667297,2.0718079c0.7356567,0.5523834,1.3935242,1.2755127,1.9722595,2.1700134
		c0.5392151,0.8279266,0.9465942,1.7949524,1.2234497,2.8997345c0.3019104,1.2095947,0.4535217,2.6367188,0.4535217,4.2807159
		c0,1.1179657-0.0567017,2.0612488-0.1687622,2.8305054c-0.1107483,0.7692719-0.2623596,1.3908691-0.4535217,1.8641663
		c-0.1898193,0.4732971-0.4231873,0.884613-0.7000427,1.232666c-0.2755432,0.3487091-0.5853577,0.6611633-0.9267883,0.9373474
		c-0.3427734,0.2761993-0.9347229,0.6776428-1.7758484,1.2030029c-0.4205627,0.2504883-0.8450623,0.5299988-1.2722168,0.8384705
		c-0.4271545,0.3091736-1.1074219,0.8121338-2.0421448,1.5095215c-2.9715576-2.0645447-5.8192139-3.1693268-8.541626-3.3143463
		v-0.9861298c0.4350586-0.1186523,0.7725525-0.2630157,1.016449-0.4344025
		c0.2438965-0.1707306,0.4244995-0.3875885,0.5431519-0.6506042c0.1173401-0.2630157,0.1766663-0.6446838,0.1766663-1.1443329
		V241.193512z M440.5086975,253.2268372c0.9479065,0.5523834,1.7468262,0.9861298,2.396759,1.3018799
		c0.6512756,0.3157349,1.161499,0.5227203,1.5292969,0.6215973c0.3678284,0.0982208,0.7237854,0.1476593,1.0652466,0.1476593
		c0.4732971,0,0.9241638-0.223465,1.3513184-0.6703796c0.4271545-0.4469299,0.7791443-1.1377563,1.0559998-2.0718079
		c0.2755432-0.9333954,0.4139709-2.0447693,0.4139709-3.3334656c0-1.8542786-0.1080933-3.3242493-0.3256226-4.409256
		c-0.2175293-1.0843506-0.5787659-1.9755707-1.085022-2.6729736c-0.5062561-0.6967621-1.232666-1.294632-2.1792603-1.7949524
		c-1.5925598,0.7237854-2.9992676,1.2959442-4.2226868,1.716507V253.2268372z"/>
	<path class="st0" d="M468.5211792,255.1997528c-2.854248,1.3407745-4.846283,2.4192047-5.977417,3.2346039l-2.3084717-1.2623291
		c-0.526001-0.3157654-1.0256653-0.6637878-1.4989624-1.0454712c-0.4732971-0.3809967-0.8780212-0.7956238-1.2128906-1.2425537
		c-0.3348694-0.4469147-0.627533-0.9696503-0.8780212-1.5681763c-0.249176-0.5985413-0.4469299-1.3282471-0.5919495-2.1898041
		c-0.1450195-0.8615417-0.216217-1.9037018-0.216217-3.1264801c0-1.7362823,0.1568909-3.1007843,0.4732971-4.0935059
		c0.315094-0.9927368,0.7752075-1.8114319,1.3803101-2.4561157c0.6051331-0.6440125,1.3710938-1.2194824,2.2979126-1.7257233
		c0.9281311-0.5062561,2.2715454-1.108078,4.0341797-1.8054962l5.0704041,7.4961853l-10.0406189,4.2016144
		c0.1305237,1.6703644,0.6407166,2.986084,1.5279846,3.9458466c0.8885803,0.9597778,1.9960022,1.4396515,3.3248901,1.4396515
		c0.5128479,0,1.1733398-0.1278839,1.9815063-0.3842926c0.8094788-0.256424,1.6875-0.6347961,2.6340637-1.1344604V255.1997528z
		 M462.2879944,240.5422363c-0.8160706,0.2241211-1.4607544,0.5695343-1.9340515,1.0362244
		c-0.4732666,0.4667053-0.8279114,1.166748-1.0652161,2.1008148c-0.2359924,0.9340515-0.3546448,2.373703-0.3546448,4.3202667
		l6.2925415-2.8410645L462.2879944,240.5422363z"/>
	<path class="st0" d="M477.3186035,253.2466125c0,0.1311646,0.0593262,0.2728882,0.1779785,0.4238434
		c0.1186523,0.1516113,0.3322144,0.319046,0.6407166,0.5029602c0.3085022,0.1845703,0.6143494,0.3289337,0.917572,0.4344025
		c0.3019104,0.1054688,0.5062561,0.1575317,0.6117249,0.1575317c0.1582031,0,0.4891052-0.1278687,0.9953613-0.3842926
		s1.0428162-0.5820618,1.6083984-0.9769135l0.671051,1.5385284c-0.3032227,0.1977539-0.671051,0.4278107-1.1047974,0.6908264
		c-1.9472046,1.1575165-3.2352295,2.0777435-3.8667297,2.7619476c-1.3935242-0.9736023-2.5879517-1.6802368-3.580658-2.1212158
		c-0.9927368-0.4403381-1.8773499-0.7264252-2.6525574-0.857605v-0.8879089
		c0.6433716-0.1048126,1.1443481-0.2663116,1.4989929-0.4831848c0.3546143-0.2168732,0.6051025-0.5062561,0.7488098-0.8681335
		c0.1450195-0.3612366,0.2175293-0.8648529,0.2175293-1.5088654v-6.2140961c0-1.1568604-0.1911621-2.120575-0.5721741-2.8898315
		c-0.3809814-0.7692719-0.8872375-1.1542358-1.5187378-1.1542358c-0.1582031,0-0.3744202,0.0626221-0.6512756,0.1878662
		c-0.2755432,0.124588-0.6512756,0.3183899-1.1245422,0.5814056v-1.4396515
		c0.7896729-0.5128479,1.4013977-0.9472351,1.835144-1.3018799c0.4337463-0.3553009,0.9927368-0.8483582,1.6769409-1.4798584
		c0.7224731,0.5003204,1.2485046,0.9076843,1.5780945,1.2234344c0.3282776,0.315094,0.6077576,0.6802826,0.8384705,1.0942383
		c0.2294006,0.4146271,0.4825134,1.121933,0.7593689,2.1212463c0.2755432-0.5787659,0.594574-1.0883026,0.9558105-1.5292969
		c0.3625488-0.4403381,0.7765198-0.8509979,1.2432251-1.232666s1.2722168-0.9663544,2.4165344-1.7560577l3.0770569,3.4527893
		l-2.564209,2.564209l-2.1304626-2.6828613c-1.8021851,1.4337158-2.7026367,3.767868-2.7026367,7.0031128V253.2466125z"/>
	<path class="st0" d="M503.6541443,256.1265564c-1.578064,0.8022156-2.8937988,1.5846863-3.9458313,2.3473511
		c-0.9465942-0.6308289-1.5754395-1.1766357-1.8839417-1.6374207c-0.3085022-0.460083-0.462738-0.9663391-0.462738-1.5187378
		c-2.3150635,1.0784302-3.8443604,1.8147278-4.5865784,2.2095642c-0.7435608,0.3941956-1.2471619,0.6967468-1.5095215,0.9070435
		c-1.1970825-0.7362976-2.0843201-1.4924011-2.6630859-2.2682495s-0.9927368-1.6934204-1.2432251-2.7520752
		c-0.249176-1.0586395-0.3744202-2.4033661-0.3744202-4.0341797c0-2.0909119,0.1872253-3.7184296,0.5616455-4.8818817
		c0.3757324-1.1641083,0.9412842-2.1172791,1.6967163-2.8608398c0.7567444-0.7428894,1.7323303-1.4693146,2.9293823-2.179245
		c0.5392151-0.3157501,0.9769287-0.6051331,1.3117676-0.8681335c0.3361816-0.2630157,0.6341553-0.5523987,0.8978271-0.8681488
		c1.1179504,0.7890472,2.3835754,1.4864502,3.7981873,2.0909271c1.413269,0.6051178,2.678894,0.9999695,3.796875,1.1838837
		v1.0256805c-0.4732971,0.065918-0.8358459,0.3421173-1.085022,0.8285828
		c-0.2504883,0.4864807-0.3744202,1.1113892-0.3744202,1.874054v7.7723846c0,0.9070282,0.1239319,1.5879669,0.3744202,2.0414886
		c0.249176,0.4535065,0.6776428,0.6802673,1.2827759,0.6802673c0.2096252,0,0.4363708-0.0520782,0.6802673-0.157547
		c0.2425842-0.1048126,0.5088806-0.2498322,0.7989197-0.4337311V256.1265564z M497.3616333,243.0477753
		c-0.2768555-0.2893829-0.7738953-0.631485-1.4897461-1.0256805c-0.7171936-0.3948517-1.6018066-0.7824402-2.6538696-1.1641083
		c-0.7092896,0.4080353-1.2616577,0.9241638-1.6571655,1.5484161c-0.3941956,0.6248932-0.6895142,1.4403076-0.8872681,2.4462128
		c-0.1977539,1.0065613-0.2953186,2.2919617-0.2953186,3.8568573c0,2.0513611,0.2979431,3.6096649,0.8964844,4.6748962
		c0.5985413,1.0652466,1.3710938,1.5978546,2.3190002,1.5978546c0.3941956,0,0.9729614-0.157547,1.7349548-0.4732819
		c0.7633362-0.3157501,1.440979-0.6703949,2.0329285-1.0652466V243.0477753z"/>
	<path class="st0" d="M505.0740356,238.9641571h0.1977539c0.9597473,0,1.7454834-0.1773224,2.3572083-0.532608
		c0.6117249-0.3546448,1.1047974-0.8872681,1.4792175-1.5978546c0.3743896-0.7099457,0.6578369-1.61763,0.8476868-2.721756
		c0.1911621-1.1047821,0.2992859-2.4330292,0.3256531-3.9847412h1.578064v8.5218811h4.399353v2.0315857h-4.399353v13.1183319
		c0.4073486,0.3421173,0.8094482,0.6249084,1.2036743,0.8483734c0.394165,0.2234497,0.6512451,0.3348541,0.7698975,0.3348541
		c0.2228394,0,0.5840454-0.1048126,1.085022-0.3150787c0.4996338-0.2102814,1.0454712-0.4996643,1.6373901-0.8681488v1.7949524
		c-0.6314697,0.3025665-1.40802,0.7429047-2.328186,1.32164c-0.9202271,0.5787659-1.6704102,1.0982056-2.2491455,1.5583191
		c-1.6044312-1.6176453-3.2484436-2.5708008-4.9319763-2.8601837v-0.927475
		c0.5919495-0.1443481,1.0296326-0.3809967,1.3117676-0.7099304c0.2834473-0.3282776,0.4244995-0.7626648,0.4244995-1.3018799
		v-11.9937744h-3.7085266V238.9641571z"/>
	<path class="st0" d="M520.835022,244.3694305v-0.0982208c0-0.6842194-0.1278687-1.2168427-0.383667-1.5985107
		c-0.2570801-0.3809967-0.602478-0.5715027-1.0361938-0.5715027c-0.3546753,0-0.8345337,0.1509552-1.4396973,0.4535217v-1.3216553
		c2.0645752-1.3018799,3.517395-2.3803101,4.3598633-3.23526c0.7224121,0.9076843,1.3869019,1.5912628,1.9920044,2.0513611
		c0.6051636,0.4607697,1.2155151,0.7890472,1.8338623,0.9868011v0.946579
		c-0.8147583,0.1054688-1.3869019,0.384964-1.71521,0.8384705c-0.3295898,0.4535217-0.5009766,1.1542358-0.5128174,2.1008148
		l-0.0593262,6.9833527v0.1575317c0,0.9340668,0.1212769,1.6149902,0.3651733,2.0421448
		c0.2425537,0.4271545,0.6209717,0.6407166,1.1337891,0.6407166c0.6314697,0,1.2827759-0.1904907,1.9525146-0.5721588
		l-0.0395508,1.4403076l-1.6756592,0.946579c-0.5405273,0.3157349-0.9940186,0.5853577-1.3618774,0.8088074
		c-0.3677979,0.2234802-0.6670532,0.4172668-0.8977661,0.5820618c-0.2294312,0.1641235-0.4232178,0.312439-0.5814209,0.4442749
		c-0.7105713-0.6182861-1.2498169-1.331543-1.6176147-2.1403503c-0.3691406-0.8088074-0.5524292-1.640686-0.5524292-2.4956512
		v-0.1773224L520.835022,244.3694305z M522.4144287,235.5318146c-0.7106323-0.7890472-1.260376-1.5319366-1.6479492-2.2286835
		c-0.3876343-0.6974182-0.5814209-1.2359619-0.5814209-1.61763c0-0.4601135,0.2030029-0.8846283,0.6116943-1.2728729
		c0.4074097-0.3876038,0.9070435-0.5814056,1.4990234-0.5814056c0.7092285,0,1.2919922,0.157547,1.7454834,0.4732971
		s0.6802979,0.723114,0.6802979,1.2227783c0,0.3684845-0.1318359,0.7923279-0.3942261,1.2728729
		c-0.2636719,0.4798889-0.6182861,1.009201-1.0652466,1.5879669L522.4144287,235.5318146z"/>
	<path class="st0" d="M531.1920166,240.5422363c1.7626953-0.1839142,3.3078003-0.5029602,4.635376-0.9564667
		c1.3289185-0.4535217,2.6103516-1.0619354,3.8469849-1.8246155c1.0125122,0.5787659,1.7652588,1.0718231,2.2583618,1.4792023
		c0.4943848,0.4080353,0.9346924,0.8780212,1.3222656,1.4106445c0.3876343,0.5326233,0.7198486,1.1608124,0.9967041,1.8839417
		c0.2755127,0.723114,0.4957275,1.6242065,0.6605225,2.7026367c0.1634521,1.0784149,0.246521,2.3473358,0.246521,3.8074188
		c0,1.1436768-0.1516113,2.1436462-0.4535522,2.9979401c-0.3032227,0.8549652-0.7303467,1.5780792-1.2827148,2.1700287
		c-0.5524292,0.5919342-1.2695923,1.1641083-2.1502686,1.716507c-1.0652466,0.6703796-1.791626,1.1673889-2.1792603,1.4890747
		c-0.388916,0.3223572-0.6934204,0.6479797-0.9175415,0.9768982c-1.2498169-0.7633057-2.6960449-1.4436035-4.3400879-2.0421143
		c-1.6439819-0.5978851-3.09021-0.9696655-4.3400269-1.1146851v-1.0454559
		c0.5787964-0.091629,1.0059204-0.2663116,1.2827759-0.5227356c0.2755127-0.256424,0.4139404-0.6341248,0.4139404-1.1344452
		V240.5422363z M534.269104,253.2663879c0.3823242,0.3157349,0.8845825,0.6380768,1.5095215,0.9663544
		c0.6248779,0.3289337,1.6466064,0.7626648,3.0678101,1.3018799c0.9070435-0.5523987,1.5543213-1.0817108,1.9432373-1.5879669
		c0.3876343-0.5062561,0.6763306-1.0915985,0.8674927-1.7554016c0.1898804-0.6637878,0.2860718-1.4699707,0.2860718-2.4165497
		c0-3.1429596-0.3480225-5.418457-1.0454102-6.8258057c-0.6974487-1.4066925-1.8286133-2.1106873-3.3934937-2.1106873
		c-0.4337158,0-0.9927368,0.1120605-1.6769409,0.3355255c-0.6829224,0.2241211-1.2023315,0.4607544-1.5582886,0.7099304V253.2663879
		z"/>
	<path class="st0" d="M551.4117432,244.290329c0-0.9202118-0.1081543-1.6004791-0.3256836-2.0414734
		c-0.2161865-0.4403381-0.5484009-0.6605072-0.9953613-0.6605072c-0.2768555,0-0.6182861,0.0718536-1.0269775,0.2168732
		c-0.4073486,0.1450195-0.8279419,0.3816681-1.2616577,0.7099457l-0.5722046-1.1443481
		c0.4205933-0.2761841,0.8411255-0.5385437,1.2630005-0.789032c1.0125122-0.6176453,1.7679443-1.1008301,2.2675781-1.4495392
		c0.4996948-0.3487091,0.9334106-0.6868591,1.3025513-1.0157928c0.4864502,0.2630157,0.8872681,0.5655823,1.2036743,0.9070282
		c0.3150635,0.3421173,0.5681763,0.7468567,0.7593384,1.2135468c0.1898804,0.4667053,0.3375244,1.1469727,0.4429932,2.0414886
		c3.5384521-1.551712,6.1751709-2.9524689,7.911499-4.2016144c0.6433105,0.7626648,1.336792,1.4073486,2.0803223,1.9327087
		c0.7435913,0.5266876,1.4699707,0.9076996,2.180603,1.1443481l0.038208,1.0256805
		c-0.5391846,0.0270233-0.9558105,0.1186523-1.2524414,0.2761993c-0.2952881,0.1582031-0.5088501,0.3948364-0.640686,0.7105865
		c-0.1318359,0.315094-0.1977539,0.8351898-0.1977539,1.5583038v7.1804504c0,1.2359619,0.1120605,2.1238708,0.3361816,2.6630859
		c0.2227783,0.5391998,0.5985107,0.8088074,1.1245117,0.8088074c0.3151245,0,0.6275635-0.0593262,0.9360352-0.1773224
		c0.3098145-0.1186523,0.5959473-0.2498322,0.8582764-0.3948517l0.5128174,1.2030029
		c-1.1047363,0.4871521-2.5773926,1.2827759-4.4177856,2.3875427c-0.8161011-0.3552856-1.4370117-0.9472351-1.8641968-1.7758179
		c-0.4284668-0.8285828-0.6420288-1.9854431-0.6420288-3.4718933v-9.3504639c0-0.2887268-0.098877-0.5879974-0.2952881-0.8971558
		c-0.1977539-0.3091431-0.4310913-0.5523834-0.7000732-0.7303619c-0.2702637-0.1773224-0.5299683-0.2663116-0.7791138-0.2663116
		c-0.3164062,0-0.9215698,0.1779785-1.8154297,0.5326233c-0.8937988,0.3552856-1.9985962,0.85495-3.3143311,1.4996338v13.5322876
		h-3.1165771V244.290329z"/>
	<path class="st0" d="M583.7247314,239.3590088c-1.5385742,2.0645447-3.2682495,3.0968323-5.1890869,3.0968323
		c-0.7883911,0-1.4660034-0.1114044-2.0316162-0.3348694c-0.5655518-0.223465-1.1376953-0.6117249-1.7164917-1.1641083
		c-0.5523682,0.3025665-0.9927368,0.7395935-1.3209839,1.3117676c-0.3295898,0.5721588-0.493042,1.1871796-0.493042,1.8443756
		c0,0.6578674,0.1304932,1.265625,0.394165,1.8246155c0.2623291,0.5589905,0.6275635,0.9999695,1.0955811,1.3216553
		c0.465332,0.3223419,0.9821777,0.4831848,1.5477295,0.4831848c0.1713867,0,0.3322144-0.0257111,0.4838257-0.0784454
		c0.1503296-0.0527344,0.3283081-0.1542511,0.5326538-0.3058624c0.2030029-0.1509552,0.4007568-0.3355255,0.5919189-0.5523987
		c0.1898193-0.2168579,0.3770752-0.4568024,0.5616455-0.7198181l0.6116943-0.9076843
		c1.7626343,0.0791016,3.1588135,0.6183014,4.1923828,1.6176147c1.0322876,0.9993286,1.5477295,2.2623138,1.5477295,3.7876587
		c0,0.8153992-0.1608276,1.578064-0.4824829,2.2880096c-0.322998,0.7105865-0.7870483,1.394165-1.3908691,2.0520172
		c-0.6051636,0.6572113-1.6571655,1.5451355-3.156189,2.6630859c-0.4614258,0.3546448-0.8951416,0.7099304-1.3024902,1.0652466
		c-0.59198-0.6974182-1.3025513-1.2755127-2.1304932-1.7362976c-0.8279419-0.460083-1.5648804-0.690155-2.2095947-0.690155
		c-0.5919189,0-1.1271973,0.1311951-1.6070557,0.3941956c-0.4812012,0.2636719-0.9901123,0.7106018-1.5292969,1.3414307
		l-0.9268188-1.0059204c0.9729614-1.0520325,1.9393311-1.8410797,2.8991089-2.3670959
		c0.9597168-0.5260315,1.8944702-0.7890472,2.8015137-0.7890472c1.4330444,0,2.7092285,0.5655823,3.8271484,1.6960754
		c0.7488403-0.4337463,1.3474121-0.9399872,1.7956543-1.5187531c0.4468994-0.5787659,0.6696777-1.2359619,0.6696777-1.9729309
		c0-1.0256805-0.312439-1.8470154-0.9360352-2.465332c-0.6248779-0.6183014-1.4238281-0.9274597-2.3967285-0.9274597
		c-0.4482422,0-0.8582764,0.1878662-1.2340088,0.5622864c-0.3743896,0.375061-0.8912354,1.0487518-1.5477295,2.0223541
		c-1.0652466-0.0791016-2.0026245-0.3816681-2.8120728-0.9076843c-0.8081665-0.5260315-1.4225464-1.2135468-1.8444214-2.061264
		c-0.4205322-0.8483582-0.630127-1.7197876-0.630127-2.6143036c0-0.7494812,0.1107178-1.4297638,0.3348389-2.0414734
		c0.2241211-0.6117249,0.5655518-1.2062988,1.0256958-1.7850647c0.460083-0.5787506,1.3473511-1.427124,2.6630859-2.5450897
		c0.4864502-0.4073792,0.9993286-0.8542938,1.5385132-1.3414307c0.4468994,0.671051,0.9795532,1.2003632,1.5978394,1.5879669
		c0.6183472,0.3882599,1.2893677,0.5820465,2.0118408,0.5820465c1.1707153,0,2.2029419-0.5523834,3.0981445-1.6571655
		L583.7247314,239.3590088z"/>
</g>
<path class="st0" d="M327.5193787,271.3027954v0.2845154l0.5747986,0.8531799c-2.946106,0-5.2456055,0.568512-6.8983154,1.7058105
	c-1.4371948,1.9904175-3.2578125,2.9857178-5.4612122,2.9857178c-3.0662842,0-4.598999-0.6159058-4.598999-1.8480225
	c0.09552-0.2368774,1.2452087-0.7111816,3.4492188-1.4220886l-4.8862915-1.7059937v0.1424866l-0.1437073,0.1420898v1.7058105
	l-0.1437988,1.7061157c0.9100037,1.3269958,3.0657959,1.9901733,6.4672852,1.9901733
	c2.8260193,0,4.7903137-0.5206909,5.892395-1.5639954c1.3411255-1.990387,3.640625-2.9853821,6.8983154-2.9853821
	c0.4311829,0,1.0061035,0.8530884,1.7246094,2.5592041v0.1422729l-0.8623047-0.7106934l-0.5749207,0.5684204
	c-0.934082,0.9007874-2.6109924,1.5639038-5.0299988,1.9901733v0.2844238c1.8200073,0,3.6884155,0.8051758,5.6049194,2.4172974
	h0.287384c0.047821-0.3796082,0.1914978-0.5688171,0.4312134-0.5688171l-1.2935181,2.7008972
	c-3.2817993,0-5.4852905-0.805603-6.6109009-2.416687c-1.0059814-1.4216919-3.1616821-2.1326904-6.4671936-2.1326904
	c-3.6412048,0-5.7969055,0.7109985-6.4672852,2.1326904l0.1437988,1.5635986v1.8486938
	c0.4310913,0,2.1073914-0.4743958,5.0299988-1.4216919v-0.1425171c-2.20401-0.7582703-3.3536987-1.2320862-3.4492188-1.4217834
	c0-1.2319031,1.4849243-1.8479919,4.4553223-1.8479919c1.5567017,0,2.8023987,0.3314819,3.7366028,0.9949951
	c1.6763,2.464386,4.598877,3.6966858,8.7666016,3.6966858v0.1423035l-0.5747986,0.7108154
	c0.8381958,0.5444946,5.0536804,2.3928833,12.6470947,5.5447998h0.1436768v-0.142395l-0.2874756-0.4263306
	c-3.4013977-4.1942749-5.7008972-7.7965698-6.898407-10.8052979c0.7663879-0.2844849,1.4848938-0.4265747,2.1557922-0.4265747
	v-0.2844238l-2.2994995-0.5683899c0.742218-2.2749939,3.1853943-6.0184937,7.3295898-11.2315063v-0.1423035L327.5193787,271.3027954
	z M342.0347595,266.0426941c4.1436157,5.2130127,6.586792,8.9565125,7.3294983,11.2315063l-2.2994995,0.5683899v0.2844238
	c0.6703186,0,1.388916,0.1420898,2.1557922,0.4265747l-0.2874756,0.4263306
	c-0.9105225,2.5823975-3.210022,6.1846924-6.8983154,10.8052979v0.142395
	c7.7842102-3.1758118,12.0480042-5.0241089,12.7907104-5.5447998l-0.5747986-0.7108154v-0.1423035
	c3.0180054,0,5.3652039-0.616394,7.0420837-1.8480835c1.3652039-1.8963013,3.1376038-2.8435974,5.3174133-2.8435974
	c3.0657959,0,4.598999,0.6160889,4.598999,1.8479919c-0.0960083,0.1896973-1.2458191,0.6635132-3.4492188,1.4217834
	c0,0.213501,1.6286011,0.734314,4.8864136,1.564209h0.1437073v-1.8486938l0.1437073-1.7056885
	c-0.8865051-1.327301-3.0422058-1.9906006-6.4673157-1.9906006c-2.6109924,0-4.5752869,0.473877-5.8923035,1.4217834
	c-1.2215881,2.0848999-3.569397,3.127594-7.0420837,3.127594c-0.2156067-0.0470886-0.6950073-0.9003906-1.4372253-2.5587769
	v-0.1421204c0.2874146,0,0.4312134,0.189209,0.4312134,0.5688171h0.2874146
	c1.9159851-1.6121216,3.7842712-2.4172974,5.6048889-2.4172974v-0.2844238h-0.1437073l-0.1437073-0.1420898
	c-1.7728882,0-3.5451965-0.8052063-5.3174744-2.4165039l-0.8623047,0.7106934
	c0.287384-0.9475708,0.7662964-1.8483887,1.4371948-2.7014771c2.6103821,0,4.5270081,0.4744873,5.7485962,1.4216919
	c1.3169861,2.0852051,3.6647949,3.1276855,7.0421143,3.1276855c3.8561707,0,6.1079712-0.7105713,6.7546997-2.1324768
	l-0.1437073-1.5638123v-1.8479004l-0.1437073-0.1424866l-4.8864136,1.5637817v0.1422119
	c2.2033997,0.710907,3.3532104,1.1852112,3.4492188,1.4220886c0,1.2321167-1.4855042,1.8480225-4.4552002,1.8480225
	c-1.7488098,0-2.9945068-0.3788147-3.7366028-1.1373291c-1.7728882-2.3690796-4.6950073-3.5541992-8.7666931-3.5541992
	l0.5747986-0.8531799v-0.2845154l-12.6470032-5.4024048h-0.1437073V266.0426941z M333.9865723,272.0137939l-1.8683167,4.4073181
	h-0.287384l-1.4371948-3.4121094l1.5808716-2.5593872L333.9865723,272.0137939z M351.9511719,273.0090027l-1.4371948,3.4121094
	h-0.2874146l-1.8682861-4.2651978l1.8682861-1.7062988C350.3938599,270.4735107,350.96875,271.3265991,351.9511719,273.0090027
	L351.9511719,273.0090027z M293.3148804,274.1463013v0.28479l5.6049805,0.7104187v0.1424866
	c-4.5513,0.5684204-8.8150024,0.8527222-12.790802,0.8527222c-2.1557922-1.3268127-4.6949158-1.9904175-7.6169739-1.9904175
	c-6.5632324,0-10.395813,0.9483032-11.4973145,2.8434143L64.5632706,277.132019l-0.2873993-0.2846069v-0.1417236
	c0-0.1895752,0.5264969-0.4270935,1.5808029-0.7109985v-0.1422729c0-0.1656189-0.7667999-0.4028015-2.2994003-0.710907
	l-0.2875023,1.7059021l0.2875023,0.4267883l-8.6230011-1.1374817l-0.2875023,0.2843933v1.2793884l-0.4310989-0.1420898
	c-1.5331993-0.1653137-3.0181007-0.9238892-4.4552002-2.2744141c-0.9583015,1.1849976-2.8743019,2.0379028-5.7486,2.5585938
	v0.2844238l1.1497002,0.1420898c2.8743019,0.8294067,4.3115005,1.5874023,4.3115005,2.2752075h0.2873993
	c1.8199997-1.5169067,3.400898-2.2752075,4.7425995-2.2752075h0.1436996v1.4219971l0.1438026,0.1419067l8.6229973-1.1375122
	h0.1437035l-0.2875023,0.5692139l0.2875023,1.5636902c1.5326004-0.2611084,2.2994003-0.4978027,2.2994003-0.7107849v-0.1421204
	c-1.054306-0.2612915-1.5808029-0.497406-1.5808029-0.7107849v-0.28479l0.1436996-0.1419067l202.4514923,0.1419067
	c1.293396,1.8957825,5.1255188,2.8433838,11.4972839,2.8433838c3.2095337,0,5.7487183-0.663208,7.6170044-1.9902954
	c6.3235168,0.1896057,10.6350098,0.473999,12.9345093,0.8529968v0.142395l-5.6049805,0.710907v0.2839966l8.7666931,1.8486938
	l0.287384-0.2846069v-2.1326904l5.4613037,0.7109985l0.2874146-0.2840881v-3.2701111l-0.1437073-0.142395l-7.0421143,0.853302
	c-2.9461975-0.6639099-6.0602112-0.9953918-9.3415833-0.9953918h-1.4371948c-2.7789307,0-4.838623,0.2844849-6.1798096,0.8529053
	l-17.9645081-0.8529053v-0.1419067c0-0.2133179,5.9878235-0.5448914,17.9645081-0.9953918
	c1.3411865,0.5686951,3.4008789,0.8528748,6.1798096,0.8528748h1.2934875c3.5210876,0,6.5868225-0.3314819,9.1978149-0.9951782
	l7.1858826,0.8530884l0.2874146-0.2841797v-3.2700195l-0.1437073-0.1423035l-5.605011,0.710907v-2.2744141l-0.1437073-0.1420898
	L293.3148804,274.1463013z M379.9758606,272.5823975v2.1325073l-5.605011-0.710907v0.1423035l-0.1436768,0.1419067v3.2702026
	l0.1436768,0.1420898l7.0421143-0.8530884c3.041687,0.6636963,6.2034912,0.9951782,9.4852905,0.9951782h1.2935181
	c2.7782898,0,4.8381042-0.2841797,6.1797791-0.8528748l1.4371033,0.1423035
	c11.0179138,0.2610779,16.5274048,0.5926819,16.5274048,0.9949951l-17.9645081,0.8529053
	c-1.3416748-0.5684204-3.4014893-0.8529053-6.1797791-0.8529053h-1.4372253c-3.4255981,0-6.491272,0.3314819-9.1977844,0.9953918
	l-7.0421143-0.853302l-0.2874756,0.2844849v3.2697144l0.1436768,0.142395l5.605011-0.7109985v2.2749939l0.1437073,0.1423035
	l8.9104004-1.8486938v-0.2839966l-5.6049194-0.710907v-0.142395c2.299408-0.3789978,6.6109009-0.6633911,12.9345093-0.8529968
	c1.8919067,1.3270874,4.3833008,1.9902954,7.4732056,1.9902954c5.7963867,0,9.4370117-0.7106934,10.9224854-2.1322021
	c0-0.5686951,205.3759766-0.8530884,208.5378418-0.8530884c0.2873535,0,0.4310303,0.0941772,0.4310303,0.2843933v0.1423035
	c0,0.2133789-0.5270996,0.4494934-1.5808105,0.7107849v0.1421204c0,0.1893921,0.7185059,0.4266968,2.1556396,0.7107849
	c0.1915283,0,0.3352051-0.5686951,0.4311523-1.7059937l-0.2873535-0.4269104l8.7667236,1.1375122v-0.1419067l0.1436768-0.1423035
	v-1.2796936h0.1436768c1.3411865,0,2.9221191,0.7583008,4.7426758,2.2752075h0.2874756l0.1436768-0.4266968
	c1.9637451-1.327301,3.7365723-1.9906006,5.3175049-1.9906006v-0.2844238
	c-2.8742676-0.5206909-4.7908936-1.3735962-5.7486572-2.5585938c-1.8682861,1.6112976-3.4974365,2.4165039-4.8863525,2.4165039
	v-1.4219055l-0.1436768-0.1418762l-8.6230469,1.1374817h-0.1436768l0.2873535-0.568512l-0.2873535-1.5641785
	c-1.5330811,0.3081055-2.2994385,0.5452881-2.2994385,0.710907v0.1422729
	c1.0537109,0.283905,1.5808105,0.5214233,1.5808105,0.7109985v0.1417236l-0.2874756,0.2846069l-207.9628906-0.1423035h-0.1437073
	c-1.1496887-1.8951111-4.9346008-2.8434143-11.3535767-2.8434143c-3.1859131,0-5.7250061,0.6636047-7.6169128,1.9904175
	c-4.0960083,0-8.4075012-0.2843018-12.9345093-0.8527222V275.14151l5.4612122-0.7104187h0.1437073v-0.28479l-8.6230164-1.8479004
	C380.1195679,272.2984009,379.9758606,272.3931885,379.9758606,272.5823975L379.9758606,272.5823975z M269.1704712,276.5632019
	c0.8381958-1.1374817,3.4251099-1.7059937,7.7606812-1.7059937h1.006012c2.1316223,0,3.6647949,0.4747009,4.598999,1.4213867
	l-13.5093994,0.5688171h-0.1437073L269.1704712,276.5632019z M404.4076538,274.8572083h1.5808105
	c4.047699,0,6.5391846,0.6634827,7.4732971,1.9902039l-13.6531067-0.5688171
	C400.7428589,275.3319092,402.2754517,274.8572083,404.4076538,274.8572083L404.4076538,274.8572083z M297.7700806,276.4211121
	h0.1436768v0.1420898c-1.7728882,0.3792114-4.1199951,0.6162109-7.0421143,0.7109985l-3.1616821-0.2844849v-0.1423035
	L297.7700806,276.4211121z M384.7184753,276.4211121l9.9164734,0.4263v0.1423035l-3.1617737,0.2844849
	c-2.9226074-0.0947876-5.2698059-0.3317871-7.0421143-0.7109985v-0.1420898H384.7184753z M290.8716431,278.6954956
	c2.9698181,0.0948181,5.317627,0.3319092,7.0421143,0.7111206v0.1421814h-0.1436768l-10.0601196-0.4263916v-0.1424866
	L290.8716431,278.6954956z M391.473175,278.6954956l3.1617737,0.2844238v0.1424866l-10.0601807,0.4263916h-0.1437073v-0.1421814
	C386.1556702,279.0274048,388.5028687,278.7903137,391.473175,278.6954956L391.473175,278.6954956z M282.5361633,279.6911011
	c-0.9342041,0.9476013-2.4673767,1.4215088-4.598999,1.4215088h-1.58078c-4.0959167,0-6.5874023-0.6636963-7.4733276-1.9902039
	L282.5361633,279.6911011z M413.3180542,279.122406h0.1437073v0.1423035l-0.1437073,0.1419067
	c-1.0778809,1.1376953-3.6647949,1.7059937-7.7606812,1.7059937h-1.1497192c-2.1322021,0-3.6647949-0.4739075-4.598999-1.4215088
	L413.3180542,279.122406z M332.1182556,279.2647095l2.0121155,4.4072876l-2.0121155,1.848114l-1.8682861-2.7012024
	C331.3278503,280.4489136,331.95047,279.2647095,332.1182556,279.2647095L332.1182556,279.2647095z M352.0948486,282.8189087
	l-1.7245789,2.7012024l-2.0119934-1.7062073h-0.1437073l2.0119934-4.5491943
	C350.3938599,279.2647095,351.0169678,280.4489136,352.0948486,282.8189087L352.0948486,282.8189087z"/>
</svg>
