<?xml version="1.0" encoding="utf-8"?>
<!-- Generator: Adobe Illustrator 19.1.0, SVG Export Plug-In . SVG Version: 6.00 Build 0)  -->
<svg version="1.1" id="Layer_1" xmlns="http://www.w3.org/2000/svg" xmlns:xlink="http://www.w3.org/1999/xlink" x="0px" y="0px"
	 width="600px" height="70px" viewBox="44 222 600 70" style="enable-background:new 44 222 600 70;" xml:space="preserve">
<style type="text/css">
	.st0{fill:#C2B8AF;}
</style>
<g>
	<path class="st0" d="M168.7202454,232.6356049c3.5378265-1.4205322,5.9049377-2.5055389,7.102005-3.2550201
		c0.1443634,0.1450195,0.3941956,0.2926636,0.7494965,0.4436188c0.3552856,0.1516113,0.7362976,0.286087,1.1443329,0.4047394
		c1.4989777,0.3941956,2.6433105,1.0454559,3.4323425,1.9524841c0.7890472,0.9076996,1.1832275,1.9992981,1.1832275,3.2748108
		c0,0.9861298-0.1839142,1.8279114-0.5523834,2.5253143c-0.3678284,0.6967621-0.9762573,1.3743896-1.8246155,2.031601
		c-0.8483582,0.6578522-2.1930847,1.4534912-4.0341797,2.3868866c1.1047821,0.4080353,1.9663391,0.9241638,2.5846405,1.5484161
		c0.6176605,0.6248932,1.0553436,1.4073486,1.3117676,2.3479919c0.256424,0.9399872,0.3843079,2.1864929,0.3843079,3.7375488
		c0,0.7237854,0.0560303,1.331543,0.1680908,1.8252716c0.1114044,0.4930573,0.2590485,0.8615417,0.4436188,1.104126
		c0.1839142,0.2438965,0.3876038,0.4212189,0.6117249,0.5332794c0.223465,0.1113892,0.4996643,0.1674194,0.8285828,0.1674194
		c0.2366486,0,0.5154877-0.0791016,0.8378296-0.2366333c0.3223267-0.1582031,0.6018219-0.3553009,0.8384705-0.5919495
		l0.9076843,1.5385284c-0.6710358,0.4607697-1.8608551,1.2036591-3.5707703,2.2293549
		c-1.7230988,1.0520325-2.7883301,1.7224121-3.1957092,2.0118103c-0.8945007-0.5260315-1.5615845-0.9828491-2.0019226-1.3710938
		c-0.4409943-0.3876038-0.8160706-0.857605-1.1245575-1.4099884c-0.3091583-0.5523987-0.5458069-1.3216553-0.7099457-2.3084564
		c-0.1647949-0.9861298-0.246521-2.307785-0.246521-3.9649658c0-1.6044312-0.1977539-2.8403931-0.5919495-3.7085419
		c-0.3948517-0.8681335-0.9736023-1.3018799-1.7362823-1.3018799c-0.2366486,0-0.5391998,0.0560303-0.9070282,0.1674347
		c-0.3684845,0.1120605-0.7237854,0.2801514-1.0652313,0.5036163c0,1.6169586-0.032959,2.8239288-0.098877,3.6195526
		s-0.1647949,1.4304199-0.2959747,1.903717c-0.1318359,0.4732819-0.3058624,0.8912048-0.5227356,1.2524414
		c-0.2168579,0.3618774-0.565567,0.7956238-1.0454559,1.3018799c-0.4798737,0.5062408-1.0124969,0.9768982-1.5978546,1.4106445
		c-0.5853424,0.4337311-1.2267303,0.8681335-1.9234772,1.3018799l-1.9136047,1.2227783
		c-0.6703796,0.4469299-1.3414307,0.9406433-2.0118103,1.4798584l-3.2550354-3.1363831l-1.6571808,1.2227783l-1.0256805-1.4396515
		l5.5239258-4.1824951l3.1166077,3.334137c0.5780945-0.2761993,0.8681335-0.9399872,0.8681335-1.9927063v-15.5836639
		c0-1.1970673-0.0665741-2.1601257-0.1977539-2.8905029c-0.1311798-0.7297058-0.3941803-1.3144073-0.789032-1.7554016
		c-0.3941956-0.4403229-0.9663544-0.6604919-1.7158508-0.6604919c-0.7494812,0-1.394165,0.2465363-1.9333649,0.7395935
		c-0.5392151,0.4930725-0.8088226,1.1146851-0.8088226,1.8641663c0,0.5392151,0.157547,1.0817108,0.4732971,1.6275177
		c0.3157501,0.5457916,0.7824402,1.1805878,1.4007568,1.9037018c0.3025665,0.3678284,0.5919342,0.7626801,0.8681335,1.1832275
		c0.2761993,0.4212189,0.509552,0.8780365,0.700058,1.3710938c0.1904907,0.4930725,0.2860718,1.0289917,0.2860718,1.6077423
		c0,1.394165-0.5029449,2.6004639-1.5088501,3.6195526c-1.0065765,1.0197601-2.4692993,1.8318634-4.3894806,2.4363403
		l-0.6315002-1.4007568c0.8022308-0.3678284,1.3546143-0.7363129,1.6571808-1.104126
		c0.3025665-0.3684845,0.4541779-0.795639,0.4541779-1.2827759c0-0.4600983-0.1450195-0.9300995-0.4344025-1.4099731
		c-0.2893829-0.4798889-0.7494812-1.0949097-1.3809814-1.8443909c-0.315094-0.3684845-0.608429-0.7725525-0.8773651-1.2135468
		c-0.2696075-0.4403381-0.4930725-0.91362-0.671051-1.4205322c-0.1773224-0.5056-0.2663116-1.0744629-0.2663116-1.7059631
		c0-1.2886963,0.352005-2.47258,1.0553589-3.5509949c0.7033386-1.0777588,1.6967163-1.9333801,2.9788208-2.564209
		c1.2821045-0.6315002,2.7448273-0.9472504,4.3894806-0.9472504
		C165.504776,229.5381165,167.5765686,230.5710602,168.7202454,232.6356049z M169.6872711,242.6564636
		c2.2880096-0.4469299,3.9774933-1.1074219,5.0697479-1.9821625c1.0909424-0.8747253,1.6374054-2.0091705,1.6374054-3.4033356
		c0-0.6967621-0.1647949-1.3374786-0.4937286-1.9228363c-0.3289337-0.5853424-0.7626648-1.04216-1.3018799-1.3710938
		s-1.1113739-0.4930573-1.7158508-0.4930573c-0.4475708,0-0.9999695,0.1047974-1.6571655,0.3150787
		c-0.6578674,0.2109375-1.2755127,0.4739532-1.8542786,0.7890472c0.091629,0.40802,0.1674347,0.9736023,0.2267609,1.6967163
		c0.0593262,0.7237854,0.0889893,1.4403076,0.0889893,2.1502533V242.6564636z"/>
	<path class="st0" d="M206.0041199,251.1783295c0,0.8154144,0.1278687,1.4699707,0.3842926,1.9630432
		c0.256424,0.4930573,0.6282043,0.7395935,1.1146698,0.7395935c0.223465,0,0.5392151-0.0889893,0.9465942-0.2663116
		c0.40802-0.1773071,0.7956238-0.3849487,1.1641083-0.6215973l0.631485,1.3809814
		c-3.1172485,1.6571808-5.418457,2.9392853-6.9042358,3.8469696c-0.8160706-0.3948364-1.4370117-0.9439392-1.8641663-1.6472778
		c-0.4278107-0.7033539-0.6743469-1.6795959-0.7402649-2.9294128c-3.4718933,1.5780792-6.2529755,3.1040955-8.3438873,4.5766907
		c-0.5919495-0.671051-1.3157196-1.298584-2.1700287-1.8839417c-0.85495-0.5853424-1.6176147-0.9828339-2.2886658-1.1937714
		l-0.0395508-1.0256805c0.5392151-0.0263672,0.9571228-0.1212921,1.2530975-0.286087
		c0.2959747-0.1641388,0.509552-0.4007721,0.6407318-0.7099304c0.1318359-0.3091583,0.1977539-0.8253021,0.1977539-1.5484161
		v-6.6873779c0-1.1707001-0.1054688-2.0421448-0.3157501-2.6136475c-0.2109375-0.5721741-0.5919495-0.8582458-1.1443329-0.8582458
		c-0.3157501,0-0.6282043,0.0593262-0.9367065,0.1773071c-0.3091431,0.1186523-0.5952301,0.2498322-0.8582458,0.3948517
		l-0.5128479-1.4007568c0.7890472-0.3553009,1.8377991-0.8681335,3.1462708-1.5385284
		c1.3084717-0.6710358,2.4561005-1.2821045,3.4422302-1.8344879c0.8154144,0.3546295,1.4370117,0.946579,1.8641663,1.7751617
		c0.4271545,0.828598,0.6413879,1.9861145,0.6413879,3.4719086v9.1335907c0,0.3678284,0.1641235,0.7165222,0.4930573,1.0454559
		c0.3282776,0.3289337,0.6506195,0.4930725,0.9663544,0.4930725c0.4073792,0,1.709259-0.5589905,3.906311-1.6769562v-7.7526093
		c0-0.8015594-0.1483154-1.3710938-0.4442902-1.7059631c-0.2959747-0.3355255-0.765976-0.5095367-1.4106445-0.5227203v-1.1245728
		c0.7501373-0.3678131,1.4007568-0.7626648,1.9531403-1.1838837c0.5523987-0.4205475,1.0125122-0.91362,1.3809814-1.4792023
		h3.8469849V251.1783295z"/>
	<path class="st0" d="M219.2008972,252.20401c0,0.5266876,0.1047974,0.9406586,0.3157349,1.2432251
		c0.2102814,0.3025513,0.538559,0.4535065,0.986145,0.4535065c0.3025513,0,0.6506042-0.091629,1.0454559-0.2761993
		l0.6117096,1.4205322c-1.0131531,0.5912933-2.0421295,1.2392578-3.0875854,1.9425964
		c-1.0454712,0.7033691-1.7784729,1.2333374-2.1990356,1.5879822c-1.526001-1.4989929-3.1567993-2.4389648-4.8924255-2.8206329
		v-1.3216553c0.6967468-0.091629,1.1865234-0.3908997,1.4693146-0.8978119
		c0.2827911-0.5055847,0.4245148-1.3242798,0.4245148-2.4554443v-12.7439117c0-1.5648956-0.1845703-2.754715-0.5523987-3.5701141
		c-0.3684845-0.8154144-1.0329285-1.427124-1.9927063-1.8345032l0.5721741-1.2234344
		c0.7626648,0.3289337,1.5253448,0.4930573,2.2886658,0.4930573c1.4989777,0,2.9715881-0.3018951,4.4184875-0.9070282
		c0.7626648-0.3025665,1.3875732-0.5260162,1.874054-0.6710358c0.4864655-0.1443634,0.9729462-0.2168732,1.460083-0.2168732
		h0.4337311v1.4205322c-0.8022156,0.0395508-1.4337158,0.2432404-1.8938141,0.6110535
		c-0.4607697,0.3684845-0.7890472,0.9241791-0.986145,1.6670685c-0.1977539,0.7435608-0.2959595,1.7659454-0.2959595,3.0678253
		V252.20401z"/>
	<path class="st0" d="M230.7800446,249.639801c0.1582031,0.8681488,0.4607697,1.6242218,0.9076843,2.2682495
		c0.4469299,0.6446686,0.9432831,1.1219177,1.48909,1.4304199c0.5458069,0.3091431,1.0883026,0.4633942,1.6275177,0.4633942
		c0.7626648,0,1.522049-0.1773224,2.2787781-0.532608c0.7560883-0.3546448,1.5945587-0.8740845,2.5147705-1.5583038
		l0.7501526,1.5385284l-2.0915833,1.3809814c-2.6960449,1.7362671-4.4975739,3.0506897-5.4046173,3.9451904
		c-0.631485-0.2762146-1.2629852-0.5392151-1.8938141-0.789032c-1.3546143-0.5385742-2.4264374-1.1700439-3.2154846-1.8931732
		c-0.789032-0.7231293-1.3875732-1.7132111-1.7949371-2.9689484c-0.4080353-1.2557373-0.6117249-2.8437042-0.6117249-4.7638855
		c0-1.3282471,0.1147003-2.446228,0.3454132-3.3539124c0.2293854-0.9076843,0.5550232-1.6538849,0.9762421-2.2392273
		c0.4205627-0.5847015,0.9235077-1.0876465,1.5088654-1.5088654c0.5853424-0.4205627,1.4238281-0.8938446,2.5154266-1.4205322
		l4.3789368-2.0513763l5.0110779,7.8910522L230.7800446,249.639801z M231.7866058,240.9208374
		c-0.3157501,0.2102814-0.5497589,0.5062561-0.7006989,0.8872528c-0.1509552,0.3816681-0.2630157,0.9670258-0.3348694,1.7560577
		c-0.0725098,0.789032-0.1087646,2.150238-0.1087646,4.082962l4.0836182-1.7949524L231.7866058,240.9208374z"/>
	<path class="st0" d="M260.4095154,252.6779633c0,0.9861298,0.0461426,1.6736603,0.1377563,2.061264
		c0.0922852,0.3882446,0.2729187,0.7033386,0.542511,0.946579c0.2695923,0.2438965,0.7527771,0.4574738,1.4501953,0.6413727
		v1.3018799h-10.356369v-1.3018799c0.7099304-0.1838989,1.1931152-0.3948364,1.4495392-0.631485
		c0.2564087-0.2366486,0.4310913-0.5491028,0.5227203-0.9366913c0.0922852-0.3876038,0.1384277-1.0817261,0.1384277-2.0810394
		v-17.0246277c0-0.9861298-0.0428467-1.6730042-0.12854-2.061264c-0.0856934-0.3875885-0.256424-0.7000427-0.5128326-0.9366913
		c-0.256424-0.2366486-0.7462006-0.4541779-1.4693146-0.6512604V230.70224h10.356369v1.3018799
		c-0.6842346,0.1845703-1.1641235,0.3981323-1.4403076,0.6413727s-0.4601135,0.5787659-0.5523987,1.0059052
		c-0.0916138,0.4271545-0.1377563,1.1015015-0.1377563,2.0217133V252.6779633z"/>
	<path class="st0" d="M283.6080322,237.1727448c0.1970825-0.5523987,0.3519897-1.0718231,0.4633789-1.5583038
		c0.1120605-0.4864807,0.1680908-0.9993134,0.1680908-1.5391846c0-0.6440125-0.1680908-1.137085-0.5029297-1.4792023
		c-0.3355408-0.3421173-0.8516846-0.5391998-1.5490723-0.5919342V230.70224h8.503418v1.3018799
		c-0.5009766,0.0791016-0.9241943,0.2399292-1.2735596,0.4831696c-0.3480225,0.2438965-0.6631165,0.5919495-0.9465637,1.0454559
		c-0.282135,0.4541779-0.6143494,1.1937866-0.9953613,2.2194672l-8.2661133,22.0146332h-4.5569153l-6.5100708-22.0937347
		c-0.2893677-0.9861298-0.5325928-1.6861877-0.7297058-2.1008148c-0.1970825-0.4139557-0.4535217-0.7494812-0.7692566-1.0059052
		s-0.7567444-0.4436188-1.3216553-0.5622711V230.70224h10.9087524v1.3018799
		c-0.6842041,0.0791016-1.1904602,0.2695923-1.5194092,0.5721588c-0.3282471,0.3025665-0.493042,0.7297211-0.493042,1.2821045
		c0,0.4344025,0.0395508,0.8582611,0.1186523,1.2722168c0.0791016,0.4146271,0.2432251,1.075119,0.493042,1.9828186
		l3.9056396,14.1637878L283.6080322,237.1727448z"/>
	<path class="st0" d="M298.1277771,239.8160553v4.6162262h-3.9458618v-4.6162262H298.1277771z M298.1277771,253.0523834v4.5766754
		h-3.9458618v-4.5766754H298.1277771z"/>
	<path class="st0" d="M337.7181091,230.7813416c-0.9202271,1.0915985-1.9063416,1.9366608-2.9584045,2.5345459
		c-1.052063,0.598526-2.0843201,0.8977966-3.0968323,0.8977966c-0.7633362,0-1.4567871-0.1186523-2.0816956-0.3553009
		c-0.6248779-0.2366486-1.3513184-0.657196-2.1792297-1.2623291c-0.7237854,0.5655823-1.2498169,1.1311493-1.5780945,1.6967316
		c-0.3295898,0.5655823-0.493042,1.1700439-0.493042,1.8147278c0,0.7758484,0.1832275,1.6307983,0.5523682,2.564209
		c0.3678284,0.9340515,0.9465942,2.0454254,1.7349854,3.3341217c0.421875-1.0784149,1.0454407-1.9102936,1.8746948-2.4956512
		c0.8279419-0.5853577,1.8140564-0.8780212,2.9584045-0.8780212c1.3157043,0,2.4692688,0.3618774,3.4620056,1.0850067
		c0.9927368,0.7237701,1.7521057,1.7263947,2.2794495,3.0084991c0.5246887,1.2821045,0.7883606,2.7322998,0.7883606,4.3499146
		c0,2.1832123-0.5497437,4.1389923-1.6466064,5.8686829c-1.0982056,1.7290344-2.6169434,3.073761-4.5575867,4.0335083
		c-1.9393005,0.9604492-4.0341797,1.4403076-6.2819824,1.4403076c-2.7105408,0-5.1191711-0.6182861-7.2298889-1.854248
		c-2.1106873-1.2359772-3.7454529-2.9913635-4.9029541-5.266861c-1.1575317-2.2754822-1.7349854-4.8726501-1.7349854-7.79216
		c0-1.7362823,0.134491-3.2484436,0.4034424-4.5371399c0.2702637-1.2886963,0.6090698-2.4165497,1.016449-3.3829041
		c0.4073792-0.9670105,0.8872375-1.8015442,1.4396362-2.5055389c0.5523987-0.7033539,1.1575317-1.3084717,1.8153992-1.8147278
		c0.6565247-0.5062408,1.3605347-0.8905487,2.1106873-1.1542206c0.7488098-0.2630157,1.4857788-0.3941956,2.2095642-0.3941956
		c0.9202271,0,1.6861877,0.2003937,2.2979126,0.601181c0.6116943,0.4014435,1.1601562,1.049408,1.6466064,1.9432526
		c1.5780945-1.4594116,2.6564941-2.5708008,3.23526-3.3334656c0.9465942,0.8285828,1.8088074,1.4627228,2.5839844,1.903717
		c0.7765198,0.4403229,1.5200806,0.6604919,2.2293396,0.6604919c1.1575317,0,2.1634521-0.5392151,3.019043-1.61763
		L337.7181091,230.7813416z M323.0025635,253.3879089c1.0125122-0.6051331,1.723114-1.1740112,2.1304932-1.7066193
		c0.4073486-0.5326233,0.6116943-1.1931152,0.6116943-1.9821625c0-0.7362976-0.1542358-1.5292969-0.4640503-2.3769989
		c-0.3085022-0.8483582-0.7857361-1.89711-1.4304199-3.1469269c-0.6183167-1.1700439-1.0916138-2.2253876-1.4198608-3.1660309
		c-0.3282776-0.9399872-0.4930725-1.8371429-0.4930725-2.692749c0-0.8411102,0.213562-1.6598206,0.6407166-2.4554443
		c0.4271545-0.795639,1.049408-1.6209259,1.8641663-2.4758759c-0.3678284-0.7626801-0.7620239-1.298584-1.1825867-1.6077423
		c-0.421875-0.3091583-0.9017334-0.4634094-1.4409485-0.4634094c-1.0256958,0-1.9195251,0.4568176-2.6828613,1.3710938
		c-0.7620239,0.91362-1.3381348,2.2517548-1.7257385,4.0144043c-0.3876038,1.7619934-0.5813904,3.9122314-0.5813904,6.4500732
		c0,4.5503235,0.8055115,7.9925537,2.4165344,10.3273773c1.6097412,2.3341522,4.0012207,3.500885,7.1705627,3.500885
		c2.8924866,0,5.0493164-0.8476868,6.47052-2.5444183c1.4198608-1.6967316,2.1304626-4.3136749,2.1304626-7.8514862
		c0-2.0118256-0.2834473-3.5470581-0.8490295-4.6056976s-1.3671265-1.5879669-2.4060059-1.5879669
		c-0.7633362,0-1.4501953,0.3388214-2.0619202,1.0158081c-0.6116943,0.6776276-0.9900818,1.5352173-1.1337891,2.5740967
		c0.4732971,1.2102509,0.7092896,2.3084412,0.7092896,3.2945709c0,1.4594269-0.4798889,2.8377686-1.4396362,4.1324005
		c-0.9597778,1.2959442-2.3084717,2.3842468-4.0434265,3.2649231L323.0025635,253.3879089z"/>
	<path class="st0" d="M355.7097473,255.3608246c-2.854248,1.3407745-4.846283,2.4192047-5.9774475,3.2346039l-2.3084412-1.2623291
		c-0.5260315-0.3157654-1.0256653-0.6637878-1.4989624-1.0454712c-0.4732971-0.3809967-0.8780212-0.7956238-1.2128906-1.2425537
		c-0.3348694-0.4469147-0.627533-0.9696503-0.8780212-1.5681763c-0.249176-0.5985413-0.4469299-1.3282471-0.5919495-2.1898041
		c-0.1450195-0.8615417-0.216217-1.9037018-0.216217-3.1264801c0-1.7362823,0.1568909-3.1007843,0.4732971-4.0935059
		c0.315094-0.9927368,0.775177-1.8114319,1.3803101-2.4561157c0.6051331-0.6440125,1.3710938-1.2194824,2.2979126-1.7257233
		c0.9281311-0.5062561,2.2715149-1.108078,4.0341797-1.8054962l5.0704041,7.4961853l-10.0406189,4.2016144
		c0.1305237,1.6703644,0.6407166,2.986084,1.5279846,3.9458466c0.8885498,0.9597778,1.9959717,1.4396515,3.3248901,1.4396515
		c0.5128479,0,1.1733398-0.1278839,1.9815063-0.3842926c0.8094482-0.256424,1.6875-0.6347961,2.6340637-1.1344604V255.3608246z
		 M349.4765625,240.7033081c-0.8160706,0.2241211-1.4607544,0.5695343-1.9340515,1.0362244
		c-0.4732971,0.4667053-0.8279114,1.166748-1.0652161,2.1008148c-0.2359924,0.9340515-0.3546448,2.373703-0.3546448,4.3202667
		l6.292511-2.8410645L349.4765625,240.7033081z"/>
	<path class="st0" d="M357.6622314,239.1252289h0.1977539c0.9597778,0,1.7455139-0.1773224,2.3572388-0.532608
		c0.6117249-0.3546448,1.1047974-0.8872681,1.479187-1.5978546c0.3744202-0.7099457,0.6578674-1.61763,0.8477173-2.721756
		c0.1911621-1.1047821,0.2992554-2.4330292,0.3256226-3.9847412h1.5780945v8.5218811h4.399353v2.0315857h-4.399353v13.1183319
		c0.4073792,0.3421173,0.8094788,0.6249084,1.2036438,0.8483734c0.3941956,0.2234497,0.6512756,0.3348541,0.769928,0.3348541
		c0.2228088,0,0.5840454-0.1048126,1.085022-0.3150787c0.4996643-0.2102814,1.0454407-0.4996643,1.6373901-0.8681488v1.7949524
		c-0.6315002,0.3025665-1.4079895,0.7429047-2.3282166,1.32164c-0.9202271,0.5787659-1.6703491,1.0982056-2.249115,1.5583191
		c-1.6044617-1.6176453-3.2484436-2.5708008-4.9319763-2.8601837v-0.927475
		c0.5919189-0.1443481,1.0296326-0.3809967,1.3117676-0.7099304c0.2834473-0.3282776,0.4244995-0.7626648,0.4244995-1.3018799
		v-11.9937744h-3.7085571V239.1252289z"/>
	<path class="st0" d="M397.3725586,256.2876282c-1.5780945,0.8022156-2.8937988,1.5846863-3.9458618,2.3473511
		c-0.9465942-0.6308289-1.5754395-1.1766357-1.8839417-1.6374207c-0.3085022-0.460083-0.462738-0.9663391-0.462738-1.5187378
		c-2.315033,1.0784302-3.8443298,1.8147278-4.5865784,2.2095642c-0.7435608,0.3941956-1.2471619,0.6967468-1.5095215,0.9070435
		c-1.197052-0.7362976-2.0843201-1.4924011-2.6630859-2.2682495s-0.9927063-1.6934204-1.2431946-2.7520752
		c-0.249176-1.0586395-0.3744202-2.4033661-0.3744202-4.0341797c0-2.0909119,0.1871948-3.7184296,0.561615-4.8818817
		c0.3757324-1.1641083,0.9413147-2.1172791,1.6967163-2.8608398c0.7567444-0.7428894,1.7323303-1.4693146,2.9294128-2.179245
		c0.5392151-0.3157501,0.9768982-0.6051331,1.3117676-0.8681335c0.3361816-0.2630157,0.6341248-0.5523987,0.8977966-0.8681488
		c1.117981,0.7890472,2.383606,1.4864502,3.7981873,2.0909271c1.4132996,0.6051178,2.6789246,0.9999695,3.796875,1.1838837
		v1.0256805c-0.4732971,0.065918-0.8358459,0.3421173-1.0849915,0.8285828
		c-0.2504883,0.4864807-0.3744202,1.1113892-0.3744202,1.874054v7.7723846c0,0.9070282,0.1239319,1.5879669,0.3744202,2.0414886
		c0.2491455,0.4535065,0.6776123,0.6802673,1.2827454,0.6802673c0.2096252,0,0.4363708-0.0520782,0.6802673-0.157547
		c0.2425842-0.1048126,0.5089111-0.2498322,0.7989502-0.4337311V256.2876282z M391.0800171,243.208847
		c-0.2768555-0.2893829-0.7738647-0.631485-1.4897461-1.0256805c-0.7171936-0.3948517-1.6018066-0.7824402-2.6538696-1.1641083
		c-0.709259,0.4080353-1.2616577,0.9241638-1.6571655,1.5484161c-0.3941956,0.6248932-0.6895142,1.4403076-0.8872681,2.4462128
		c-0.1977539,1.0065613-0.2952881,2.2919617-0.2952881,3.8568573c0,2.0513611,0.2979431,3.6096649,0.8964844,4.6748962
		c0.5985107,1.0652466,1.3710938,1.5978546,2.3189697,1.5978546c0.3941956,0,0.9729614-0.157547,1.7349854-0.4732819
		c0.7633057-0.3157501,1.4409485-0.6703949,2.0328979-1.0652466V243.208847z"/>
	<path class="st0" d="M422.0495911,239.5200806c-1.5385132,2.0645447-3.268219,3.0968323-5.1877441,3.0968323
		c-0.7897034,0-1.4673157-0.1114044-2.0315857-0.3348694c-0.5655823-0.223465-1.1377563-0.6117249-1.7164917-1.1641083
		c-0.5523987,0.3025665-0.9927368,0.7395935-1.3223267,1.3117676c-0.3282776,0.5721588-0.4930725,1.1871796-0.4930725,1.8443756
		c0,0.6578674,0.1318359,1.265625,0.3955078,1.8246155c0.2623596,0.5589905,0.627533,0.9999695,1.0942383,1.3216553
		c0.4667053,0.3223419,0.98349,0.4831848,1.5490723,0.4831848c0.1700745,0,0.3309021-0.0257111,0.4825134-0.0784454
		s0.3282776-0.1542511,0.5326233-0.3058624c0.2043457-0.1509552,0.4007874-0.3355255,0.5919495-0.5523987
		c0.1911621-0.2168579,0.3783569-0.4568024,0.5629272-0.7198181l0.6104126-0.9076843
		c1.7626343,0.0791016,3.1600952,0.6183014,4.1923828,1.6176147c1.0322876,0.9993286,1.5490723,2.2623138,1.5490723,3.7876587
		c0,0.8153992-0.1621704,1.578064-0.4838257,2.2880096c-0.322998,0.7105865-0.7857666,1.394165-1.3908691,2.0520172
		c-0.6051331,0.6572113-1.657196,1.5451355-3.1561584,2.6630859c-0.4601135,0.3546448-0.8938599,0.7099304-1.3025513,1.0652466
		c-0.5906067-0.6974182-1.3012085-1.2755127-2.1304626-1.7362976c-0.8279419-0.460083-1.5648804-0.690155-2.208252-0.690155
		c-0.5919495,0-1.1285095,0.1311951-1.6083984,0.3941956c-0.4798889,0.2636719-0.9900818,0.7106018-1.5279846,1.3414307
		l-0.9281311-1.0059204c0.9729614-1.0520325,1.9406433-1.8410797,2.9003906-2.3670959
		c0.9597778-0.5260315,1.8931885-0.7890472,2.8015137-0.7890472c1.433075,0,2.7079163,0.5655823,3.8258972,1.6960754
		c0.7501526-0.4337463,1.3486633-0.9399872,1.7955933-1.5187531s0.671051-1.2359619,0.671051-1.9729309
		c0-1.0256805-0.312439-1.8470154-0.9373474-2.465332c-0.6249084-0.6183014-1.4238281-0.9274597-2.3967896-0.9274597
		c-0.4469299,0-0.8582458,0.1878662-1.232666,0.5622864c-0.3744202,0.375061-0.8912048,1.0487518-1.5490723,2.0223541
		c-1.0652161-0.0791016-2.002594-0.3816681-2.81073-0.9076843c-0.8081665-0.5260315-1.4238281-1.2135468-1.8443909-2.061264
		c-0.4205627-0.8483582-0.6315002-1.7197876-0.6315002-2.6143036c0-0.7494812,0.1120605-1.4297638,0.3361816-2.0414734
		c0.2228088-0.6117249,0.56427-1.2062988,1.0256958-1.7850647c0.4601135-0.5787506,1.3473511-1.427124,2.6630859-2.5450897
		c0.4864807-0.4073792,0.9992981-0.8542938,1.5385132-1.3414307c0.4469299,0.671051,0.9795532,1.2003632,1.5978699,1.5879669
		c0.6169739,0.3882599,1.2880249,0.5820465,2.0118103,0.5820465c1.1706848,0,2.2029724-0.5523834,3.0968323-1.6571655
		L422.0495911,239.5200806z"/>
	<path class="st0" d="M424.5953369,239.1252289h0.1964417c0.9597778,0,1.7455139-0.1773224,2.3572388-0.532608
		c0.6117249-0.3546448,1.1047668-0.8872681,1.4804993-1.5978546c0.3744202-0.7099457,0.6565552-1.61763,0.8477173-2.721756
		c0.1898499-1.1047821,0.2992554-2.4330292,0.3256226-3.9847412h1.5780945v8.5218811h4.399353v2.0315857h-4.399353v13.1183319
		c0.4073792,0.3421173,0.808136,0.6249084,1.2036438,0.8483734c0.3941956,0.2234497,0.6499634,0.3348541,0.7686157,0.3348541
		c0.2241211,0,0.5853577-0.1048126,1.085022-0.3150787c0.4996338-0.2102814,1.0454407-0.4996643,1.6373901-0.8681488v1.7949524
		c-0.6315002,0.3025665-1.4066772,0.7429047-2.3282166,1.32164c-0.9202271,0.5787659-1.6703796,1.0982056-2.2478027,1.5583191
		c-1.6057739-1.6176453-3.2484436-2.5708008-4.9319763-2.8601837v-0.927475
		c0.5919189-0.1443481,1.0283203-0.3809967,1.3117676-0.7099304c0.2821045-0.3282776,0.4244995-0.7626648,0.4244995-1.3018799
		v-11.9937744h-3.7085571V239.1252289z"/>
	<path class="st0" d="M443.946228,253.4076843c0,0.1311646,0.0593262,0.2728882,0.1779785,0.4238434
		c0.1186523,0.1516113,0.3322144,0.319046,0.6407166,0.5029602c0.3085022,0.1845703,0.6143494,0.3289337,0.917572,0.4344025
		c0.3019104,0.1054688,0.5062561,0.1575317,0.6117249,0.1575317c0.1582031,0,0.4891052-0.1278687,0.9953613-0.3842926
		s1.0428162-0.5820618,1.6083984-0.9769135l0.671051,1.5385284c-0.3032227,0.1977539-0.671051,0.4278107-1.1047974,0.6908264
		c-1.9472046,1.1575165-3.2352295,2.0777435-3.8667297,2.7619476c-1.3935242-0.9736023-2.5879517-1.6802368-3.580658-2.1212158
		c-0.9927368-0.4403381-1.8773499-0.7264252-2.6525574-0.857605v-0.8879089
		c0.6433716-0.1048126,1.1443481-0.2663116,1.4989929-0.4831848c0.3546143-0.2168732,0.6051025-0.5062561,0.7488098-0.8681335
		c0.1450195-0.3612366,0.2175293-0.8648529,0.2175293-1.5088654v-6.2140961c0-1.1568604-0.1911621-2.120575-0.5721741-2.8898315
		c-0.3809814-0.7692719-0.8872375-1.1542358-1.5187378-1.1542358c-0.1582031,0-0.3744202,0.0626221-0.6512756,0.1878662
		c-0.2755432,0.124588-0.6512756,0.3183899-1.1245422,0.5814056v-1.4396515
		c0.7896729-0.5128479,1.4013977-0.9472351,1.835144-1.3018799c0.4337463-0.3553009,0.9927368-0.8483582,1.6769409-1.4798584
		c0.7224731,0.5003204,1.2485046,0.9076843,1.5780945,1.2234344c0.3282776,0.315094,0.6077576,0.6802826,0.8384705,1.0942383
		c0.2294006,0.4146271,0.4825134,1.121933,0.7593689,2.1212463c0.2755432-0.5787659,0.594574-1.0883026,0.9558105-1.5292969
		c0.3625488-0.4403381,0.7765198-0.8509979,1.2432251-1.232666s1.2722168-0.9663544,2.4165344-1.7560577l3.0770569,3.4527893
		l-2.564209,2.564209l-2.1304626-2.6828613c-1.8021851,1.4337158-2.7026367,3.767868-2.7026367,7.0031128V253.4076843z"/>
	<path class="st0" d="M455.230072,244.5305023v-0.0982208c0-0.6842194-0.1278992-1.2168427-0.3849792-1.5985107
		c-0.2557373-0.3809967-0.6011658-0.5715027-1.0349121-0.5715027c-0.355957,0-0.8358154,0.1509552-1.4409485,0.4535217v-1.3216553
		c2.0645447-1.3018799,3.5187073-2.3803101,4.3598022-3.23526c0.7237854,0.9076843,1.3869324,1.5912628,1.9920349,2.0513611
		c0.6051331,0.4607697,1.2168579,0.7890472,1.8351746,0.9868011v0.946579
		c-0.8160706,0.1054688-1.3882446,0.384964-1.7165222,0.8384705c-0.3282471,0.4535217-0.4996338,1.1542358-0.5128174,2.1008148
		l-0.0593262,6.9833527v0.1575317c0,0.9340668,0.1212769,1.6149902,0.3651733,2.0421448s0.6209412,0.6407166,1.1337891,0.6407166
		c0.6315002,0,1.2827759-0.1904907,1.9537964-0.5721588l-0.0395508,1.4403076l-1.6769409,0.946579
		c-0.5392151,0.3157349-0.9927368,0.5853577-1.3605347,0.8088074c-0.3691406,0.2234802-0.6684265,0.4172668-0.8978271,0.5820618
		c-0.2307129,0.1641235-0.4244995,0.312439-0.5827026,0.4442749c-0.7092896-0.6182861-1.2484741-1.331543-1.6176147-2.1403503
		c-0.3678284-0.8088074-0.5523987-1.640686-0.5523987-2.4956512v-0.1773224L455.230072,244.5305023z M456.808136,235.6928864
		c-0.7106018-0.7890472-1.2590332-1.5319366-1.646637-2.2286835c-0.388916-0.6974182-0.5827026-1.2359619-0.5827026-1.61763
		c0-0.4601135,0.2043457-0.8846283,0.6117249-1.2728729c0.4073792-0.3876038,0.9070129-0.5814056,1.4989624-0.5814056
		c0.7106018,0,1.2919922,0.157547,1.7455139,0.4732971c0.454834,0.3157501,0.6815796,0.723114,0.6815796,1.2227783
		c0,0.3684845-0.1318359,0.7923279-0.3955078,1.2728729c-0.2623291,0.4798889-0.6182861,1.009201-1.0652161,1.5879669
		L456.808136,235.6928864z"/>
	<path class="st0" d="M463.0611267,255.2619476c0.4864807-0.4864655,1.0098572-0.9043884,1.5688477-1.2524414
		c0.5589905-0.3487091,1.2590332-0.6875153,2.1001282-1.016449v-9.1131592c0-0.8681488-0.147644-1.5292969-0.4429626-1.9828186
		c-0.2966309-0.4535065-0.7264099-0.6802673-1.2919922-0.6802673c-0.5260315,0-1.1179504,0.190506-1.7758179,0.5715027v-1.4001007
		c1.5912476-0.7758484,2.9781799-1.5582886,4.1620483-2.3479919c0.6315002,0.5523987,1.0586548,0.9538269,1.2827759,1.2036591
		c0.2228088,0.2498322,0.4297791,0.5491028,0.6209412,0.8978119c0.1911621,0.3480377,0.3717651,0.8252869,0.5431519,1.4297485
		c1.0125122-0.4600983,2.0803833-1.0289764,3.2049561-1.7059479c1.1245422-0.6776428,2.0948486-1.3381348,2.9096069-1.9828186
		c1.7230835,0.828598,2.9953003,1.9531555,3.8179626,3.3730316c0.8213501,1.4205322,1.232666,3.2550201,1.232666,5.5041504
		c0,0.946579-0.0566711,1.7949371-0.1674194,2.5444336c-0.1120605,0.7494812-0.2636719,1.4106445-0.454834,1.9828033
		c-0.1898499,0.5721741-0.4297791,1.0948944-0.7198181,1.5681915c-0.2887268,0.4732971-0.6407471,0.9340515-1.0546875,1.3809814
		c-0.4152832,0.4469299-1.0494385,1.0124969-1.903717,1.6960754c-1.1047974,0.8813171-1.9208679,1.5978394-2.4468689,2.150238
		c-1.2616882-0.9070435-2.7408752-1.7290344-4.4376221-2.465332c-0.0263672,1.104126-0.0830383,2.1067505-0.1674194,3.007843
		c-0.0856934,0.9010925-0.1977539,1.7619934-0.3361816,2.5846252c-0.1384277,0.8213501-0.3783569,2.0546875-0.7198181,3.6986694
		h-0.986145c-0.1977539-1.2102661-0.3783569-2.7191162-0.5431519-4.5272522
		c-0.1634827-1.8087769-0.2729187-3.5542908-0.3256531-5.2378387c-1.2089233,0-2.2807617,0.2893829-3.2154541,0.8681488
		L463.0611267,255.2619476z M469.8084717,253.032608c1.6295166,0.4475861,3.3064575,1.2036591,5.029541,2.2688904
		c0.7106018-0.4732819,1.2366333-0.9300995,1.5780945-1.3710938c0.3427734-0.4403229,0.6090698-0.9670105,0.7989197-1.5780792
		c0.1911621-0.6117096,0.322998-1.2886963,0.3955078-2.0322418c0.0711975-0.7422333,0.1080933-1.5352325,0.1080933-2.3769989
		c0-2.0909271-0.3098145-3.6657104-0.9267883-4.72435c-0.6183167-1.0586395-1.5583191-1.5879669-2.8212891-1.5879669
		c-0.4337463,0-0.9768982,0.1219482-1.6281738,0.3651886c-0.6499634,0.2432404-1.4950256,0.667099-2.533905,1.2722168V253.032608z"
		/>
	<path class="st0" d="M483.8134155,255.2619476c0.4864807-0.4864655,1.0098572-0.9043884,1.5688477-1.2524414
		c0.5589905-0.3487091,1.2590332-0.6875153,2.1001587-1.016449v-9.1131592c0-0.8681488-0.1476746-1.5292969-0.4429932-1.9828186
		c-0.2966309-0.4535065-0.7264099-0.6802673-1.2919922-0.6802673c-0.526001,0-1.1179504,0.190506-1.7758179,0.5715027v-1.4001007
		c1.5912476-0.7758484,2.9781799-1.5582886,4.1620483-2.3479919c0.6315002,0.5523987,1.0586548,0.9538269,1.2827759,1.2036591
		c0.2228088,0.2498322,0.4297791,0.5491028,0.6209412,0.8978119c0.1911621,0.3480377,0.3717957,0.8252869,0.5431824,1.4297485
		c1.0124817-0.4600983,2.0803528-1.0289764,3.2049255-1.7059479c1.1245422-0.6776428,2.0948792-1.3381348,2.9096069-1.9828186
		c1.723114,0.828598,2.9953308,1.9531555,3.8179626,3.3730316c0.8213501,1.4205322,1.232666,3.2550201,1.232666,5.5041504
		c0,0.946579-0.0566711,1.7949371-0.1674194,2.5444336c-0.1120605,0.7494812-0.2636719,1.4106445-0.454834,1.9828033
		c-0.1898499,0.5721741-0.4297791,1.0948944-0.7198181,1.5681915c-0.2887268,0.4732971-0.6407166,0.9340515-1.0546875,1.3809814
		c-0.4152832,0.4469299-1.049408,1.0124969-1.903717,1.6960754c-1.1047974,0.8813171-1.9208374,1.5978394-2.4468689,2.150238
		c-1.2616882-0.9070435-2.7408752-1.7290344-4.4375916-2.465332c-0.0263672,1.104126-0.0830688,2.1067505-0.16745,3.007843
		c-0.0856934,0.9010925-0.1977539,1.7619934-0.3361816,2.5846252c-0.1384277,0.8213501-0.3783569,2.0546875-0.7198181,3.6986694
		h-0.986145c-0.1977539-1.2102661-0.3783569-2.7191162-0.5431519-4.5272522
		c-0.1634827-1.8087769-0.2728882-3.5542908-0.3256226-5.2378387c-1.2089539,0-2.2807617,0.2893829-3.2154846,0.8681488
		L483.8134155,255.2619476z M490.560791,253.032608c1.6294861,0.4475861,3.306427,1.2036591,5.029541,2.2688904
		c0.7105713-0.4732819,1.2366028-0.9300995,1.578064-1.3710938c0.3427734-0.4403229,0.6090698-0.9670105,0.7989197-1.5780792
		c0.1911621-0.6117096,0.322998-1.2886963,0.3955078-2.0322418c0.0711975-0.7422333,0.1081238-1.5352325,0.1081238-2.3769989
		c0-2.0909271-0.3098145-3.6657104-0.9268188-4.72435c-0.6183167-1.0586395-1.5582886-1.5879669-2.8212891-1.5879669
		c-0.4337463,0-0.9768982,0.1219482-1.6281738,0.3651886c-0.6499634,0.2432404-1.4950256,0.667099-2.5338745,1.2722168V253.032608z"
		/>
	<path class="st0" d="M518.6708374,255.3608246c-2.854248,1.3407745-4.8463135,2.4192047-5.977417,3.2346039l-2.3084717-1.2623291
		c-0.5260315-0.3157654-1.0256958-0.6637878-1.4989624-1.0454712c-0.4732971-0.3809967-0.8780518-0.7956238-1.2128906-1.2425537
		c-0.3348694-0.4469147-0.6275635-0.9696503-0.8780518-1.5681763c-0.2491455-0.5985413-0.4468994-1.3282471-0.5919189-2.1898041
		c-0.1450195-0.8615417-0.216217-1.9037018-0.216217-3.1264801c0-1.7362823,0.1568909-3.1007843,0.4732971-4.0935059
		c0.3150635-0.9927368,0.775177-1.8114319,1.3803101-2.4561157c0.6051331-0.6440125,1.3710938-1.2194824,2.2979126-1.7257233
		c0.9281006-0.5062561,2.2715454-1.108078,4.0341797-1.8054962l5.0703735,7.4961853l-10.0405884,4.2016144
		c0.1304932,1.6703644,0.6407166,2.986084,1.5279541,3.9458466c0.8885803,0.9597778,1.9960327,1.4396515,3.3248901,1.4396515
		c0.5128784,0,1.1733398-0.1278839,1.9815063-0.3842926c0.8095093-0.256424,1.6875-0.6347961,2.6340942-1.1344604V255.3608246z
		 M512.4376221,240.7033081c-0.81604,0.2241211-1.4607239,0.5695343-1.934021,1.0362244
		c-0.4732971,0.4667053-0.8279419,1.166748-1.0652466,2.1008148c-0.2359619,0.9340515-0.3546143,2.373703-0.3546143,4.3202667
		l6.2925415-2.8410645L512.4376221,240.7033081z"/>
	<path class="st0" d="M527.4682617,253.4076843c0,0.1311646,0.0593262,0.2728882,0.1779785,0.4238434
		c0.1186523,0.1516113,0.3322144,0.319046,0.640686,0.5029602c0.3085327,0.1845703,0.6143799,0.3289337,0.9176025,0.4344025
		c0.3018799,0.1054688,0.5062256,0.1575317,0.6116943,0.1575317c0.1582031,0,0.4891357-0.1278687,0.9953613-0.3842926
		c0.5062866-0.256424,1.0428467-0.5820618,1.6083984-0.9769135l0.6710815,1.5385284
		c-0.3032227,0.1977539-0.6710815,0.4278107-1.1047974,0.6908264c-1.9472046,1.1575165-3.2352295,2.0777435-3.8667603,2.7619476
		c-1.3934937-0.9736023-2.5879517-1.6802368-3.5806274-2.1212158c-0.9927368-0.4403381-1.8773804-0.7264252-2.6525879-0.857605
		v-0.8879089c0.6433716-0.1048126,1.1443481-0.2663116,1.4990234-0.4831848
		c0.3546143-0.2168732,0.6051025-0.5062561,0.7487793-0.8681335c0.1450195-0.3612366,0.2175293-0.8648529,0.2175293-1.5088654
		v-6.2140961c0-1.1568604-0.1911621-2.120575-0.5721436-2.8898315c-0.3809814-0.7692719-0.8872681-1.1542358-1.5187378-1.1542358
		c-0.1582031,0-0.3744507,0.0626221-0.6513062,0.1878662c-0.2755127,0.124588-0.6512451,0.3183899-1.1245117,0.5814056v-1.4396515
		c0.7896729-0.5128479,1.4013672-0.9472351,1.835144-1.3018799c0.4337158-0.3553009,0.9927368-0.8483582,1.6769409-1.4798584
		c0.7224731,0.5003204,1.2484741,0.9076843,1.578064,1.2234344c0.3283081,0.315094,0.6077881,0.6802826,0.838501,1.0942383
		c0.2293701,0.4146271,0.4824829,1.121933,0.7593384,2.1212463c0.2755737-0.5787659,0.5946045-1.0883026,0.9558105-1.5292969
		c0.3625488-0.4403381,0.7765503-0.8509979,1.2432251-1.232666c0.4667358-0.3816681,1.2722168-0.9663544,2.4165649-1.7560577
		l3.0770264,3.4527893l-2.564209,2.564209l-2.1304321-2.6828613c-1.8021851,1.4337158-2.7026367,3.767868-2.7026367,7.0031128
		V253.4076843z"/>
</g>
<path class="st0" d="M327.5193787,271.3027954v0.2845154l0.5747986,0.8531799c-2.946106,0-5.2456055,0.568512-6.8983154,1.7058105
	c-1.4371948,1.9904175-3.2578125,2.9857178-5.4612122,2.9857178c-3.0662842,0-4.598999-0.6159058-4.598999-1.8480225
	c0.09552-0.2368774,1.2452087-0.7111816,3.4492188-1.4220886l-4.8862915-1.7059937v0.1424866l-0.1437073,0.1420898v1.7058105
	l-0.1437988,1.7061157c0.9100037,1.3269958,3.0657959,1.9901733,6.4672852,1.9901733
	c2.8260193,0,4.7903137-0.5206909,5.892395-1.5639954c1.3411255-1.990387,3.640625-2.9853821,6.8983154-2.9853821
	c0.4311829,0,1.0061035,0.8530884,1.7246094,2.5592041v0.1422729l-0.8623047-0.7106934l-0.5749207,0.5684204
	c-0.934082,0.9007874-2.6109924,1.5639038-5.0299988,1.9901733v0.2844238c1.8200073,0,3.6884155,0.8051758,5.6049194,2.4172974
	h0.287384c0.047821-0.3796082,0.1914978-0.5688171,0.4312134-0.5688171l-1.2935181,2.7008972
	c-3.2817993,0-5.4852905-0.805603-6.6109009-2.416687c-1.0059814-1.4216919-3.1616821-2.1326904-6.4671936-2.1326904
	c-3.6412048,0-5.7969055,0.7109985-6.4672852,2.1326904l0.1437988,1.5635986v1.8486938
	c0.4310913,0,2.1073914-0.4743958,5.0299988-1.4216919v-0.1425171c-2.20401-0.7582703-3.3536987-1.2320862-3.4492188-1.4217834
	c0-1.2319031,1.4849243-1.8479919,4.4553223-1.8479919c1.5567017,0,2.8023987,0.3314819,3.7366028,0.9949951
	c1.6763,2.464386,4.598877,3.6966858,8.7666016,3.6966858v0.1423035l-0.5747986,0.7108154
	c0.8381958,0.5444946,5.0536804,2.3928833,12.6470947,5.5447998h0.1436768v-0.142395l-0.2874756-0.4263306
	c-3.4013977-4.1942749-5.7008972-7.7965698-6.898407-10.8052979c0.7663879-0.2844849,1.4848938-0.4265747,2.1557922-0.4265747
	v-0.2844238l-2.2994995-0.5683899c0.742218-2.2749939,3.1853943-6.0184937,7.3295898-11.2315063v-0.1423035L327.5193787,271.3027954
	z M342.0347595,266.0426941c4.1436157,5.2130127,6.586792,8.9565125,7.3294983,11.2315063l-2.2994995,0.5683899v0.2844238
	c0.6703186,0,1.388916,0.1420898,2.1557922,0.4265747l-0.2874756,0.4263306
	c-0.9105225,2.5823975-3.210022,6.1846924-6.8983154,10.8052979v0.142395
	c7.7842102-3.1758118,12.0480042-5.0241089,12.7907104-5.5447998l-0.5747986-0.7108154v-0.1423035
	c3.0180054,0,5.3652039-0.616394,7.0420837-1.8480835c1.3652039-1.8963013,3.1376038-2.8435974,5.3174133-2.8435974
	c3.0657959,0,4.598999,0.6160889,4.598999,1.8479919c-0.0960083,0.1896973-1.2458191,0.6635132-3.4492188,1.4217834
	c0,0.213501,1.6286011,0.734314,4.8864136,1.564209h0.1437073v-1.8486938l0.1437073-1.7056885
	c-0.8865051-1.327301-3.0422058-1.9906006-6.4673157-1.9906006c-2.6109924,0-4.5752869,0.473877-5.8923035,1.4217834
	c-1.2215881,2.0848999-3.569397,3.127594-7.0420837,3.127594c-0.2156067-0.0470886-0.6950073-0.9003906-1.4372253-2.5587769
	v-0.1421204c0.2874146,0,0.4312134,0.189209,0.4312134,0.5688171h0.2874146
	c1.9159851-1.6121216,3.7842712-2.4172974,5.6048889-2.4172974v-0.2844238h-0.1437073l-0.1437073-0.1420898
	c-1.7728882,0-3.5451965-0.8052063-5.3174744-2.4165039l-0.8623047,0.7106934
	c0.287384-0.9475708,0.7662964-1.8483887,1.4371948-2.7014771c2.6103821,0,4.5270081,0.4744873,5.7485962,1.4216919
	c1.3169861,2.0852051,3.6647949,3.1276855,7.0421143,3.1276855c3.8561707,0,6.1079712-0.7105713,6.7546997-2.1324768
	l-0.1437073-1.5638123v-1.8479004l-0.1437073-0.1424866l-4.8864136,1.5637817v0.1422119
	c2.2033997,0.710907,3.3532104,1.1852112,3.4492188,1.4220886c0,1.2321167-1.4855042,1.8480225-4.4552002,1.8480225
	c-1.7488098,0-2.9945068-0.3788147-3.7366028-1.1373291c-1.7728882-2.3690796-4.6950073-3.5541992-8.7666931-3.5541992
	l0.5747986-0.8531799v-0.2845154l-12.6470032-5.4024048h-0.1437073V266.0426941z M333.9865723,272.0137939l-1.8683167,4.4073181
	h-0.287384l-1.4371948-3.4121094l1.5808716-2.5593872L333.9865723,272.0137939z M351.9511719,273.0090027l-1.4371948,3.4121094
	h-0.2874146l-1.8682861-4.2651978l1.8682861-1.7062988C350.3938599,270.4735107,350.96875,271.3265991,351.9511719,273.0090027
	L351.9511719,273.0090027z M293.3148804,274.1463013v0.28479l5.6049805,0.7104187v0.1424866
	c-4.5513,0.5684204-8.8150024,0.8527222-12.790802,0.8527222c-2.1557922-1.3268127-4.6949158-1.9904175-7.6169739-1.9904175
	c-6.5632324,0-10.395813,0.9483032-11.4973145,2.8434143L64.5632706,277.132019l-0.2873993-0.2846069v-0.1417236
	c0-0.1895752,0.5264969-0.4270935,1.5808029-0.7109985v-0.1422729c0-0.1656189-0.7667999-0.4028015-2.2994003-0.710907
	l-0.2875023,1.7059021l0.2875023,0.4267883l-8.6230011-1.1374817l-0.2875023,0.2843933v1.2793884l-0.4310989-0.1420898
	c-1.5331993-0.1653137-3.0181007-0.9238892-4.4552002-2.2744141c-0.9583015,1.1849976-2.8743019,2.0379028-5.7486,2.5585938
	v0.2844238l1.1497002,0.1420898c2.8743019,0.8294067,4.3115005,1.5874023,4.3115005,2.2752075h0.2873993
	c1.8199997-1.5169067,3.400898-2.2752075,4.7425995-2.2752075h0.1436996v1.4219971l0.1438026,0.1419067l8.6229973-1.1375122
	h0.1437035l-0.2875023,0.5692139l0.2875023,1.5636902c1.5326004-0.2611084,2.2994003-0.4978027,2.2994003-0.7107849v-0.1421204
	c-1.054306-0.2612915-1.5808029-0.497406-1.5808029-0.7107849v-0.28479l0.1436996-0.1419067l202.4514923,0.1419067
	c1.293396,1.8957825,5.1255188,2.8433838,11.4972839,2.8433838c3.2095337,0,5.7487183-0.663208,7.6170044-1.9902954
	c6.3235168,0.1896057,10.6350098,0.473999,12.9345093,0.8529968v0.142395l-5.6049805,0.710907v0.2839966l8.7666931,1.8486938
	l0.287384-0.2846069v-2.1326904l5.4613037,0.7109985l0.2874146-0.2840881v-3.2701111l-0.1437073-0.142395l-7.0421143,0.853302
	c-2.9461975-0.6639099-6.0602112-0.9953918-9.3415833-0.9953918h-1.4371948c-2.7789307,0-4.838623,0.2844849-6.1798096,0.8529053
	l-17.9645081-0.8529053v-0.1419067c0-0.2133179,5.9878235-0.5448914,17.9645081-0.9953918
	c1.3411865,0.5686951,3.4008789,0.8528748,6.1798096,0.8528748h1.2934875c3.5210876,0,6.5868225-0.3314819,9.1978149-0.9951782
	l7.1858826,0.8530884l0.2874146-0.2841797v-3.2700195l-0.1437073-0.1423035l-5.605011,0.710907v-2.2744141l-0.1437073-0.1420898
	L293.3148804,274.1463013z M379.9758606,272.5823975v2.1325073l-5.605011-0.710907v0.1423035l-0.1436768,0.1419067v3.2702026
	l0.1436768,0.1420898l7.0421143-0.8530884c3.041687,0.6636963,6.2034912,0.9951782,9.4852905,0.9951782h1.2935181
	c2.7782898,0,4.8381042-0.2841797,6.1797791-0.8528748l1.4371033,0.1423035
	c11.0179138,0.2610779,16.5274048,0.5926819,16.5274048,0.9949951l-17.9645081,0.8529053
	c-1.3416748-0.5684204-3.4014893-0.8529053-6.1797791-0.8529053h-1.4372253c-3.4255981,0-6.491272,0.3314819-9.1977844,0.9953918
	l-7.0421143-0.853302l-0.2874756,0.2844849v3.2697144l0.1436768,0.142395l5.605011-0.7109985v2.2749939l0.1437073,0.1423035
	l8.9104004-1.8486938v-0.2839966l-5.6049194-0.710907v-0.142395c2.299408-0.3789978,6.6109009-0.6633911,12.9345093-0.8529968
	c1.8919067,1.3270874,4.3833008,1.9902954,7.4732056,1.9902954c5.7963867,0,9.4370117-0.7106934,10.9224854-2.1322021
	c0-0.5686951,205.3759766-0.8530884,208.5378418-0.8530884c0.2873535,0,0.4310303,0.0941772,0.4310303,0.2843933v0.1423035
	c0,0.2133789-0.5270996,0.4494934-1.5808105,0.7107849v0.1421204c0,0.1893921,0.7185059,0.4266968,2.1556396,0.7107849
	c0.1915283,0,0.3352051-0.5686951,0.4311523-1.7059937l-0.2873535-0.4269104l8.7667236,1.1375122v-0.1419067l0.1436768-0.1423035
	v-1.2796936h0.1436768c1.3411865,0,2.9221191,0.7583008,4.7426758,2.2752075h0.2874756l0.1436768-0.4266968
	c1.9637451-1.327301,3.7365723-1.9906006,5.3175049-1.9906006v-0.2844238
	c-2.8742676-0.5206909-4.7908936-1.3735962-5.7486572-2.5585938c-1.8682861,1.6112976-3.4974365,2.4165039-4.8863525,2.4165039
	v-1.4219055l-0.1436768-0.1418762l-8.6230469,1.1374817h-0.1436768l0.2873535-0.568512l-0.2873535-1.5641785
	c-1.5330811,0.3081055-2.2994385,0.5452881-2.2994385,0.710907v0.1422729
	c1.0537109,0.283905,1.5808105,0.5214233,1.5808105,0.7109985v0.1417236l-0.2874756,0.2846069l-207.9628906-0.1423035h-0.1437073
	c-1.1496887-1.8951111-4.9346008-2.8434143-11.3535767-2.8434143c-3.1859131,0-5.7250061,0.6636047-7.6169128,1.9904175
	c-4.0960083,0-8.4075012-0.2843018-12.9345093-0.8527222V275.14151l5.4612122-0.7104187h0.1437073v-0.28479l-8.6230164-1.8479004
	C380.1195679,272.2984009,379.9758606,272.3931885,379.9758606,272.5823975L379.9758606,272.5823975z M269.1704712,276.5632019
	c0.8381958-1.1374817,3.4251099-1.7059937,7.7606812-1.7059937h1.006012c2.1316223,0,3.6647949,0.4747009,4.598999,1.4213867
	l-13.5093994,0.5688171h-0.1437073L269.1704712,276.5632019z M404.4076538,274.8572083h1.5808105
	c4.047699,0,6.5391846,0.6634827,7.4732971,1.9902039l-13.6531067-0.5688171
	C400.7428589,275.3319092,402.2754517,274.8572083,404.4076538,274.8572083L404.4076538,274.8572083z M297.7700806,276.4211121
	h0.1436768v0.1420898c-1.7728882,0.3792114-4.1199951,0.6162109-7.0421143,0.7109985l-3.1616821-0.2844849v-0.1423035
	L297.7700806,276.4211121z M384.7184753,276.4211121l9.9164734,0.4263v0.1423035l-3.1617737,0.2844849
	c-2.9226074-0.0947876-5.2698059-0.3317871-7.0421143-0.7109985v-0.1420898H384.7184753z M290.8716431,278.6954956
	c2.9698181,0.0948181,5.317627,0.3319092,7.0421143,0.7111206v0.1421814h-0.1436768l-10.0601196-0.4263916v-0.1424866
	L290.8716431,278.6954956z M391.473175,278.6954956l3.1617737,0.2844238v0.1424866l-10.0601807,0.4263916h-0.1437073v-0.1421814
	C386.1556702,279.0274048,388.5028687,278.7903137,391.473175,278.6954956L391.473175,278.6954956z M282.5361633,279.6911011
	c-0.9342041,0.9476013-2.4673767,1.4215088-4.598999,1.4215088h-1.58078c-4.0959167,0-6.5874023-0.6636963-7.4733276-1.9902039
	L282.5361633,279.6911011z M413.3180542,279.122406h0.1437073v0.1423035l-0.1437073,0.1419067
	c-1.0778809,1.1376953-3.6647949,1.7059937-7.7606812,1.7059937h-1.1497192c-2.1322021,0-3.6647949-0.4739075-4.598999-1.4215088
	L413.3180542,279.122406z M332.1182556,279.2647095l2.0121155,4.4072876l-2.0121155,1.848114l-1.8682861-2.7012024
	C331.3278503,280.4489136,331.95047,279.2647095,332.1182556,279.2647095L332.1182556,279.2647095z M352.0948486,282.8189087
	l-1.7245789,2.7012024l-2.0119934-1.7062073h-0.1437073l2.0119934-4.5491943
	C350.3938599,279.2647095,351.0169678,280.4489136,352.0948486,282.8189087L352.0948486,282.8189087z"/>
</svg>
