<?xml version="1.0" encoding="utf-8"?>
<!-- Generator: Adobe Illustrator 19.1.0, SVG Export Plug-In . SVG Version: 6.00 Build 0)  -->
<svg version="1.1" id="Layer_1" xmlns="http://www.w3.org/2000/svg" xmlns:xlink="http://www.w3.org/1999/xlink" x="0px" y="0px"
	 width="600px" height="70px" viewBox="44 222 600 70" style="enable-background:new 44 222 600 70;" xml:space="preserve">
<style type="text/css">
	.st0{fill:#C2B8AF;}
</style>
<g>
	<path class="st0" d="M71.1938477,232.5154724c3.5378189-1.4205322,5.9049301-2.5055542,7.102005-3.2550354
		c0.1443558,0.1450195,0.3941879,0.2926788,0.7494812,0.443634c0.3553009,0.1516113,0.7363052,0.2860718,1.1443405,0.4047241
		c1.49897,0.3941956,2.6433105,1.0454712,3.4323502,1.9524994c0.789032,0.9076843,1.1832275,1.9992828,1.1832275,3.2747955
		c0,0.986145-0.1839142,1.8279114-0.5523987,2.5253296c-0.3678207,0.6967468-0.9762421,1.3743896-1.8246078,2.0315857
		c-0.8483658,0.6578674-2.1930923,1.4534912-4.0341797,2.3868866c1.1047897,0.4080353,1.9663315,0.9241791,2.5846481,1.5484161
		c0.6176453,0.6249084,1.0553436,1.4073486,1.3117676,2.3479919c0.2564163,0.9400024,0.3843002,2.1865082,0.3843002,3.7375488
		c0,0.7237854,0.0560303,1.331543,0.1680908,1.8252716c0.1113968,0.4930725,0.2590561,0.861557,0.4436264,1.104126
		c0.1839142,0.2438965,0.3875961,0.4212189,0.6117172,0.5332794c0.223465,0.1114044,0.4996567,0.1674347,0.8285904,0.1674347
		c0.2366486,0,0.51548-0.0791016,0.8378143-0.2366486c0.3223419-0.1582031,0.6018372-0.3553009,0.8384781-0.5919495
		l0.907692,1.5385284c-0.6710434,0.4607697-1.8608627,1.2036591-3.5707779,2.2293549
		c-1.7230911,1.0520325-2.7883301,1.7224426-3.1957016,2.0118103c-0.8945084-0.5260315-1.5615997-0.9828491-2.0019302-1.3710938
		c-0.4409866-0.3876038-0.8160629-0.857605-1.1245575-1.4099884c-0.3091583-0.5523834-0.5457993-1.3216553-0.709938-2.3084412
		c-0.1647949-0.9861298-0.2465363-2.307785-0.2465363-3.9649658c0-1.6044464-0.1977539-2.8404083-0.5919418-3.7085419
		c-0.3948441-0.8681488-0.9736099-1.3018799-1.7362747-1.3018799c-0.2366486,0-0.5392151,0.0560303-0.9070358,0.1674194
		c-0.3684769,0.1120605-0.7237778,0.2801514-1.0652313,0.5036163c0,1.6169739-0.032959,2.8239288-0.098877,3.6195526
		c-0.065918,0.795639-0.1647949,1.4304199-0.2959747,1.903717c-0.1318359,0.4732971-0.3058548,0.8912048-0.522728,1.2524414
		c-0.2168732,0.3618927-0.5655746,0.7956238-1.0454559,1.3018799c-0.4798889,0.5062561-1.0125046,0.9768982-1.5978546,1.4106445
		s-1.2267303,0.8681335-1.9234848,1.3018799l-1.9135971,1.2227783c-0.6703873,0.4469299-1.3414345,0.9406433-2.0118179,1.4798584
		l-3.2550316-3.1363831l-1.657177,1.2227783l-1.0256844-1.4396362l5.5239258-4.1824951l3.1166039,3.3341217
		c0.5781021-0.2761993,0.8681412-0.9399872,0.8681412-1.992691v-15.5836792c0-1.1970673-0.0665817-2.1601257-0.1977539-2.8905029
		c-0.1311798-0.7297058-0.3941956-1.3143921-0.7890396-1.7553864c-0.3941879-0.4403381-0.966362-0.6605072-1.715847-0.6605072
		s-1.394165,0.2465363-1.9333725,0.7396088c-0.5392113,0.4930573-0.808815,1.1146698-0.808815,1.864151
		c0,0.5392151,0.1575432,1.0817261,0.4732933,1.6275177c0.3157463,0.5458069,0.782444,1.1805878,1.4007568,1.903717
		c0.3025627,0.3678131,0.5919418,0.7626648,0.8681374,1.1832275c0.2761955,0.4212189,0.5095482,0.8780212,0.7000465,1.3710938
		c0.190506,0.4930573,0.286087,1.0289764,0.286087,1.6077423c0,1.394165-0.5029526,2.6004639-1.5088615,3.6195526
		c-1.0065689,1.0197449-2.4692879,1.8318634-4.3894768,2.4363251l-0.6314964-1.4007568
		c0.8022232-0.3678284,1.3546143-0.7362976,1.657177-1.104126c0.3025665-0.3684845,0.4541779-0.7956238,0.4541779-1.2827606
		c0-0.4601135-0.1450195-0.9300995-0.4344025-1.4099884c-0.2893791-0.4798889-0.749485-1.0948944-1.3809814-1.8443909
		c-0.3150864-0.3684692-0.6084213-0.7725525-0.8773651-1.2135468c-0.2696075-0.4403229-0.4930687-0.91362-0.6710472-1.4205322
		c-0.1773186-0.5055847-0.2663078-1.0744629-0.2663078-1.7059479c0-1.2886963,0.3520012-2.4725952,1.0553474-3.5510101
		c0.7033424-1.0777588,1.6967278-1.9333649,2.9788322-2.564209c1.2821045-0.631485,2.7448235-0.9472351,4.3894806-0.9472351
		C67.9783707,229.417984,70.0501709,230.4509125,71.1938477,232.5154724z M72.1608658,242.5363159
		c2.2880096-0.4469299,3.9774857-1.1074219,5.0697479-1.9821472c1.0909424-0.8747406,1.6374054-2.0091858,1.6374054-3.4033508
		c0-0.6967468-0.1647949-1.3374786-0.4937286-1.922821c-0.3289261-0.5853577-0.7626724-1.0421753-1.3018799-1.3710938
		c-0.5392075-0.3289337-1.1113739-0.4930725-1.7158432-0.4930725c-0.4475861,0-0.9999771,0.1048126-1.6571808,0.315094
		c-0.6578598,0.2109375-1.2755127,0.473938-1.8542709,0.789032c0.091629,0.4080353,0.1674347,0.9736023,0.2267609,1.6967316
		c0.0593262,0.7237701,0.0889893,1.4403076,0.0889893,2.150238V242.5363159z"/>
	<path class="st0" d="M108.4777069,251.058197c0,0.8153992,0.1278839,1.4699707,0.3843079,1.963028
		c0.2564163,0.4930725,0.6281967,0.7396088,1.1146698,0.7396088c0.223465,0,0.5392075-0.0889893,0.946579-0.2663116
		c0.4080353-0.1773224,0.7956314-0.3843079,1.1641159-0.6216125l0.6314926,1.3809814
		c-3.1172638,1.6571808-5.418457,2.9392853-6.9042511,3.8469696c-0.8160629-0.3948364-1.4370117-0.9439392-1.8641586-1.6472778
		c-0.427803-0.7033539-0.6743393-1.6795959-0.7402573-2.9293976c-3.4719009,1.5780792-6.2529755,3.1040802-8.343895,4.5766754
		c-0.5919418-0.671051-1.3157272-1.298584-2.1700211-1.8839417c-0.8549576-0.5853424-1.61763-0.9828186-2.2886734-1.1937561
		l-0.0395508-1.0256958c0.5392075-0.0263672,0.9571304-0.1212769,1.2531052-0.2860718
		c0.2959671-0.1641388,0.5095444-0.4007874,0.6407166-0.7099457c0.1318359-0.3091583,0.1977539-0.8252869,0.1977539-1.5484161
		v-6.6873779c0-1.1707001-0.1054688-2.0421295-0.3157425-2.6136475c-0.2109375-0.5721588-0.5919418-0.8582458-1.1443405-0.8582458
		c-0.3157425,0-0.6281967,0.0593262-0.9366913,0.1773224c-0.3091583,0.1186523-0.5952377,0.2498322-0.8582535,0.3948517
		l-0.5128403-1.4007568c0.7890396-0.3553009,1.8377914-0.8681488,3.1462631-1.5385284
		c1.3084717-0.671051,2.4561081-1.2821045,3.4422379-1.8345032c0.8154068,0.3546448,1.4370117,0.946579,1.8641586,1.775177
		c0.4271469,0.8285828,0.6413803,1.9860992,0.6413803,3.4718933v9.1335907c0,0.3678284,0.1641388,0.7165375,0.4930725,1.0454712
		c0.32827,0.3289185,0.6506042,0.4930573,0.9663544,0.4930573c0.4073715,0,1.7092514-0.5589752,3.9062958-1.6769562v-7.7526093
		c0-0.8015594-0.1483154-1.3710938-0.4442825-1.7059479c-0.2959747-0.3355255-0.7659683-0.509552-1.4106445-0.5227356v-1.1245575
		c0.750145-0.3678284,1.4007568-0.7626801,1.9531479-1.1838837c0.5523911-0.4205627,1.0124969-0.9136353,1.3809814-1.4792023
		h3.8469696V251.058197z"/>
	<path class="st0" d="M121.6744843,252.0838776c0,0.5266876,0.1048126,0.9406433,0.3157501,1.2432098
		c0.2102814,0.3025665,0.5385513,0.4535217,0.9861298,0.4535217c0.3025665,0,0.6506119-0.091629,1.0454636-0.2761993
		l0.6117172,1.4205322c-1.0131607,0.5912781-2.0421371,1.2392426-3.0876007,1.9426117
		c-1.0454559,0.7033386-1.7784653,1.2333069-2.1990204,1.5879517c-1.526001-1.4989624-3.1568146-2.4389648-4.8924332-2.8206329
		v-1.3216553c0.6967545-0.091629,1.1865234-0.3908844,1.4693146-0.8977966c0.2827835-0.5056,0.4245071-1.324295,0.4245071-2.4554443
		v-12.743927c0-1.5648956-0.1845703-2.754715-0.5523911-3.5701141c-0.3684769-0.8153992-1.0329361-1.427124-1.9926987-1.8345032
		l0.5721664-1.2234344c0.7626724,0.3289337,1.5253448,0.4930725,2.2886734,0.4930725
		c1.4989777,0,2.9715805-0.3019104,4.4184799-0.9070282c0.7626724-0.3025665,1.3875732-0.5260315,1.8740463-0.671051
		c0.4864807-0.1443634,0.9729538-0.2168732,1.460083-0.2168732h0.4337463v1.4205322
		c-0.8022232,0.0395508-1.4337158,0.2432404-1.8938293,0.6110687c-0.460762,0.3684692-0.789032,0.9241638-0.9861298,1.6670532
		c-0.1977539,0.7435608-0.2959747,1.7659454-0.2959747,3.0678253V252.0838776z"/>
	<path class="st0" d="M133.2536316,249.5196686c0.1582031,0.8681335,0.4607697,1.6242218,0.9076996,2.2682343
		c0.4469147,0.6446838,0.9432831,1.1219177,1.48909,1.4304199c0.5457916,0.3091583,1.0883026,0.4634094,1.6275024,0.4634094
		c0.7626801,0,1.522049-0.1773224,2.2787933-0.5326233c0.756073-0.3546448,1.5945587-0.8740692,2.5147705-1.5583038
		l0.7501373,1.5385284l-2.091568,1.3809814c-2.6960449,1.7362671-4.4975891,3.0506897-5.4046173,3.9451904
		c-0.6315002-0.2761841-1.2629852-0.5392151-1.8938293-0.789032c-1.3546143-0.5385437-2.4264374-1.1700439-3.2154694-1.8931732
		c-0.7890472-0.723114-1.3875732-1.7132111-1.7949524-2.9689484c-0.4080353-1.2557373-0.6117172-2.843689-0.6117172-4.7638855
		c0-1.3282471,0.1147003-2.4462128,0.3454056-3.3539124c0.2294006-0.9070282,0.5550385-1.6538696,0.9762573-2.2392273
		c0.4205475-0.5846863,0.9235077-1.0876465,1.5088501-1.5088654c0.5853577-0.4205475,1.4238281-0.8938446,2.5154419-1.4205322
		l4.3789215-2.0513611l5.0110931,7.891037L133.2536316,249.5196686z M134.2602081,240.8006897
		c-0.3157501,0.2102814-0.5497589,0.5062561-0.7007141,0.8872681c-0.1509552,0.3816528-0.2630157,0.9670105-0.3348541,1.7560425
		c-0.0725098,0.7890472-0.1087646,2.1502533-0.1087646,4.082962l4.0836182-1.7949371L134.2602081,240.8006897z"/>
	<path class="st0" d="M162.8831024,252.5578308c0,0.9861298,0.0461426,1.673645,0.1377716,2.0612488
		c0.0922852,0.3882599,0.2729034,0.7033386,0.542511,0.946579c0.2695923,0.2438965,0.7527771,0.4574738,1.4501953,0.6413727
		v1.3018799H154.657196v-1.3018799c0.7099457-0.1838989,1.1931152-0.3948364,1.4495392-0.631485
		s0.4311066-0.5490875,0.5227356-0.9366913c0.0922852-0.3876038,0.1384277-1.0817108,0.1384277-2.0810242v-17.0246429
		c0-0.9861298-0.0428467-1.6729889-0.12854-2.0612488c-0.0856934-0.3876038-0.256424-0.700058-0.5128479-0.9366913
		c-0.256424-0.2366486-0.7461853-0.4541779-1.4693146-0.6512756v-1.3018799h10.3563843v1.3018799
		c-0.6842346,0.1845703-1.1641235,0.3981476-1.4403076,0.6413879c-0.2761993,0.2432251-0.4601135,0.5787506-0.5523987,1.0059052
		c-0.091629,0.4271393-0.1377716,1.1014862-0.1377716,2.021698V252.5578308z"/>
	<path class="st0" d="M174.4826965,239.6959076v4.6162415h-3.9458618v-4.6162415H174.4826965z M174.4826965,252.9322357v4.5766754
		h-3.9458618v-4.5766754H174.4826965z"/>
	<path class="st0" d="M214.6656189,231.568222c-1.2102509,1.8417511-2.4561005,3.2128448-3.738205,4.1132812
		c-1.2821045,0.9011078-2.6993408,1.3513184-4.2510529,1.3513184c-0.5523834,0-1.2491455-0.1054688-2.0909119-0.3157501
		c-0.5655823,0.4337463-1.009201,0.9109955-1.331543,1.4304199c-0.3223419,0.5194397-0.4831848,0.9894409-0.4831848,1.4099884
		c0,0.5398712,0.1048126,1.0626068,0.3157501,1.5681915c0.2102814,0.5069122,0.5781097,1.173996,1.1047821,2.002594
		c0.4469299,0.7099304,0.7949829,1.4106445,1.0454712,2.1007996c0.2491608,0.690155,0.3744049,1.4304199,0.3744049,2.2194519
		c0,0.8417816-0.2696075,1.7586975-0.8088074,2.7514191c-0.5392151,0.9933929-1.3809814,2.0223694-2.5246582,3.0876007
		c1.2491455,0.6578674,2.1759491,1.1245575,2.7810822,1.4007568c0.6051178,0.2761993,1.1179657,0.4667053,1.5385132,0.5715027
		c0.4212189,0.1054688,0.894516,0.1582031,1.4205322,0.1582031c0.9993286,0,1.936676-0.2992554,2.8114014-0.8977966
		c0.8740845-0.5978699,1.7521057-1.5484161,2.6334229-2.850296l1.3414307,0.7890472
		c-1.1707001,1.8806305-2.5516815,3.3235779-4.1429443,4.3301392c-1.5912476,1.0059204-3.3209381,1.5088806-5.1877441,1.5088806
		c-0.8813171,0-1.8285522-0.1806335-2.8410645-0.542511c-1.0124969-0.3612366-2.1172791-0.8648376-3.3136902-1.5088806
		c-1.0527039-0.5523834-1.9333801-0.9795227-2.6433105-1.2820892c-0.7106018-0.3025665-1.2821045-0.5036163-1.716507-0.6018372
		c-0.4337311-0.098877-0.8483582-0.1483154-1.2425537-0.1483154c-0.85495,0-1.61763,0.2340088-2.2886658,0.7007141
		c-0.6703949,0.4666901-1.2623291,1.2194672-1.775177,2.2583466l-1.2623291-0.8674927
		c0.880661-1.6703491,1.9755707-2.9030151,3.2840424-3.6993103c1.3084717-0.7949677,2.8509521-1.1931152,4.6261139-1.1931152
		c0.7890472,0,1.5418243,0.0922852,2.2590179,0.2761993c0.7165222,0.1839142,1.4758911,0.4864807,2.2781219,0.9070282
		c0.5787506-0.5780945,0.9861298-1.0810547,1.2234344-1.5088501c0.2366486-0.4271545,0.3546448-0.8510132,0.3546448-1.2722168
		c0-0.5787659-0.1252441-1.1311646-0.3744202-1.6571808c-0.2504883-0.5260315-0.5985413-1.0975342-1.0454559-1.7158508
		c-0.4344025-0.5787506-0.7798157-1.1772919-1.0362396-1.7956085c-0.2564087-0.6176453-0.3842926-1.2886963-0.3842926-2.0118103
		c0-1.1575165,0.2696075-2.2293396,0.8088074-3.2154846c0.5392151-0.9861298,1.4132843-2.0975037,2.6235352-3.3341217
		c-0.697403-0.2887268-1.7824249-0.795639-3.2550201-1.5187531c-0.894516-0.4337463-1.6011505-0.7461853-2.1205902-0.9366913
		c-0.5194244-0.190506-1.0520477-0.3355255-1.5978546-0.4344025c-0.5457916-0.0982208-1.108078-0.1476593-1.6868286-0.1476593
		c-1.104126,0-2.0085297,0.1839142-2.7118683,0.5523987c-0.70401,0.3678131-1.2036591,0.8351746-1.4996338,1.4001007
		c-0.2959747,0.565567-0.443634,1.1641083-0.443634,1.7955933c0,0.9993286,0.2498322,1.775177,0.7494965,2.3275757
		c0.499649,0.5523834,1.1838837,0.8285828,2.0513611,0.8285828c0.1186523,0,0.3750763-0.0263672,0.769928-0.0791016v1.4996338
		c-0.3157501,0.0784454-0.6117249,0.1179962-0.8879242,0.1179962c-0.7494812,0-1.4501953-0.1806183-2.1007996-0.542511
		c-0.6512756-0.3612213-1.1707001-0.8905487-1.5583038-1.5879669c-0.3882599-0.6967468-0.5820618-1.5253296-0.5820618-2.4857635
		c0-1.2886963,0.3414612-2.4455566,1.0256958-3.4718933c0.6835632-1.0256805,1.6472778-1.8246155,2.8898315-2.3967743
		c1.2425537-0.5715179,2.6202393-0.857605,4.1330566-0.857605c0.6967621,0,1.3341827,0.0428467,1.9129486,0.1278839
		c0.5787506,0.0856934,1.1377411,0.2043457,1.6769562,0.3553009c0.5391998,0.1509552,1.0520477,0.3322296,1.5385132,0.542511
		c0.4864807,0.2102661,1.1641235,0.5457916,2.0322571,1.0059052c1.2755127,0.697403,2.2913055,1.1641083,3.0473938,1.4007568
		c0.756073,0.2366486,1.4897461,0.3546295,2.1996765,0.3546295c0.8417664,0,1.6967316-0.2662964,2.564209-0.7989197
		c0.8681335-0.5326233,1.650589-1.3045197,2.3479919-2.3176727L214.6656189,231.568222z"/>
	<path class="st0" d="M219.1829834,238.7486725c0-0.7620087-0.0230713-1.4033966-0.0685577-1.9228363
		c-0.0467987-0.5194244-0.1219482-0.9604187-0.227417-1.3216553c-0.1048126-0.3618774-0.2300568-0.6611481-0.3744049-0.8977966
		c-0.1450195-0.2366486-0.3157501-0.4337463-0.5128479-0.5919495c-0.1977539-0.1575317-0.4080353-0.3025513-0.6315002-0.4337311
		l-0.8483582-0.4732971v-1.302536c0.3684845,0.1713867,0.8582458,0.3256378,1.4699707,0.4640656
		c0.6110535,0.1377716,1.1074219,0.2069855,1.48909,0.2069855c0.6710358,0,1.3051758-0.0889893,1.9037018-0.2663116
		c0.5985413-0.1773224,1.1740112-0.3777161,1.7263947-0.6018372c1.038208-0.4205475,1.7257385-0.6769714,2.061264-0.7692566
		c0.3355103-0.091629,0.6802673-0.1509552,1.0355682-0.1773224v1.4001007
		c-1.4073486,0.2504883-2.4165497,0.727066-3.0282745,1.4304199c-0.6110535,0.7039948-0.9169159,1.8509674-0.9169159,3.4422302
		v4.2411652c1.1436768-0.4073792,2.3572235-0.91362,3.639328-1.5187531c1.2821045-0.6044617,2.2715302-1.1443329,2.9689484-1.61763
		c0.946579,0.7099457,1.6407013,1.2919922,2.0810242,1.7455139c0.4403381,0.4541779,0.8154144,0.9373474,1.1245575,1.4501953
		c0.3085022,0.5128479,0.5748138,1.1179657,0.7989349,1.8147278c0.223465,0.697403,0.4007721,1.5681763,0.532608,2.6136475
		c0.1311798,1.0461121,0.1970978,2.344696,0.1970978,3.8964081c0,3.3796082-0.7198181,6.3749237-2.1601257,8.9852753
		c-1.4396515,2.6103516-3.6261444,4.9544067-6.5588379,7.0327759l-1.3216553-1.26297
		c1.2755127-0.8806763,2.340744-1.775177,3.195694-2.6822205c0.8549652-0.9076843,1.5385284-1.8641357,2.0513763-2.8707275
		c0.5128326-1.0058899,0.8879089-2.1231995,1.1245575-3.353241c0.2366486-1.2293701,0.3553009-2.7388916,0.3553009-4.5272369
		c0-3.169342-0.3322296-5.4942627-0.9966888-6.973465c-0.6637878-1.4792023-1.7191315-2.2194519-3.1660309-2.2194519
		c-0.4073792,0-0.9439545,0.1021729-1.6077423,0.3058472c-0.6637878,0.2043457-1.4172363,0.5161438-2.2583466,0.9373627v11.145401
		c0.1707306,0.1839142,0.3579254,0.3585968,0.5622711,0.5227356c0.2036896,0.1647949,0.6605072,0.5029602,1.3710938,1.0157928
		l1.4989777-0.6506042l0.6703949,0.946579c-0.2630157,0.1713867-0.5589905,0.3552856-0.8872681,0.5523987
		c-0.789032,0.4469299-1.4106445,0.8252869-1.864151,1.1344299c-0.4541779,0.3085022-0.8259583,0.6077881-1.1146698,0.8971558
		c-1.3150635-1.578064-2.9261017-2.5114746-4.8331146-2.8008575v-1.0059052
		c0.5392151-0.1054688,0.927475-0.3421173,1.1641083-0.7106018c0.2366486-0.3678131,0.3546448-0.9202118,0.3546448-1.6571655
		V238.7486725z"/>
	<path class="st0" d="M239.1462402,240.5831604c1.7619934-0.1838989,3.3070984-0.5029449,4.6353455-0.9564667
		c1.3282471-0.4535065,2.6103516-1.0619354,3.8469849-1.8246002c1.0124969,0.5787506,1.765274,1.0718231,2.2583466,1.479187
		c0.4937286,0.4080353,0.9340515,0.8780365,1.3216553,1.4106445c0.3882599,0.5326233,0.7204742,1.1608276,0.9966736,1.8839417
		s0.4963684,1.6242218,0.6605072,2.7026367c0.1641235,1.0784149,0.246521,2.3473358,0.246521,3.8074188
		c0,1.1436768-0.1509399,2.1436615-0.4535065,2.9979553c-0.3025665,0.85495-0.7297211,1.5780792-1.2821045,2.1700134
		c-0.5523987,0.5919495-1.269577,1.1641083-2.1502533,1.716507c-1.0652313,0.6703796-1.7922974,1.1674194-2.1799011,1.4890747
		c-0.3882599,0.3223572-0.6934509,0.6479797-0.9169159,0.9769287c-1.2498016-0.7633362-2.696701-1.4436035-4.3400421-2.0421448
		c-1.6439972-0.5978851-3.0908966-0.9696655-4.3400421-1.1146851v-1.0454559
		c0.5787659-0.091629,1.0059052-0.2663116,1.2821045-0.5227203c0.2761993-0.256424,0.4146271-0.63414,0.4146271-1.1344604
		V240.5831604z M242.2232971,253.307312c0.3816528,0.3157501,0.884613,0.638092,1.5095215,0.9663544
		c0.6242371,0.3289337,1.6466217,0.7626801,3.0671539,1.3018799c0.9076996-0.5523834,1.5550079-1.0817108,1.9432678-1.5879669
		c0.3875885-0.5062408,0.6769714-1.0915985,0.8674774-1.7553864c0.190506-0.6638031,0.286087-1.4699707,0.286087-2.4165497
		c0-3.1429749-0.348053-5.418457-1.0454559-6.8258057c-0.6967621-1.4066925-1.8279114-2.1107025-3.392807-2.1107025
		c-0.4337311,0-0.9933777,0.1120605-1.6769562,0.3355255c-0.6835632,0.2241211-1.2030029,0.4607697-1.5582886,0.7099304V253.307312z
		"/>
	<path class="st0" d="M262.6209412,252.2816315c0,0.6183014,0.1582031,1.1568604,0.4739685,1.61763
		c0.3157349,0.4600983,0.6967468,0.690155,1.1436768,0.690155c0.9076843,0,2.7421875-0.7956238,5.5041504-2.3868866
		l-0.0593262-8.0288086c0-0.6044769-0.0692139-1.0553436-0.2070007-1.3513184
		c-0.1384277-0.2959747-0.3421021-0.5128479-0.6117249-0.6506195c-0.2695923-0.1384277-0.6083984-0.2142334-1.0157776-0.227417
		v-1.1239014c0.7494812-0.3684692,1.4007568-0.7626648,1.9531555-1.1838837
		c0.5517273-0.4205475,1.0124817-0.91362,1.3803101-1.4792023h1.6571655v14.7550812
		c0,0.7494965,0.1252441,1.3018799,0.3750916,1.6571808c0.249176,0.3553009,0.5780945,0.5326233,0.9861145,0.5326233
		c0.4205627,0,0.9274902-0.1707306,1.5187683-0.5128479l0.1779785,1.3612061
		c-1.7758484,0.8681335-3.1700134,1.6439819-4.1824951,2.3275757c-0.7099304-0.5128479-1.2161865-1.0619507-1.5187683-1.6473083
		c-0.3025513-0.5846863-0.4534912-1.3381348-0.4534912-2.2583466v-0.256424
		c-0.5523987,0.2893829-1.6440125,0.8154144-3.2748108,1.5780792c-1.657196,0.7758636-2.7949219,1.3579254-3.4125671,1.7454987
		c-0.6183167,0.3876038-1.0454712,0.7204895-1.2821045,0.9967041c-0.4871521-0.6315002-1.0982056-1.2069702-1.8345032-1.7264099
		c-0.736969-0.5194397-1.526001-0.9103241-2.3677673-1.173996v-0.9268036
		c0.4996338-0.1582031,0.8879089-0.3651886,1.164093-0.6216125c0.2762146-0.2564087,0.476593-0.5747986,0.6018372-0.9564667
		c0.1245728-0.3816681,0.1871948-0.9597626,0.1871948-1.7362823v-6.7262573c0-1.052063-0.1377563-1.8549347-0.4139404-2.4066772
		c-0.2762146-0.5523834-0.7171936-0.8285828-1.3216553-0.8285828c-0.328949,0-0.7237854,0.1311798-1.1838989,0.3941956
		l-0.4337463,0.2564087l-0.375061-1.2821045c0.9333801-0.4469147,1.7949524-0.91362,2.5839844-1.4007568
		c0.789032-0.4864655,1.394165-0.9070282,1.8153687-1.2623291c0.7620239,0.3157501,1.3572693,0.9933929,1.7850647,2.031601
		c0.4271545,1.0395203,0.6407166,2.2359314,0.6407166,3.5905457V252.2816315z"/>
	<path class="st0" d="M296.1962585,240.8989105c-0.5128479,0.4871368-0.769928,0.9933929-0.769928,1.5194092
		c0,0.5523987,0.1740417,0.9960175,0.523407,1.331543c0.348053,0.3348694,0.7923279,0.5029602,1.331543,0.5029602
		c0.3282776,0,0.6473083-0.0296631,0.9558105-0.0889893c0.3098145-0.0593262,0.6222534-0.1476593,0.9373474-0.2663116
		c0.3164062-0.1179962,0.5985413-0.2432404,0.8490295-0.3750763c0.249176-0.1311798,0.709259-0.3941803,1.3803101-0.789032
		c0.9070435-0.5128479,1.8022156-0.8905487,2.6828613-1.1337891c0.8806763-0.2432404,1.7758484-0.3651886,2.6828613-0.3651886
		c1.3539734,0,2.6011353,0.2959747,3.7388611,0.8879089c1.1364441,0.5912933,2.0170898,1.4139404,2.6419983,2.465332
		c0.6249084,1.0527191,0.9386902,2.2491302,0.9386902,3.5905609c0,1.9069977-0.490448,3.6426239-1.4713135,5.2075195
		c-0.9782104,1.5655518-2.396759,2.7751312-4.2503662,3.6301117c-1.85495,0.8542786-4.0513306,1.2821045-6.5891724,1.2821045
		c-1.9986267,0-3.8733521-0.3553162-5.6214905-1.0652466c-1.7230835-0.6967468-3.2088928-1.6894836-4.4586792-2.9788361
		c-1.3539734-1.3809814-2.3664551-3.0704498-3.0375061-5.0697479c-0.5787659-1.7356262-0.8674927-3.6558075-0.8674927-5.7599182
		c0-2.4462128,0.5089111-4.7012634,1.5279846-6.7664795c1.019104-2.0645447,2.4231567-3.6591034,4.2121582-4.7836609
		c1.7876892-1.1245575,3.7810669-1.6868439,5.9774475-1.6868439c0.5906372,0,1.1799316,0.0494385,1.7652893,0.1483154
		s1.1364136,0.2300568,1.6571655,0.3941956c0.5194397,0.1647949,1.232666,0.4245148,2.1397095,0.7798004l1.1245422,0.4732971
		c0.4073792,0.1707306,0.7923584,0.319046,1.1535645,0.443634c0.3625488,0.1252441,0.7264404,0.2241211,1.0955811,0.2959595
		c0.3677979,0.0725098,0.7567139,0.1087646,1.164093,0.1087646c0.7897034,0,1.4620667-0.1845703,2.0210571-0.5523834
		c0.5589905-0.3684845,1.1337891-1.0065765,1.7270508-1.9136047l1.0836792,0.7890472
		c-0.841095,1.4725952-1.8377991,2.6004639-2.9873962,3.3829041c-1.1522522,0.7824402-2.4165649,1.173996-3.7981873,1.173996
		c-0.7488403,0-1.5451355-0.1153564-2.3862305-0.3454132c-0.8424377-0.2300415-1.821991-0.594574-2.9399414-1.0948944
		c-0.8938599-0.3941803-1.5345764-0.657196-1.9234924-0.789032c-0.3876038-0.1311798-0.8318787-0.2432404-1.331543-0.3355255
		c-0.4996643-0.091629-1.0388794-0.1377716-1.6176147-0.1377716c-1.5253601,0-2.9030457,0.4667053-4.1317444,1.4007568
		c-1.2300415,0.9333954-2.1937561,2.2089081-2.8898621,3.8265381c-0.6973877,1.61763-1.0454407,3.2814026-1.0454407,4.9913177
		c0,2.3539276,0.5194397,4.3723297,1.5582886,6.0558777c1.0388794,1.683548,2.5536804,2.9524689,4.5470276,3.8074188
		c1.9920349,0.8549652,4.4085999,1.2821045,7.2496643,1.2821045c3.1284485,0,5.5292053-0.5227203,7.2008667-1.5681915
		c1.6690369-1.0454559,2.5048828-2.5417938,2.5048828-4.4883423c0-0.8411255-0.1924744-1.5741272-0.5721741-2.1990356
		c-0.3823242-0.6248932-0.8859253-1.0981903-1.5108337-1.4205322c-0.6235657-0.3223267-1.2906799-0.4831696-2.0012512-0.4831696
		c-0.5260315,0-1.0942383,0.0889893-1.7059631,0.2663116c-0.6117249,0.1773071-1.4831543,0.5490875-2.6143188,1.1146698
		c-0.9465637,0.499649-1.8377991,0.8648376-2.6723022,1.0948944c-0.8358459,0.2300568-1.6743164,0.3447571-2.5154419,0.3447571
		c-1.0388489,0-1.9274292-0.1839142-2.6630859-0.5523987c-0.736969-0.3678284-1.298584-0.880661-1.6875-1.5385284
		c-0.3876038-0.657196-0.5813904-1.3737335-0.5813904-2.150238c0-0.5523987,0.1120605-1.075119,0.3348694-1.5681915
		c0.2241211-0.4930725,0.5458069-0.9235077,0.9676819-1.2919922L296.1962585,240.8989105z"/>
	<path class="st0" d="M319.6709595,238.7486725c0-0.7620087-0.0223999-1.4033966-0.0685425-1.9228363
		c-0.0461426-0.5194244-0.1226196-0.9604187-0.2267456-1.3216553c-0.1054688-0.3618774-0.2307129-0.6611481-0.3757324-0.8977966
		c-0.1437073-0.2366486-0.315094-0.4337463-0.5128479-0.5919495c-0.1964417-0.1575317-0.4073792-0.3025513-0.630188-0.4337311
		l-0.8490295-0.4732971v-1.302536c0.3678284,0.1713867,0.8582764,0.3256378,1.4699707,0.4640656
		c0.6117249,0.1377716,1.1074219,0.2069855,1.4897461,0.2069855c0.6697388,0,1.3038635-0.0889893,1.903717-0.2663116
		c0.597229-0.1773224,1.1733398-0.3777161,1.7257385-0.6018372c1.0388794-0.4205475,1.7257385-0.6769714,2.0606079-0.7692566
		c0.3361816-0.091629,0.6815796-0.1509552,1.0362244-0.1773224v1.4001007
		c-1.40802,0.2504883-2.4165649,0.727066-3.0282898,1.4304199c-0.6116943,0.7039948-0.917572,1.8509674-0.917572,3.4422302
		v4.2411652c1.1443481-0.4073792,2.3572388-0.91362,3.6399841-1.5187531c1.2827759-0.6044617,2.2715454-1.1443329,2.9689636-1.61763
		c0.9465637,0.7099457,1.6400452,1.2919922,2.0816956,1.7455139c0.4403076,0.4541779,0.8147278,0.9373474,1.12323,1.4501953
		c0.3098145,0.5128479,0.5761108,1.1179657,0.7989197,1.8147278c0.2241211,0.697403,0.4020996,1.5681763,0.5326233,2.6136475
		c0.1318359,1.0461121,0.1977539,2.344696,0.1977539,3.8964081c0,3.3796082-0.7198181,6.3749237-2.1594849,8.9852753
		c-1.4409485,2.6103516-3.6268005,4.9544067-6.5601501,7.0327759l-1.3209839-1.26297
		c1.2748413-0.8806763,2.3400879-1.775177,3.1957092-2.6822205c0.8542786-0.9076843,1.5385132-1.8641357,2.0513611-2.8707275
		c0.5128479-1.0058899,0.8872375-2.1231995,1.1245422-3.353241c0.2373047-1.2293701,0.3546448-2.7388916,0.3546448-4.5272369
		c0-3.169342-0.3322144-5.4942627-0.9953613-6.973465c-0.6644592-1.4792023-1.720459-2.2194519-3.166687-2.2194519
		c-0.4073792,0-0.9439392,0.1021729-1.6070862,0.3058472c-0.6644592,0.2043457-1.4172363,0.5161438-2.2596741,0.9373627v11.145401
		c0.1713867,0.1839142,0.3586121,0.3585968,0.5629578,0.5227356c0.2030029,0.1647949,0.6604919,0.5029602,1.3710938,1.0157928
		l1.4989624-0.6506042l0.671051,0.946579c-0.2636719,0.1713867-0.5589905,0.3552856-0.8885803,0.5523987
		c-0.7883911,0.4469299-1.4106445,0.8252869-1.8641663,1.1344299c-0.4535217,0.3085022-0.8252869,0.6077881-1.1140137,0.8971558
		c-1.3157043-1.578064-2.9267578-2.5114746-4.8330994-2.8008575v-1.0059052
		c0.5392151-0.1054688,0.9268188-0.3421173,1.1641235-0.7106018c0.2359619-0.3678131,0.3546143-0.9202118,0.3546143-1.6571655
		V238.7486725z"/>
	<path class="st0" d="M355.2969971,256.1674805c-1.578064,0.8022461-2.8924866,1.5846863-3.944519,2.3473511
		c-0.9465942-0.6308289-1.5754395-1.1766357-1.8839417-1.6373901c-0.3098145-0.4601135-0.4640808-0.9663696-0.4640808-1.5187683
		c-2.315033,1.0784302-3.8430176,1.8147278-4.5865479,2.2095642c-0.7422485,0.3941956-1.2458496,0.6967773-1.5082092,0.9070435
		c-1.1970825-0.7362976-2.0843201-1.4923706-2.6630859-2.2682495c-0.5787659-0.7758484-0.9940491-1.6934204-1.2432251-2.7520599
		c-0.2504883-1.0586395-0.3744202-2.4033661-0.3744202-4.0341797c0-2.0909271,0.1872253-3.7184296,0.5616455-4.8818817
		c0.3743896-1.1641235,0.9399719-2.1172943,1.6967163-2.8608398c0.7567444-0.7429047,1.7323303-1.4693146,2.9293823-2.1792603
		c0.5392151-0.3157349,0.9769287-0.6051178,1.3117676-0.8681335c0.3348694-0.2630157,0.6341553-0.5523987,0.8978271-0.8681335
		c1.1179504,0.789032,2.3835754,1.4864502,3.796875,2.0909119c1.413269,0.6051331,2.6802063,0.9999695,3.7981873,1.1838837
		v1.0256805c-0.4732971,0.065918-0.8358459,0.3421173-1.085022,0.828598
		c-0.2504883,0.4864655-0.3757324,1.1113739-0.3757324,1.8740387v7.7723999c0,0.9070282,0.1252441,1.5879517,0.3757324,2.0414734
		c0.249176,0.4535217,0.6763306,0.6802673,1.2814636,0.6802673c0.2109375,0,0.4376831-0.052063,0.6802673-0.1575317
		c0.2438965-0.1048126,0.5101929-0.2498322,0.7989197-0.4337463V256.1674805z M349.0044556,243.0887146
		c-0.2755127-0.2893829-0.7725525-0.6315002-1.4884033-1.0256958c-0.7171936-0.3948364-1.6018066-0.7824402-2.6538696-1.1641083
		c-0.7106018,0.4080353-1.2630005,0.9241791-1.6571655,1.5484161c-0.3941956,0.6249084-0.6908264,1.4403076-0.8872681,2.4462128
		c-0.1977539,1.0065765-0.2966309,2.2919769-0.2966309,3.8568573c0,2.0513763,0.2992554,3.6096802,0.8977966,4.6749115
		s1.3710938,1.5978546,2.317688,1.5978546c0.3955078,0,0.9729309-0.157547,1.7362671-0.4732971
		s1.4396667-0.6703796,2.0315857-1.0652313V243.0887146z"/>
	<path class="st0" d="M363.0304871,252.2025299c0,0.6578522,0.1120605,1.2128906,0.3348694,1.6670685
		c0.2241211,0.4535065,0.4772339,0.7758484,0.7593689,0.9663544c0.2834473,0.190506,0.5431824,0.286087,0.7791443,0.286087
		c0.4469299,0,0.9479065-0.1707306,1.5003052-0.5128479v1.3809814c-1.7230835,1.0916138-2.9333496,1.9195251-3.6307678,2.4851074
		c-1.3143921-1.578064-2.8595276-2.3869019-4.6353455-2.4264526v-0.9465637
		c0.6315002-0.0791016,1.0784302-0.3678284,1.3421021-0.8681488c0.2623291-0.499649,0.394165-1.3935089,0.394165-2.6828613
		v-13.2363281c0-1.4989777-0.1937866-2.6663818-0.5827026-3.5015564c-0.3876038-0.8351898-1.0810547-1.4495392-2.0803833-1.8443909
		v-1.2821045c0.9334106,0.3025665,1.7481689,0.4535217,2.4455566,0.4535217c0.5128479,0,1.0322876-0.0850372,1.5583191-0.256424
		c0.5260315-0.1707306,1.0915833-0.4139709,1.6967163-0.7297058c0.671051-0.3421173,1.2630005-0.5952454,1.7758484-0.7593842
		c0.5128174-0.1647949,1.0190735-0.2597198,1.5187378-0.286087v1.4198761
		c-0.8279419,0.0791016-1.4725952,0.384964-1.9327087,0.9175873c-0.4614258,0.532608-0.7831116,1.3018799-0.9676819,2.307785
		c-0.1832581,1.0065613-0.2755432,2.4165497-0.2755432,4.2312775V252.2025299z"/>
	<path class="st0" d="M367.6262817,239.0050964h0.1964417c0.9597778,0,1.7468262-0.1773224,2.358551-0.5326233
		c0.6104126-0.3546448,1.1034546-0.8872528,1.479187-1.5978546c0.3744202-0.7099304,0.6565552-1.61763,0.8477173-2.721756
		c0.1911621-1.1047821,0.2992554-2.4330292,0.3256226-3.9847412h1.5780945v8.5218811h4.399353v2.0315857h-4.399353v13.1183472
		c0.4073792,0.3421021,0.8094788,0.6248932,1.2036438,0.8483582c0.3941956,0.223465,0.6512756,0.3348694,0.7686157,0.3348694
		c0.2241211,0,0.5853577-0.1048126,1.085022-0.315094c0.4996338-0.2102814,1.0454407-0.4996643,1.6373901-0.8681335v1.7949371
		c-0.6315002,0.3025665-1.4066772,0.7429047-2.3269043,1.3216705c-0.9215393,0.5787354-1.6703491,1.098175-2.249115,1.5582886
		c-1.6044617-1.6176147-3.2484436-2.5708008-4.9319763-2.8601837v-0.9274597
		c0.5919189-0.1443634,1.0296326-0.381012,1.3117676-0.7099457c0.2834473-0.3282623,0.4244995-0.7626648,0.4244995-1.3018799
		v-11.9937744h-3.7085571V239.0050964z"/>
	<path class="st0" d="M417.9494019,237.8811951v1.4989624c-0.8160706,0.1845703-1.4963379,0.4113312-2.0421448,0.6802826
		c-0.5458069,0.2702637-0.9768982,0.5695343-1.2919922,0.8977966c-0.3164062,0.3289337-0.5589905,0.6974182-0.7303772,1.1047821
		c-0.1713867,0.4080353-0.2887268,0.828598-0.3546448,1.2623291c-0.065918,0.4344025-0.098877,1.0982056-0.098877,1.9927063
		v4.5569153c0,1.3677979,0.1911621,2.4455566,0.5721741,3.2352448c0.381012,0.7890472,0.8740845,1.1832275,1.479187,1.1832275
		c0.381012,0,0.7237854-0.0692139,1.0256958-0.2069855c0.3032227-0.1384277,0.6183167-0.3256226,0.9479065-0.5622711
		l0.6499329,1.2227783l-4.9306641,3.5510101c-0.7501221-0.6974182-1.3130798-1.2557373-1.6875-1.6769714
		c-0.3743896-0.4205627-0.6446533-0.7758484-0.808136-1.0652313c-0.1647949-0.2887115-0.3124695-0.6341248-0.4443054-1.0355682
		c-0.1318359-0.4007874-0.2373047-0.8641815-0.3150635-1.3908691c-0.0791016-0.5253601-0.1292114-1.04216-0.1489868-1.5484161
		c-0.0197754-0.5062408-0.0289917-1.3638458-0.0289917-2.5740967c0-1.6967316,0.0685425-3.0539703,0.2069702-4.0737305
		c0.1384277-1.0190887,0.3981323-1.9102936,0.7791443-2.6729736c0.381012-0.7626648,0.953186-1.4330597,1.7165222-2.0118103
		c0.7619934-0.5787659,1.8074646-1.0850067,3.1363525-1.5194092c-0.9465637-0.1707306-1.6861572-0.4271545-2.2187805-0.7692719
		c-0.5326233-0.3414459-0.9043884-0.7659607-1.1153259-1.2722168c-0.2096252-0.5062408-0.315094-1.1865234-0.315094-2.0414734
		c0-0.9340515-0.3058777-1.683548-0.917572-2.249115c-0.6117249-0.5649261-1.3842773-0.8483734-2.317688-0.8483734
		c-0.8556213,0-1.5952148,0.2241211-2.218811,0.671051c-0.6248779,0.4469147-1.098175,1.0388641-1.4211731,1.7751617
		c-0.3216858,0.736969-0.4825134,1.526001-0.4825134,2.3671265v8.6602936c0,1.394165-0.0395508,2.5220184-0.1186523,3.3829193
		c-0.0791016,0.8615417-0.2070007,1.6077271-0.3849792,2.2392273c-0.1779785,0.6308289-0.4113159,1.2030029-0.7000427,1.7158508
		c-0.2900391,0.5128326-0.6512756,1.0098572-1.085022,1.4897461c-0.4337158,0.4798737-0.8476868,0.8714294-1.2431946,1.1733398
		c-0.3941956,0.3032227-0.9795532,0.7039948-1.7547302,1.2036438c-0.487793,0.3157654-0.9901123,0.6578674-1.5095215,1.0256958
		c-0.5194397,0.3678284-1.0626221,0.8153992-1.6281738,1.3414307l-2.8397522-2.8404083l-1.85495,1.3803253l-0.8476868-1.2425537
		l5.0097656-3.7283173l2.605072,2.8015137c0.7224731-0.4864807,1.2392578-0.927475,1.54776-1.3216553
		c0.3085022-0.3948517,0.5431519-0.8187103,0.7000427-1.2728729c0.1582031-0.4535217,0.2373047-0.9828491,0.2373047-1.5879669
		v-10.8889923c0-2.2880096-0.180603-4.0605469-0.5431519-5.3162842c-0.3612366-1.2557373-0.9004517-2.1700134-1.6176453-2.7421875
		c-0.7158508-0.5721741-1.6268616-0.8575897-2.7316284-0.8575897c-0.6446838,0-1.2458496,0.1806183-1.8048401,0.5418396
		c-0.5589905,0.3618927-0.9900818,0.802887-1.2919922,1.3223114c-0.3032227,0.5194397-0.4535217,1.0223999-0.4535217,1.5088654
		c0,0.4337463,0.0422058,0.8121185,0.1278992,1.1344452c0.0856934,0.3223419,0.2043457,0.6183167,0.3546143,0.8872681
		c0.1516113,0.2695923,0.3388367,0.5167847,0.5629578,0.7402496c0.2228088,0.223465,0.5853577,0.5194397,1.0849915,0.8872528
		c0.5919495,0.4475861,1.0876465,0.8681488,1.4884338,1.2623291c0.4020996,0.3948517,0.736969,0.8582611,1.0072327,1.3908691
		c0.2689514,0.5326233,0.4034119,1.1080933,0.4034119,1.7263947c0,1.2623291-0.3546448,2.4033661-1.0652161,3.4224701
		c-0.7092896,1.0190887-1.6769714,1.7329712-2.8990784,2.1403503l-0.4732971-1.2821045
		c0.6433716-0.2893829,1.1403809-0.5919495,1.4884338-0.9076843c0.3493652-0.3157501,0.5233765-0.6901703,0.5233765-1.1245728
		c0-0.4073639-0.0566711-0.7494812-0.1674194-1.0256805c-0.1120605-0.2761993-0.3124695-0.5649109-0.6025085-0.8681335
		c-0.2886963-0.3019104-0.742218-0.6835785-1.3605347-1.1436768c-1.2630005-0.9472504-2.1040955-1.7586975-2.5246582-2.4363251
		c-0.421875-0.6769867-0.6315002-1.423172-0.6315002-2.2392426c0-1.1700439,0.315094-2.3539276,0.9465942-3.5503387
		c0.6315002-1.1970673,1.4989624-2.1535339,2.6037598-2.8707275c1.1047668-0.7165222,2.3348083-1.075119,3.6887512-1.075119
		c1.6308289,0,3.0151062,0.3157501,4.152832,0.9472351c1.1377563,0.6308441,1.9894104,1.5648956,2.5549927,2.8008575
		c0.5523987-1.038208,1.331543-1.8371277,2.3374634-2.3967743c1.0058899-0.5583344,2.1660461-0.8384857,3.481781-0.8384857
		c1.2221069,0,2.3269043,0.1779785,3.3130188,0.5326233c0.9874573,0.3553009,1.7362976,0.8556213,2.2491455,1.4996338
		c0.5128174,0.6446838,0.7698975,1.3875732,0.7698975,2.2286835v1.4996338c0,0.6703949,0.2004089,1.2030029,0.6011963,1.5978546
		c0.4007568,0.3941956,0.917572,0.5919495,1.5490723,0.5919495H417.9494019z"/>
	<path class="st0" d="M422.7627258,240.5831604c1.761322-0.1838989,3.306427-0.5029449,4.6353455-0.9564667
		c1.3289185-0.4535065,2.6103516-1.0619354,3.8469849-1.8246002c1.0124817,0.5787506,1.7652588,1.0718231,2.2583313,1.479187
		c0.4930725,0.4080353,0.9334106,0.8780365,1.3223267,1.4106445c0.3876038,0.5326233,0.7198181,1.1608276,0.9953613,1.8839417
		c0.2768555,0.723114,0.4970093,1.6242218,0.6618042,2.7026367c0.1634827,1.0784149,0.2465515,2.3473358,0.2465515,3.8074188
		c0,1.1436768-0.1516113,2.1436615-0.4535217,2.9979553c-0.3032227,0.85495-0.7303772,1.5780792-1.2827759,2.1700134
		c-0.5523987,0.5919495-1.2695618,1.1641083-2.150238,1.716507c-1.0652466,0.6703796-1.7916565,1.1674194-2.1792603,1.4890747
		c-0.388916,0.3223572-0.6947632,0.6479797-0.917572,0.9769287c-1.2497864-0.7633362-2.6960449-1.4436035-4.3400269-2.0421448
		c-1.6440125-0.5978851-3.0902405-0.9696655-4.3400574-1.1146851v-1.0454559
		c0.5787659-0.091629,1.0059204-0.2663116,1.2827759-0.5227203c0.2755432-0.256424,0.4139709-0.63414,0.4139709-1.1344604
		V240.5831604z M425.8397827,253.307312c0.3809814,0.3157501,0.884613,0.638092,1.5095215,0.9663544
		c0.6235657,0.3289337,1.6466064,0.7626801,3.0678101,1.3018799c0.9070435-0.5523834,1.5543518-1.0817108,1.9419556-1.5879669
		c0.3875732-0.5062408,0.6776123-1.0915985,0.8687744-1.7553864c0.1898499-0.6638031,0.2861023-1.4699707,0.2861023-2.4165497
		c0-3.1429749-0.3493652-5.418457-1.0454712-6.8258057c-0.6974182-1.4066925-1.8285522-2.1107025-3.3934631-2.1107025
		c-0.4337158,0-0.9927063,0.1120605-1.6769409,0.3355255c-0.6842346,0.2241211-1.2036743,0.4607697-1.5582886,0.7099304V253.307312z
		"/>
	<path class="st0" d="M439.5296021,239.0050964h0.1964417c0.9597778,0,1.7468262-0.1773224,2.358551-0.5326233
		c0.6104126-0.3546448,1.1034546-0.8872528,1.479187-1.5978546c0.3744202-0.7099304,0.6565552-1.61763,0.8477173-2.721756
		c0.1911621-1.1047821,0.2992554-2.4330292,0.3256226-3.9847412h1.5780945v8.5218811h4.399353v2.0315857h-4.399353v13.1183472
		c0.4073792,0.3421021,0.8094788,0.6248932,1.2036438,0.8483582c0.3941956,0.223465,0.6512756,0.3348694,0.7686157,0.3348694
		c0.2241211,0,0.5853577-0.1048126,1.085022-0.315094c0.4996338-0.2102814,1.0454407-0.4996643,1.6373901-0.8681335v1.7949371
		c-0.6315002,0.3025665-1.4066772,0.7429047-2.3269043,1.3216705c-0.9215393,0.5787354-1.6703491,1.098175-2.249115,1.5582886
		c-1.6044617-1.6176147-3.2484436-2.5708008-4.9319763-2.8601837v-0.9274597
		c0.5919189-0.1443634,1.0296326-0.381012,1.3117676-0.7099457c0.2834473-0.3282623,0.4244995-0.7626648,0.4244995-1.3018799
		v-11.9937744h-3.7085571V239.0050964z"/>
	<path class="st0" d="M462.8065796,238.4922485c-0.1450195-0.4732971-0.2531433-0.9597626-0.3256531-1.4594269
		c-0.0725098-0.499649-0.1080933-0.9399872-0.1080933-1.3216553c0-0.8285828,0.1186523-1.5747833,0.3546448-2.2392273
		c0.2373047-0.6638031,0.6314697-1.3440704,1.1838684-2.0414886c0.5523987-0.6967468,1.3618774-1.5253296,2.4270935-2.4857635
		l1.1245728,1.0652313c-0.7237854,0.9208832-1.2142029,1.7850647-1.4699707,2.5938721
		c-0.2570801,0.8088226-0.3849487,1.7989044-0.3849487,2.9689484c0,0.8813324,0.1120605,1.8542786,0.3348389,2.9195099H462.8065796z
		 M469.4154968,238.4922485c-0.1450195-0.4732971-0.2531128-0.9597626-0.3256226-1.4594269
		c-0.0725098-0.499649-0.1081238-0.9399872-0.1081238-1.3216553c0-0.8285828,0.1173401-1.5747833,0.3546448-2.2392273
		c0.2373047-0.6638031,0.6315002-1.3440704,1.1838989-2.0414886c0.5523987-0.6967468,1.3605347-1.5253296,2.4257812-2.4857635
		l1.1245422,1.0652313c-0.7237549,0.9208832-1.2128906,1.7850647-1.4699707,2.5938721
		c-0.2557373,0.8088226-0.3836365,1.7989044-0.3836365,2.9689484c0,0.8813324,0.1107483,1.8542786,0.3348694,2.9195099H469.4154968z
		"/>
	<path class="st0" d="M485.8488464,240.8989105c-0.5128479,0.4871368-0.769928,0.9933929-0.769928,1.5194092
		c0,0.5523987,0.1740417,0.9960175,0.523407,1.331543c0.348053,0.3348694,0.7910156,0.5029602,1.331543,0.5029602
		c0.3282776,0,0.6473083-0.0296631,0.9558105-0.0889893s0.6222534-0.1476593,0.9373474-0.2663116
		c0.315094-0.1179962,0.5985413-0.2432404,0.8477173-0.3750763c0.2504883-0.1311798,0.7105713-0.3941803,1.3816223-0.789032
		c0.9070435-0.5128479,1.8008728-0.8905487,2.6828613-1.1337891c0.8806763-0.2432404,1.7745056-0.3651886,2.6828613-0.3651886
		c1.3539734,0,2.599823,0.2959747,3.7375488,0.8879089c1.1377563,0.5912933,2.0184021,1.4139404,2.6433105,2.465332
		c0.6249084,1.0527191,0.9373474,2.2491302,0.9373474,3.5905609c0,1.9069977-0.4904175,3.6426239-1.4699707,5.2075195
		c-0.9795227,1.5655518-2.396759,2.7751312-4.2503662,3.6301117c-1.85495,0.8542786-4.0513306,1.2821045-6.5891724,1.2821045
		c-1.9986267,0-3.8733521-0.3553162-5.6214905-1.0652466c-1.7230835-0.6967468-3.2088928-1.6894836-4.4586792-2.9788361
		c-1.3552856-1.3809814-2.3677673-3.0704498-3.0375061-5.0697479c-0.5787659-1.7356262-0.8688049-3.6558075-0.8688049-5.7599182
		c0-2.4462128,0.5102234-4.7012634,1.5292969-6.7664795c1.019104-2.0645447,2.4231567-3.6591034,4.2121582-4.7836609
		c1.7876892-1.1245575,3.7797546-1.6868439,5.9761353-1.6868439c0.5919495,0,1.1812439,0.0494385,1.7666016,0.1483154
		c0.5840149,0.098877,1.1364136,0.2300568,1.6558533,0.3941956c0.5194397,0.1647949,1.2339783,0.4245148,2.1410217,0.7798004
		l1.1245422,0.4732971c0.4073792,0.1707306,0.7923584,0.319046,1.1535645,0.443634
		c0.3612366,0.1252441,0.7264404,0.2241211,1.0955811,0.2959595c0.3677979,0.0725098,0.7554016,0.1087646,1.1627808,0.1087646
		c0.7897034,0,1.4633789-0.1845703,2.0223694-0.5523834c0.5589905-0.3684845,1.1337891-1.0065765,1.7257385-1.9136047
		l1.0849915,0.7890472c-0.841095,1.4725952-1.8377991,2.6004639-2.9887085,3.3829041
		c-1.1509399,0.7824402-2.4165649,1.173996-3.796875,1.173996c-0.7501526,0-1.5451355-0.1153564-2.3862305-0.3454132
		c-0.8424377-0.2300415-1.821991-0.594574-2.9399414-1.0948944c-0.8938599-0.3941803-1.5358887-0.657196-1.9234924-0.789032
		c-0.3876038-0.1311798-0.8318787-0.2432404-1.331543-0.3355255c-0.4996643-0.091629-1.0388794-0.1377716-1.6176147-0.1377716
		c-1.5253601,0-2.9030457,0.4667053-4.1330566,1.4007568c-1.2287292,0.9333954-2.1924438,2.2089081-2.8898621,3.8265381
		s-1.0454407,3.2814026-1.0454407,4.9913177c0,2.3539276,0.5194092,4.3723297,1.5582886,6.0558777
		s2.5549927,2.9524689,4.5470276,3.8074188c1.9933472,0.8549652,4.4099121,1.2821045,7.2496643,1.2821045
		c3.1297607,0,5.5305176-0.5227203,7.2008667-1.5681915c1.6690369-1.0454559,2.5048828-2.5417938,2.5048828-4.4883423
		c0-0.8411255-0.1911621-1.5741272-0.5721741-2.1990356c-0.381012-0.6248932-0.884613-1.0981903-1.5095215-1.4205322
		c-0.6235657-0.3223267-1.2919922-0.4831696-2.0012512-0.4831696c-0.5260315,0-1.0955811,0.0889893-1.7072754,0.2663116
		c-0.6104126,0.1773071-1.481842,0.5490875-2.6130066,1.1146698c-0.9465637,0.499649-1.8377991,0.8648376-2.6736145,1.0948944
		c-0.8345337,0.2300568-1.6730042,0.3447571-2.5141296,0.3447571c-1.0401917,0-1.9274292-0.1839142-2.6630859-0.5523987
		c-0.736969-0.3678284-1.2998962-0.880661-1.6875-1.5385284c-0.3876038-0.657196-0.5813904-1.3737335-0.5813904-2.150238
		c0-0.5523987,0.1107483-1.075119,0.3348694-1.5681915s0.5458069-0.9235077,0.9663391-1.2919922L485.8488464,240.8989105z"/>
	<path class="st0" d="M524.6099243,256.1674805c-1.578064,0.8022461-2.8924561,1.5846863-3.944519,2.3473511
		c-0.9465942-0.6308289-1.5754395-1.1766357-1.8839111-1.6373901c-0.3098145-0.4601135-0.4641113-0.9663696-0.4641113-1.5187683
		c-2.3150024,1.0784302-3.8430176,1.8147278-4.5865479,2.2095642c-0.7422485,0.3941956-1.2458496,0.6967773-1.5081787,0.9070435
		c-1.1970825-0.7362976-2.0843506-1.4923706-2.6631165-2.2682495c-0.5787659-0.7758484-0.9940491-1.6934204-1.2431946-2.7520599
		c-0.2504883-1.0586395-0.3744202-2.4033661-0.3744202-4.0341797c0-2.0909271,0.1871948-3.7184296,0.561615-4.8818817
		c0.3744202-1.1641235,0.9400024-2.1172943,1.6967163-2.8608398c0.7567444-0.7429047,1.7323303-1.4693146,2.9293823-2.1792603
		c0.5392456-0.3157349,0.9769287-0.6051178,1.3117676-0.8681335c0.3348999-0.2630157,0.6341553-0.5523987,0.8978271-0.8681335
		c1.117981,0.789032,2.383606,1.4864502,3.796875,2.0909119c1.413269,0.6051331,2.6802368,0.9999695,3.7982178,1.1838837v1.0256805
		c-0.4733276,0.065918-0.8358765,0.3421173-1.085022,0.828598c-0.2504883,0.4864655-0.3757324,1.1113739-0.3757324,1.8740387
		v7.7723999c0,0.9070282,0.1252441,1.5879517,0.3757324,2.0414734c0.2491455,0.4535217,0.6763306,0.6802673,1.2814331,0.6802673
		c0.2109375,0,0.4376831-0.052063,0.6802979-0.1575317c0.2438965-0.1048126,0.5101929-0.2498322,0.7988892-0.4337463V256.1674805z
		 M518.3173828,243.0887146c-0.2755127-0.2893829-0.772522-0.6315002-1.4884033-1.0256958
		c-0.7171631-0.3948364-1.6018066-0.7824402-2.6538696-1.1641083c-0.7105713,0.4080353-1.2630005,0.9241791-1.6571655,1.5484161
		c-0.394165,0.6249084-0.6908264,1.4403076-0.8872681,2.4462128c-0.1977539,1.0065765-0.2966309,2.2919769-0.2966309,3.8568573
		c0,2.0513763,0.2992859,3.6096802,0.8978271,4.6749115c0.5985107,1.0652313,1.3710938,1.5978546,2.317688,1.5978546
		c0.3955078,0,0.9729004-0.157547,1.7362671-0.4732971c0.7633057-0.3157501,1.4396362-0.6703796,2.0315552-1.0652313V243.0887146z"
		/>
	<path class="st0" d="M529.5419312,244.0748444c0-0.7231293-0.1410522-1.3341827-0.4232178-1.8345032
		c-0.2834473-0.499649-0.635437-0.7494812-1.0559692-0.7494812c-0.2109375,0-0.460144,0.0527344-0.7501831,0.157547
		c-0.2886963,0.1054688-0.5721436,0.2438965-0.8477173,0.4146118l-0.2373047-1.2036591
		c1.539856-0.8411102,2.8344727-1.7158356,3.8865356-2.6235352c0.8411255,0.6842346,1.4198608,1.2563934,1.7362671,1.716507
		c0.3151245,0.4601135,0.5062866,0.979538,0.5722046,1.5583038c2.0513306-0.7890472,4.0302124-1.8806458,5.9378662-3.2748108
		c1.2880249,0.7633362,2.2122192,1.4996338,2.7711792,2.2095795c0.559021,0.7099304,0.9505615,1.6143188,1.1733398,2.7125244
		c0.2241211,1.0981903,0.3361816,2.6400146,0.3361816,4.6254578c0,1.0395203-0.0725098,1.9498596-0.2175293,2.7322998
		s-0.3453979,1.4534912-0.6011353,2.0124817c-0.2570801,0.5589752-0.5524292,1.0487518-0.8886108,1.4692993
		c-0.3348389,0.4212189-0.7224121,0.828598-1.1627808,1.2234497c-0.4416504,0.3941803-1.0691528,0.8806458-1.8839111,1.4594116
		c-0.7501831,0.5392151-1.2537842,0.9103394-1.5095215,1.1146851c-0.2570801,0.2036743-0.5167847,0.4304504-0.7791748,0.6802673
		c-1.1970825-0.8674927-2.5220337-1.580719-3.9748535-2.1403503c-1.4541626-0.5583344-2.7909546-0.8641968-4.0144043-0.9169312
		v-1.0850067c0.6829224-0.2366486,1.1759644-0.5227203,1.479187-0.8582458
		c0.3019409-0.3355255,0.4535522-0.7791595,0.4535522-1.331543V244.0748444z M532.4225464,251.4728088
		c0,0.6051331,0.0856934,1.0487671,0.2557373,1.331543c0.1713867,0.2827911,0.7132568,0.6868744,1.6281738,1.2128906
		c0.9136353,0.5260315,1.7982788,0.9406586,2.6525269,1.2425537c0.7897339-0.3018951,1.40802-1.0843506,1.8549805-2.3473358
		c0.4468994-1.2623291,0.6710205-2.8799591,0.6710205-4.8528748c0-2.1561737-0.2504883-3.7441406-0.7501221-4.7639008
		c-0.4996948-1.0190887-1.3408203-1.5286255-2.5246582-1.5286255c-0.2900391,0-0.7963257,0.1252441-1.5187988,0.375061
		c-0.7237549,0.2498322-1.4804688,0.5853577-2.2688599,1.0059204V251.4728088z"/>
	<path class="st0" d="M559.7639771,255.2406921c-2.854248,1.3407593-4.8462524,2.4191895-5.977417,3.2345886l-2.3071289-1.2623291
		c-0.526062-0.3157349-1.0256958-0.6637878-1.5003052-1.0454712c-0.4732666-0.3809967-0.876709-0.7956238-1.2128906-1.2425385
		c-0.3348389-0.4469299-0.6275635-0.9696503-0.8780518-1.5681915c-0.2491455-0.5985413-0.4468994-1.3282471-0.5905762-2.1897888
		c-0.1450195-0.861557-0.2175293-1.903717-0.2175293-3.1264954c0-1.7362823,0.1582031-3.1007843,0.4732666-4.0935059
		s0.7764893-1.8114319,1.3803101-2.4561005c0.6051636-0.6440277,1.3710938-1.2194824,2.2992554-1.7257385
		c0.9267578-0.5062408,2.2714844-1.108078,4.0341797-1.8054962l5.0690918,7.4962006l-10.0406494,4.2016144
		c0.1304932,1.6703491,0.6407471,2.986084,1.5292969,3.9458466c0.8872681,0.9597626,1.9946899,1.4396515,3.3236084,1.4396515
		c0.5128174,0,1.1733398-0.1278839,1.9827881-0.3843079c0.8081665-0.256424,1.6861572-0.6347961,2.6327515-1.1344452V255.2406921z
		 M553.5307617,240.5831604c-0.81604,0.2241211-1.4594116,0.5695343-1.934021,1.0362396
		c-0.4732666,0.4666901-0.8279419,1.166748-1.0652466,2.1007996c-0.2359619,0.9340668-0.3546143,2.373703-0.3546143,4.3202667
		l6.2925415-2.8410645L553.5307617,240.5831604z"/>
	<path class="st0" d="M588.9194946,256.1674805c-1.578064,0.8022461-2.8924561,1.5846863-3.944519,2.3473511
		c-0.9465942-0.6308289-1.5754395-1.1766357-1.8839111-1.6373901c-0.3098145-0.4601135-0.4641113-0.9663696-0.4641113-1.5187683
		c-2.3150024,1.0784302-3.8430176,1.8147278-4.5865479,2.2095642c-0.7422485,0.3941956-1.2458496,0.6967773-1.5081787,0.9070435
		c-1.1970825-0.7362976-2.0843506-1.4923706-2.6630859-2.2682495c-0.5787964-0.7758484-0.9940796-1.6934204-1.2432251-2.7520599
		c-0.2504883-1.0586395-0.3744507-2.4033661-0.3744507-4.0341797c0-2.0909271,0.1872559-3.7184296,0.5616455-4.8818817
		c0.3743896-1.1641235,0.9400024-2.1172943,1.6967163-2.8608398c0.7567749-0.7429047,1.7323608-1.4693146,2.9293823-2.1792603
		c0.5392456-0.3157349,0.9769287-0.6051178,1.3117676-0.8681335c0.3348999-0.2630157,0.6341553-0.5523987,0.8978271-0.8681335
		c1.117981,0.789032,2.383606,1.4864502,3.796875,2.0909119c1.413269,0.6051331,2.6802368,0.9999695,3.7982178,1.1838837v1.0256805
		c-0.4733276,0.065918-0.8358765,0.3421173-1.085022,0.828598c-0.2504883,0.4864655-0.3757324,1.1113739-0.3757324,1.8740387
		v7.7723999c0,0.9070282,0.1252441,1.5879517,0.3757324,2.0414734c0.2491455,0.4535217,0.6763306,0.6802673,1.2814331,0.6802673
		c0.2109375,0,0.4376831-0.052063,0.6802979-0.1575317c0.2438965-0.1048126,0.5101929-0.2498322,0.7988892-0.4337463V256.1674805z
		 M582.6269531,243.0887146c-0.2755127-0.2893829-0.772522-0.6315002-1.4884033-1.0256958
		c-0.7171631-0.3948364-1.6018066-0.7824402-2.6538696-1.1641083c-0.7105713,0.4080353-1.2630005,0.9241791-1.6571655,1.5484161
		c-0.394165,0.6249084-0.6907959,1.4403076-0.8872681,2.4462128c-0.1977539,1.0065765-0.2966309,2.2919769-0.2966309,3.8568573
		c0,2.0513763,0.2992554,3.6096802,0.8978271,4.6749115c0.5985107,1.0652313,1.3710938,1.5978546,2.317688,1.5978546
		c0.3955078,0,0.9729004-0.157547,1.7362671-0.4732971c0.7633057-0.3157501,1.4396362-0.6703796,2.0315552-1.0652313V243.0887146z"
		/>
	<path class="st0" d="M604.7015991,239.3999329c-1.5385132,2.0645599-3.2682495,3.0968323-5.1877441,3.0968323
		c-0.7897339,0-1.4673462-0.1114044-2.0328979-0.3348694c-0.5656128-0.2234497-1.1377563-0.6117096-1.71521-1.1641083
		c-0.5523682,0.3025665-0.9940186,0.7396088-1.3223267,1.3117676c-0.3282471,0.5721741-0.493042,1.1871796-0.493042,1.8443909
		c0,0.6578522,0.1318359,1.2662811,0.394165,1.8246002c0.2636719,0.5589905,0.6288452,0.9999847,1.0955811,1.3216553
		c0.4666748,0.3223419,0.9821777,0.4831848,1.5477295,0.4831848c0.1713867,0,0.3322144-0.0257111,0.4838257-0.0784454
		s0.3283081-0.1542511,0.5326538-0.3058624c0.2030029-0.1509399,0.4007568-0.3355103,0.5919189-0.5523834
		c0.1898804-0.2168732,0.3770752-0.4568176,0.5616455-0.7198334l0.6116943-0.9076843
		c1.7626343,0.0791016,3.1600952,0.6183167,4.1923828,1.61763s1.5477905,2.2622986,1.5477905,3.7876434
		c0,0.8153992-0.1608887,1.5780792-0.4825439,2.2880096c-0.322998,0.7106018-0.7857666,1.394165-1.3908691,2.0520325
		c-0.6051025,0.657196-1.6571655,1.5451202-3.1561279,2.6630707c-0.460144,0.3546448-0.8952026,0.7099609-1.3025513,1.0652466
		c-0.59198-0.6974182-1.3012085-1.2755127-2.1304932-1.7362671c-0.8279419-0.4601135-1.5648804-0.6901855-2.2095337-0.6901855
		c-0.59198,0-1.1271973,0.1311951-1.6071167,0.3941956c-0.4798584,0.2636719-0.9900513,0.7106018-1.5292969,1.3414307
		l-0.9268188-1.0058899c0.9729614-1.052063,1.9393311-1.841095,2.9003906-2.3671265
		c0.9597778-0.5260315,1.8931885-0.789032,2.8002319-0.789032c1.4330444,0,2.7092285,0.565567,3.8272095,1.6960602
		c0.7501221-0.4337311,1.3486328-0.9399872,1.7955933-1.5187531c0.4468994-0.5787506,0.6710205-1.2359619,0.6710205-1.9729156
		c0-1.0256805-0.3137817-1.8470306-0.9373169-2.465332c-0.624939-0.6183167-1.4238281-0.927475-2.3967896-0.927475
		c-0.4469604,0-0.8582764,0.1878662-1.232666,0.5622864c-0.3757324,0.3750763-0.8912354,1.0487518-1.5490723,2.0223694
		c-1.0652466-0.0791016-2.0026245-0.3816681-2.81073-0.9076996c-0.8095093-0.5260162-1.4238281-1.2135468-1.8444214-2.0612488
		c-0.421875-0.8483734-0.6314697-1.7198029-0.6314697-2.6143036c0-0.7494965,0.1120605-1.4297638,0.3348389-2.0414886
		c0.2241211-0.6117096,0.5656128-1.2062988,1.0256958-1.7850494c0.460083-0.5787659,1.3486938-1.427124,2.6630859-2.545105
		c0.4864502-0.4073639,0.9993286-0.8542938,1.5385132-1.3414307c0.4469604,0.671051,0.9795532,1.2003784,1.5978394,1.5879669
		c0.6183472,0.3882599,1.2893677,0.5820618,2.0131836,0.5820618c1.1693726,0,2.2016602-0.5523987,3.0968018-1.6571808
		L604.7015991,239.3999329z"/>
	<path class="st0" d="M612.6710815,229.2802124c0.1436768,0.4732971,0.2531128,0.9597626,0.3256226,1.4594269
		c0.071167,0.5003204,0.1080933,0.9406433,0.1080933,1.3216553c0,0.8285828-0.1160278,1.5721436-0.3453979,2.2293396
		c-0.2307129,0.6578674-0.6182861,1.3282471-1.1641235,2.0124817c-0.5457764,0.6835632-1.364502,1.5253448-2.4561157,2.5246582
		l-1.1245117-1.0652313c0.5391846-0.6967621,0.9241333-1.2886963,1.1548462-1.775177
		c0.2294312-0.4864807,0.4034424-1.0322723,0.5220947-1.6374054c0.1186523-0.6051178,0.1779785-1.3216553,0.1779785-2.150238
		c0-0.880661-0.1120605-1.8542786-0.3348999-2.9195099H612.6710815z M619.2786865,229.2802124
		c0.1450195,0.4732971,0.2531128,0.9597626,0.3256226,1.4594269c0.0725098,0.5003204,0.1080933,0.9406433,0.1080933,1.3216553
		c0,0.8285828-0.1146851,1.5721436-0.3440552,2.2293396c-0.2307129,0.6578674-0.6183472,1.3282471-1.1641235,2.0124817
		c-0.5457764,0.6835632-1.364502,1.5253448-2.4561157,2.5246582l-1.1245728-1.0652313
		c0.5392456-0.6967621,0.9241943-1.2886963,1.1535645-1.775177c0.2307129-0.4864807,0.4047852-1.0322723,0.5234375-1.6374054
		c0.1186523-0.6051178,0.1779785-1.3216553,0.1779785-2.150238c0-0.880661-0.1120605-1.8542786-0.3361816-2.9195099H619.2786865z"/>
	<path class="st0" d="M629.7332764,230.5820923l-1.2827759,18.7207031h-1.9129028l-0.9663696-18.7207031H629.7332764z
		 M629.5355225,252.9322357v4.5766754h-3.944519v-4.5766754H629.5355225z"/>
</g>
<path class="st0" d="M327.5193787,271.3027954v0.2845154l0.5747986,0.8531799c-2.946106,0-5.2456055,0.568512-6.8983154,1.7058105
	c-1.4371948,1.9904175-3.2578125,2.9857178-5.4612122,2.9857178c-3.0662842,0-4.598999-0.6159058-4.598999-1.8480225
	c0.09552-0.2368774,1.2452087-0.7111816,3.4492188-1.4220886l-4.8862915-1.7059937v0.1424866l-0.1437073,0.1420898v1.7058105
	l-0.1437988,1.7061157c0.9100037,1.3269958,3.0657959,1.9901733,6.4672852,1.9901733
	c2.8260193,0,4.7903137-0.5206909,5.892395-1.5639954c1.3411255-1.990387,3.640625-2.9853821,6.8983154-2.9853821
	c0.4311829,0,1.0061035,0.8530884,1.7246094,2.5592041v0.1422729l-0.8623047-0.7106934l-0.5749207,0.5684204
	c-0.934082,0.9007874-2.6109924,1.5639038-5.0299988,1.9901733v0.2844238c1.8200073,0,3.6884155,0.8051758,5.6049194,2.4172974
	h0.287384c0.047821-0.3796082,0.1914978-0.5688171,0.4312134-0.5688171l-1.2935181,2.7008972
	c-3.2817993,0-5.4852905-0.805603-6.6109009-2.416687c-1.0059814-1.4216919-3.1616821-2.1326904-6.4671936-2.1326904
	c-3.6412048,0-5.7969055,0.7109985-6.4672852,2.1326904l0.1437988,1.5635986v1.8486938
	c0.4310913,0,2.1073914-0.4743958,5.0299988-1.4216919v-0.1425171c-2.20401-0.7582703-3.3536987-1.2320862-3.4492188-1.4217834
	c0-1.2319031,1.4849243-1.8479919,4.4553223-1.8479919c1.5567017,0,2.8023987,0.3314819,3.7366028,0.9949951
	c1.6763,2.464386,4.598877,3.6966858,8.7666016,3.6966858v0.1423035l-0.5747986,0.7108154
	c0.8381958,0.5444946,5.0536804,2.3928833,12.6470947,5.5447998h0.1436768v-0.142395l-0.2874756-0.4263306
	c-3.4013977-4.1942749-5.7008972-7.7965698-6.898407-10.8052979c0.7663879-0.2844849,1.4848938-0.4265747,2.1557922-0.4265747
	v-0.2844238l-2.2994995-0.5683899c0.742218-2.2749939,3.1853943-6.0184937,7.3295898-11.2315063v-0.1423035L327.5193787,271.3027954
	z M342.0347595,266.0426941c4.1436157,5.2130127,6.586792,8.9565125,7.3294983,11.2315063l-2.2994995,0.5683899v0.2844238
	c0.6703186,0,1.388916,0.1420898,2.1557922,0.4265747l-0.2874756,0.4263306
	c-0.9105225,2.5823975-3.210022,6.1846924-6.8983154,10.8052979v0.142395
	c7.7842102-3.1758118,12.0480042-5.0241089,12.7907104-5.5447998l-0.5747986-0.7108154v-0.1423035
	c3.0180054,0,5.3652039-0.616394,7.0420837-1.8480835c1.3652039-1.8963013,3.1376038-2.8435974,5.3174133-2.8435974
	c3.0657959,0,4.598999,0.6160889,4.598999,1.8479919c-0.0960083,0.1896973-1.2458191,0.6635132-3.4492188,1.4217834
	c0,0.213501,1.6286011,0.734314,4.8864136,1.564209h0.1437073v-1.8486938l0.1437073-1.7056885
	c-0.8865051-1.327301-3.0422058-1.9906006-6.4673157-1.9906006c-2.6109924,0-4.5752869,0.473877-5.8923035,1.4217834
	c-1.2215881,2.0848999-3.569397,3.127594-7.0420837,3.127594c-0.2156067-0.0470886-0.6950073-0.9003906-1.4372253-2.5587769
	v-0.1421204c0.2874146,0,0.4312134,0.189209,0.4312134,0.5688171h0.2874146
	c1.9159851-1.6121216,3.7842712-2.4172974,5.6048889-2.4172974v-0.2844238h-0.1437073l-0.1437073-0.1420898
	c-1.7728882,0-3.5451965-0.8052063-5.3174744-2.4165039l-0.8623047,0.7106934
	c0.287384-0.9475708,0.7662964-1.8483887,1.4371948-2.7014771c2.6103821,0,4.5270081,0.4744873,5.7485962,1.4216919
	c1.3169861,2.0852051,3.6647949,3.1276855,7.0421143,3.1276855c3.8561707,0,6.1079712-0.7105713,6.7546997-2.1324768
	l-0.1437073-1.5638123v-1.8479004l-0.1437073-0.1424866l-4.8864136,1.5637817v0.1422119
	c2.2033997,0.710907,3.3532104,1.1852112,3.4492188,1.4220886c0,1.2321167-1.4855042,1.8480225-4.4552002,1.8480225
	c-1.7488098,0-2.9945068-0.3788147-3.7366028-1.1373291c-1.7728882-2.3690796-4.6950073-3.5541992-8.7666931-3.5541992
	l0.5747986-0.8531799v-0.2845154l-12.6470032-5.4024048h-0.1437073V266.0426941z M333.9865723,272.0137939l-1.8683167,4.4073181
	h-0.287384l-1.4371948-3.4121094l1.5808716-2.5593872L333.9865723,272.0137939z M351.9511719,273.0090027l-1.4371948,3.4121094
	h-0.2874146l-1.8682861-4.2651978l1.8682861-1.7062988C350.3938599,270.4735107,350.96875,271.3265991,351.9511719,273.0090027
	L351.9511719,273.0090027z M293.3148804,274.1463013v0.28479l5.6049805,0.7104187v0.1424866
	c-4.5513,0.5684204-8.8150024,0.8527222-12.790802,0.8527222c-2.1557922-1.3268127-4.6949158-1.9904175-7.6169739-1.9904175
	c-6.5632324,0-10.395813,0.9483032-11.4973145,2.8434143L64.5632706,277.132019l-0.2873993-0.2846069v-0.1417236
	c0-0.1895752,0.5264969-0.4270935,1.5808029-0.7109985v-0.1422729c0-0.1656189-0.7667999-0.4028015-2.2994003-0.710907
	l-0.2875023,1.7059021l0.2875023,0.4267883l-8.6230011-1.1374817l-0.2875023,0.2843933v1.2793884l-0.4310989-0.1420898
	c-1.5331993-0.1653137-3.0181007-0.9238892-4.4552002-2.2744141c-0.9583015,1.1849976-2.8743019,2.0379028-5.7486,2.5585938
	v0.2844238l1.1497002,0.1420898c2.8743019,0.8294067,4.3115005,1.5874023,4.3115005,2.2752075h0.2873993
	c1.8199997-1.5169067,3.400898-2.2752075,4.7425995-2.2752075h0.1436996v1.4219971l0.1438026,0.1419067l8.6229973-1.1375122
	h0.1437035l-0.2875023,0.5692139l0.2875023,1.5636902c1.5326004-0.2611084,2.2994003-0.4978027,2.2994003-0.7107849v-0.1421204
	c-1.054306-0.2612915-1.5808029-0.497406-1.5808029-0.7107849v-0.28479l0.1436996-0.1419067l202.4514923,0.1419067
	c1.293396,1.8957825,5.1255188,2.8433838,11.4972839,2.8433838c3.2095337,0,5.7487183-0.663208,7.6170044-1.9902954
	c6.3235168,0.1896057,10.6350098,0.473999,12.9345093,0.8529968v0.142395l-5.6049805,0.710907v0.2839966l8.7666931,1.8486938
	l0.287384-0.2846069v-2.1326904l5.4613037,0.7109985l0.2874146-0.2840881v-3.2701111l-0.1437073-0.142395l-7.0421143,0.853302
	c-2.9461975-0.6639099-6.0602112-0.9953918-9.3415833-0.9953918h-1.4371948c-2.7789307,0-4.838623,0.2844849-6.1798096,0.8529053
	l-17.9645081-0.8529053v-0.1419067c0-0.2133179,5.9878235-0.5448914,17.9645081-0.9953918
	c1.3411865,0.5686951,3.4008789,0.8528748,6.1798096,0.8528748h1.2934875c3.5210876,0,6.5868225-0.3314819,9.1978149-0.9951782
	l7.1858826,0.8530884l0.2874146-0.2841797v-3.2700195l-0.1437073-0.1423035l-5.605011,0.710907v-2.2744141l-0.1437073-0.1420898
	L293.3148804,274.1463013z M379.9758606,272.5823975v2.1325073l-5.605011-0.710907v0.1423035l-0.1436768,0.1419067v3.2702026
	l0.1436768,0.1420898l7.0421143-0.8530884c3.041687,0.6636963,6.2034912,0.9951782,9.4852905,0.9951782h1.2935181
	c2.7782898,0,4.8381042-0.2841797,6.1797791-0.8528748l1.4371033,0.1423035
	c11.0179138,0.2610779,16.5274048,0.5926819,16.5274048,0.9949951l-17.9645081,0.8529053
	c-1.3416748-0.5684204-3.4014893-0.8529053-6.1797791-0.8529053h-1.4372253c-3.4255981,0-6.491272,0.3314819-9.1977844,0.9953918
	l-7.0421143-0.853302l-0.2874756,0.2844849v3.2697144l0.1436768,0.142395l5.605011-0.7109985v2.2749939l0.1437073,0.1423035
	l8.9104004-1.8486938v-0.2839966l-5.6049194-0.710907v-0.142395c2.299408-0.3789978,6.6109009-0.6633911,12.9345093-0.8529968
	c1.8919067,1.3270874,4.3833008,1.9902954,7.4732056,1.9902954c5.7963867,0,9.4370117-0.7106934,10.9224854-2.1322021
	c0-0.5686951,205.3759766-0.8530884,208.5378418-0.8530884c0.2873535,0,0.4310303,0.0941772,0.4310303,0.2843933v0.1423035
	c0,0.2133789-0.5270996,0.4494934-1.5808105,0.7107849v0.1421204c0,0.1893921,0.7185059,0.4266968,2.1556396,0.7107849
	c0.1915283,0,0.3352051-0.5686951,0.4311523-1.7059937l-0.2873535-0.4269104l8.7667236,1.1375122v-0.1419067l0.1436768-0.1423035
	v-1.2796936h0.1436768c1.3411865,0,2.9221191,0.7583008,4.7426758,2.2752075h0.2874756l0.1436768-0.4266968
	c1.9637451-1.327301,3.7365723-1.9906006,5.3175049-1.9906006v-0.2844238
	c-2.8742676-0.5206909-4.7908936-1.3735962-5.7486572-2.5585938c-1.8682861,1.6112976-3.4974365,2.4165039-4.8863525,2.4165039
	v-1.4219055l-0.1436768-0.1418762l-8.6230469,1.1374817h-0.1436768l0.2873535-0.568512l-0.2873535-1.5641785
	c-1.5330811,0.3081055-2.2994385,0.5452881-2.2994385,0.710907v0.1422729
	c1.0537109,0.283905,1.5808105,0.5214233,1.5808105,0.7109985v0.1417236l-0.2874756,0.2846069l-207.9628906-0.1423035h-0.1437073
	c-1.1496887-1.8951111-4.9346008-2.8434143-11.3535767-2.8434143c-3.1859131,0-5.7250061,0.6636047-7.6169128,1.9904175
	c-4.0960083,0-8.4075012-0.2843018-12.9345093-0.8527222V275.14151l5.4612122-0.7104187h0.1437073v-0.28479l-8.6230164-1.8479004
	C380.1195679,272.2984009,379.9758606,272.3931885,379.9758606,272.5823975L379.9758606,272.5823975z M269.1704712,276.5632019
	c0.8381958-1.1374817,3.4251099-1.7059937,7.7606812-1.7059937h1.006012c2.1316223,0,3.6647949,0.4747009,4.598999,1.4213867
	l-13.5093994,0.5688171h-0.1437073L269.1704712,276.5632019z M404.4076538,274.8572083h1.5808105
	c4.047699,0,6.5391846,0.6634827,7.4732971,1.9902039l-13.6531067-0.5688171
	C400.7428589,275.3319092,402.2754517,274.8572083,404.4076538,274.8572083L404.4076538,274.8572083z M297.7700806,276.4211121
	h0.1436768v0.1420898c-1.7728882,0.3792114-4.1199951,0.6162109-7.0421143,0.7109985l-3.1616821-0.2844849v-0.1423035
	L297.7700806,276.4211121z M384.7184753,276.4211121l9.9164734,0.4263v0.1423035l-3.1617737,0.2844849
	c-2.9226074-0.0947876-5.2698059-0.3317871-7.0421143-0.7109985v-0.1420898H384.7184753z M290.8716431,278.6954956
	c2.9698181,0.0948181,5.317627,0.3319092,7.0421143,0.7111206v0.1421814h-0.1436768l-10.0601196-0.4263916v-0.1424866
	L290.8716431,278.6954956z M391.473175,278.6954956l3.1617737,0.2844238v0.1424866l-10.0601807,0.4263916h-0.1437073v-0.1421814
	C386.1556702,279.0274048,388.5028687,278.7903137,391.473175,278.6954956L391.473175,278.6954956z M282.5361633,279.6911011
	c-0.9342041,0.9476013-2.4673767,1.4215088-4.598999,1.4215088h-1.58078c-4.0959167,0-6.5874023-0.6636963-7.4733276-1.9902039
	L282.5361633,279.6911011z M413.3180542,279.122406h0.1437073v0.1423035l-0.1437073,0.1419067
	c-1.0778809,1.1376953-3.6647949,1.7059937-7.7606812,1.7059937h-1.1497192c-2.1322021,0-3.6647949-0.4739075-4.598999-1.4215088
	L413.3180542,279.122406z M332.1182556,279.2647095l2.0121155,4.4072876l-2.0121155,1.848114l-1.8682861-2.7012024
	C331.3278503,280.4489136,331.95047,279.2647095,332.1182556,279.2647095L332.1182556,279.2647095z M352.0948486,282.8189087
	l-1.7245789,2.7012024l-2.0119934-1.7062073h-0.1437073l2.0119934-4.5491943
	C350.3938599,279.2647095,351.0169678,280.4489136,352.0948486,282.8189087L352.0948486,282.8189087z"/>
</svg>
