<?xml version="1.0" encoding="utf-8"?>
<!-- Generator: Adobe Illustrator 19.1.0, SVG Export Plug-In . SVG Version: 6.00 Build 0)  -->
<svg version="1.1" id="Layer_1" xmlns="http://www.w3.org/2000/svg" xmlns:xlink="http://www.w3.org/1999/xlink" x="0px" y="0px"
	 width="600px" height="70px" viewBox="44 222 600 70" style="enable-background:new 44 222 600 70;" xml:space="preserve">
<style type="text/css">
	.st0{fill:#C2B8AF;}
</style>
<g>
	<path class="st0" d="M96.3645859,232.47966c3.5378189-1.4205322,5.9049301-2.5055389,7.102005-3.2550201
		c0.1443558,0.1450195,0.3941879,0.2926636,0.7494888,0.4436188c0.3552933,0.1516113,0.7362976,0.286087,1.1443329,0.4047394
		c1.4989777,0.3941956,2.6433105,1.0454559,3.4323502,1.9524841c0.7890396,0.9076996,1.1832275,1.9992981,1.1832275,3.2748108
		c0,0.9861298-0.1839142,1.8279114-0.5523911,2.5253143c-0.3678284,0.6967621-0.9762497,1.3743896-1.8246155,2.031601
		c-0.8483582,0.6578522-2.1930847,1.4534912-4.0341797,2.3868866c1.1047897,0.4080353,1.9663391,0.9241638,2.5846481,1.5484161
		c0.6176529,0.6248932,1.0553436,1.4073486,1.3117676,2.3479919c0.2564163,0.9399872,0.3843002,2.1864929,0.3843002,3.7375488
		c0,0.7237854,0.0560303,1.331543,0.1680908,1.8252716c0.1114044,0.4930573,0.2590561,0.8615417,0.4436264,1.104126
		c0.1839142,0.2438965,0.3875961,0.4212189,0.6117172,0.5332794c0.223465,0.1113892,0.4996643,0.1674194,0.8285904,0.1674194
		c0.2366486,0,0.51548-0.0791016,0.837822-0.2366333c0.3223343-0.1582031,0.6018295-0.3553009,0.8384705-0.5919495
		l0.907692,1.5385284c-0.6710434,0.4607697-1.8608627,1.2036591-3.5707779,2.2293549
		c-1.7230911,1.0520325-2.7883301,1.7224121-3.1957016,2.0118103c-0.8945084-0.5260315-1.5615921-0.9828491-2.0019302-1.3710938
		c-0.4409866-0.3876038-0.8160629-0.857605-1.1245575-1.4099884c-0.3091583-0.5523987-0.5457993-1.3216553-0.709938-2.3084564
		c-0.1647949-0.9861298-0.2465286-2.307785-0.2465286-3.9649658c0-1.6044312-0.1977539-2.8403931-0.5919495-3.7085419
		c-0.3948441-0.8681335-0.9736023-1.3018799-1.7362747-1.3018799c-0.2366486,0-0.5392075,0.0560303-0.9070358,0.1674347
		c-0.3684769,0.1120605-0.7237778,0.2801514-1.0652313,0.5036163c0,1.6169586-0.032959,2.8239288-0.098877,3.6195526
		s-0.1647949,1.4304199-0.2959747,1.903717c-0.1318359,0.4732819-0.3058548,0.8912048-0.522728,1.2524414
		c-0.2168655,0.3618774-0.5655746,0.7956238-1.0454559,1.3018799c-0.4798813,0.5062408-1.0125046,0.9768982-1.5978546,1.4106445
		c-0.58535,0.4337311-1.2267303,0.8681335-1.9234848,1.3018799l-1.9135971,1.2227783
		c-0.6703873,0.4469299-1.3414307,0.9406433-2.0118179,1.4798584l-3.2550278-3.1363831l-1.6571808,1.2227783l-1.0256805-1.4396515
		l5.5239258-4.1824951l3.1166,3.334137c0.5781021-0.2761993,0.8681412-0.9399872,0.8681412-1.9927063v-15.5836639
		c0-1.1970673-0.0665817-2.1601257-0.1977539-2.8905029c-0.1311798-0.7297058-0.3941879-1.3144073-0.7890396-1.7554016
		c-0.3941879-0.4403229-0.9663544-0.6604919-1.7158432-0.6604919s-1.394165,0.2465363-1.9333725,0.7395935
		c-0.5392151,0.4930725-0.808815,1.1146851-0.808815,1.8641663c0,0.5392151,0.1575394,1.0817108,0.4732895,1.6275177
		c0.3157501,0.5457916,0.7824478,1.1805878,1.4007568,1.9037018c0.3025665,0.3678284,0.5919418,0.7626801,0.8681412,1.1832275
		c0.2761917,0.4212189,0.5095444,0.8780365,0.7000504,1.3710938c0.1904984,0.4930725,0.2860794,1.0289917,0.2860794,1.6077423
		c0,1.394165-0.5029526,2.6004639-1.5088577,3.6195526c-1.0065689,1.0197601-2.4692917,1.8318634-4.3894806,2.4363403
		l-0.6314926-1.4007568c0.8022232-0.3678284,1.3546143-0.7363129,1.6571732-1.104126
		c0.3025665-0.3684845,0.4541779-0.795639,0.4541779-1.2827759c0-0.4600983-0.1450195-0.9300995-0.4344025-1.4099731
		c-0.2893753-0.4798889-0.7494812-1.0949097-1.3809814-1.8443909c-0.3150864-0.3684845-0.6084213-0.7725525-0.8773651-1.2135468
		c-0.2696075-0.4403381-0.4930649-0.91362-0.6710434-1.4205322c-0.1773224-0.5056-0.2663116-1.0744629-0.2663116-1.7059631
		c0-1.2886963,0.352005-2.47258,1.0553513-3.5509949c0.7033386-1.0777588,1.6967239-1.9333801,2.9788284-2.564209
		c1.2821045-0.6315002,2.7448273-0.9472504,4.3894806-0.9472504
		C93.1491089,229.3821716,95.2209091,230.4151154,96.3645859,232.47966z M97.331604,242.5005188
		c2.2880096-0.4469299,3.9774933-1.1074219,5.0697479-1.9821625c1.0909424-0.8747253,1.6374054-2.0091705,1.6374054-3.4033356
		c0-0.6967621-0.1647949-1.3374786-0.4937286-1.9228363c-0.3289261-0.5853424-0.7626648-1.04216-1.3018799-1.3710938
		c-0.5392075-0.3289337-1.1113739-0.4930573-1.7158432-0.4930573c-0.4475784,0-0.9999771,0.1047974-1.6571732,0.3150787
		c-0.6578674,0.2109375-1.2755127,0.4739532-1.8542786,0.7890472c0.091629,0.40802,0.1674347,0.9736023,0.2267609,1.6967163
		c0.0593262,0.7237854,0.0889893,1.4403076,0.0889893,2.1502533V242.5005188z"/>
	<path class="st0" d="M133.6484528,251.0223846c0,0.8154144,0.1278839,1.4699707,0.3842926,1.9630432
		c0.256424,0.4930573,0.6282043,0.7395935,1.1146851,0.7395935c0.2234497,0,0.5391998-0.0889893,0.946579-0.2663116
		c0.4080353-0.1773071,0.7956238-0.3849487,1.1641083-0.6215973l0.6315002,1.3809814
		c-3.1172638,1.6571808-5.418457,2.9392853-6.9042511,3.8469696c-0.8160706-0.3948364-1.4370117-0.9439392-1.8641663-1.6472778
		c-0.4278107-0.7033539-0.6743317-1.6795959-0.7402496-2.9294128c-3.4719086,1.5780792-6.2529831,3.1040955-8.3439026,4.5766907
		c-0.5919418-0.671051-1.3157196-1.298584-2.1700211-1.8839417c-0.8549576-0.5853424-1.6176224-0.9828339-2.2886734-1.1937714
		l-0.0395508-1.0256805c0.5392151-0.0263672,0.9571304-0.1212921,1.2531052-0.286087
		c0.2959671-0.1641388,0.5095444-0.4007721,0.6407242-0.7099304c0.1318359-0.3091583,0.1977539-0.8253021,0.1977539-1.5484161
		v-6.6873779c0-1.1707001-0.1054688-2.0421448-0.3157501-2.6136475c-0.2109375-0.5721741-0.5919418-0.8582458-1.1443329-0.8582458
		c-0.3157501,0-0.6282043,0.0593262-0.9366989,0.1773071c-0.3091507,0.1186523-0.5952377,0.2498322-0.8582535,0.3948517
		l-0.5128403-1.4007568c0.7890396-0.3553009,1.8377914-0.8681335,3.1462631-1.5385284
		c1.3084717-0.6710358,2.4561081-1.2821045,3.4422379-1.8344879c0.8154068,0.3546295,1.4370117,0.946579,1.8641586,1.7751617
		c0.4271545,0.828598,0.6413879,1.9861145,0.6413879,3.4719086v9.1335907c0,0.3678284,0.1641312,0.7165222,0.4930649,1.0454559
		c0.32827,0.3289337,0.6506119,0.4930725,0.9663544,0.4930725c0.4073715,0,1.7092514-0.5589905,3.9063034-1.6769562v-7.7526093
		c0-0.8015594-0.1483154-1.3710938-0.4442902-1.7059631c-0.2959747-0.3355255-0.7659683-0.5095367-1.4106445-0.5227203v-1.1245728
		c0.750145-0.3678131,1.4007568-0.7626648,1.9531555-1.1838837c0.5523834-0.4205475,1.0124969-0.91362,1.3809814-1.4792023
		h3.8469696V251.0223846z"/>
	<path class="st0" d="M146.8452301,252.0480652c0,0.5266876,0.1048126,0.9406586,0.3157501,1.2432251
		c0.2102661,0.3025513,0.5385437,0.4535065,0.9861298,0.4535065c0.3025665,0,0.6506042-0.091629,1.0454559-0.2761993
		l0.6117249,1.4205322c-1.0131683,0.5912933-2.0421448,1.2392578-3.0876007,1.9425964
		c-1.0454559,0.7033691-1.7784729,1.2333374-2.1990204,1.5879822c-1.526001-1.4989929-3.1568146-2.4389648-4.8924408-2.8206329
		V254.27742c0.6967621-0.091629,1.1865234-0.3908997,1.4693146-0.8978119
		c0.2827911-0.5055847,0.4245148-1.3242798,0.4245148-2.4554443v-12.7439117c0-1.5648956-0.1845703-2.754715-0.5523987-3.5701141
		c-0.3684845-0.8154144-1.0329285-1.427124-1.992691-1.8345032l0.5721588-1.2234344
		c0.7626801,0.3289337,1.5253448,0.4930573,2.288681,0.4930573c1.4989624,0,2.9715729-0.3018951,4.4184723-0.9070282
		c0.7626801-0.3025665,1.3875732-0.5260162,1.874054-0.6710358c0.4864655-0.1443634,0.9729462-0.2168732,1.460083-0.2168732
		h0.4337311v1.4205322c-0.8022156,0.0395508-1.4337158,0.2432404-1.8938141,0.6110535
		c-0.4607697,0.3684845-0.7890472,0.9241791-0.9861298,1.6670685c-0.1977539,0.7435608-0.2959747,1.7659454-0.2959747,3.0678253
		V252.0480652z"/>
	<path class="st0" d="M158.4243774,249.4838562c0.1582031,0.8681488,0.4607697,1.6242218,0.9076843,2.2682495
		c0.4469299,0.6446686,0.9432983,1.1219177,1.48909,1.4304199c0.5458069,0.3091431,1.0883026,0.4633942,1.6275177,0.4633942
		c0.7626648,0,1.522049-0.1773224,2.2787781-0.532608c0.7560883-0.3546448,1.5945587-0.8740845,2.5147705-1.5583038
		l0.7501526,1.5385284l-2.0915833,1.3809814c-2.6960449,1.7362671-4.4975739,3.0506897-5.4046021,3.9451904
		c-0.6315002-0.2762146-1.2630005-0.5392151-1.8938293-0.789032c-1.3546143-0.5385742-2.4264374-1.1700439-3.2154846-1.8931732
		c-0.789032-0.7231293-1.3875732-1.7132111-1.7949371-2.9689484c-0.4080353-1.2557373-0.6117249-2.8437042-0.6117249-4.7638855
		c0-1.3282471,0.1147003-2.446228,0.3454132-3.3539124c0.2294006-0.9076843,0.5550232-1.6538849,0.9762421-2.2392273
		c0.4205627-0.5847015,0.9235077-1.0876465,1.5088654-1.5088654c0.5853577-0.4205627,1.4238281-0.8938446,2.5154266-1.4205322
		l4.3789368-2.0513763l5.0110779,7.8910522L158.4243774,249.4838562z M159.4309387,240.7648926
		c-0.3157349,0.2102814-0.5497437,0.5062561-0.7006989,0.8872528c-0.1509552,0.3816681-0.2630157,0.9670258-0.3348694,1.7560577
		c-0.0725098,0.789032-0.1087646,2.150238-0.1087646,4.082962l4.0836182-1.7949524L159.4309387,240.7648926z"/>
	<path class="st0" d="M188.0538483,252.5220184c0,0.9861298,0.0461426,1.6736603,0.1377716,2.061264
		c0.0922852,0.3882446,0.2728882,0.7033386,0.5424957,0.946579c0.2696075,0.2438965,0.7527924,0.4574738,1.4501953,0.6413727
		v1.3018799h-10.356369v-1.3018799c0.7099304-0.1838989,1.1931152-0.3948364,1.4495392-0.631485
		s0.4311066-0.5491028,0.5227203-0.9366913c0.0922852-0.3876038,0.1384277-1.0817261,0.1384277-2.0810394v-17.0246277
		c0-0.9861298-0.0428467-1.6730042-0.12854-2.061264c-0.0856934-0.3875885-0.2564087-0.7000427-0.5128326-0.9366913
		s-0.7462006-0.4541779-1.4693146-0.6512604v-1.3018799h10.356369v1.3018799
		c-0.6842194,0.1845703-1.1641083,0.3981323-1.4403076,0.6413727s-0.4600983,0.5787659-0.5523834,1.0059052
		c-0.091629,0.4271545-0.1377716,1.1015015-0.1377716,2.0217133V252.5220184z"/>
	<path class="st0" d="M202.7700348,252.5220184c0,0.9861298,0.0461426,1.6736603,0.1377716,2.061264
		c0.0922852,0.3882446,0.2728882,0.7033386,0.5424957,0.946579c0.2696075,0.2438965,0.7527924,0.4574738,1.4501953,0.6413727
		v1.3018799h-10.356369v-1.3018799c0.7099304-0.1838989,1.1931152-0.3948364,1.4495392-0.631485
		s0.4311066-0.5491028,0.5227203-0.9366913c0.0922852-0.3876038,0.1384277-1.0817261,0.1384277-2.0810394v-17.0246277
		c0-0.9861298-0.0428467-1.6730042-0.12854-2.061264c-0.0856934-0.3875885-0.2564087-0.7000427-0.5128326-0.9366913
		s-0.7462006-0.4541779-1.4693146-0.6512604v-1.3018799h10.356369v1.3018799
		c-0.6842194,0.1845703-1.1641083,0.3981323-1.4403076,0.6413727s-0.4600983,0.5787659-0.5523834,1.0059052
		c-0.091629,0.4271545-0.1377716,1.1015015-0.1377716,2.0217133V252.5220184z"/>
	<path class="st0" d="M217.4862213,252.5220184c0,0.9861298,0.0461426,1.6736603,0.1377716,2.061264
		c0.0922852,0.3882446,0.2728882,0.7033386,0.5424957,0.946579c0.2696075,0.2438965,0.7527924,0.4574738,1.4501953,0.6413727
		v1.3018799h-10.356369v-1.3018799c0.7099304-0.1838989,1.1931152-0.3948364,1.4495392-0.631485
		s0.4311066-0.5491028,0.5227203-0.9366913c0.0922852-0.3876038,0.1384277-1.0817261,0.1384277-2.0810394v-17.0246277
		c0-0.9861298-0.0428467-1.6730042-0.12854-2.061264c-0.0856934-0.3875885-0.2564087-0.7000427-0.5128326-0.9366913
		s-0.7462006-0.4541779-1.4693146-0.6512604v-1.3018799h10.356369v1.3018799
		c-0.6842194,0.1845703-1.1641083,0.3981323-1.4403076,0.6413727s-0.4600983,0.5787659-0.5523834,1.0059052
		c-0.091629,0.4271545-0.1377716,1.1015015-0.1377716,2.0217133V252.5220184z"/>
	<path class="st0" d="M229.0858002,239.6601105v4.6162262h-3.9458466v-4.6162262H229.0858002z M229.0858002,252.8964386v4.5766754
		h-3.9458466v-4.5766754H229.0858002z"/>
	<path class="st0" d="M251.7114868,240.8631134c-0.5128479,0.4871368-0.7692566,0.9933777-0.7692566,1.5194092
		c0,0.5523834,0.1740112,0.9960175,0.5227203,1.331543c0.348053,0.3348541,0.7923431,0.5029449,1.331543,0.5029449
		c0.3282776,0,0.6473236-0.0296631,0.9564667-0.0889893c0.3091583-0.0593262,0.6216125-0.147644,0.9373627-0.2662964
		s0.598526-0.2432404,0.8483582-0.3750763c0.249176-0.1311798,0.7099457-0.3941956,1.3809967-0.7890472
		c0.9070129-0.5128326,1.8015137-0.8905487,2.6821899-1.1337891c0.8813171-0.2432251,1.7758179-0.3651733,2.6828613-0.3651733
		c1.3546143,0,2.6011353,0.2959595,3.7382202,0.8879089c1.1377258,0.5912781,2.019043,1.4139404,2.6433105,2.465332
		c0.6248779,1.0527039,0.9373474,2.249115,0.9373474,3.5905457c0,1.9070129-0.490448,3.6426392-1.4699707,5.2075195
		c-0.9795532,1.5655518-2.3967896,2.7751465-4.2510681,3.6300964c-1.854248,0.8543091-4.0506592,1.2821045-6.588501,1.2821045
		c-1.9992828,0-3.8733215-0.3552856-5.6221313-1.0652161c-1.7230988-0.6967468-3.2088928-1.6894836-4.4580383-2.9788361
		c-1.3546143-1.3809814-2.3671112-3.0704651-3.038147-5.0697479c-0.5787659-1.7356262-0.8674927-3.6558228-0.8674927-5.7599182
		c0-2.4462128,0.509552-4.7012634,1.5286407-6.7664795c1.0190887-2.0645447,2.4231415-3.6591034,4.2115021-4.7836609
		c1.7883606-1.1245728,3.7810516-1.6868439,5.9774475-1.6868439c0.5912781,0,1.1799316,0.0494385,1.7652893,0.1483154
		c0.5853271,0.098877,1.137085,0.2300568,1.6571655,0.3941803c0.5194397,0.1647949,1.232666,0.4245148,2.1403503,0.7798157
		l1.1245728,0.4732971c0.4073792,0.1707153,0.7916565,0.3190308,1.1535645,0.4436188
		c0.3618774,0.1252441,0.7264099,0.2241211,1.0948792,0.2959747c0.3678284,0.0725098,0.7561035,0.1087646,1.1641235,0.1087646
		c0.789032,0,1.4627075-0.1845703,2.021698-0.5523987c0.5589905-0.3684692,1.1344604-1.0065613,1.7264099-1.9135895
		l1.0849915,0.789032c-0.8417664,1.4726105-1.8384399,2.6004639-2.9887085,3.3829193
		c-1.1509399,0.7824402-2.4165649,1.173996-3.7975464,1.173996c-0.7494812,0-1.545105-0.1153564-2.3868713-0.3454132
		c-0.8417969-0.2300568-1.8213196-0.594574-2.9393005-1.0948944c-0.8945007-0.3941956-1.5352173-0.6572113-1.9234772-0.7890472
		c-0.3876038-0.1311646-0.8318939-0.2432251-1.331543-0.3355103c-0.4996643-0.091629-1.0388641-0.1377716-1.61763-0.1377716
		c-1.5253448,0-2.9030304,0.4666901-4.1324005,1.4007568c-1.2300262,0.9333954-2.1930847,2.2089081-2.8898468,3.8265381
		c-0.697403,1.61763-1.0454559,3.2813873-1.0454559,4.9913025c0,2.3539276,0.5194397,4.372345,1.5583038,6.0558929
		c1.0388641,1.6835327,2.5543213,2.9524536,4.5470276,3.8074188c1.9920349,0.85495,4.4085846,1.2821045,7.2496643,1.2821045
		c3.1291199,0,5.5298462-0.5227356,7.2001953-1.5681915c1.6697083-1.0454559,2.5048828-2.5417938,2.5048828-4.4883575
		c0-0.8411102-0.1904907-1.5741119-0.5721436-2.1990204c-0.3816833-0.6249084-0.8846436-1.0981903-1.5088806-1.4205322
		c-0.6249084-0.3223419-1.2919922-0.4831848-2.002594-0.4831848c-0.526001,0-1.0942383,0.0889893-1.7059326,0.2663116
		c-0.6117249,0.1773224-1.4831543,0.5491028-2.6136475,1.1146698c-0.9472656,0.4996643-1.8384705,0.8648529-2.6729736,1.0949097
		c-0.8358459,0.2300415-1.6736755,0.3447418-2.5154419,0.3447418c-1.0388641,0-1.9267883-0.1839142-2.6630859-0.5523834
		c-0.7362976-0.3678284-1.298584-0.8806763-1.6868439-1.5385284c-0.3875885-0.6572113-0.5813904-1.3737335-0.5813904-2.1502533
		c0-0.5523834,0.1114044-1.075119,0.3348541-1.5681763c0.223465-0.4930725,0.5458069-0.9235229,0.9670258-1.2919922
		L251.7114868,240.8631134z"/>
	<path class="st0" d="M286.3916016,255.2048798c-2.854248,1.3407745-4.8469543,2.4192047-5.9774475,3.2346039l-2.3084412-1.2623291
		c-0.5260315-0.3157654-1.0256958-0.6637878-1.4989929-1.0454712c-0.4732971-0.3809967-0.8780212-0.7956238-1.2128906-1.2425537
		c-0.3355103-0.4469147-0.6282043-0.9696503-0.8780212-1.5681763c-0.2498169-0.5985413-0.4475708-1.3282471-0.5919495-2.1898041
		c-0.1450195-0.8615417-0.2168579-1.9037018-0.2168579-3.1264801c0-1.7362823,0.1575317-3.1007843,0.4732971-4.0935059
		c0.3157349-0.9927368,0.7758484-1.8114319,1.3809814-2.4561157c0.6044617-0.6440125,1.3710938-1.2194824,2.2978821-1.7257233
		c0.9274597-0.5062561,2.2715454-1.108078,4.0341797-1.8054962l5.0704041,7.4961853l-10.0412598,4.2016144
		c0.1311646,1.6703644,0.6407166,2.986084,1.5286255,3.9458466c0.8879089,0.9597778,1.9953308,1.4396515,3.3242493,1.4396515
		c0.5128479,0,1.1733398-0.1278839,1.9821472-0.3842926c0.8088074-0.256424,1.6868286-0.6347961,2.6340942-1.1344604V255.2048798z
		 M280.1577148,240.5473633c-0.81604,0.2241211-1.460083,0.5695343-1.9333496,1.0362244
		c-0.4732971,0.4667053-0.8286133,1.166748-1.0652466,2.1008148c-0.2366333,0.9340515-0.3552856,2.373703-0.3552856,4.3202667
		l6.2931824-2.8410645L280.1577148,240.5473633z"/>
	<path class="st0" d="M294.6563721,252.1667175c0,0.6578674,0.1120605,1.2128906,0.3361816,1.6670685
		c0.2228088,0.4535217,0.4759521,0.7758636,0.7593994,0.9663544c0.2821045,0.190506,0.5418396,0.286087,0.7791443,0.286087
		c0.4469299,0,0.9465637-0.1707306,1.4989624-0.5128326v1.3809814c-1.7230835,1.0915833-2.9333496,1.9195251-3.629425,2.4851074
		c-1.3157349-1.5780945-2.8608398-2.3869019-4.6366882-2.4264526v-0.946579
		c0.6315002-0.0791016,1.0784302-0.3678131,1.3421021-0.8681335c0.2623596-0.4996643,0.3941956-1.3935089,0.3941956-2.6828613
		V238.279129c0-1.4989777-0.1938171-2.6663818-0.5814209-3.5015717c-0.388916-0.8351746-1.0823669-1.4495239-2.081665-1.8443756
		v-1.2821045c0.9333801,0.3025665,1.7494507,0.4535065,2.4468689,0.4535065c0.5128479,0,1.0322571-0.085022,1.5582886-0.2564087
		c0.5247192-0.1707306,1.0916138-0.4139709,1.6954041-0.7297211c0.671051-0.3421173,1.2630005-0.5952301,1.7758484-0.7593689
		c0.5128479-0.1647949,1.0190735-0.2597198,1.5187378-0.286087v1.4198761
		c-0.8279114,0.0791016-1.4725952,0.384964-1.9327087,0.917572c-0.4601135,0.5326233-0.7831116,1.3018799-0.9663696,2.307785
		c-0.1845703,1.0065765-0.2768555,2.4165649-0.2768555,4.2312775V252.1667175z"/>
	<path class="st0" d="M313.4759521,255.2048798c-2.854248,1.3407745-4.846283,2.4192047-5.977417,3.2346039l-2.3084717-1.2623291
		c-0.526001-0.3157654-1.0256653-0.6637878-1.4989624-1.0454712c-0.4732971-0.3809967-0.8780212-0.7956238-1.2128906-1.2425537
		c-0.3348694-0.4469147-0.627533-0.9696503-0.8780212-1.5681763c-0.249176-0.5985413-0.4469299-1.3282471-0.5919495-2.1898041
		c-0.1450195-0.8615417-0.216217-1.9037018-0.216217-3.1264801c0-1.7362823,0.1568909-3.1007843,0.4732971-4.0935059
		c0.315094-0.9927368,0.7752075-1.8114319,1.3803101-2.4561157c0.6051331-0.6440125,1.3710938-1.2194824,2.2979126-1.7257233
		c0.9281311-0.5062561,2.2715454-1.108078,4.0341797-1.8054962l5.0704041,7.4961853l-10.0406189,4.2016144
		c0.1305237,1.6703644,0.6407166,2.986084,1.5279846,3.9458466c0.8885803,0.9597778,1.9960022,1.4396515,3.3248901,1.4396515
		c0.5128479,0,1.1733398-0.1278839,1.9815063-0.3842926c0.8094788-0.256424,1.6875-0.6347961,2.6340637-1.1344604V255.2048798z
		 M307.2427673,240.5473633c-0.8160706,0.2241211-1.4607544,0.5695343-1.9340515,1.0362244
		c-0.4732666,0.4667053-0.8279114,1.166748-1.0652161,2.1008148c-0.2359924,0.9340515-0.3546448,2.373703-0.3546448,4.3202667
		l6.2925415-2.8410645L307.2427673,240.5473633z"/>
	<path class="st0" d="M328.5672302,255.5199738c-0.986145,0.4080353-1.9762268,0.8747406-2.9689636,1.4007416
		c-0.9927063,0.5260315-1.824585,1.019104-2.495636,1.4798584c-1.6044617-0.7237549-2.8305359-1.4633789-3.6782227-2.2194519
		c-0.8490295-0.756073-1.4699707-1.7131958-1.8641663-2.8700562c-0.3955078-1.1575317-0.5919495-2.8535919-0.5919495-5.0895386
		c0-1.2491455,0.0883484-2.2886658,0.2663269-3.1172485c0.1766357-0.8279419,0.4297791-1.5088654,0.7593689-2.0414886
		c0.3282776-0.532608,0.7198181-1.0059052,1.1733398-1.4205322c0.4535217-0.4139557,1.1601562-0.9366913,2.1212463-1.5681915
		c0.9201965-0.6044617,1.8338318-1.3282471,2.7408447-2.1700134c0.736969,0.8813171,1.3157349,1.4831543,1.7362976,1.8054962
		s0.8213196,0.4831696,1.2036438,0.4831696c0.2623596,0,0.4930725-0.0560303,0.6908264-0.1680908
		c0.1964417-0.1113892,0.4271545-0.2985992,0.6895142-0.561615l0.8094788,0.847702
		c-0.5655823,0.802887-1.12854,1.3743896-1.6875,1.716507c-0.5589905,0.3421173-1.1601562,0.5128479-1.8048401,0.5128479
		c-0.4996643,0-1.0085449-0.1344757-1.5279846-0.4040833s-0.9900818-0.6282043-1.4106445-1.075119
		c-0.5523987,0.4205475-0.9637146,0.7923279-1.232666,1.1140137c-0.2702637,0.3223419-0.4930725,0.6941071-0.671051,1.1146698
		c-0.1779785,0.4212189-0.3190308,0.9768982-0.4244995,1.6670685c-0.1054688,0.690155-0.1568909,1.6736603-0.1568909,2.949173
		c0,2.3011932,0.3968201,4.0440674,1.1931152,5.2272949c0.7949829,1.1838837,1.9880981,1.7758179,3.580658,1.7758179
		c0.4864807,0,1.0454712-0.1087646,1.6756287-0.3256226c0.6315002-0.2168732,1.2564087-0.5293274,1.8747253-0.9373627V255.5199738z"
		/>
	<path class="st0" d="M330.2243958,238.9692841h0.1964417c0.9597778,0,1.7455139-0.1773224,2.3572388-0.532608
		c0.6116943-0.3546448,1.1047668-0.8872681,1.4804993-1.5978546c0.3744202-0.7099457,0.6565552-1.61763,0.8477173-2.721756
		c0.1898499-1.1047821,0.2992554-2.4330292,0.3256226-3.9847412h1.5780945v8.5218811h4.399353v2.0315857h-4.399353v13.1183319
		c0.4073486,0.3421173,0.808136,0.6249084,1.2036438,0.8483734c0.3941956,0.2234497,0.6499634,0.3348541,0.7686157,0.3348541
		c0.2241211,0,0.5853577-0.1048126,1.0849915-0.3150787c0.4996643-0.2102814,1.0454712-0.4996643,1.6374207-0.8681488v1.7949524
		c-0.6315002,0.3025665-1.4067078,0.7429047-2.3282166,1.32164c-0.9202271,0.5787659-1.6703796,1.0982056-2.2478027,1.5583191
		c-1.6057739-1.6176453-3.2484436-2.5708008-4.9320068-2.8601837v-0.927475
		c0.5919495-0.1443481,1.0283203-0.3809967,1.3117676-0.7099304c0.282135-0.3282776,0.42453-0.7626648,0.42453-1.3018799V240.685791
		h-3.7085571V238.9692841z"/>
	<path class="st0" d="M351.6279602,238.9692841h0.1964417c0.9597778,0,1.7455139-0.1773224,2.3572388-0.532608
		c0.6116943-0.3546448,1.1047668-0.8872681,1.4804993-1.5978546c0.3744202-0.7099457,0.6565552-1.61763,0.8477173-2.721756
		c0.1898499-1.1047821,0.2992554-2.4330292,0.3256226-3.9847412h1.5780945v8.5218811h4.399353v2.0315857h-4.399353v13.1183319
		c0.4073486,0.3421173,0.808136,0.6249084,1.2036438,0.8483734c0.3941956,0.2234497,0.6499634,0.3348541,0.7686157,0.3348541
		c0.2241211,0,0.5853577-0.1048126,1.0849915-0.3150787c0.4996643-0.2102814,1.0454712-0.4996643,1.6374207-0.8681488v1.7949524
		c-0.6315002,0.3025665-1.4067078,0.7429047-2.3282166,1.32164c-0.9202271,0.5787659-1.6703796,1.0982056-2.2478027,1.5583191
		c-1.6057739-1.6176453-3.2484436-2.5708008-4.9320068-2.8601837v-0.927475
		c0.5919495-0.1443481,1.0283203-0.3809967,1.3117676-0.7099304c0.282135-0.3282776,0.42453-0.7626648,0.42453-1.3018799V240.685791
		h-3.7085571V238.9692841z"/>
	<path class="st0" d="M367.1516418,238.7128601c0-0.7620087-0.0223999-1.4033813-0.0685425-1.922821
		s-0.1213074-0.9604187-0.2267761-1.3216553c-0.1054688-0.3618927-0.2307129-0.6611633-0.3743896-0.8977966
		c-0.1450195-0.2366486-0.3164062-0.4337463-0.5128479-0.5919495c-0.1977539-0.157547-0.4086914-0.3025665-0.6315002-0.4337463
		l-0.8490295-0.4732819v-1.302536c0.3691406,0.1713867,0.8582458,0.3256226,1.4699707,0.4640503
		c0.6117249,0.1377716,1.1074219,0.2069855,1.4897461,0.2069855c0.671051,0,1.3051758-0.0889893,1.903717-0.2663116
		c0.5985413-0.1773071,1.1733398-0.3777008,1.7257385-0.6018219c1.0388489-0.4205627,1.7257385-0.6769867,2.0619202-0.7692719
		c0.3348389-0.0916138,0.6802673-0.1509399,1.0349121-0.1773071v1.4000854
		c-1.4067078,0.2504883-2.4165649,0.7270813-3.0282898,1.4304199c-0.6103821,0.70401-0.9162598,1.8509827-0.9162598,3.4422455
		v4.2411652c1.1430359-0.4073792,2.3572388-0.9136353,3.6386719-1.5187531
		c1.2827759-0.6044769,2.2715454-1.1443329,2.9689636-1.61763c0.9465637,0.7099304,1.6413574,1.2919922,2.081665,1.7455139
		c0.4403381,0.4541626,0.8147583,0.9373474,1.1245728,1.4501953c0.3085022,0.5128326,0.5747986,1.1179657,0.7989197,1.8147125
		c0.2228088,0.6974182,0.4007874,1.5681915,0.5326233,2.6136475c0.1305237,1.0461273,0.1964417,2.3447113,0.1964417,3.8964081
		c0,3.3796234-0.7198181,6.374939-2.1594849,8.9852905c-1.4396362,2.6103516-3.6268005,4.9543762-6.5588379,7.0327759
		l-1.3222961-1.26297c1.2761536-0.8806763,2.3414001-1.775177,3.1956787-2.6822205
		c0.8556213-0.9076843,1.5385437-1.8641663,2.0513916-2.8707275c0.5128174-1.0058899,0.8885498-2.1231995,1.1245422-3.353241
		c0.2373047-1.2293701,0.355957-2.7388916,0.355957-4.5272522c0-3.1693268-0.3322144-5.4942627-0.9966736-6.9734497
		c-0.6644592-1.4792023-1.7191467-2.2194672-3.166687-2.2194672c-0.4073792,0-0.9439697,0.1021729-1.6070862,0.3058624
		c-0.6644592,0.2043457-1.4172363,0.5161438-2.2583618,0.9373474v11.1454163
		c0.1700745,0.1839142,0.3572693,0.3585968,0.561615,0.5227356c0.2043457,0.1647949,0.6605225,0.5029449,1.3710938,1.0157928
		l1.4989929-0.6506195l0.671051,0.9465942c-0.2636719,0.1713867-0.5589905,0.3552856-0.8872681,0.5523987
		c-0.7897034,0.4468994-1.4106445,0.8252869-1.8641663,1.1344299c-0.454834,0.3085022-0.8265991,0.6077576-1.1153259,0.8971558
		c-1.3143921-1.5780945-2.9254456-2.5114746-4.8330994-2.8008575v-1.0059052
		c0.5392151-0.1054688,0.9281311-0.3421173,1.164093-0.7106018c0.2373047-0.3678284,0.3546448-0.9202118,0.3546448-1.6571808
		V238.7128601z"/>
	<path class="st0" d="M398.6947021,255.2048798c-2.8529053,1.3407745-4.846283,2.4192047-5.9761047,3.2346039l-2.3084412-1.2623291
		c-0.5260315-0.3157654-1.0256958-0.6637878-1.4989929-1.0454712c-0.4732971-0.3809967-0.8780212-0.7956238-1.2128906-1.2425537
		c-0.3361816-0.4469147-0.6288452-0.9696503-0.8780212-1.5681763c-0.2504883-0.5985413-0.4482422-1.3282471-0.5919495-2.1898041
		c-0.1450195-0.8615417-0.2175293-1.9037018-0.2175293-3.1264801c0-1.7362823,0.1582031-3.1007843,0.4732971-4.0935059
		c0.3164062-0.9927368,0.7765198-1.8114319,1.3816528-2.4561157c0.6037903-0.6440125,1.3710938-1.2194824,2.2978821-1.7257233
		c0.9268188-0.5062561,2.2715454-1.108078,4.0341797-1.8054962l5.0690918,7.4961853l-10.0406189,4.2016144
		c0.1318359,1.6703644,0.6407166,2.986084,1.5292969,3.9458466c0.8872681,0.9597778,1.9946899,1.4396515,3.3235779,1.4396515
		c0.5128479,0,1.1733398-0.1278839,1.9828186-0.3842926c0.8081665-0.256424,1.6861877-0.6347961,2.6327515-1.1344604V255.2048798z
		 M392.4615173,240.5473633c-0.8160706,0.2241211-1.4594421,0.5695343-1.9327087,1.0362244
		c-0.4732971,0.4667053-0.8292542,1.166748-1.0652466,2.1008148c-0.2373047,0.9340515-0.355957,2.373703-0.355957,4.3202667
		l6.2938538-2.8410645L392.4615173,240.5473633z"/>
	<path class="st0" d="M416.38974,253.2517395c0,0.1311646,0.0593262,0.2728882,0.1779785,0.4238434
		c0.1186523,0.1516113,0.3322144,0.319046,0.6407166,0.5029602c0.3085022,0.1845703,0.6143494,0.3289337,0.917572,0.4344025
		c0.3019104,0.1054688,0.5062561,0.1575317,0.6117249,0.1575317c0.1582031,0,0.4891052-0.1278687,0.9953613-0.3842926
		s1.0428162-0.5820618,1.6083984-0.9769135l0.671051,1.5385284c-0.3032227,0.1977539-0.671051,0.4278107-1.1047974,0.6908264
		c-1.9472046,1.1575165-3.23526,2.0777435-3.8667297,2.7619476c-1.3935242-0.9736023-2.5879517-1.6802368-3.5806885-2.1212158
		c-0.9927063-0.4403381-1.8773193-0.7264252-2.6525269-0.857605v-0.8879089
		c0.6433716-0.1048126,1.1443481-0.2663116,1.4989624-0.4831848c0.3546448-0.2168732,0.6051331-0.5062561,0.7488403-0.8681335
		c0.1450195-0.3612366,0.2175293-0.8648529,0.2175293-1.5088654v-6.2140961c0-1.1568604-0.1911621-2.120575-0.5721741-2.8898315
		c-0.381012-0.7692719-0.8872375-1.1542358-1.5187378-1.1542358c-0.1582031,0-0.3744202,0.0626221-0.6512756,0.1878662
		c-0.2755432,0.124588-0.6512756,0.3183899-1.1245728,0.5814056v-1.4396515
		c0.7897034-0.5128479,1.4014282-0.9472351,1.8351746-1.3018799c0.4337463-0.3553009,0.9927063-0.8483582,1.6769409-1.4798584
		c0.7224731,0.5003204,1.2485046,0.9076843,1.5780945,1.2234344c0.3282471,0.315094,0.6077576,0.6802826,0.8384705,1.0942383
		c0.2294006,0.4146271,0.4825134,1.121933,0.7593689,2.1212463c0.2755432-0.5787659,0.594574-1.0883026,0.9558105-1.5292969
		c0.3625488-0.4403381,0.7765198-0.8509979,1.2432251-1.232666c0.4666748-0.3816681,1.2722168-0.9663544,2.4165344-1.7560577
		l3.0770569,3.4527893l-2.564209,2.564209l-2.1304626-2.6828613c-1.8022156,1.4337158-2.7026367,3.767868-2.7026367,7.0031128
		V253.2517395z"/>
	<path class="st0" d="M427.673584,244.3745575v-0.0982208c0-0.6842194-0.1278992-1.2168427-0.3849792-1.5985107
		c-0.2557678-0.3809967-0.6011658-0.5715027-1.0349121-0.5715027c-0.355957,0-0.8358459,0.1509552-1.4409485,0.4535217v-1.3216553
		c2.0645447-1.3018799,3.5186768-2.3803101,4.3598022-3.23526c0.7237854,0.9076843,1.3869019,1.5912628,1.9920349,2.0513611
		c0.6051331,0.4607697,1.2168579,0.7890472,1.8351746,0.9868011v0.946579
		c-0.8160706,0.1054688-1.3882446,0.384964-1.7165222,0.8384705c-0.3282776,0.4535217-0.4996643,1.1542358-0.5128479,2.1008148
		l-0.0593262,6.9833527v0.1575317c0,0.9340668,0.1213074,1.6149902,0.3652039,2.0421448s0.6209412,0.6407166,1.1337891,0.6407166
		c0.6315002,0,1.2827454-0.1904907,1.9537964-0.5721588l-0.0395508,1.4403076l-1.6769409,0.946579
		c-0.5392151,0.3157349-0.9927368,0.5853577-1.3605652,0.8088074c-0.3691406,0.2234802-0.668396,0.4172668-0.8977966,0.5820618
		c-0.2307129,0.1641235-0.4244995,0.312439-0.5827026,0.4442749c-0.7092896-0.6182861-1.2485046-1.331543-1.6176453-2.1403503
		c-0.3677979-0.8088074-0.5523682-1.640686-0.5523682-2.4956512v-0.1773224L427.673584,244.3745575z M429.2516479,235.5369415
		c-0.7106018-0.7890472-1.2590332-1.5319366-1.646637-2.2286835c-0.388916-0.6974182-0.5827026-1.2359619-0.5827026-1.61763
		c0-0.4601135,0.2043457-0.8846283,0.6117249-1.2728729c0.4073486-0.3876038,0.9070129-0.5814056,1.4989624-0.5814056
		c0.7106018,0,1.2919922,0.157547,1.7455139,0.4732971c0.454834,0.3157501,0.6815796,0.723114,0.6815796,1.2227783
		c0,0.3684845-0.1318359,0.7923279-0.3955078,1.2728729c-0.2623596,0.4798889-0.6183167,1.009201-1.0652161,1.5879669
		L429.2516479,235.5369415z"/>
	<path class="st0" d="M440.7134705,259.8995667c-0.0922852,0.4601135-0.1384277,0.7956238-0.1384277,1.0058899
		c0,0.6967773,0.3216858,1.265625,0.9663391,1.7066345c0.6446838,0.4403381,1.4989929,0.6604919,2.564209,0.6604919
		c1.7494812,0,3.1166077-0.3025513,4.1040649-0.9070435c0.986145-0.6051025,1.479187-1.460083,1.479187-2.5648499
		c0-0.3816833-0.0593262-0.7264099-0.1779785-1.0355835c-0.1186523-0.3091431-0.3032227-0.6677551-0.5523682-1.0751038
		c-0.5392151-0.9070435-0.8872681-1.9722748-1.0454712-3.1957092c-1.7362671,0.789032-3.0809937,1.460083-4.0341797,2.0124817
		c-0.953186,0.5523682-1.7521057,1.0652161-2.3967896,1.5385132c-1.5385132-0.9076843-2.6828613-2.0810242-3.4316711-3.5213318
		c-0.7501526-1.4403076-1.1245728-3.1660461-1.1245728-5.1785278c0-0.880661,0.0461426-1.6993561,0.1371155-2.4554443
		c0.0922852-0.756073,0.2241211-1.4468994,0.3955078-2.0717926c0.1700745-0.6242523,0.4007874-1.1832275,0.6895142-1.6763
		c0.2900391-0.4930573,0.6288452-0.9300995,1.016449-1.3117676s0.7791443-0.7033386,1.1733398-0.9670105l1.4989624-0.946579
		c0.4746094-0.2893829,0.9241638-0.6051331,1.3513184-0.9472504c0.4271545-0.3414459,0.7923279-0.7494812,1.0955505-1.2227783
		c0.8806763,0.8549652,2.1133423,1.6341095,3.697998,2.3374481c1.5846863,0.70401,3.1535339,1.1674194,4.7052307,1.3908691v1.085022
		c-0.4996643,0.1318359-0.8582458,0.2827759-1.0744629,0.4535065c-0.2175293,0.1713867-0.3717651,0.4014435-0.4640503,0.6908264
		s-0.1384277,0.7297058-0.1384277,1.3216553v7.4764099c0,0.3816681,0.030304,0.7363129,0.0896301,1.0652313
		c0.0580139,0.3289337,0.1437073,0.6440277,0.2557678,0.9465942c0.1120605,0.3025513,0.2926941,0.6842194,0.5431824,1.1443329
		c0.2623291,0.4864655,0.4429626,0.8417816,0.5418396,1.0652313s0.180603,0.4864807,0.246521,0.789032
		c0.065918,0.3025818,0.098877,0.6374207,0.098877,1.0059204c0,1.1838684-0.3295898,2.2517395-0.9861145,3.2055969
		c-0.6578674,0.9531555-1.6479492,1.7092285-2.9689636,2.2688904c-1.3222961,0.5583191-2.9227905,0.8377991-4.8041077,0.8377991
		c-1.1825562,0-2.2359314-0.0982056-3.1561279-0.2952881c-0.9202271-0.1977539-1.6374207-0.4607849-2.1502686-0.7897034
		c-0.5128174-0.3282776-0.8806458-0.690155-1.1047668-1.0843506c-0.2228088-0.3948669-0.3348694-0.8417664-0.3348694-1.3414307
		c0-0.1713867,0.0395508-0.3849792,0.1186523-0.6413879s0.216217-0.5161438,0.4139709-0.7791443H440.7134705z
		 M447.9130249,243.4082031c-0.2359924-0.3684845-0.627533-0.7204895-1.1733398-1.0553436
		c-0.5458069-0.3355255-1.2458496-0.6809387-2.1014709-1.0355682c-0.4337463-0.1707306-0.8213196-0.3421173-1.164093-0.5128479
		c-0.8938599,0.4073792-1.5675354,0.9037323-2.0210571,1.48909c-0.4535217,0.5853424-0.7791443,1.3612061-0.9768982,2.3275604
		c-0.1977539,0.9670105-0.2953186,2.2590027-0.2953186,3.8766327c0,1.8674622,0.2913513,3.3433685,0.876709,4.4283752
		s1.4040527,1.6275177,2.4561157,1.6275177c0.355957,0,0.917572-0.1674347,1.6875-0.5029602
		c0.7685852-0.3355255,1.6729736-0.7923279,2.711853-1.3710938V243.4082031z"/>
	<path class="st0" d="M458.6049194,238.7128601c0-0.7620087-0.0237427-1.4033813-0.0685425-1.922821
		c-0.0474854-0.5194397-0.1226196-0.9604187-0.2280884-1.3216553c-0.1041565-0.3618927-0.2294006-0.6611633-0.3744202-0.8977966
		c-0.1450195-0.2366486-0.315094-0.4337463-0.5128479-0.5919495c-0.1977539-0.157547-0.4073486-0.3025665-0.6314697-0.4337463
		l-0.8477173-0.4732819v-1.302536c0.3678284,0.1713867,0.8582458,0.3256226,1.4699707,0.4640503
		c0.6104126,0.1377716,1.1074219,0.2069855,1.4884338,0.2069855c0.671051,0,1.3051758-0.0889893,1.903717-0.2663116
		c0.5985107-0.1773071,1.1746521-0.3777008,1.7270508-0.6018219c1.0375366-0.4205627,1.725708-0.6769867,2.0605774-0.7692719
		c0.3361816-0.0916138,0.6802673-0.1509399,1.0362244-0.1773071v1.4000854
		c-1.4079895,0.2504883-2.4165344,0.7270813-3.0282593,1.4304199c-0.6117249,0.70401-0.917572,1.8509827-0.917572,3.4422455
		v4.2411652c1.1443176-0.4073792,2.3572083-0.9136353,3.6399841-1.5187531
		c1.2814331-0.6044769,2.2715454-1.1443329,2.9689331-1.61763c0.9465942,0.7099304,1.6400452,1.2919922,2.0803833,1.7455139
		c0.4403381,0.4541626,0.8160706,0.9373474,1.1245728,1.4501953c0.3084717,0.5128326,0.5747986,1.1179657,0.7989197,1.8147125
		c0.2241211,0.6974182,0.4007874,1.5681915,0.5326233,2.6136475c0.1318359,1.0461273,0.1977539,2.3447113,0.1977539,3.8964081
		c0,3.3796234-0.7198486,6.374939-2.1607971,8.9852905c-1.4396667,2.6103516-3.6254883,4.9543762-6.5588379,7.0327759
		l-1.3210144-1.26297c1.2748718-0.8806763,2.3400879-1.775177,3.1957092-2.6822205
		c0.8543091-0.9076843,1.5385437-1.8641663,2.0513611-2.8707275c0.5128479-1.0058899,0.8872681-2.1231995,1.1245728-3.353241
		c0.2359924-1.2293701,0.3546448-2.7388916,0.3546448-4.5272522c0-3.1693268-0.3322449-5.4942627-0.9966736-6.9734497
		c-0.663147-1.4792023-1.7191467-2.2194672-3.1654053-2.2194672c-0.4073486,0-0.9439392,0.1021729-1.6083984,0.3058624
		c-0.6631165,0.2043457-1.4172363,0.5161438-2.2583313,0.9373474v11.1454163
		c0.1713867,0.1839142,0.3585815,0.3585968,0.5629272,0.5227356c0.2030334,0.1647949,0.6604919,0.5029449,1.3710938,1.0157928
		l1.4989929-0.6506195l0.6697083,0.9465942c-0.2623596,0.1713867-0.5589905,0.3552856-0.8872375,0.5523987
		c-0.7883911,0.4468994-1.4106445,0.8252869-1.8641663,1.1344299c-0.4535217,0.3085022-0.8252869,0.6077576-1.1140137,0.8971558
		c-1.3157349-1.5780945-2.9267578-2.5114746-4.8330994-2.8008575v-1.0059052
		c0.5391846-0.1054688,0.9267883-0.3421173,1.164093-0.7106018c0.2359924-0.3678284,0.3546448-0.9202118,0.3546448-1.6571808
		V238.7128601z"/>
	<path class="st0" d="M475.9255371,238.9692841h0.1964111c0.9597778,0,1.7455139-0.1773224,2.3572388-0.532608
		c0.6117249-0.3546448,1.1047974-0.8872681,1.4805298-1.5978546c0.3743896-0.7099457,0.6565247-1.61763,0.8476868-2.721756
		c0.1898499-1.1047821,0.2992859-2.4330292,0.3256531-3.9847412h1.578064v8.5218811h4.399353v2.0315857h-4.399353v13.1183319
		c0.4073792,0.3421173,0.8081665,0.6249084,1.2036743,0.8483734c0.394165,0.2234497,0.6499329,0.3348541,0.7685852,0.3348541
		c0.2241211,0,0.5853577-0.1048126,1.085022-0.3150787c0.4996643-0.2102814,1.0454407-0.4996643,1.6373901-0.8681488v1.7949524
		c-0.6315002,0.3025665-1.4066772,0.7429047-2.3282166,1.32164c-0.9202271,0.5787659-1.6703491,1.0982056-2.2478027,1.5583191
		c-1.6057739-1.6176453-3.2484436-2.5708008-4.9319763-2.8601837v-0.927475
		c0.5919495-0.1443481,1.0283203-0.3809967,1.3117676-0.7099304c0.282135-0.3282776,0.4244995-0.7626648,0.4244995-1.3018799
		V240.685791h-3.7085266V238.9692841z"/>
	<path class="st0" d="M504.2913513,240.7055664v2.9590607c0,2.9063263-0.101532,6.3254852-0.3058777,10.2574921
		s-0.5220642,7.5555115-0.9571228,10.869873h-1.4989624c-0.4996643-10.165863-0.7488403-17.3199463-0.7488403-21.4628906v-2.6235352
		h-3.3143616v-1.7362823c0.6183167-0.0257111,1.1206055-0.124588,1.5082092-0.2953033
		c0.388916-0.1713867,0.6776428-0.4245148,0.8688049-0.7600403c0.1898499-0.3348694,0.2860718-0.8839569,0.2860718-1.646637
		c0-0.2102661-0.0105286-0.4146118-0.030304-0.6117096s-0.0619812-0.6117249-0.1278992-1.2432098l-0.1186523-0.9268188
		c-0.0395508-0.3025513-0.0593262-0.5853424-0.0593262-0.8483582c0-0.9597626,0.2900391-1.7257385,0.8688049-2.2978973
		c0.5787659-0.5721741,1.2814636-0.8582611,2.1106873-0.8582611c0.3941956,0,0.7752075,0.0692139,1.1443481,0.2069855
		c0.3678284,0.1384277,0.6895142,0.3058624,0.9663696,0.5029602c0.2623291,0.1582031,0.5220642,0.2992706,0.7791443,0.4245148
		c0.2557678,0.1252441,0.4891052,0.1871948,0.7000427,0.1871948c0.3164062,0,0.5431519-0.1015015,0.6802673-0.3058472
		c0.1384277-0.2036896,0.2070007-0.476593,0.2070007-0.8187103c0-0.157547-0.0131836-0.3216705-0.0382385-0.4930573h1.3209839
		c0.0527344,0.3948364,0.0791016,0.6776276,0.0791016,0.8483582c0,1.1047821-0.2399292,1.9729309-0.7198181,2.6037598
		c-0.4812012,0.6315002-1.1351013,0.9472351-1.9630432,0.9472351c-0.3678284,0-0.7237854-0.065918-1.0652161-0.1977539
		c-0.3427734-0.1311646-0.6512756-0.3084869-0.9268188-0.532608c-0.2636719-0.1970978-0.5101929-0.3579407-0.7395935-0.4831848
		c-0.2307129-0.124588-0.4508972-0.1872101-0.6618347-0.1872101c-0.2886963,0-0.5128174,0.1120605-0.6697083,0.3355255
		c-0.1582031,0.223465-0.2373047,0.5128479-0.2373047,0.8674774c0,1.1838989,0.2570801,2.1963959,0.769928,3.0381622
		c0.5128174,0.8417816,1.2023315,1.4693146,2.0711365,1.8839417c0.8674622,0.4139557,1.8338318,0.6215973,2.8990784,0.6215973
		h0.6116943v1.775177H504.2913513z"/>
	<path class="st0" d="M512.3201294,240.5473633c1.7626953-0.1839142,3.3078003-0.5029602,4.635376-0.9564667
		c1.3289185-0.4535217,2.6103516-1.0619354,3.8469849-1.8246155c1.0125122,0.5787659,1.7652588,1.0718231,2.2583618,1.4792023
		c0.4943848,0.4080353,0.9346924,0.8780212,1.3222656,1.4106445c0.3876343,0.5326233,0.7198486,1.1608124,0.9967041,1.8839417
		c0.2755127,0.723114,0.4957275,1.6242065,0.6605225,2.7026367c0.1634521,1.0784149,0.246521,2.3473358,0.246521,3.8074188
		c0,1.1436768-0.1516113,2.1436462-0.4535522,2.9979401c-0.3032227,0.8549652-0.7303467,1.5780792-1.2827148,2.1700287
		c-0.5524292,0.5919342-1.2695923,1.1641083-2.1502686,1.716507c-1.0652466,0.6703796-1.791626,1.1673889-2.1792603,1.4890747
		c-0.388916,0.3223572-0.6934204,0.6479797-0.9175415,0.9768982c-1.2498169-0.7633057-2.6960449-1.4436035-4.3400879-2.0421143
		c-1.6439819-0.5978851-3.09021-0.9696655-4.3400269-1.1146851v-1.0454559
		c0.5787659-0.091629,1.0059204-0.2663116,1.2827759-0.5227356c0.2755127-0.256424,0.4139404-0.6341248,0.4139404-1.1344452
		V240.5473633z M515.3972168,253.2715149c0.3823242,0.3157349,0.8845825,0.6380768,1.5095215,0.9663544
		c0.6248779,0.3289337,1.6466064,0.7626648,3.0678101,1.3018799c0.9070435-0.5523987,1.5543213-1.0817108,1.9432373-1.5879669
		c0.3876343-0.5062561,0.6763306-1.0915985,0.8674927-1.7554016c0.1898804-0.6637878,0.2860718-1.4699707,0.2860718-2.4165497
		c0-3.1429596-0.3480225-5.418457-1.0454102-6.8258057c-0.6974487-1.4066925-1.8286133-2.1106873-3.3934937-2.1106873
		c-0.4337158,0-0.9927368,0.1120605-1.6769409,0.3355255c-0.6829224,0.2241211-1.2023315,0.4607544-1.5582886,0.7099304V253.2715149
		z"/>
	<path class="st0" d="M535.9332886,253.2517395c0,0.1311646,0.0593262,0.2728882,0.1766357,0.4238434
		c0.1186523,0.1516113,0.3322754,0.319046,0.6420898,0.5029602c0.3084717,0.1845703,0.6143188,0.3289337,0.9162598,0.4344025
		c0.3032227,0.1054688,0.5062256,0.1575317,0.6116943,0.1575317c0.1582031,0,0.4904175-0.1278687,0.9967041-0.3842926
		c0.5062256-0.256424,1.0415039-0.5820618,1.6070557-0.9769135l0.6710205,1.5385284
		c-0.3018799,0.1977539-0.6710205,0.4278107-1.1047363,0.6908264c-1.9459229,1.1575165-3.2352905,2.0777435-3.8654785,2.7619476
		c-1.3947754-0.9736023-2.5878906-1.6802368-3.5806274-2.1212158c-0.9940796-0.4403381-1.8773804-0.7264252-2.6538696-0.857605
		v-0.8879089c0.6446533-0.1048126,1.1443481-0.2663116,1.4989624-0.4831848
		c0.355957-0.2168732,0.6051636-0.5062561,0.7501831-0.8681335c0.1450195-0.3612366,0.2175293-0.8648529,0.2175293-1.5088654
		v-6.2140961c0-1.1568604-0.1911621-2.120575-0.5722046-2.8898315c-0.3823242-0.7692719-0.8885498-1.1542358-1.5200806-1.1542358
		c-0.1568604,0-0.3743896,0.0626221-0.6499023,0.1878662c-0.2768555,0.124588-0.6513062,0.3183899-1.1245728,0.5814056v-1.4396515
		c0.7883911-0.5128479,1.4000854-0.9472351,1.8338013-1.3018799c0.4350586-0.3553009,0.9927368-0.8483582,1.677002-1.4798584
		c0.7237549,0.5003204,1.2497559,0.9076843,1.578064,1.2234344c0.3295898,0.315094,0.6090698,0.6802826,0.8384399,1.0942383
		c0.2307129,0.4146271,0.4838867,1.121933,0.7593994,2.1212463c0.2768555-0.5787659,0.5958862-1.0883026,0.9571533-1.5292969
		c0.3612061-0.4403381,0.7751465-0.8509979,1.2431641-1.232666c0.4667358-0.3816681,1.2722168-0.9663544,2.4165649-1.7560577
		l3.0770874,3.4527893l-2.564209,2.564209l-2.1304932-2.6828613c-1.8021851,1.4337158-2.7026367,3.767868-2.7026367,7.0031128
		V253.2517395z"/>
	<path class="st0" d="M543.3306274,241.4550476l1.5385132-0.9861298c0.4864502-0.3289337,0.9202271-0.6248932,1.3012085-0.8879089
		c0.3823242-0.2630157,0.7171631-0.5128479,1.0072021-0.7494965c0.2887573-0.2366333,0.56427-0.4732819,0.8279419-0.7099304
		c0.7501831,0.3941956,1.3275757,0.9043884,1.7362671,1.5286407c0.4074097,0.6248932,0.6763306,1.5615997,0.8081665,2.8107452
		l2.5839844-1.2623291c0.8292847-0.4073792,1.5516968-0.7857513,2.1700439-1.1344604
		c0.6182861-0.3480377,1.1509399-0.6769714,1.5978394-0.9861298s0.8621826-0.627533,1.2432251-0.9564667
		c0.7501221,0.5523987,1.2788086,1.009201,1.5872803,1.3704376c0.3098145,0.3618927,0.5431519,0.7666168,0.701355,1.2135468
		c0.1569214,0.4469299,0.2426147,1.0322723,0.2557983,1.7554016l2.1304321-0.9268188
		c0.6710815-0.3025513,1.3223267-0.6084137,1.9538574-0.917572c0.630127-0.3085022,1.2221069-0.6176453,1.7744751-0.9268036
		c0.5524292-0.3091583,1.0098877-0.5886536,1.3710938-0.8384857c0.3612671-0.2498169,0.7000732-0.5062408,1.0164795-0.7692566
		c1.3275757,1.5912628,2.6894531,2.6169434,4.0829468,3.0770569v1.0256805
		c-0.5523682,0.0270233-0.9703369,0.1219482-1.2524414,0.286087c-0.2834473,0.1647949-0.4904175,0.4014282-0.6209717,0.7105865
		c-0.1318359,0.3091583-0.1977539,0.8253021-0.1977539,1.5484161v6.9833527c0,1.2491455,0.1147461,2.1436462,0.345459,2.6828613
		c0.2293701,0.5391998,0.640686,0.8088074,1.232666,0.8088074c0.3150635,0,0.6209106-0.0560303,0.9175415-0.1680908
		c0.2953491-0.1114044,0.5682373-0.2267609,0.8187256-0.3454132v1.4007568
		c-0.2504883,0.1582031-0.5326538,0.3223572-0.8490601,0.4930725l-0.9663086,0.5326233
		c-0.4074097,0.2241211-0.7883911,0.440979-1.1443481,0.6512756c-0.3546753,0.2102661-0.6842651,0.4205322-0.986145,0.6314697
		c-0.8279419-0.3552856-1.4528198-0.950531-1.8734131-1.7857056c-0.421875-0.8345184-0.6314697-1.988739-0.6314697-3.4620056
		v-9.0742798c0-0.3941803-0.1120605-0.7626648-0.3361816-1.1047821c-0.2227783-0.3414459-0.4732666-0.6044617-0.7488403-0.789032
		c-0.2768555-0.1839142-0.5062256-0.2761993-0.6907959-0.2761993c-0.1713867,0-0.5616455,0.1318359-1.1733398,0.3948517
		c-0.6117554,0.2630157-1.9894409,0.9208679-4.1330566,1.9729156v13.1967773h-3.1364136v-11.5402527
		c0-1.4330597-0.1344604-2.4818115-0.4047241-3.1462708c-0.2689209-0.6637878-0.7000122-0.9960175-1.2919922-0.9960175
		c-0.2886963,0-0.772522,0.1509552-1.4501953,0.4535217c-0.6763306,0.3025665-1.9893799,0.9801941-3.9353027,2.0322418v13.1967773
		h-3.1363525v-12.9799042c0-0.9340515-0.1120605-1.61763-0.3348999-2.0520172
		c-0.2241211-0.4337463-0.55896-0.6506195-1.0058594-0.6506195c-0.5787964,0-1.2564087,0.3091583-2.032959,0.9268036
		L543.3306274,241.4550476z"/>
	<path class="st0" d="M594.0281372,256.1316833c-1.578125,0.8022156-2.8937988,1.5846863-3.9458618,2.3473511
		c-0.9465942-0.6308289-1.5754395-1.1766357-1.8839722-1.6374207c-0.3084717-0.460083-0.4627075-0.9663391-0.4627075-1.5187378
		c-2.3150635,1.0784302-3.8443604,1.8147278-4.5866089,2.2095642c-0.7435303,0.3941956-1.2471313,0.6967468-1.5095215,0.9070435
		c-1.1970215-0.7362976-2.0842896-1.4924011-2.6630859-2.2682495c-0.5787354-0.7758484-0.9926758-1.6934204-1.2431641-2.7520752
		c-0.2492065-1.0586395-0.3744507-2.4033661-0.3744507-4.0341797c0-2.0909119,0.1871948-3.7184296,0.5616455-4.8818817
		c0.3757324-1.1641083,0.9412842-2.1172791,1.6967163-2.8608398c0.7567139-0.7428894,1.7322998-1.4693146,2.9293823-2.179245
		c0.5392456-0.3157501,0.9769287-0.6051331,1.3117676-0.8681335c0.3361816-0.2630157,0.6341553-0.5523987,0.8978271-0.8681488
		c1.117981,0.7890472,2.383606,1.4864502,3.7981567,2.0909271c1.4133301,0.6051178,2.6789551,0.9999695,3.796875,1.1838837
		v1.0256805c-0.4732666,0.065918-0.8358154,0.3421173-1.0849609,0.8285828
		c-0.2504883,0.4864807-0.3744507,1.1113892-0.3744507,1.874054v7.7723846c0,0.9070282,0.1239624,1.5879669,0.3744507,2.0414886
		c0.2491455,0.4535065,0.6776123,0.6802673,1.2827148,0.6802673c0.2096558,0,0.4364014-0.0520782,0.6802979-0.157547
		c0.2425537-0.1048126,0.5089111-0.2498322,0.7989502-0.4337311V256.1316833z M587.7355957,243.0529022
		c-0.2768555-0.2893829-0.7738647-0.631485-1.4897461-1.0256805c-0.7172241-0.3948517-1.6018066-0.7824402-2.6538696-1.1641083
		c-0.7092896,0.4080353-1.2616577,0.9241638-1.6571655,1.5484161c-0.3942261,0.6248932-0.6895142,1.4403076-0.8872681,2.4462128
		c-0.1977539,1.0065613-0.2952881,2.2919617-0.2952881,3.8568573c0,2.0513611,0.2979126,3.6096649,0.8964844,4.6748962
		c0.5985107,1.0652466,1.3710938,1.5978546,2.3189697,1.5978546c0.394165,0,0.9729614-0.157547,1.7349854-0.4732819
		c0.7633057-0.3157501,1.440918-0.6703949,2.0328979-1.0652466V243.0529022z"/>
	<path class="st0" d="M595.447998,238.9692841h0.1977539c0.9597778,0,1.7454834-0.1773224,2.3572388-0.532608
		c0.6116943-0.3546448,1.1047363-0.8872681,1.479187-1.5978546c0.3743896-0.7099457,0.6565552-1.61763,0.848999-2.721756
		c0.1898804-1.1047821,0.2979736-2.4330292,0.3243408-3.9847412h1.5794067v8.5218811h4.3980103v2.0315857h-4.3980103v13.1183319
		c0.4060059,0.3421173,0.8094482,0.6249084,1.2023315,0.8483734c0.3955078,0.2234497,0.6512451,0.3348541,0.7698975,0.3348541
		c0.2241211,0,0.5853882-0.1048126,1.0836792-0.3150787c0.5009766-0.2102814,1.046814-0.4996643,1.6374512-0.8681488v1.7949524
		c-0.630188,0.3025665-1.4053955,0.7429047-2.3256226,1.32164c-0.9228516,0.5787659-1.6716919,1.0982056-2.2490845,1.5583191
		c-1.6057739-1.6176453-3.2484741-2.5708008-4.9333496-2.8601837v-0.927475
		c0.5932617-0.1443481,1.0310059-0.3809967,1.3131104-0.7099304c0.2821045-0.3282776,0.4244995-0.7626648,0.4244995-1.3018799
		V240.685791h-3.7098389V238.9692841z"/>
</g>
<path class="st0" d="M327.5193787,271.3027954v0.2845154l0.5747986,0.8531799c-2.946106,0-5.2456055,0.568512-6.8983154,1.7058105
	c-1.4371948,1.9904175-3.2578125,2.9857178-5.4612122,2.9857178c-3.0662842,0-4.598999-0.6159058-4.598999-1.8480225
	c0.09552-0.2368774,1.2452087-0.7111816,3.4492188-1.4220886l-4.8862915-1.7059937v0.1424866l-0.1437073,0.1420898v1.7058105
	l-0.1437988,1.7061157c0.9100037,1.3269958,3.0657959,1.9901733,6.4672852,1.9901733
	c2.8260193,0,4.7903137-0.5206909,5.892395-1.5639954c1.3411255-1.990387,3.640625-2.9853821,6.8983154-2.9853821
	c0.4311829,0,1.0061035,0.8530884,1.7246094,2.5592041v0.1422729l-0.8623047-0.7106934l-0.5749207,0.5684204
	c-0.934082,0.9007874-2.6109924,1.5639038-5.0299988,1.9901733v0.2844238c1.8200073,0,3.6884155,0.8051758,5.6049194,2.4172974
	h0.287384c0.047821-0.3796082,0.1914978-0.5688171,0.4312134-0.5688171l-1.2935181,2.7008972
	c-3.2817993,0-5.4852905-0.805603-6.6109009-2.416687c-1.0059814-1.4216919-3.1616821-2.1326904-6.4671936-2.1326904
	c-3.6412048,0-5.7969055,0.7109985-6.4672852,2.1326904l0.1437988,1.5635986v1.8486938
	c0.4310913,0,2.1073914-0.4743958,5.0299988-1.4216919v-0.1425171c-2.20401-0.7582703-3.3536987-1.2320862-3.4492188-1.4217834
	c0-1.2319031,1.4849243-1.8479919,4.4553223-1.8479919c1.5567017,0,2.8023987,0.3314819,3.7366028,0.9949951
	c1.6763,2.464386,4.598877,3.6966858,8.7666016,3.6966858v0.1423035l-0.5747986,0.7108154
	c0.8381958,0.5444946,5.0536804,2.3928833,12.6470947,5.5447998h0.1436768v-0.142395l-0.2874756-0.4263306
	c-3.4013977-4.1942749-5.7008972-7.7965698-6.898407-10.8052979c0.7663879-0.2844849,1.4848938-0.4265747,2.1557922-0.4265747
	v-0.2844238l-2.2994995-0.5683899c0.742218-2.2749939,3.1853943-6.0184937,7.3295898-11.2315063v-0.1423035L327.5193787,271.3027954
	z M342.0347595,266.0426941c4.1436157,5.2130127,6.586792,8.9565125,7.3294983,11.2315063l-2.2994995,0.5683899v0.2844238
	c0.6703186,0,1.388916,0.1420898,2.1557922,0.4265747l-0.2874756,0.4263306
	c-0.9105225,2.5823975-3.210022,6.1846924-6.8983154,10.8052979v0.142395
	c7.7842102-3.1758118,12.0480042-5.0241089,12.7907104-5.5447998l-0.5747986-0.7108154v-0.1423035
	c3.0180054,0,5.3652039-0.616394,7.0420837-1.8480835c1.3652039-1.8963013,3.1376038-2.8435974,5.3174133-2.8435974
	c3.0657959,0,4.598999,0.6160889,4.598999,1.8479919c-0.0960083,0.1896973-1.2458191,0.6635132-3.4492188,1.4217834
	c0,0.213501,1.6286011,0.734314,4.8864136,1.564209h0.1437073v-1.8486938l0.1437073-1.7056885
	c-0.8865051-1.327301-3.0422058-1.9906006-6.4673157-1.9906006c-2.6109924,0-4.5752869,0.473877-5.8923035,1.4217834
	c-1.2215881,2.0848999-3.569397,3.127594-7.0420837,3.127594c-0.2156067-0.0470886-0.6950073-0.9003906-1.4372253-2.5587769
	v-0.1421204c0.2874146,0,0.4312134,0.189209,0.4312134,0.5688171h0.2874146
	c1.9159851-1.6121216,3.7842712-2.4172974,5.6048889-2.4172974v-0.2844238h-0.1437073l-0.1437073-0.1420898
	c-1.7728882,0-3.5451965-0.8052063-5.3174744-2.4165039l-0.8623047,0.7106934
	c0.287384-0.9475708,0.7662964-1.8483887,1.4371948-2.7014771c2.6103821,0,4.5270081,0.4744873,5.7485962,1.4216919
	c1.3169861,2.0852051,3.6647949,3.1276855,7.0421143,3.1276855c3.8561707,0,6.1079712-0.7105713,6.7546997-2.1324768
	l-0.1437073-1.5638123v-1.8479004l-0.1437073-0.1424866l-4.8864136,1.5637817v0.1422119
	c2.2033997,0.710907,3.3532104,1.1852112,3.4492188,1.4220886c0,1.2321167-1.4855042,1.8480225-4.4552002,1.8480225
	c-1.7488098,0-2.9945068-0.3788147-3.7366028-1.1373291c-1.7728882-2.3690796-4.6950073-3.5541992-8.7666931-3.5541992
	l0.5747986-0.8531799v-0.2845154l-12.6470032-5.4024048h-0.1437073V266.0426941z M333.9865723,272.0137939l-1.8683167,4.4073181
	h-0.287384l-1.4371948-3.4121094l1.5808716-2.5593872L333.9865723,272.0137939z M351.9511719,273.0090027l-1.4371948,3.4121094
	h-0.2874146l-1.8682861-4.2651978l1.8682861-1.7062988C350.3938599,270.4735107,350.96875,271.3265991,351.9511719,273.0090027
	L351.9511719,273.0090027z M293.3148804,274.1463013v0.28479l5.6049805,0.7104187v0.1424866
	c-4.5513,0.5684204-8.8150024,0.8527222-12.790802,0.8527222c-2.1557922-1.3268127-4.6949158-1.9904175-7.6169739-1.9904175
	c-6.5632324,0-10.395813,0.9483032-11.4973145,2.8434143L64.5632706,277.132019l-0.2873993-0.2846069v-0.1417236
	c0-0.1895752,0.5264969-0.4270935,1.5808029-0.7109985v-0.1422729c0-0.1656189-0.7667999-0.4028015-2.2994003-0.710907
	l-0.2875023,1.7059021l0.2875023,0.4267883l-8.6230011-1.1374817l-0.2875023,0.2843933v1.2793884l-0.4310989-0.1420898
	c-1.5331993-0.1653137-3.0181007-0.9238892-4.4552002-2.2744141c-0.9583015,1.1849976-2.8743019,2.0379028-5.7486,2.5585938
	v0.2844238l1.1497002,0.1420898c2.8743019,0.8294067,4.3115005,1.5874023,4.3115005,2.2752075h0.2873993
	c1.8199997-1.5169067,3.400898-2.2752075,4.7425995-2.2752075h0.1436996v1.4219971l0.1438026,0.1419067l8.6229973-1.1375122
	h0.1437035l-0.2875023,0.5692139l0.2875023,1.5636902c1.5326004-0.2611084,2.2994003-0.4978027,2.2994003-0.7107849v-0.1421204
	c-1.054306-0.2612915-1.5808029-0.497406-1.5808029-0.7107849v-0.28479l0.1436996-0.1419067l202.4514923,0.1419067
	c1.293396,1.8957825,5.1255188,2.8433838,11.4972839,2.8433838c3.2095337,0,5.7487183-0.663208,7.6170044-1.9902954
	c6.3235168,0.1896057,10.6350098,0.473999,12.9345093,0.8529968v0.142395l-5.6049805,0.710907v0.2839966l8.7666931,1.8486938
	l0.287384-0.2846069v-2.1326904l5.4613037,0.7109985l0.2874146-0.2840881v-3.2701111l-0.1437073-0.142395l-7.0421143,0.853302
	c-2.9461975-0.6639099-6.0602112-0.9953918-9.3415833-0.9953918h-1.4371948c-2.7789307,0-4.838623,0.2844849-6.1798096,0.8529053
	l-17.9645081-0.8529053v-0.1419067c0-0.2133179,5.9878235-0.5448914,17.9645081-0.9953918
	c1.3411865,0.5686951,3.4008789,0.8528748,6.1798096,0.8528748h1.2934875c3.5210876,0,6.5868225-0.3314819,9.1978149-0.9951782
	l7.1858826,0.8530884l0.2874146-0.2841797v-3.2700195l-0.1437073-0.1423035l-5.605011,0.710907v-2.2744141l-0.1437073-0.1420898
	L293.3148804,274.1463013z M379.9758606,272.5823975v2.1325073l-5.605011-0.710907v0.1423035l-0.1436768,0.1419067v3.2702026
	l0.1436768,0.1420898l7.0421143-0.8530884c3.041687,0.6636963,6.2034912,0.9951782,9.4852905,0.9951782h1.2935181
	c2.7782898,0,4.8381042-0.2841797,6.1797791-0.8528748l1.4371033,0.1423035
	c11.0179138,0.2610779,16.5274048,0.5926819,16.5274048,0.9949951l-17.9645081,0.8529053
	c-1.3416748-0.5684204-3.4014893-0.8529053-6.1797791-0.8529053h-1.4372253c-3.4255981,0-6.491272,0.3314819-9.1977844,0.9953918
	l-7.0421143-0.853302l-0.2874756,0.2844849v3.2697144l0.1436768,0.142395l5.605011-0.7109985v2.2749939l0.1437073,0.1423035
	l8.9104004-1.8486938v-0.2839966l-5.6049194-0.710907v-0.142395c2.299408-0.3789978,6.6109009-0.6633911,12.9345093-0.8529968
	c1.8919067,1.3270874,4.3833008,1.9902954,7.4732056,1.9902954c5.7963867,0,9.4370117-0.7106934,10.9224854-2.1322021
	c0-0.5686951,205.3759766-0.8530884,208.5378418-0.8530884c0.2873535,0,0.4310303,0.0941772,0.4310303,0.2843933v0.1423035
	c0,0.2133789-0.5270996,0.4494934-1.5808105,0.7107849v0.1421204c0,0.1893921,0.7185059,0.4266968,2.1556396,0.7107849
	c0.1915283,0,0.3352051-0.5686951,0.4311523-1.7059937l-0.2873535-0.4269104l8.7667236,1.1375122v-0.1419067l0.1436768-0.1423035
	v-1.2796936h0.1436768c1.3411865,0,2.9221191,0.7583008,4.7426758,2.2752075h0.2874756l0.1436768-0.4266968
	c1.9637451-1.327301,3.7365723-1.9906006,5.3175049-1.9906006v-0.2844238
	c-2.8742676-0.5206909-4.7908936-1.3735962-5.7486572-2.5585938c-1.8682861,1.6112976-3.4974365,2.4165039-4.8863525,2.4165039
	v-1.4219055l-0.1436768-0.1418762l-8.6230469,1.1374817h-0.1436768l0.2873535-0.568512l-0.2873535-1.5641785
	c-1.5330811,0.3081055-2.2994385,0.5452881-2.2994385,0.710907v0.1422729
	c1.0537109,0.283905,1.5808105,0.5214233,1.5808105,0.7109985v0.1417236l-0.2874756,0.2846069l-207.9628906-0.1423035h-0.1437073
	c-1.1496887-1.8951111-4.9346008-2.8434143-11.3535767-2.8434143c-3.1859131,0-5.7250061,0.6636047-7.6169128,1.9904175
	c-4.0960083,0-8.4075012-0.2843018-12.9345093-0.8527222V275.14151l5.4612122-0.7104187h0.1437073v-0.28479l-8.6230164-1.8479004
	C380.1195679,272.2984009,379.9758606,272.3931885,379.9758606,272.5823975L379.9758606,272.5823975z M269.1704712,276.5632019
	c0.8381958-1.1374817,3.4251099-1.7059937,7.7606812-1.7059937h1.006012c2.1316223,0,3.6647949,0.4747009,4.598999,1.4213867
	l-13.5093994,0.5688171h-0.1437073L269.1704712,276.5632019z M404.4076538,274.8572083h1.5808105
	c4.047699,0,6.5391846,0.6634827,7.4732971,1.9902039l-13.6531067-0.5688171
	C400.7428589,275.3319092,402.2754517,274.8572083,404.4076538,274.8572083L404.4076538,274.8572083z M297.7700806,276.4211121
	h0.1436768v0.1420898c-1.7728882,0.3792114-4.1199951,0.6162109-7.0421143,0.7109985l-3.1616821-0.2844849v-0.1423035
	L297.7700806,276.4211121z M384.7184753,276.4211121l9.9164734,0.4263v0.1423035l-3.1617737,0.2844849
	c-2.9226074-0.0947876-5.2698059-0.3317871-7.0421143-0.7109985v-0.1420898H384.7184753z M290.8716431,278.6954956
	c2.9698181,0.0948181,5.317627,0.3319092,7.0421143,0.7111206v0.1421814h-0.1436768l-10.0601196-0.4263916v-0.1424866
	L290.8716431,278.6954956z M391.473175,278.6954956l3.1617737,0.2844238v0.1424866l-10.0601807,0.4263916h-0.1437073v-0.1421814
	C386.1556702,279.0274048,388.5028687,278.7903137,391.473175,278.6954956L391.473175,278.6954956z M282.5361633,279.6911011
	c-0.9342041,0.9476013-2.4673767,1.4215088-4.598999,1.4215088h-1.58078c-4.0959167,0-6.5874023-0.6636963-7.4733276-1.9902039
	L282.5361633,279.6911011z M413.3180542,279.122406h0.1437073v0.1423035l-0.1437073,0.1419067
	c-1.0778809,1.1376953-3.6647949,1.7059937-7.7606812,1.7059937h-1.1497192c-2.1322021,0-3.6647949-0.4739075-4.598999-1.4215088
	L413.3180542,279.122406z M332.1182556,279.2647095l2.0121155,4.4072876l-2.0121155,1.848114l-1.8682861-2.7012024
	C331.3278503,280.4489136,331.95047,279.2647095,332.1182556,279.2647095L332.1182556,279.2647095z M352.0948486,282.8189087
	l-1.7245789,2.7012024l-2.0119934-1.7062073h-0.1437073l2.0119934-4.5491943
	C350.3938599,279.2647095,351.0169678,280.4489136,352.0948486,282.8189087L352.0948486,282.8189087z"/>
</svg>
