<?xml version="1.0" encoding="utf-8"?>
<!-- Generator: Adobe Illustrator 19.1.0, SVG Export Plug-In . SVG Version: 6.00 Build 0)  -->
<svg version="1.1" id="Layer_1" xmlns="http://www.w3.org/2000/svg" xmlns:xlink="http://www.w3.org/1999/xlink" x="0px" y="0px"
	 width="600px" height="70px" viewBox="44 222 600 70" style="enable-background:new 44 222 600 70;" xml:space="preserve">
<style type="text/css">
	.st0{fill:#C2B8AF;}
</style>
<g>
	<path class="st0" d="M135.2558746,232.6126251c3.5378113-1.4205322,5.9049225-2.5055389,7.102005-3.2550354
		c0.1443481,0.1450195,0.3941803,0.2926788,0.7494812,0.443634c0.3553009,0.1516113,0.7362976,0.286087,1.1443329,0.4047394
		c1.4989777,0.3941803,2.6433105,1.0454559,3.4323578,1.9524841c0.789032,0.9076843,1.1832275,1.9992981,1.1832275,3.2748108
		c0,0.9861298-0.1839142,1.8278961-0.5523987,2.5253143c-0.3678284,0.6967468-0.9762421,1.3743896-1.8246155,2.0315857
		c-0.8483582,0.6578674-2.1930847,1.4534912-4.0341797,2.3868866c1.1047974,0.4080353,1.9663391,0.9241791,2.5846558,1.5484161
		c0.6176453,0.6249084,1.0553436,1.4073486,1.3117676,2.3480072c0.2564087,0.9399872,0.3842926,2.1864929,0.3842926,3.7375488
		c0,0.7237701,0.0560303,1.331543,0.1680908,1.8252563c0.1114044,0.4930725,0.2590637,0.861557,0.443634,1.104126
		c0.1839142,0.2438965,0.3875885,0.4212189,0.6117096,0.5332794c0.223465,0.1114044,0.4996643,0.1674347,0.828598,0.1674347
		c0.2366486,0,0.5154724-0.0791016,0.8378143-0.2366486c0.3223419-0.1582031,0.6018372-0.3553009,0.8384705-0.5919342
		l0.9076996,1.5385132c-0.671051,0.4607697-1.8608704,1.2036743-3.5707855,2.2293396
		c-1.7230835,1.052063-2.7883301,1.7224426-3.195694,2.0118408c-0.894516-0.5260315-1.5615997-0.9828491-2.0019379-1.3710938
		c-0.440979-0.3876038-0.8160553-0.857605-1.1245575-1.4100037c-0.3091583-0.5523834-0.5457916-1.3216553-0.7099304-2.3084412
		c-0.1647949-0.9861298-0.2465363-2.307785-0.2465363-3.9649658c0-1.6044464-0.1977539-2.8404083-0.5919495-3.7085419
		c-0.3948364-0.8681488-0.9736023-1.3018799-1.7362671-1.3018799c-0.2366486,0-0.5392151,0.0560303-0.9070435,0.1674347
		c-0.3684692,0.1120605-0.7237701,0.2801514-1.0652313,0.5036011c0,1.6169739-0.032959,2.8239288-0.098877,3.6195679
		c-0.065918,0.7956238-0.1647949,1.4304199-0.2959747,1.9037018c-0.1318359,0.4732971-0.3058472,0.8912201-0.5227203,1.2524414
		c-0.2168732,0.3618927-0.5655823,0.795639-1.0454559,1.3018799c-0.4798889,0.5062561-1.0125122,0.9769135-1.5978546,1.4106445
		c-0.5853577,0.4337463-1.2267303,0.8681488-1.9234924,1.3018799l-1.9135895,1.2227936
		c-0.6703949,0.4468994-1.3414383,0.9406433-2.0118256,1.4798584l-3.2550278-3.1363831l-1.6571732,1.2227783l-1.0256882-1.4396515
		l5.5239258-4.1824951l3.1166,3.3341217c0.5781097-0.2761841,0.8681488-0.9399872,0.8681488-1.992691v-15.5836639
		c0-1.1970825-0.0665894-2.160141-0.1977539-2.8905029c-0.1311798-0.7297211-0.3941956-1.3144073-0.7890472-1.7554016
		c-0.3941803-0.4403381-0.9663544-0.6604919-1.7158432-0.6604919s-1.394165,0.246521-1.9333725,0.7395935
		s-0.808815,1.1146698-0.808815,1.8641663c0,0.5391998,0.157547,1.0817108,0.4732895,1.6275024
		c0.3157501,0.5458069,0.7824478,1.180603,1.4007568,1.903717c0.3025665,0.3678284,0.5919495,0.7626648,0.8681412,1.1832275
		c0.2761993,0.4212189,0.5095444,0.8780212,0.7000504,1.3710938s0.286087,1.0289764,0.286087,1.6077423
		c0,1.394165-0.5029602,2.6004639-1.5088654,3.6195526c-1.0065689,1.0197449-2.4692841,1.8318634-4.3894806,2.4363251
		l-0.6314926-1.4007568c0.8022232-0.3678131,1.3546143-0.7362976,1.6571808-1.104126
		c0.3025589-0.3684845,0.4541702-0.7956238,0.4541702-1.2827606c0-0.4601135-0.1450195-0.9300995-0.4343948-1.4099884
		c-0.2893829-0.4798737-0.7494888-1.0948944-1.3809814-1.8443756c-0.3150864-0.3684845-0.6084213-0.7725677-0.8773727-1.213562
		c-0.2695999-0.4403229-0.4930649-0.91362-0.6710434-1.4205322c-0.1773148-0.5055847-0.266304-1.0744629-0.266304-1.7059479
		c0-1.2886963,0.3519974-2.47258,1.0553436-3.5510101c0.7033463-1.0777588,1.6967316-1.9333649,2.9788361-2.564209
		c1.2821045-0.631485,2.7448196-0.9472351,4.3894806-0.9472351
		C132.04039,229.5151367,134.1121979,230.5480652,135.2558746,232.6126251z M136.2228851,242.6334686
		c2.2880096-0.4469147,3.9774933-1.1074219,5.0697479-1.9821472c1.0909424-0.8747406,1.6374054-2.0091858,1.6374054-3.4033508
		c0-0.6967468-0.1647949-1.3374786-0.4937286-1.922821c-0.3289185-0.5853577-0.7626648-1.04216-1.3018799-1.3710938
		c-0.5391998-0.3289337-1.1113739-0.4930725-1.7158356-0.4930725c-0.4475861,0-0.9999847,0.1048126-1.6571808,0.315094
		c-0.6578674,0.2109375-1.2755127,0.4739532-1.8542786,0.789032c0.091629,0.4080353,0.1674347,0.9736176,0.2267609,1.6967316
		c0.0593262,0.7237854,0.0889893,1.4403076,0.0889893,2.150238V242.6334686z"/>
	<path class="st0" d="M172.5397339,251.1553497c0,0.8153992,0.1278839,1.4699707,0.3843079,1.963028
		c0.2564087,0.4930725,0.6281891,0.7396088,1.1146698,0.7396088c0.223465,0,0.5391998-0.0889893,0.946579-0.2663116
		c0.4080353-0.1773224,0.7956238-0.384964,1.1641083-0.6216125l0.6315002,1.3809814
		c-3.1172638,1.657196-5.418457,2.9393005-6.9042511,3.8469849c-0.8160706-0.3948669-1.4370117-0.9439392-1.8641663-1.6473083
		c-0.4277954-0.7033386-0.6743317-1.6795807-0.7402496-2.9293823c-3.4719086,1.5780792-6.2529755,3.1040649-8.3439026,4.5766907
		c-0.5919342-0.671051-1.3157196-1.298584-2.1700134-1.8839417c-0.8549652-0.5853577-1.61763-0.9828339-2.288681-1.1937714
		l-0.0395508-1.0256805c0.5392151-0.0263672,0.9571381-0.1212921,1.2531128-0.286087
		c0.2959595-0.1641388,0.5095367-0.4007874,0.6407166-0.7099457c0.1318359-0.3091431,0.1977539-0.8252869,0.1977539-1.5484009
		v-6.6873779c0-1.1707153-0.1054688-2.0421448-0.3157501-2.6136475c-0.2109375-0.5721741-0.5919342-0.8582611-1.1443329-0.8582611
		c-0.3157501,0-0.6282043,0.0593262-0.9366913,0.1773224c-0.3091583,0.1186523-0.5952454,0.2498322-0.8582611,0.3948517
		l-0.5128326-1.4007568c0.789032-0.3553009,1.8377838-0.8681488,3.1462555-1.5385284
		c1.3084717-0.671051,2.4561157-1.2821045,3.4422455-1.8345032c0.8153992,0.3546448,1.4370117,0.9465942,1.864151,1.775177
		c0.4271545,0.8285828,0.6413879,1.9861145,0.6413879,3.4718933v9.133606c0,0.3678131,0.1641388,0.7165222,0.4930725,1.0454559
		c0.3282623,0.3289337,0.6506042,0.4930573,0.9663544,0.4930573c0.4073639,0,1.7092438-0.5589752,3.9062958-1.6769409v-7.7526245
		c0-0.8015594-0.1483154-1.3710938-0.4442902-1.7059479c-0.2959747-0.3355255-0.7659607-0.509552-1.4106445-0.5227356v-1.1245575
		c0.7501526-0.3678284,1.4007568-0.7626648,1.9531555-1.1838837c0.5523834-0.4205627,1.0124969-0.91362,1.3809814-1.4792023
		h3.8469696V251.1553497z"/>
	<path class="st0" d="M185.7365112,252.1810303c0,0.5266876,0.1048126,0.9406433,0.3157501,1.2432098
		c0.2102814,0.3025665,0.5385437,0.4535217,0.9861298,0.4535217c0.3025665,0,0.6506042-0.091629,1.0454559-0.2761993
		l0.6117249,1.4205322c-1.0131683,0.5912781-2.0421448,1.2392578-3.0876007,1.9425964s-1.7784729,1.2333374-2.1990204,1.5879822
		c-1.526001-1.4989929-3.1568146-2.4389648-4.8924408-2.8206482v-1.3216553
		c0.6967621-0.0916138,1.1865234-0.3908844,1.4693146-0.8977966c0.2827911-0.5055847,0.4245148-1.324295,0.4245148-2.4554443
		v-12.743927c0-1.5648804-0.1845703-2.7546997-0.5523987-3.5701141c-0.3684692-0.8153992-1.0329285-1.427124-1.992691-1.8344879
		l0.5721588-1.2234497c0.7626801,0.3289337,1.5253448,0.4930725,2.288681,0.4930725
		c1.4989777,0,2.9715729-0.3019104,4.4184723-0.9070282c0.7626801-0.3025665,1.3875732-0.5260315,1.874054-0.671051
		c0.4864807-0.1443634,0.9729462-0.2168732,1.460083-0.2168732h0.4337463v1.4205322
		c-0.8022308,0.0395508-1.4337158,0.2432404-1.8938293,0.6110687c-0.4607697,0.3684845-0.789032,0.9241638-0.9861298,1.6670685
		c-0.1977539,0.7435455-0.2959747,1.7659302-0.2959747,3.0678101V252.1810303z"/>
	<path class="st0" d="M197.3156586,249.6168213c0.1582031,0.8681335,0.4607697,1.6242218,0.9076996,2.2682343
		c0.4469147,0.6446838,0.9432831,1.121933,1.4890747,1.4304199c0.5458069,0.3091583,1.0883179,0.4634094,1.6275177,0.4634094
		c0.7626801,0,1.522049-0.1773224,2.2787933-0.5326233c0.756073-0.3546295,1.5945435-0.8740692,2.5147705-1.5583038
		l0.7501373,1.5385284l-2.091568,1.3809814c-2.6960449,1.7362823-4.4975891,3.0506744-5.4046173,3.9452057
		c-0.6315002-0.2762146-1.2629852-0.5392151-1.8938293-0.7890625c-1.3546143-0.5385437-2.4264374-1.1700439-3.2154694-1.893158
		c-0.7890472-0.723114-1.3875732-1.7131958-1.7949524-2.9689331c-0.4080353-1.2557373-0.6117249-2.8437042-0.6117249-4.7639008
		c0-1.3282471,0.1147003-2.4462128,0.3454132-3.3538971c0.2294006-0.9076996,0.5550385-1.6538849,0.9762421-2.2392426
		c0.4205627-0.5846863,0.9235229-1.0876465,1.5088654-1.5088654c0.5853577-0.4205475,1.4238281-0.8938446,2.5154266-1.4205322
		l4.3789368-2.0513611l5.0110779,7.891037L197.3156586,249.6168213z M198.3222351,240.8978577
		c-0.3157501,0.2102661-0.5497589,0.5062408-0.7007141,0.8872528c-0.1509552,0.3816681-0.2630157,0.9670105-0.3348694,1.7560577
		c-0.0725098,0.789032-0.1087646,2.150238-0.1087646,4.0829468l4.0836182-1.7949371L198.3222351,240.8978577z"/>
	<path class="st0" d="M226.9451294,252.6549835c0,0.9861298,0.0461426,1.6736603,0.1377716,2.0612488
		c0.0922852,0.3882599,0.2729034,0.7033539,0.5424957,0.946579c0.2696075,0.2438965,0.7527924,0.457489,1.4501953,0.6413879
		v1.3018799h-10.356369v-1.3018799c0.7099457-0.1838989,1.1931152-0.3948517,1.4495392-0.6315002
		c0.256424-0.2366333,0.4311066-0.5490875,0.5227356-0.9366913c0.0922852-0.3875885,0.1384277-1.0817108,0.1384277-2.0810242
		v-17.0246429c0-0.9861298-0.0428467-1.6729889-0.12854-2.0612488c-0.0856934-0.3876038-0.256424-0.7000427-0.5128479-0.9366913
		s-0.7461853-0.4541779-1.4693146-0.6512756v-1.3018799h10.356369v1.3018799
		c-0.6842194,0.1845703-1.1641083,0.3981476-1.4403076,0.6413879c-0.2761841,0.2432404-0.4600983,0.5787506-0.5523834,1.0059052
		c-0.091629,0.4271545-0.1377716,1.1014862-0.1377716,2.021698V252.6549835z"/>
	<path class="st0" d="M241.6613159,252.6549835c0,0.9861298,0.0461426,1.6736603,0.1377716,2.0612488
		c0.0922852,0.3882599,0.2729034,0.7033539,0.5424957,0.946579c0.2696075,0.2438965,0.7527924,0.457489,1.4501953,0.6413879
		v1.3018799h-10.356369v-1.3018799c0.7099457-0.1838989,1.1931152-0.3948517,1.4495392-0.6315002
		c0.256424-0.2366333,0.4311066-0.5490875,0.5227356-0.9366913c0.0922852-0.3875885,0.1384277-1.0817108,0.1384277-2.0810242
		v-17.0246429c0-0.9861298-0.0428467-1.6729889-0.12854-2.0612488c-0.0856934-0.3876038-0.256424-0.7000427-0.5128479-0.9366913
		s-0.7461853-0.4541779-1.4693146-0.6512756v-1.3018799h10.356369v1.3018799
		c-0.6842194,0.1845703-1.1641083,0.3981476-1.4403076,0.6413879c-0.2761841,0.2432404-0.4600983,0.5787506-0.5523834,1.0059052
		c-0.091629,0.4271545-0.1377716,1.1014862-0.1377716,2.021698V252.6549835z"/>
	<path class="st0" d="M253.2608948,239.7930603v4.6162415h-3.9458466v-4.6162415H253.2608948z M253.2608948,253.0293884v4.5766907
		h-3.9458466v-4.5766907H253.2608948z"/>
	<path class="st0" d="M272.0996094,251.0175781c1.2755127,1.1707001,2.93927,2.465332,4.9913025,3.8858643
		c1.1700439-0.6967468,3.4778137-1.9656677,6.9240112-3.8074188v-13.1176758c0-1.3677979-0.2109375-2.4824677-0.6315002-3.3440247
		c-0.4212036-0.8608856-1.1509094-1.6868439-2.1897888-2.4758759l0.9076843-1.2425537
		c1.0777588,0.8417664,2.0513916,1.2623291,2.9195251,1.2623291c0.5128479,0,0.9795227-0.0817413,1.4007568-0.2465363
		c0.4205627-0.1641388,0.9201965-0.4304352,1.4989624-0.7989197c1.2102661-0.7890472,2.5576172-1.2689209,4.0447388-1.4396515
		v1.5583038c-1.5003052,0.1450195-2.6209106,0.8351746-3.3644714,2.0711365
		c-0.742218,1.236618-1.1140137,3.1957092-1.1140137,5.8785706v11.1256256c0,1.2102661,0.1938171,2.1733246,0.5814209,2.8898468
		c0.388916,0.7171936,0.9373474,1.075119,1.6479492,1.075119c0.2359619,0,0.528656-0.052063,0.8780212-0.1575317
		c0.348053-0.1048126,0.7000427-0.2761993,1.0546875-0.5128479l0.5128479,1.2623291
		c-1.3539734,0.671051-2.3704224,1.2564087-3.0480652,1.7560425c-0.6763,0.4996643-1.2854004,1.085022-1.8246155,1.7554016
		c-0.1436768-0.2498169-0.3282471-0.4864807-0.5523682-0.7099304c-0.2228088-0.2234497-0.4337463-0.4271545-0.630188-0.6117249
		c-0.4350586-0.3948364-0.7474976-0.7066345-0.9380188-0.936676c-0.1904907-0.230072-0.3684692-0.4897766-0.5326233-0.7798157
		c-0.1641235-0.2887268-0.3025513-0.6143646-0.4139404-0.9762573c-0.1120605-0.3612213-0.1812744-0.7923279-0.2070007-1.2919922
		l-3.0776978,1.7356262c-0.9993286,0.5523987-1.8279114,1.0395203-2.4857788,1.460083
		c-0.657196,0.4212036-1.2062988,0.7989197-1.646637,1.1344604c-0.440979,0.3348389-0.8259277,0.6604919-1.1542053,0.9762268
		c-1.8022156-1.6828918-3.2912903-2.8931274-4.467926-3.6294403c-1.1773071-0.7362976-2.2853699-1.1904755-3.3242493-1.3612061
		v-1.1641083c0.9993286-0.4337463,1.723114-0.8582458,2.1700134-1.2722168
		c0.4469299-0.4146271,0.8022461-0.9373474,1.0652466-1.5681915c0.2630005-0.631485,0.4601135-1.5121613,0.5919495-2.6433105
		c0.1311646-1.1311493,0.1970825-2.8667755,0.1970825-5.2081757c0-2.1957245-0.0758057-3.7876434-0.2267456-4.7737732
		c-0.1516113-0.986145-0.4212341-1.7059631-0.8088074-2.160141c-0.3882751-0.4535065-0.9564819-0.6802673-1.7066345-0.6802673
		c-0.6703796,0-1.3348389,0.2366486-1.9920349,0.7099304l-0.6512756-1.3414307
		c2.3934937-1.3414307,4.221405-2.53125,5.484375-3.5701141c1.052063,0.9597626,1.8015442,1.7685852,2.2484741,2.4257812
		c0.4469299,0.6578674,0.7791443,1.3552704,0.9966736,2.0915833c0.2168579,0.7362976,0.3612366,1.6340942,0.4337463,2.692749
		c0.0718384,1.0586395,0.1087646,2.6920776,0.1087646,4.9016571c0,1.3414307-0.0567017,2.4363251-0.1680908,3.2846832
		c-0.1120605,0.8483734-0.2992859,1.6110382-0.5622864,2.2880249c-0.2630005,0.6776276-0.6308289,1.3091278-1.1047974,1.8938141
		C273.4608154,249.8963165,272.8490906,250.4651794,272.0996094,251.0175781z"/>
	<path class="st0" d="M307.9438171,239.4971008c-1.5385437,2.0645447-3.268219,3.096817-5.1890564,3.096817
		c-0.7883911,0-1.4660339-0.1114044-2.0316162-0.3348541c-0.5655518-0.223465-1.1377258-0.6117249-1.7164917-1.1641235
		c-0.5523987,0.3025665-0.9927368,0.7396088-1.3209839,1.3117676c-0.3295898,0.5721741-0.4930725,1.1871948-0.4930725,1.8443909
		c0,0.6578674,0.1305237,1.265625,0.3941956,1.8246155c0.2623291,0.5589752,0.627533,0.9999695,1.0955505,1.3216553
		c0.4653625,0.3223267,0.9821777,0.4831696,1.54776,0.4831696c0.1713867,0,0.3322144-0.0257111,0.4838257-0.0784454
		c0.1502991-0.0527344,0.3282776-0.1542358,0.5326233-0.3058472c0.2030334-0.1509552,0.4007874-0.3355255,0.5919495-0.5523987
		c0.1898193-0.2168732,0.3770447-0.4568176,0.561615-0.7198181l0.6117249-0.9076996
		c1.7626343,0.0791016,3.158783,0.6183167,4.1923828,1.61763c1.0322571,0.9993134,1.5477295,2.2622986,1.5477295,3.7876434
		c0,0.8154144-0.1608276,1.5780792-0.4825134,2.2880096c-0.322998,0.7106018-0.7870483,1.394165-1.3908691,2.0520325
		c-0.6051331,0.657196-1.6571655,1.545105-3.1561584,2.6630859c-0.4614258,0.3546448-0.8951416,0.7099304-1.3025208,1.0652466
		c-0.5919495-0.6974182-1.3025513-1.2755127-2.1304626-1.7362976c-0.8279419-0.4601135-1.5649109-0.690155-2.2095947-0.690155
		c-0.5919189,0-1.1271973,0.1311646-1.6070557,0.3941956c-0.4812012,0.2636719-0.9901123,0.7106018-1.5292969,1.3414307
		l-0.9268188-1.0059204c0.9729614-1.0520325,1.9393005-1.8410797,2.8990784-2.3671112
		c0.9597473-0.5260162,1.8944702-0.789032,2.8015137-0.789032c1.4330444,0,2.7092285,0.565567,3.827179,1.6960602
		c0.7488403-0.4337311,1.3473816-0.9399872,1.7956238-1.5187378c0.4469299-0.5787659,0.6697083-1.2359619,0.6697083-1.9729309
		c0-1.0256805-0.312439-1.8470154-0.9360352-2.465332c-0.6248779-0.6183167-1.4238281-0.9274597-2.396759-0.9274597
		c-0.4482422,0-0.8582458,0.1878662-1.2339783,0.5622711c-0.3744202,0.3750763-0.8912354,1.0487518-1.54776,2.0223694
		c-1.0652466-0.0791016-2.002594-0.3816681-2.8120728-0.9076996c-0.808136-0.5260162-1.4225159-1.2135468-1.8443909-2.0612488
		c-0.4205322-0.8483582-0.6301575-1.7198029-0.6301575-2.6143036c0-0.7494965,0.1107483-1.4297638,0.3348694-2.0414886
		c0.2241211-0.6117096,0.5655518-1.2062988,1.0256653-1.7850494c0.4601135-0.5787659,1.3473816-1.427124,2.6630859-2.5450897
		c0.4864807-0.4073792,0.9993286-0.8543091,1.5385437-1.3414307c0.4468994,0.6710358,0.9795227,1.2003632,1.5978394,1.5879517
		c0.6183167,0.3882599,1.2893677,0.5820618,2.0118103,0.5820618c1.1707153,0,2.2029724-0.5523987,3.0981445-1.6571808
		L307.9438171,239.4971008z"/>
	<path class="st0" d="M324.7106934,255.3378448c-2.854248,1.3407745-4.846283,2.4191742-5.977417,3.2346039l-2.3084717-1.2623291
		c-0.526001-0.3157654-1.0256653-0.6638184-1.4989624-1.0454712c-0.4732971-0.381012-0.8780212-0.7956238-1.2128906-1.2425537
		s-0.627533-0.9696503-0.8780212-1.5681915c-0.249176-0.598526-0.4469299-1.3282471-0.5919495-2.1897888
		c-0.1450195-0.861557-0.216217-1.903717-0.216217-3.1264954c0-1.7362823,0.1568909-3.1007843,0.4732971-4.0935059
		c0.315094-0.9927216,0.7752075-1.8114166,1.3803101-2.4561005c0.6051331-0.6440125,1.3710938-1.2194824,2.2979126-1.7257385
		c0.9281311-0.5062408,2.2715454-1.108078,4.0341797-1.805481l5.0704041,7.4961853l-10.0406189,4.2016144
		c0.1305237,1.6703644,0.6407166,2.986084,1.5279846,3.9458466c0.8885803,0.9597626,1.9960022,1.4396515,3.3248901,1.4396515
		c0.5128479,0,1.1733398-0.1278839,1.9815063-0.3843079c0.8094788-0.256424,1.6875-0.6347809,2.6340637-1.1344452V255.3378448z
		 M318.4775085,240.6803284c-0.8160706,0.2241211-1.4607544,0.569519-1.9340515,1.0362244
		c-0.4732666,0.4667053-0.8279114,1.166748-1.0652161,2.1007996c-0.2359924,0.9340668-0.3546448,2.3737183-0.3546448,4.3202667
		l6.2925415-2.8410645L318.4775085,240.6803284z"/>
	<path class="st0" d="M337.4342041,238.5894012c-0.1450195-0.4732819-0.2531433-0.9597626-0.3256531-1.4594269
		c-0.0725098-0.499649-0.1080933-0.9399872-0.1080933-1.3216553c0-0.8285828,0.1186523-1.5747681,0.3546448-2.2392273
		c0.2373047-0.6637878,0.6314697-1.3440704,1.1838684-2.0414734c0.5523987-0.6967621,1.3605652-1.5253448,2.4257812-2.4857788
		l1.1245728,1.0652466c-0.7224731,0.9208679-1.2128906,1.7850494-1.4686584,2.5938721
		c-0.2570801,0.8088074-0.3849487,1.7988892-0.3849487,2.9689331c0,0.8813324,0.1107178,1.8542786,0.3348389,2.9195099H337.4342041z
		 M344.0431213,238.5894012c-0.1450195-0.4732819-0.254425-0.9597626-0.3256226-1.4594269
		c-0.0725098-0.499649-0.109436-0.9399872-0.109436-1.3216553c0-0.8285828,0.1186523-1.5747681,0.355957-2.2392273
		c0.2359924-0.6637878,0.6315002-1.3440704,1.1838989-2.0414734c0.5523987-0.6967621,1.3605347-1.5253448,2.4257812-2.4857788
		l1.1245422,1.0652466c-0.7237549,0.9208679-1.2128906,1.7850494-1.4699707,2.5938721
		c-0.2557373,0.8088074-0.3849487,1.7988892-0.3849487,2.9689331c0,0.8813324,0.1120605,1.8542786,0.3361816,2.9195099H344.0431213z
		"/>
	<path class="st0" d="M365.0907288,239.4971008c-1.5385132,2.0645447-3.268219,3.096817-5.1877441,3.096817
		c-0.7897034,0-1.4673157-0.1114044-2.0315857-0.3348541c-0.5655823-0.223465-1.1377563-0.6117249-1.7164917-1.1641235
		c-0.5523987,0.3025665-0.9927368,0.7396088-1.3223267,1.3117676c-0.3282776,0.5721741-0.4930725,1.1871948-0.4930725,1.8443909
		c0,0.6578674,0.1318359,1.265625,0.3955078,1.8246155c0.2623596,0.5589752,0.627533,0.9999695,1.0942383,1.3216553
		c0.4667053,0.3223267,0.98349,0.4831696,1.5490723,0.4831696c0.1700745,0,0.3309021-0.0257111,0.4825134-0.0784454
		s0.3282776-0.1542358,0.5326233-0.3058472c0.2043457-0.1509552,0.4007874-0.3355255,0.5919495-0.5523987
		s0.3783569-0.4568176,0.5629272-0.7198181l0.6104126-0.9076996c1.7626343,0.0791016,3.1600952,0.6183167,4.1923828,1.61763
		s1.5490723,2.2622986,1.5490723,3.7876434c0,0.8154144-0.1621704,1.5780792-0.4838257,2.2880096
		c-0.322998,0.7106018-0.7857666,1.394165-1.3908691,2.0520325c-0.6051331,0.657196-1.657196,1.545105-3.1561584,2.6630859
		c-0.4601135,0.3546448-0.8938599,0.7099304-1.3025513,1.0652466c-0.5906067-0.6974182-1.3012085-1.2755127-2.1304626-1.7362976
		c-0.8279419-0.4601135-1.5648804-0.690155-2.208252-0.690155c-0.5919495,0-1.1285095,0.1311646-1.6083984,0.3941956
		c-0.4798889,0.2636719-0.9900818,0.7106018-1.5279846,1.3414307l-0.9281311-1.0059204
		c0.9729614-1.0520325,1.9406433-1.8410797,2.9003906-2.3671112c0.9597778-0.5260162,1.8931885-0.789032,2.8015137-0.789032
		c1.433075,0,2.7079163,0.565567,3.8258972,1.6960602c0.7501526-0.4337311,1.3486633-0.9399872,1.7955933-1.5187378
		c0.4469299-0.5787659,0.671051-1.2359619,0.671051-1.9729309c0-1.0256805-0.312439-1.8470154-0.9373474-2.465332
		s-1.4238281-0.9274597-2.3967896-0.9274597c-0.4469299,0-0.8582458,0.1878662-1.232666,0.5622711
		c-0.3744202,0.3750763-0.8912048,1.0487518-1.5490723,2.0223694c-1.0652161-0.0791016-2.002594-0.3816681-2.81073-0.9076996
		c-0.8081665-0.5260162-1.4238281-1.2135468-1.8443909-2.0612488c-0.4205627-0.8483582-0.6315002-1.7198029-0.6315002-2.6143036
		c0-0.7494965,0.1120605-1.4297638,0.3361816-2.0414886c0.2228088-0.6117096,0.56427-1.2062988,1.0256958-1.7850494
		c0.4601135-0.5787659,1.3473511-1.427124,2.6630859-2.5450897c0.4864807-0.4073792,0.9992981-0.8543091,1.5385132-1.3414307
		c0.4469299,0.6710358,0.9795532,1.2003632,1.5978699,1.5879517c0.6169739,0.3882599,1.2880249,0.5820618,2.0118103,0.5820618
		c1.1706848,0,2.2029724-0.5523987,3.0968323-1.6571808L365.0907288,239.4971008z"/>
	<path class="st0" d="M385.9418945,256.2646484c-1.578064,0.8022156-2.8924561,1.5846558-3.944519,2.3473511
		c-0.9479065-0.6308594-1.5754395-1.1766357-1.8839417-1.6374207c-0.3098145-0.4601135-0.4640503-0.9663391-0.4640503-1.5187378
		c-2.315033,1.0783997-3.8430176,1.8147278-4.5865784,2.2095642c-0.7435608,0.3941956-1.2458496,0.6967468-1.5095215,0.9070435
		c-1.1957397-0.7363281-2.0843201-1.4924011-2.6630859-2.2682495s-0.9927368-1.6934357-1.2418823-2.7520752
		c-0.2504883-1.0586395-0.3757324-2.4033661-0.3757324-4.0341797c0-2.0909119,0.1885071-3.7184296,0.5629272-4.8818817
		c0.3744202-1.1641083,0.9400024-2.1172943,1.6967163-2.8608398c0.7554321-0.7429047,1.7323303-1.4693146,2.9294128-2.179245
		c0.5392151-0.3157501,0.9755859-0.6051331,1.3117676-0.8681488c0.3348694-0.2630157,0.6341248-0.5523834,0.8977966-0.8681335
		c1.1166382,0.789032,2.383606,1.4864502,3.796875,2.0909119c1.413269,0.6051331,2.678894,0.9999847,3.796875,1.1838837v1.0256958
		c-0.4732971,0.065918-0.8345337,0.3421021-1.085022,0.8285828c-0.2491455,0.4864807-0.3743896,1.1113739-0.3743896,1.874054
		v7.7723846c0,0.9070282,0.1252441,1.5879669,0.3743896,2.0414734c0.2504883,0.4535217,0.6776428,0.6802826,1.2827759,0.6802826
		c0.2096252,0,0.4376831-0.0520782,0.6802673-0.157547c0.2438965-0.1048126,0.5102234-0.2498322,0.7989197-0.4337463V256.2646484z
		 M379.6493835,243.1858673c-0.2755432-0.2893829-0.7725525-0.6315002-1.4897461-1.0256805
		c-0.7158813-0.3948517-1.6004944-0.7824554-2.6525574-1.1641235c-0.7105713,0.4080353-1.26297,0.9241791-1.6571655,1.5484161
		c-0.3941956,0.6249084-0.6908264,1.4403076-0.8872681,2.4462128c-0.1977539,1.0065765-0.2966309,2.2919769-0.2966309,3.8568726
		c0,2.0513611,0.2992859,3.6096649,0.8978271,4.6748962c0.5985107,1.0652313,1.3710938,1.5978546,2.3176575,1.5978546
		c0.3941956,0,0.9729614-0.157547,1.7362976-0.4732971c0.7619934-0.3157501,1.4396362-0.6703796,2.0315857-1.0652313V243.1858673z"
		/>
	<path class="st0" d="M390.8739014,244.1719971c0-0.723114-0.1410828-1.3341827-0.42453-1.8345032
		c-0.282135-0.499649-0.6341248-0.7494812-1.0546875-0.7494812c-0.2109375,0-0.4614258,0.0527344-0.7501526,0.157547
		c-0.2886963,0.1054688-0.5721436,0.2438965-0.8476868,0.4146271l-0.2373047-1.2036743
		c1.5385132-0.8411102,2.8344727-1.7158356,3.8865051-2.6235352c0.8411255,0.6842346,1.4198914,1.2564087,1.7362976,1.716507
		c0.315094,0.4601135,0.5062561,0.979538,0.5721741,1.5583038c2.0513611-0.789032,4.0302124-1.8806458,5.936554-3.2748108
		c1.2893677,0.7633362,2.2135315,1.4996338,2.772522,2.2095795c0.5589905,0.7099304,0.9492188,1.6143341,1.1733398,2.7125244
		s0.3348694,2.6400146,0.3348694,4.6254578c0,1.0395355-0.0725098,1.9498596-0.216217,2.7322998
		c-0.1450195,0.7824554-0.3454285,1.4534912-0.6025085,2.0124817c-0.2557373,0.5589752-0.5523682,1.0487518-0.8872375,1.4693146
		c-0.3348694,0.4212036-0.7237854,0.8285828-1.1641235,1.2234344c-0.4403381,0.3941803-1.0678711,0.880661-1.8839417,1.4594269
		c-0.7488098,0.5392151-1.2524414,0.9103088-1.5081787,1.1146545c-0.2570801,0.2037048-0.5168152,0.4304504-0.7791748,0.6802979
		c-1.197052-0.8674927-2.5220032-1.580719-3.9748535-2.1403809c-1.4541321-0.5583191-2.7922668-0.8641663-4.0144043-0.9169006
		v-1.085022c0.6829224-0.2366333,1.1759949-0.5227203,1.4792175-0.8582458
		c0.3019104-0.3355255,0.4535217-0.7791443,0.4535217-1.331543V244.1719971z M393.7545166,251.5699768
		c0,0.6051178,0.0843506,1.0487518,0.2557373,1.331543c0.1713867,0.2827759,0.7132568,0.6868591,1.6281738,1.2128906
		c0.9136353,0.5260162,1.7982483,0.9406433,2.6525574,1.2425537c0.7897034-0.3019104,1.4066772-1.0843506,1.8549194-2.3473511
		c0.4469299-1.2623291,0.6697388-2.8799438,0.6697388-4.8528748c0-2.1561737-0.249176-3.7441406-0.7488403-4.7638855
		c-0.4996643-1.019104-1.3420715-1.5286407-2.5259705-1.5286407c-0.2887268,0-0.7949829,0.1252441-1.5187378,0.3750763
		c-0.7224731,0.2498169-1.4792175,0.5853424-2.2675781,1.0059052V251.5699768z"/>
	<path class="st0" d="M421.094635,255.3378448c-2.8529358,1.3407745-4.846283,2.4191742-5.9761047,3.2346039l-2.3084717-1.2623291
		c-0.526001-0.3157654-1.0256653-0.6638184-1.4989624-1.0454712c-0.4732971-0.381012-0.8780212-0.7956238-1.2128906-1.2425537
		c-0.3361816-0.4469299-0.6288452-0.9696503-0.8780212-1.5681915c-0.2504883-0.598526-0.4482422-1.3282471-0.5919495-2.1897888
		c-0.1450195-0.861557-0.2175293-1.903717-0.2175293-3.1264954c0-1.7362823,0.1582031-3.1007843,0.4732971-4.0935059
		c0.3164062-0.9927216,0.7765198-1.8114166,1.3816223-2.4561005c0.6038208-0.6440125,1.3710938-1.2194824,2.2979126-1.7257385
		c0.9268188-0.5062408,2.2715454-1.108078,4.0341797-1.805481l5.0690918,7.4961853l-10.0406189,4.2016144
		c0.1318359,1.6703644,0.6407166,2.986084,1.5292969,3.9458466c0.8872375,0.9597626,1.9946594,1.4396515,3.3235779,1.4396515
		c0.5128479,0,1.1733398-0.1278839,1.9828186-0.3843079c0.808136-0.256424,1.6861877-0.6347809,2.6327515-1.1344452V255.3378448z
		 M414.8614502,240.6803284c-0.8160706,0.2241211-1.4594421,0.569519-1.9327393,1.0362244
		c-0.4732666,0.4667053-0.8292236,1.166748-1.0652161,2.1007996c-0.2373047,0.9340668-0.355957,2.3737183-0.355957,4.3202667
		l6.2938538-2.8410645L414.8614502,240.6803284z"/>
	<path class="st0" d="M438.9083252,240.8385315v2.9590454c0,2.9063263-0.101532,6.3255005-0.3058777,10.2575073
		s-0.5220642,7.5555115-0.9571228,10.869873h-1.4989624c-0.4996643-10.1658783-0.7488403-17.3199463-0.7488403-21.4628906
		v-2.6235352h-3.3143616v-1.7362823c0.6183167-0.0257111,1.1206055-0.124588,1.5082092-0.2953186
		c0.388916-0.1713867,0.6776428-0.4245148,0.8688049-0.760025c0.1898499-0.3348694,0.2860718-0.8839722,0.2860718-1.646637
		c0-0.2102814-0.0105286-0.4146271-0.030304-0.6117249c-0.0197754-0.1970825-0.0619812-0.6117096-0.1278992-1.2432098
		l-0.1186523-0.9268036c-0.0395508-0.3025665-0.0593262-0.5853577-0.0593262-0.8483582
		c0-0.9597778,0.2900391-1.7257385,0.8688049-2.2979126c0.5787659-0.5721588,1.2814331-0.8582458,2.1106873-0.8582458
		c0.3941956,0,0.7752075,0.0692139,1.1443481,0.2069855c0.3678284,0.1384277,0.6894836,0.3058624,0.9663391,0.5029449
		c0.2623596,0.1582031,0.5220947,0.2992706,0.7791748,0.4245148c0.2557373,0.1252441,0.4891052,0.1872101,0.7000427,0.1872101
		c0.3164062,0,0.5431519-0.1015167,0.6802673-0.3058624c0.1384277-0.2036896,0.2069702-0.4765778,0.2069702-0.8186951
		c0-0.157547-0.0131836-0.3216858-0.038208-0.4930725h1.3209839c0.0527344,0.3948517,0.0791016,0.6776428,0.0791016,0.8483734
		c0,1.1047821-0.2399292,1.9729156-0.7198181,2.6037598c-0.4812012,0.631485-1.1351013,0.9472351-1.9630432,0.9472351
		c-0.3678284,0-0.7237854-0.065918-1.0652466-0.1977539c-0.3427734-0.1311798-0.6512451-0.3085022-0.9267883-0.5326233
		c-0.2636719-0.1970825-0.5102234-0.3579254-0.7395935-0.4831696c-0.2307129-0.124588-0.4508972-0.1872101-0.6618347-0.1872101
		c-0.2887268,0-0.5128479,0.1120605-0.6697083,0.3355255c-0.1582031,0.223465-0.2373047,0.5128326-0.2373047,0.8674774
		c0,1.1838837,0.2570801,2.1963806,0.7698975,3.0381622c0.5128479,0.8417664,1.2023621,1.4693146,2.071167,1.8839264
		c0.8674622,0.4139709,1.8338318,0.6216125,2.8990479,0.6216125h0.6117249v1.775177H438.9083252z"/>
	<path class="st0" d="M446.9371338,240.6803284c1.761322-0.1839142,3.306427-0.5029602,4.6353455-0.9564819
		c1.3275757-0.4535065,2.6103516-1.0619354,3.8469543-1.8246002c1.0125122,0.5787506,1.7652893,1.0718231,2.2583618,1.4792023
		c0.4930725,0.40802,0.9334106,0.8780212,1.3209839,1.4106445c0.388916,0.532608,0.7211609,1.1608124,0.9967041,1.8839264
		c0.2768555,0.7231293,0.4970093,1.6242218,0.6604919,2.7026367c0.1647949,1.0784149,0.246521,2.3473358,0.246521,3.8074188
		c0,1.1436768-0.1502991,2.1436615-0.4535217,2.9979553c-0.3018799,0.85495-0.7290344,1.5780792-1.2814331,2.1700134
		c-0.5523987,0.5919495-1.2695923,1.1641235-2.150238,1.7165222c-1.0652466,0.6703796-1.7929688,1.1673889-2.1805725,1.4890747
		c-0.3876038,0.3223267-0.6934509,0.6479797-0.9162598,0.9768982c-1.2498169-0.7633362-2.6973572-1.4436035-4.3400269-2.0421448
		c-1.6440125-0.5978699-3.0915527-0.969635-4.3400574-1.1146545v-1.0454712
		c0.5787659-0.0916138,1.0059204-0.2662964,1.2814636-0.5227203c0.2768555-0.256424,0.4152832-0.63414,0.4152832-1.1344452
		V240.6803284z M450.0141602,253.4044647c0.381012,0.3157501,0.8846436,0.638092,1.5095215,0.9663544
		c0.6235962,0.3289337,1.646637,0.7626801,3.0665283,1.3018799c0.9083252-0.5523834,1.5556641-1.0817108,1.9432373-1.5879517
		c0.3876038-0.5062561,0.6776428-1.0916138,0.8674927-1.7554016c0.1911621-0.6637878,0.2860718-1.4699707,0.2860718-2.4165497
		c0-3.1429749-0.3480225-5.418457-1.0454407-6.8258057c-0.696106-1.4066925-1.82724-2.1107025-3.3921509-2.1107025
		c-0.4337463,0-0.9940491,0.1120605-1.6769409,0.3355255c-0.6842346,0.2241211-1.2036743,0.4607697-1.5583191,0.7099457V253.4044647
		z"/>
	<path class="st0" d="M470.5489502,253.3846893c0,0.1311798,0.0593262,0.2729034,0.1779785,0.4238586
		c0.1186523,0.1516113,0.3322144,0.319046,0.6407166,0.5029449c0.3085022,0.1845703,0.6143494,0.3289337,0.917572,0.4344025
		c0.3019104,0.1054688,0.5062561,0.157547,0.6117249,0.157547c0.1582031,0,0.4891052-0.1278839,0.9953613-0.3843079
		c0.5062561-0.2564087,1.0428162-0.5820465,1.6083984-0.9768982l0.671051,1.5385284
		c-0.3032227,0.1977539-0.671051,0.4278107-1.1047974,0.6908112c-1.9472046,1.1575317-3.23526,2.0777283-3.8667603,2.7619629
		c-1.3934937-0.9736023-2.5879211-1.6802368-3.580658-2.1212463c-0.9927063-0.4403229-1.8773499-0.7264099-2.6525269-0.8575745
		v-0.8879242c0.6433411-0.1048126,1.1443176-0.2663116,1.4989624-0.4831696
		c0.3546448-0.2168732,0.6051331-0.5062561,0.7488403-0.8681488c0.1450195-0.3612213,0.2175293-0.8648376,0.2175293-1.5088654
		v-6.2140808c0-1.1568604-0.1911621-2.120575-0.5721741-2.8898468c-0.381012-0.7692566-0.8872681-1.1542206-1.5187378-1.1542206
		c-0.1582031,0-0.3744202,0.0626221-0.6512756,0.1878662c-0.2755432,0.124588-0.6512756,0.3183899-1.1245728,0.5813904v-1.4396362
		c0.7897034-0.5128479,1.4014282-0.9472504,1.8351746-1.3018799c0.4337158-0.3553009,0.9927063-0.8483734,1.6769409-1.4798584
		c0.7224731,0.5003052,1.2484741,0.9076843,1.578064,1.2234344c0.3282776,0.3150787,0.6077881,0.6802673,0.838501,1.0942383
		c0.2293701,0.4146271,0.4825134,1.1219177,0.7593689,2.1212311c0.2755432-0.5787506,0.594574-1.0883026,0.9558105-1.5292969
		c0.3625488-0.4403229,0.7765198-0.8509979,1.2431946-1.232666c0.4667053-0.3816528,1.2722168-0.9663544,2.4165649-1.7560425
		l3.0770569,3.452774l-2.564209,2.564209l-2.1304626-2.6828613c-1.8022156,1.4337158-2.7026367,3.767868-2.7026367,7.0031281
		V253.3846893z"/>
	<path class="st0" d="M487.8299866,240.5227814c1.6176453-1.0124969,2.7355957-1.742218,3.3539124-2.1898041
		c0.9334106,0.3421173,1.6176147,0.7989349,2.0513611,1.3710938c0.4337463,0.5721741,0.7026978,1.3710938,0.8081665,2.3967896
		c0.4337463-0.2630157,0.9333801-0.5451508,1.4989624-0.8483734c2.630127-1.3803253,4.3927917-2.4191895,5.2879333-3.1165924
		c0.9070435,0.5523834,1.4950256,0.9274597,1.7652893,1.1245575c0.2689514,0.1970978,0.5022888,0.404068,0.7000427,0.6209412
		c0.1977539,0.2175293,0.3612366,0.450882,0.4930725,0.7007141s0.249176,0.5523834,0.3546448,0.9070282
		c1.3289185-0.4858093,2.6828613-1.0612793,4.0645142-1.7257385c1.3803101-0.6637878,2.3005371-1.2062988,2.7619629-1.6275024
		c1.4198608,0.7099304,2.4745483,1.7922974,3.1653442,3.2451324c0.6908569,1.4534912,1.0362549,3.4158783,1.0362549,5.8884583
		c0,2.0909119-0.2992554,3.8166504-0.8978271,5.1778564c-0.5985107,1.3612061-1.621582,2.5088348-3.0678101,3.4422302
		c-1.0520325,0.6710358-1.791626,1.1838837-2.2187805,1.5391998c-0.4284668,0.3546143-0.7725525,0.723114-1.0362244,1.1047668
		c-0.7106018-0.6051331-1.8180237-1.2886963-3.3236084-2.0520325c-1.5055542-0.7626648-2.5813293-1.1436615-3.2260132-1.1436615
		c-0.2755432,0-0.7989197,0.2069855-1.5675354,0.6209412c-0.769928,0.4146271-1.4831543,0.8681488-2.1410217,1.3612213
		c-0.6578369,0.493042-1.0783997,0.8977966-1.2616577,1.2135315c-1.4212036-1.0915833-2.7197876-1.9103088-3.895752-2.4560852
		c-1.1773071-0.5458069-2.1805725-0.8187103-3.0084839-0.8187103h-0.1582031v-1.0652313
		c0.5787354-0.1582031,0.9927063-0.4403381,1.2431946-0.8483734c0.249176-0.4073639,0.3744202-1.0454559,0.3744202-1.9135895
		v-6.7658234c0-1.0131683-0.1344604-1.8252716-0.4047241-2.4363251c-0.2689514-0.6117249-0.6605225-0.9175873-1.1733398-0.9175873
		c-0.4996643,0-1.0256958,0.1647949-1.5780945,0.4930725V240.5227814z M501.1256409,244.5866241
		c0-0.9861298-0.2003784-1.7230988-0.6011658-2.2095795c-0.4020996-0.4864655-0.98349-0.7297058-1.7468262-0.7297058
		c-0.4601135,0-1.0810547,0.1806183-1.8641663,0.542511c-0.7817688,0.3618774-1.7389221,0.8912048-2.8700562,1.5879517v8.2654572
		c0,0.4073792,0.0237122,0.7073059,0.0698547,0.8971405c0.0448303,0.1911621,0.1213074,0.3131104,0.2267761,0.3651886
		l1.2023315,0.7099457c0.5655823,0.3552856,1.016449,0.6084137,1.3513184,0.760025
		c0.3361816,0.1509552,0.6354675,0.2267609,0.8977966,0.2267609c0.2900391,0,0.70401-0.1542511,1.2432251-0.4634094
		c0.5392151-0.3091431,0.9663696-0.6347809,1.2814331-0.9768982c0.3164062-0.3414612,0.5299988-0.7198181,0.6420593-1.1344452
		c0.1107483-0.4139709,0.1674194-1.0223846,0.1674194-1.8246155V244.5866241z M504.2620239,251.6088562
		c0,0.513504,0.1779785,0.9406586,0.5326233,1.2827759c0.8147278,0.6183014,1.6307983,1.1278534,2.4455566,1.5286255
		c0.8160706,0.4014435,1.4541321,0.6018372,1.9142456,0.6018372c0.8938599,0,1.5741272-0.638092,2.0421448-1.9136047
		c0.4667053-1.2755127,0.7000427-3.195694,0.7000427-5.7605591c0-1.998642-0.2438965-3.4679565-0.7303772-4.4085999
		c-0.4864502-0.9399872-1.2497864-1.4106445-2.2886658-1.4106445c-0.315094,0-0.8318787,0.1318359-1.54776,0.3948517
		c-0.7171631,0.2630157-1.7388916,0.690155-3.0678101,1.2821045V251.6088562z"/>
	<path class="st0" d="M532.2943115,255.3378448c-2.854248,1.3407745-4.8463135,2.4191742-5.977478,3.2346039l-2.3084106-1.2623291
		c-0.526062-0.3157654-1.0256958-0.6638184-1.4989624-1.0454712c-0.4733276-0.381012-0.8780518-0.7956238-1.2128906-1.2425537
		c-0.3348999-0.4469299-0.6275635-0.9696503-0.8780518-1.5681915c-0.2491455-0.598526-0.4468994-1.3282471-0.5919189-2.1897888
		c-0.1450195-0.861557-0.2162476-1.903717-0.2162476-3.1264954c0-1.7362823,0.1569214-3.1007843,0.4733276-4.0935059
		c0.3150635-0.9927216,0.7751465-1.8114166,1.3803101-2.4561005c0.6051025-0.6440125,1.3710938-1.2194824,2.2979126-1.7257385
		c0.9281006-0.5062408,2.2714844-1.108078,4.0341797-1.805481l5.0703735,7.4961853l-10.0405884,4.2016144
		c0.1304932,1.6703644,0.640686,2.986084,1.5279541,3.9458466c0.8885498,0.9597626,1.9959717,1.4396515,3.3248901,1.4396515
		c0.5128784,0,1.1733398-0.1278839,1.9815063-0.3843079c0.8094482-0.256424,1.6875-0.6347809,2.6340942-1.1344452V255.3378448z
		 M526.0610962,240.6803284c-0.81604,0.2241211-1.4607544,0.569519-1.934021,1.0362244
		c-0.4733276,0.4667053-0.8279419,1.166748-1.0652466,2.1007996c-0.2359619,0.9340668-0.3546143,2.3737183-0.3546143,4.3202667
		l6.2924805-2.8410645L526.0610962,240.6803284z"/>
	<path class="st0" d="M534.4840698,231.9415741c0.4733276,0.1845703,1.0085449,0.3355255,1.6071167,0.4541779
		c0.5985107,0.1179962,1.1733398,0.1773224,1.725708,0.1773224c0.526062,0,1.0428467-0.0692139,1.5490723-0.2069855
		c0.5062866-0.1384277,1.0283203-0.3256378,1.5688477-0.5622864c1.2748413-0.5787506,2.4125977-0.9202118,3.4119263-1.0256805
		v1.3612061c-0.6578369,0.091629-1.2432251,0.2663116-1.7560425,0.5227356
		c-0.5128784,0.256424-0.9334106,0.6011658-1.2616577,1.0355682c-0.3295898,0.4337463-0.5656128,0.9498749-0.7106323,1.5484161
		c-0.1450195,0.598526-0.2161865,1.3381348-0.2161865,2.2194519v3.9056396
		c0.5128174-0.2366486,1.057312-0.4666901,1.6360474-0.6908112c1.0388794-0.4337463,1.9432983-0.824646,2.7131958-1.1733398
		c0.7686157-0.348053,1.3579102-0.6736908,1.7653198-0.9762573c1.6439819,0.8279419,2.8740234,2.0184174,3.6887207,3.5701294
		c0.8161011,1.5516968,1.2234497,3.4066315,1.2234497,5.5628052c0,1.6571808-0.1252441,3.0052032-0.3743896,4.0440674
		c-0.2504883,1.0388794-0.5892944,1.8938293-1.0164795,2.5648804c-0.427124,0.6703796-0.8872681,1.199707-1.3803101,1.5879517
		c-0.4943848,0.3876038-1.2142334,0.7857361-2.1607666,1.1931152c-1.1707153,0.5128479-2.005249,1.0718384-2.5048828,1.6769714
		c-2.7751465-1.4726257-5.4645996-2.5253296-8.0683594-3.1561584v-0.927475
		c0.4073486-0.091629,0.7329712-0.2893829,0.9768677-0.5919342c0.2426147-0.3019104,0.3638916-0.8345337,0.3638916-1.5978546
		v-13.4136505c0-1.3809814-0.0856934-2.4000702-0.2557983-3.0579376c-0.1713867-0.657196-0.4508667-1.199707-0.8384399-1.6275177
		c-0.3876343-0.4271393-0.9505615-0.8312225-1.6862183-1.2128906V231.9415741z M540.4022217,253.5620117
		c0,0.2498322,0.3018799,0.5556946,0.9070435,0.917572c0.6051025,0.3618927,1.2814331,0.6802826,2.0315552,0.9564819
		c0.7501831,0.2761841,1.2827759,0.4146118,1.5978394,0.4146118c0.986145,0,1.7495117-0.6248932,2.2886963-1.8740387
		c0.5391846-1.2498016,0.8081665-3.0974884,0.8081665-5.5437012c0-2.1825409-0.3388062-3.8364258-1.0151367-4.9609833
		c-0.6776733-1.1245728-1.6611328-1.6868439-2.9491577-1.6868439c-0.3032227,0-0.8648682,0.1450195-1.6875,0.4344025
		c-0.8213501,0.2893677-1.4818726,0.5589752-1.9815063,0.8088074V253.5620117z"/>
	<path class="st0" d="M559.7531128,229.3773651c0.1450195,0.4732971,0.2531128,0.9597626,0.3256226,1.4594269
		c0.0725098,0.5003204,0.109436,0.9406433,0.109436,1.3216553c0,0.8285828-0.1160278,1.5721436-0.345459,2.2293396
		c-0.2307129,0.6578674-0.6182861,1.3282471-1.1640625,2.0124817c-0.5458374,0.6835632-1.364502,1.5253448-2.4561157,2.5246582
		l-1.1245728-1.0652313c0.5391846-0.6967621,0.9241943-1.2886963,1.1535645-1.775177
		c0.2307129-0.4864655,0.4047241-1.0322723,0.5233765-1.6374054c0.1186523-0.6051178,0.1779785-1.3216553,0.1779785-2.150238
		c0-0.880661-0.1120605-1.8542786-0.3361816-2.9195099H559.7531128z M566.3619995,229.3773651
		c0.1450195,0.4732971,0.2531738,0.9597626,0.3256836,1.4594269c0.0725098,0.5003204,0.1080933,0.9406433,0.1080933,1.3216553
		c0,0.8285828-0.1146851,1.5721436-0.3453979,2.2293396c-0.2294312,0.6578674-0.6183472,1.3282471-1.1628418,2.0124817
		c-0.5471191,0.6835632-1.3657837,1.5253448-2.4560547,2.5246582l-1.1245728-1.0652313
		c0.5391846-0.6967621,0.9228516-1.2886963,1.1535645-1.775177c0.2293701-0.4864655,0.4047241-1.0322723,0.5233765-1.6374054
		c0.1173096-0.6051178,0.1766357-1.3216553,0.1766357-2.150238c0-0.880661-0.1120605-1.8542786-0.3348389-2.9195099H566.3619995z"/>
</g>
<path class="st0" d="M327.5193787,271.3027954v0.2845154l0.5747986,0.8531799c-2.946106,0-5.2456055,0.568512-6.8983154,1.7058105
	c-1.4371948,1.9904175-3.2578125,2.9857178-5.4612122,2.9857178c-3.0662842,0-4.598999-0.6159058-4.598999-1.8480225
	c0.09552-0.2368774,1.2452087-0.7111816,3.4492188-1.4220886l-4.8862915-1.7059937v0.1424866l-0.1437073,0.1420898v1.7058105
	l-0.1437988,1.7061157c0.9100037,1.3269958,3.0657959,1.9901733,6.4672852,1.9901733
	c2.8260193,0,4.7903137-0.5206909,5.892395-1.5639954c1.3411255-1.990387,3.640625-2.9853821,6.8983154-2.9853821
	c0.4311829,0,1.0061035,0.8530884,1.7246094,2.5592041v0.1422729l-0.8623047-0.7106934l-0.5749207,0.5684204
	c-0.934082,0.9007874-2.6109924,1.5639038-5.0299988,1.9901733v0.2844238c1.8200073,0,3.6884155,0.8051758,5.6049194,2.4172974
	h0.287384c0.047821-0.3796082,0.1914978-0.5688171,0.4312134-0.5688171l-1.2935181,2.7008972
	c-3.2817993,0-5.4852905-0.805603-6.6109009-2.416687c-1.0059814-1.4216919-3.1616821-2.1326904-6.4671936-2.1326904
	c-3.6412048,0-5.7969055,0.7109985-6.4672852,2.1326904l0.1437988,1.5635986v1.8486938
	c0.4310913,0,2.1073914-0.4743958,5.0299988-1.4216919v-0.1425171c-2.20401-0.7582703-3.3536987-1.2320862-3.4492188-1.4217834
	c0-1.2319031,1.4849243-1.8479919,4.4553223-1.8479919c1.5567017,0,2.8023987,0.3314819,3.7366028,0.9949951
	c1.6763,2.464386,4.598877,3.6966858,8.7666016,3.6966858v0.1423035l-0.5747986,0.7108154
	c0.8381958,0.5444946,5.0536804,2.3928833,12.6470947,5.5447998h0.1436768v-0.142395l-0.2874756-0.4263306
	c-3.4013977-4.1942749-5.7008972-7.7965698-6.898407-10.8052979c0.7663879-0.2844849,1.4848938-0.4265747,2.1557922-0.4265747
	v-0.2844238l-2.2994995-0.5683899c0.742218-2.2749939,3.1853943-6.0184937,7.3295898-11.2315063v-0.1423035L327.5193787,271.3027954
	z M342.0347595,266.0426941c4.1436157,5.2130127,6.586792,8.9565125,7.3294983,11.2315063l-2.2994995,0.5683899v0.2844238
	c0.6703186,0,1.388916,0.1420898,2.1557922,0.4265747l-0.2874756,0.4263306
	c-0.9105225,2.5823975-3.210022,6.1846924-6.8983154,10.8052979v0.142395
	c7.7842102-3.1758118,12.0480042-5.0241089,12.7907104-5.5447998l-0.5747986-0.7108154v-0.1423035
	c3.0180054,0,5.3652039-0.616394,7.0420837-1.8480835c1.3652039-1.8963013,3.1376038-2.8435974,5.3174133-2.8435974
	c3.0657959,0,4.598999,0.6160889,4.598999,1.8479919c-0.0960083,0.1896973-1.2458191,0.6635132-3.4492188,1.4217834
	c0,0.213501,1.6286011,0.734314,4.8864136,1.564209h0.1437073v-1.8486938l0.1437073-1.7056885
	c-0.8865051-1.327301-3.0422058-1.9906006-6.4673157-1.9906006c-2.6109924,0-4.5752869,0.473877-5.8923035,1.4217834
	c-1.2215881,2.0848999-3.569397,3.127594-7.0420837,3.127594c-0.2156067-0.0470886-0.6950073-0.9003906-1.4372253-2.5587769
	v-0.1421204c0.2874146,0,0.4312134,0.189209,0.4312134,0.5688171h0.2874146
	c1.9159851-1.6121216,3.7842712-2.4172974,5.6048889-2.4172974v-0.2844238h-0.1437073l-0.1437073-0.1420898
	c-1.7728882,0-3.5451965-0.8052063-5.3174744-2.4165039l-0.8623047,0.7106934
	c0.287384-0.9475708,0.7662964-1.8483887,1.4371948-2.7014771c2.6103821,0,4.5270081,0.4744873,5.7485962,1.4216919
	c1.3169861,2.0852051,3.6647949,3.1276855,7.0421143,3.1276855c3.8561707,0,6.1079712-0.7105713,6.7546997-2.1324768
	l-0.1437073-1.5638123v-1.8479004l-0.1437073-0.1424866l-4.8864136,1.5637817v0.1422119
	c2.2033997,0.710907,3.3532104,1.1852112,3.4492188,1.4220886c0,1.2321167-1.4855042,1.8480225-4.4552002,1.8480225
	c-1.7488098,0-2.9945068-0.3788147-3.7366028-1.1373291c-1.7728882-2.3690796-4.6950073-3.5541992-8.7666931-3.5541992
	l0.5747986-0.8531799v-0.2845154l-12.6470032-5.4024048h-0.1437073V266.0426941z M333.9865723,272.0137939l-1.8683167,4.4073181
	h-0.287384l-1.4371948-3.4121094l1.5808716-2.5593872L333.9865723,272.0137939z M351.9511719,273.0090027l-1.4371948,3.4121094
	h-0.2874146l-1.8682861-4.2651978l1.8682861-1.7062988C350.3938599,270.4735107,350.96875,271.3265991,351.9511719,273.0090027
	L351.9511719,273.0090027z M293.3148804,274.1463013v0.28479l5.6049805,0.7104187v0.1424866
	c-4.5513,0.5684204-8.8150024,0.8527222-12.790802,0.8527222c-2.1557922-1.3268127-4.6949158-1.9904175-7.6169739-1.9904175
	c-6.5632324,0-10.395813,0.9483032-11.4973145,2.8434143L64.5632706,277.132019l-0.2873993-0.2846069v-0.1417236
	c0-0.1895752,0.5264969-0.4270935,1.5808029-0.7109985v-0.1422729c0-0.1656189-0.7667999-0.4028015-2.2994003-0.710907
	l-0.2875023,1.7059021l0.2875023,0.4267883l-8.6230011-1.1374817l-0.2875023,0.2843933v1.2793884l-0.4310989-0.1420898
	c-1.5331993-0.1653137-3.0181007-0.9238892-4.4552002-2.2744141c-0.9583015,1.1849976-2.8743019,2.0379028-5.7486,2.5585938
	v0.2844238l1.1497002,0.1420898c2.8743019,0.8294067,4.3115005,1.5874023,4.3115005,2.2752075h0.2873993
	c1.8199997-1.5169067,3.400898-2.2752075,4.7425995-2.2752075h0.1436996v1.4219971l0.1438026,0.1419067l8.6229973-1.1375122
	h0.1437035l-0.2875023,0.5692139l0.2875023,1.5636902c1.5326004-0.2611084,2.2994003-0.4978027,2.2994003-0.7107849v-0.1421204
	c-1.054306-0.2612915-1.5808029-0.497406-1.5808029-0.7107849v-0.28479l0.1436996-0.1419067l202.4514923,0.1419067
	c1.293396,1.8957825,5.1255188,2.8433838,11.4972839,2.8433838c3.2095337,0,5.7487183-0.663208,7.6170044-1.9902954
	c6.3235168,0.1896057,10.6350098,0.473999,12.9345093,0.8529968v0.142395l-5.6049805,0.710907v0.2839966l8.7666931,1.8486938
	l0.287384-0.2846069v-2.1326904l5.4613037,0.7109985l0.2874146-0.2840881v-3.2701111l-0.1437073-0.142395l-7.0421143,0.853302
	c-2.9461975-0.6639099-6.0602112-0.9953918-9.3415833-0.9953918h-1.4371948c-2.7789307,0-4.838623,0.2844849-6.1798096,0.8529053
	l-17.9645081-0.8529053v-0.1419067c0-0.2133179,5.9878235-0.5448914,17.9645081-0.9953918
	c1.3411865,0.5686951,3.4008789,0.8528748,6.1798096,0.8528748h1.2934875c3.5210876,0,6.5868225-0.3314819,9.1978149-0.9951782
	l7.1858826,0.8530884l0.2874146-0.2841797v-3.2700195l-0.1437073-0.1423035l-5.605011,0.710907v-2.2744141l-0.1437073-0.1420898
	L293.3148804,274.1463013z M379.9758606,272.5823975v2.1325073l-5.605011-0.710907v0.1423035l-0.1436768,0.1419067v3.2702026
	l0.1436768,0.1420898l7.0421143-0.8530884c3.041687,0.6636963,6.2034912,0.9951782,9.4852905,0.9951782h1.2935181
	c2.7782898,0,4.8381042-0.2841797,6.1797791-0.8528748l1.4371033,0.1423035
	c11.0179138,0.2610779,16.5274048,0.5926819,16.5274048,0.9949951l-17.9645081,0.8529053
	c-1.3416748-0.5684204-3.4014893-0.8529053-6.1797791-0.8529053h-1.4372253c-3.4255981,0-6.491272,0.3314819-9.1977844,0.9953918
	l-7.0421143-0.853302l-0.2874756,0.2844849v3.2697144l0.1436768,0.142395l5.605011-0.7109985v2.2749939l0.1437073,0.1423035
	l8.9104004-1.8486938v-0.2839966l-5.6049194-0.710907v-0.142395c2.299408-0.3789978,6.6109009-0.6633911,12.9345093-0.8529968
	c1.8919067,1.3270874,4.3833008,1.9902954,7.4732056,1.9902954c5.7963867,0,9.4370117-0.7106934,10.9224854-2.1322021
	c0-0.5686951,205.3759766-0.8530884,208.5378418-0.8530884c0.2873535,0,0.4310303,0.0941772,0.4310303,0.2843933v0.1423035
	c0,0.2133789-0.5270996,0.4494934-1.5808105,0.7107849v0.1421204c0,0.1893921,0.7185059,0.4266968,2.1556396,0.7107849
	c0.1915283,0,0.3352051-0.5686951,0.4311523-1.7059937l-0.2873535-0.4269104l8.7667236,1.1375122v-0.1419067l0.1436768-0.1423035
	v-1.2796936h0.1436768c1.3411865,0,2.9221191,0.7583008,4.7426758,2.2752075h0.2874756l0.1436768-0.4266968
	c1.9637451-1.327301,3.7365723-1.9906006,5.3175049-1.9906006v-0.2844238
	c-2.8742676-0.5206909-4.7908936-1.3735962-5.7486572-2.5585938c-1.8682861,1.6112976-3.4974365,2.4165039-4.8863525,2.4165039
	v-1.4219055l-0.1436768-0.1418762l-8.6230469,1.1374817h-0.1436768l0.2873535-0.568512l-0.2873535-1.5641785
	c-1.5330811,0.3081055-2.2994385,0.5452881-2.2994385,0.710907v0.1422729
	c1.0537109,0.283905,1.5808105,0.5214233,1.5808105,0.7109985v0.1417236l-0.2874756,0.2846069l-207.9628906-0.1423035h-0.1437073
	c-1.1496887-1.8951111-4.9346008-2.8434143-11.3535767-2.8434143c-3.1859131,0-5.7250061,0.6636047-7.6169128,1.9904175
	c-4.0960083,0-8.4075012-0.2843018-12.9345093-0.8527222V275.14151l5.4612122-0.7104187h0.1437073v-0.28479l-8.6230164-1.8479004
	C380.1195679,272.2984009,379.9758606,272.3931885,379.9758606,272.5823975L379.9758606,272.5823975z M269.1704712,276.5632019
	c0.8381958-1.1374817,3.4251099-1.7059937,7.7606812-1.7059937h1.006012c2.1316223,0,3.6647949,0.4747009,4.598999,1.4213867
	l-13.5093994,0.5688171h-0.1437073L269.1704712,276.5632019z M404.4076538,274.8572083h1.5808105
	c4.047699,0,6.5391846,0.6634827,7.4732971,1.9902039l-13.6531067-0.5688171
	C400.7428589,275.3319092,402.2754517,274.8572083,404.4076538,274.8572083L404.4076538,274.8572083z M297.7700806,276.4211121
	h0.1436768v0.1420898c-1.7728882,0.3792114-4.1199951,0.6162109-7.0421143,0.7109985l-3.1616821-0.2844849v-0.1423035
	L297.7700806,276.4211121z M384.7184753,276.4211121l9.9164734,0.4263v0.1423035l-3.1617737,0.2844849
	c-2.9226074-0.0947876-5.2698059-0.3317871-7.0421143-0.7109985v-0.1420898H384.7184753z M290.8716431,278.6954956
	c2.9698181,0.0948181,5.317627,0.3319092,7.0421143,0.7111206v0.1421814h-0.1436768l-10.0601196-0.4263916v-0.1424866
	L290.8716431,278.6954956z M391.473175,278.6954956l3.1617737,0.2844238v0.1424866l-10.0601807,0.4263916h-0.1437073v-0.1421814
	C386.1556702,279.0274048,388.5028687,278.7903137,391.473175,278.6954956L391.473175,278.6954956z M282.5361633,279.6911011
	c-0.9342041,0.9476013-2.4673767,1.4215088-4.598999,1.4215088h-1.58078c-4.0959167,0-6.5874023-0.6636963-7.4733276-1.9902039
	L282.5361633,279.6911011z M413.3180542,279.122406h0.1437073v0.1423035l-0.1437073,0.1419067
	c-1.0778809,1.1376953-3.6647949,1.7059937-7.7606812,1.7059937h-1.1497192c-2.1322021,0-3.6647949-0.4739075-4.598999-1.4215088
	L413.3180542,279.122406z M332.1182556,279.2647095l2.0121155,4.4072876l-2.0121155,1.848114l-1.8682861-2.7012024
	C331.3278503,280.4489136,331.95047,279.2647095,332.1182556,279.2647095L332.1182556,279.2647095z M352.0948486,282.8189087
	l-1.7245789,2.7012024l-2.0119934-1.7062073h-0.1437073l2.0119934-4.5491943
	C350.3938599,279.2647095,351.0169678,280.4489136,352.0948486,282.8189087L352.0948486,282.8189087z"/>
</svg>
