<?xml version="1.0" encoding="utf-8"?>
<!-- Generator: Adobe Illustrator 19.1.0, SVG Export Plug-In . SVG Version: 6.00 Build 0)  -->
<svg version="1.1" id="Layer_1" xmlns="http://www.w3.org/2000/svg" xmlns:xlink="http://www.w3.org/1999/xlink" x="0px" y="0px"
	 width="602px" height="45px" viewBox="0 0 602 45" style="enable-background:new 0 0 602 45;" xml:space="preserve">
<style type="text/css">
	.st0{fill:#6D3F40;}
</style>
<path class="st0" d="M295.9278259,15.6025677l-6.9642334,6.7734642h-0.09552
	c-0.6838379-1.4943905-2.7189026-2.3529797-6.1056519-2.5759029h-0.6676636c-1.8763428,0-3.4982605,0.38167-4.8655396,1.1448765
	c-1.4470215-2.4805202-4.5634766-3.720644-9.3492126-3.720644c-1.2085266,0-2.7033081,0.1274052-4.4838562,0.3815365h-7.0596008
	v0.1909027l5.3424377,2.4803829l0.4768982-0.0953846c2.5281677-1.3356419,4.1179199-2.0034637,4.7701416-2.0034637h1.812561
	l2.0988464,0.1907673c3.1161804,0.9223595,4.6746216,2.3217716,4.6746216,4.1976967v0.1907673h-32.913208
	c-3.0372162,0-5.7401123-0.222517-8.1091003-0.6678219v-0.4769173h0.0953827c0-0.4132843,3.8793945-0.6678219,11.6389771-0.7632065
	c0.1269989,0,0.2223816,0.3499222,0.2861481,1.0493565l13.0698853-1.3356438h0.0953674v-0.1907673h-11.4480743
	c-12.5294495,0-18.7938385,0.4770546-18.7938385,1.4310284v2.7665329c0,0.9541092,7.5682831,1.4310284,22.705246,1.4310284
	h7.7274323v-0.1907692l-13.3560181-1.3356419v0.0953827l-0.0953827,0.09552v0.7632046h-2.6712799
	c-6.169281,0-9.2538452-0.2862854-9.2538452-0.8587246v-0.28615c1.2242432-0.5090752,6.4712982-0.7632065,15.7411499-0.7632065
	h25.0903931l0.1907654,0.1907673v0.3816719c-0.7154541,2.7345123-3.1642151,4.1021767-7.3458862,4.1021767h-0.8586121
	c-1.1768799,0-2.957428-0.6998425-5.3424377-2.0988483l-5.6285706,2.5759029v0.1907673h7.727417l4.2930908,0.28615
	c4.5154724,0,7.4411621-1.2401237,8.7767944-3.7205067c1.4626465,0.7632065,3.0207825,1.1447411,4.6746216,1.1447411h1.049469
	c2.7983093,0,4.833374-0.8585892,6.1056519-2.5757675l3.4343567,3.3389721
	c2.1304626,2.2896156,3.3707275,3.4344921,3.7206421,3.4344921h0.1907654l7.0596008-6.8688469v0.0953827
	c1.2242737,1.7171783,3.2593384,2.5757675,6.1056519,2.5757675h1.0494995c1.7327881,0,3.2275696-0.3815346,4.4838562-1.1447411
	c1.5263977,2.4803829,4.4516907,3.7205067,8.7767639,3.7205067l4.3884888-0.28615h7.727417v-0.1907673l-5.5332031-2.5759029
	l-2.0988464,1.0494919c-1.1291199,0.6994362-2.4327698,1.0493565-3.9114075,1.0493565h-0.2861633
	c-1.5585632,0-2.957428-0.2227879-4.1976929-0.6678219c-2.0988464-1.0015965-3.1481934-2.2418556-3.1481934-3.7206421v-0.0953846
	l0.1907654-0.1907673h25.0903931c9.2695923,0,14.5164795,0.2541313,15.7411499,0.7632065v0.28615
	c0,0.5724392-3.0849915,0.8587246-9.2538452,0.8587246h-2.6712952v-0.8587246l-0.0953674-0.0953827l-13.2606506,1.3356419h-0.09552
	v0.1907692h7.7275696c15.1365662,0,22.7052612-0.4769192,22.7052612-1.4310284v-2.7665329
	c0-0.9539738-6.2646484-1.4310284-18.7938538-1.4310284H332.561676v0.1907673l13.1652527,1.3356438l0.1907654-1.0493565h0.1907654
	c6.5028992,0,10.3827209,0.2545376,11.6389771,0.7632065v0.4769173c-2.3693848,0.4453049-5.0722961,0.6678219-8.1091003,0.6678219
	h-32.913208v-0.1907673l0.0953979-0.4770546c0.8743286-2.6075153,3.1005554-3.9114094,6.6780701-3.9114094h1.9079285
	c0.4926758,0,2.1466064,0.6998425,4.960907,2.0988483l5.5332031-2.4803829v-0.1909027h-7.0596008
	c-1.860321-0.2541313-3.2913513-0.3815365-4.2930908-0.3815365c-5.0561523,0-8.2044983,1.2401237-9.4446106,3.720644
	c-1.4310303-0.7632065-2.9894409-1.1448765-4.6746216-1.1448765h-0.6678162c-3.1803589,0-5.3108215,0.8907452-6.3919373,2.6712856
	l-4.4837036-4.388464c-1.4787903-1.6535435-2.401123-2.4803829-2.7666626-2.4803829H295.9278259z M292.3025513,22.3760319
	c0.7472229-2.035078,1.955719-3.0528221,3.6252747-3.0528221h1.0493469
	c2.0350952,0.7154465,3.0528259,1.9557056,3.0528259,3.7205086v0.8587246
	c-0.7154541,2.0987129-1.9556885,3.1482048-3.7206421,3.1482048h-0.2861633c-0.5568237,0-1.0654907-0.1275406-1.5263977-0.3816719
	c-1.4630432-0.7952251-2.1942444-1.8763313-2.1942444-3.2435875V22.3760319z M293.6382141,22.852951v0.66782
	c0,1.0811062,0.7632141,1.8125629,2.2896118,2.1942329h0.4769287c1.1448669,0,1.9080811-0.7632046,2.2896118-2.2896156v-0.4770546
	c-0.3659363-1.5264111-1.0971375-2.2896156-2.1942444-2.2896156h-0.6676941
	C294.735321,20.6587181,294.0037231,21.3903103,293.6382141,22.852951L293.6382141,22.852951z M282.0947571,21.0403881h0.4768982
	c1.0017395,0,2.0190735,0.2227879,3.0528259,0.6678219v0.0953846l-7.4412842,0.7632046v-0.0953846
	C279.0257874,21.5173073,280.3298035,21.0403881,282.0947571,21.0403881L282.0947571,21.0403881z M309.7608948,21.0403881h0.4769287
	c1.860321,0,3.1639404,0.5090752,3.9115295,1.5264111l-7.4412842-0.7632046V21.70821
	C307.7254028,21.263176,308.7431641,21.0403881,309.7608948,21.0403881L309.7608948,21.0403881z M200.9087219,23.0437183v0.1909027
	l12.2112885,1.2401237l12.2112732-1.2401237v-0.1909027l-12.0205078-1.1447411L200.9087219,23.0437183z M366.9058838,23.0437183
	v0.1909027l12.2113037,1.2401237l12.2112732-1.2401237v-0.1909027l-12.2112732-1.1447411L366.9058838,23.0437183z
	 M285.6244812,24.5701275v0.09552c-1.0017395,0.4448986-1.9877319,0.6676865-2.957428,0.6676865h-0.6678162
	c-1.7331848,0-3.0050659-0.4769192-3.81604-1.430891v-0.09552L285.6244812,24.5701275z M314.053833,23.8069229h0.09552
	c-0.7315674,1.0174713-2.0034485,1.5264111-3.8160095,1.5264111h-0.6678162c-1.2722778,0-2.2580261-0.2544022-2.9574585-0.7632065
	L314.053833,23.8069229z"/>
</svg>
