<?xml version="1.0" encoding="utf-8"?>
<!-- Generator: Adobe Illustrator 19.1.0, SVG Export Plug-In . SVG Version: 6.00 Build 0)  -->
<svg version="1.1" id="Layer_1" xmlns="http://www.w3.org/2000/svg" xmlns:xlink="http://www.w3.org/1999/xlink" x="0px" y="0px"
	 width="99px" height="22px" viewBox="-206 246 99 22" style="enable-background:new -206 246 99 22;" xml:space="preserve">
<style type="text/css">
	.st0{fill:#6D3F40;}
</style>
<path class="st0" d="M-108.1712036,256.7191162c-0.1074677-0.1560669-0.2603912-0.2604065-0.2603912-0.2604065v-0.130188
	c0-0.1734009,0.4770203-0.3905792,1.4315948-0.6509552v-0.1302032c0-0.151535-0.6941833-0.3686981-2.0825577-0.6509552
	l-0.2603912,1.5623016l0.2603912,0.3905945l-7.8105316-1.0415497l-0.2603912,0.2603912v1.1717224l-0.3905792-0.1307068
	c-1.3889084-0.151001-2.7335281-0.8457336-4.0354538-2.0825653c-0.8681335,1.0853119-2.6038666,1.8664703-5.2071991,2.3429413
	v0.260376l1.0415421,0.1302185c2.6033325,0.7597961,3.9052658,1.4534607,3.9052658,2.0830688h0.2603912
	c1.6482239-1.3888855,3.0803528-2.0830688,4.295845-2.0830688h0.130188v1.3019104l0.1301956,0.1302185l7.8105316-1.0415649
	h0.1301956l-0.2603912,0.5207825l0.2603912,1.4321289C-107.6941833,259.864563-107,259.6479187-107,259.4526367v-0.130188
	c-0.9545746-0.2390442-1.4315948-0.4551392-1.4315948-0.6509705v-0.2604065c0,0,0.053894-0.0531311,0.1301956-0.130188
	C-107.8575592,257.8326721-107.7920532,257.2696838-108.1712036,256.7191162z"/>
<path class="st0" d="M-148.178421,250.9468079v0.2603912l0.5207672,0.7811584c-2.6689606,0-4.7515259,0.5207672-6.2487488,1.5617828
	c-1.3013916,1.8227081-2.9506836,2.7340698-4.9468079,2.7340698c-2.7772827,0-4.1656494-0.5639954-4.1656494-1.6925201
	c0.086441-0.216629,1.1279755-0.6509705,3.1246338-1.3019257l-4.4260406-1.5617981v0.1302032l-0.130188,0.130188v1.5617828
	l-0.1302032,1.5623169c0.8243866,1.2154846,2.7767487,1.8221741,5.8576355,1.8221741
	c2.5601196,0,4.3390656-0.4764709,5.3374023-1.4315796c1.2149506-1.8227081,3.2975159-2.7335358,6.2487335-2.7335358
	c0.3905792,0,0.9108276,0.7806244,1.5617981,2.3429413v0.1302032l-0.7811584-0.6509705l-0.5202484,0.5207672
	c-0.8462524,0.8249207-2.3653564,1.4321289-4.5562286,1.8221741v0.2604065c1.6482239,0,3.340744,0.737915,5.0764771,2.2132568
	h0.260376c0.0432281-0.3473511,0.1734161-0.520752,0.3905792-0.520752l-1.1712036,2.4731445
	c-2.9730988,0-4.968689-0.7374268-5.9883575-2.2127686c-0.9113464-1.3019409-2.8637238-1.9528809-5.8581696-1.9528809
	c-3.2980499,0-5.250412,0.6509399-5.8576355,1.9528809l0.1302032,1.4321289v1.6919861
	c0.3905792,0,1.9086151-0.4338074,4.5562286-1.3013916v-0.1302185c-1.9966583-0.6947021-3.0381927-1.1285095-3.1246338-1.3019104
	c0-1.12854,1.3451538-1.6925354,4.0354614-1.6925354c1.4102478,0,2.5387573,0.3036194,3.385025,0.911377
	c1.5180206,2.2565002,4.1656494,3.384491,7.9407196,3.384491v0.130188l-0.5207672,0.6509705
	c0.7592773,0.4989014,4.5775757,2.1914062,11.4553986,5.0769958h0.1302032v-0.130188l-0.2603912-0.3905945
	c-3.0808868-3.8401489-5.1639709-7.1382141-6.2482147-9.8936157c0.6941833-0.260376,1.3446198-0.390564,1.9523773-0.390564
	v-0.2604065l-2.0825653-0.5202332c0.6723022-2.0830994,2.8850555-5.5108032,6.6387939-10.2842102V246L-148.178421,250.9468079z
	 M-142.3208008,251.5977783l-1.6919708,4.0354614h-0.2603912l-1.3019257-3.124115l1.4321136-2.3434753L-142.3208008,251.5977783z
	 M-203.1130676,257.9761963c1.1712036,1.7357178,4.6426697,2.6038513,10.4138641,2.6038513
	c2.9074707,0,5.2071991-0.6077576,6.899704-1.8226929c5.7274475,0.1734009,9.6327057,0.4337769,11.7158051,0.7811584v0.130188
	l-5.0770111,0.6509705v0.260376l7.9407349,1.6919861l0.260376-0.2598572v-1.9529114l4.9468231,0.6509705l0.260376-0.260376
	v-2.9944458l-0.130188-0.130188l-6.3784027,0.7811584c-2.6689606-0.6077576-5.4894714-0.9113464-8.4615021-0.9113464h-1.3019257
	c-2.5174255,0-4.3828278,0.260376-5.5977783,0.7811584l-16.2720337-0.7811584v-0.1296692
	c0-0.195282,5.4238281-0.4989014,16.2720337-0.9113464c1.2149506,0.5202332,3.0803528,0.7806091,5.5977783,0.7806091h1.1717377
	c3.1891937,0,5.9659424-0.3030701,8.3312988-0.9108276l6.508606,0.7811584l0.260376-0.260376v-2.9944458l-0.130188-0.130188
	l-5.0770111,0.6509705v-2.0825653l-0.130188-0.130188l-8.0709229,1.6919708v0.2603912l5.0770111,0.6509705v0.130188
	c-4.1224365,0.5207672-7.9844818,0.7811584-11.5856018,0.7811584c-1.9528961-1.2149506-4.2526245-1.8227081-6.8997192-1.8227081
	c-5.9445953,0-9.4160767,0.8681335-10.4138641,2.6038818c-0.3109131,0.4457703-2.4876251,0.9095154-3.0171204,1.0122375
	C-204.4931793,257.468811-203.1130676,257.9761963-203.1130676,257.9761963z M-201.0305176,255.7634277
	c0.7592926-1.0415497,3.1027679-1.5623169,7.0299072-1.5623169h0.9108276c1.931015,0,3.319931,0.4343262,4.1656494,1.3019409
	l-12.2365723,0.520752h-0.130188L-201.0305176,255.7634277z M-175.1252441,255.6332397h0.130188v0.130188
	c-1.6055298,0.3473511-3.731842,0.5645142-6.3784027,0.6509705l-2.8642426-0.260376v-0.1302185L-175.1252441,255.6332397z
	 M-181.3734589,257.7157898c2.6897736,0.0864563,4.8166199,0.3036194,6.3784027,0.6509705v0.130188h-0.130188l-9.1124573-0.390564
	v-0.130188L-181.3734589,257.7157898z M-188.9241333,258.6271362c-0.8457184,0.8676147-2.2346344,1.3019409-4.1656494,1.3019409
	h-1.4315948c-3.7099762,0-5.9670105-0.6077271-6.769516-1.8226929L-188.9241333,258.6271362z M-144.0127716,258.2365723
	l1.8221741,4.0354614l-1.8221741,1.6925049l-1.6925201-2.4731445
	C-144.7288361,259.3213501-144.1648407,258.2365723-144.0127716,258.2365723L-144.0127716,258.2365723z"/>
</svg>
